<svg width="32" height="32" viewBox="0 0 32 32" fill="none" xmlns="http://www.w3.org/2000/svg">
<path d="M21.292 21C22.6743 21 24.0964 21.5961 25.124 22.8535L25.1943 22.9395L25.1094 23.0107L23.7334 24.1621L23.6465 24.2344L23.5742 24.1475C22.9828 23.4275 22.2184 22.9971 21.292 22.9971C20.5205 22.9972 19.846 23.2834 19.3643 23.792C18.8822 24.3009 18.5859 25.0402 18.5859 25.9551C18.586 26.803 18.8694 27.5249 19.3486 28.0342C19.8274 28.5429 20.5085 28.8457 21.3193 28.8457C22.258 28.8456 23.0486 28.3775 23.6006 27.6973L23.6729 27.6064L23.7607 27.6826L25.124 28.8594L25.2051 28.9307L25.1377 29.0146C24.3117 30.0437 23.0109 30.8309 21.3193 30.8311C19.986 30.8311 18.7593 30.4061 17.8652 29.5801C16.9699 28.7528 16.4161 27.5309 16.416 25.9551C16.416 24.5884 16.8549 23.3481 17.6875 22.4492C18.5212 21.5495 19.7427 21.0001 21.292 21ZM12.334 21.1914L15.8262 30.5869L15.8828 30.7373H13.6953L13.6699 30.6621L13.0479 28.8594H9.60938L9 30.6611L8.97461 30.7373H6.78711L6.84277 30.5869L10.3232 21.1914L10.3506 21.1191H12.3066L12.334 21.1914ZM10.2148 27.0469H12.4414L11.3281 23.7891L10.2148 27.0469Z" fill="#000"/>
<path d="M12.9336 4.41821L19.0584 15.0267" stroke="#000" stroke-width="2" stroke-linecap="round"/>
<path d="M12.9336 4.41821L10.01 3.63163" stroke="#000" stroke-width="2" stroke-linecap="round"/>
<path d="M12.9443 4.4126L13.7249 1.48744" stroke="#000" stroke-width="2" stroke-linecap="round"/>
<path d="M19.0586 15.0267L18.278 17.9518" stroke="#000" stroke-width="2" stroke-linecap="round"/>
<path d="M19.0684 15.021L21.9919 15.8076" stroke="#000" stroke-width="2" stroke-linecap="round"/>
<path d="M19.0557 4.41541L12.9309 15.0239" stroke="#000" stroke-width="2" stroke-linecap="round"/>
<path d="M19.0557 4.41541L18.2751 1.49025" stroke="#000" stroke-width="2" stroke-linecap="round"/>
<path d="M19.0664 4.42084L21.99 3.63426" stroke="#000" stroke-width="2" stroke-linecap="round"/>
<path d="M12.9316 15.0237L10.0081 15.8103" stroke="#000" stroke-width="2" stroke-linecap="round"/>
<path d="M12.9414 15.0292L13.722 17.9544" stroke="#000" stroke-width="2" stroke-linecap="round"/>
<path d="M22.1162 9.71436L9.86662 9.71435" stroke="#000" stroke-width="2" stroke-linecap="round"/>
<path d="M22.1162 9.71436L24.2592 7.57578" stroke="#000" stroke-width="2" stroke-linecap="round"/>
<path d="M22.1162 9.72534L24.2592 11.8639" stroke="#000" stroke-width="2" stroke-linecap="round"/>
<path d="M9.86621 9.71429L7.72324 7.57572" stroke="#000" stroke-width="2" stroke-linecap="round"/>
<path d="M9.86621 9.72528L7.72324 11.8639" stroke="#000" stroke-width="2" stroke-linecap="round"/>
</svg>
