<svg xmlns="http://www.w3.org/2000/svg" width="24" height="24" baseProfile="full" viewBox="0 0 24 24"><path d="M12 15.5c-2.5 0-4.6 1.5-5.5 3.7l-1.4-.6C6.2 15.9 8.9 14 12 14c3.2 0 5.9 2 6.9 4.8l-1.4.5c-.8-2.2-3-3.8-5.5-3.8z"/><path d="M12 2C6.5 2 2 6.5 2 12s4.5 10 10 10 10-4.5 10-10S17.5 2 12 2zm0 18.5c-4.7 0-8.5-3.8-8.5-8.5S7.3 3.5 12 3.5s8.5 3.8 8.5 8.5-3.8 8.5-8.5 8.5z"/><path d="M16.5 10c0 2.5-2 4.5-4.5 4.5s-4.5-2-4.5-4.5 2-4.5 4.5-4.5 4.5 2 4.5 4.5zM12 13c1.7 0 3-1.3 3-3s-1.3-3-3-3-3 1.3-3 3 1.3 3 3 3z"/></svg>
