<svg width="32" height="32" viewBox="0 0 32 32" fill="none" xmlns="http://www.w3.org/2000/svg">
<path d="M27.8089 8.7212L23.9872 6.53421L20.1103 4.31409C17.5477 2.84505 14.3446 4.68963 14.3446 7.6498V8.14684C14.3446 8.42298 14.4882 8.67702 14.7312 8.80956L16.5316 9.83679C17.0286 10.124 17.6471 9.75947 17.6471 9.18511V8.00325C17.6471 7.41785 18.2767 7.05335 18.7848 7.34053L22.3194 9.37288L25.8428 11.3942C26.3509 11.6814 26.3509 12.4214 25.8428 12.7086L22.3194 14.7299L18.7848 16.7622C18.2767 17.0494 17.6471 16.6849 17.6471 16.0995V15.5141C17.6471 12.554 14.444 10.6983 11.8815 12.1784L8.01556 14.4096L4.19385 16.5966C1.62028 18.0767 1.62028 21.799 4.19385 23.279L8.01556 25.466L11.8925 27.6861C14.455 29.1552 17.6582 27.3106 17.6582 24.3504V23.8534C17.6582 23.5773 17.5146 23.3232 17.2716 23.1907L15.4712 22.1635C14.9742 21.8763 14.3556 22.2408 14.3556 22.8151V23.997C14.3556 24.5824 13.726 24.9469 13.2179 24.6597L9.68342 22.6274L6.15994 20.606C5.65185 20.3189 5.65185 19.5788 6.15994 19.2916L9.68342 17.2703L13.2179 15.238C13.726 14.9508 14.3556 15.3153 14.3556 15.9007V16.4861C14.3556 19.4463 17.5588 21.3019 20.1213 19.8218L23.9983 17.6017L27.82 15.4147C30.3825 13.9236 30.3825 10.2013 27.8089 8.7212Z" fill="#000"/>
</svg>
