<svg width="32" height="32" viewBox="0 0 32 32" fill="none" xmlns="http://www.w3.org/2000/svg">
<rect x="3" y="3" width="26" height="26" rx="3" fill="#000" stroke="#000" stroke-width="2"/>
<path d="M26.3126 9.64268L22.9748 7.73262L19.5887 5.79361C17.3507 4.51059 14.5531 6.12161 14.5531 8.70694V9.14105C14.5531 9.38222 14.6785 9.60409 14.8908 9.71985L16.4632 10.617C16.8973 10.8678 17.4375 10.5495 17.4375 10.0478V9.01564C17.4375 8.50436 17.9874 8.18602 18.4311 8.43683L21.5181 10.2118L24.5954 11.9772C25.0392 12.228 25.0392 12.8744 24.5954 13.1252L21.5181 14.8905L18.4311 16.6655C17.9874 16.9164 17.4375 16.598 17.4375 16.0867V15.5755C17.4375 12.9901 14.6399 11.3695 12.4019 12.6621L9.02552 14.6108L5.68773 16.5208C3.44003 17.8135 3.44003 21.0645 5.68773 22.3571L9.02552 24.2672L12.4115 26.2062C14.6496 27.4892 17.4472 25.8782 17.4472 23.2929V22.8588C17.4472 22.6176 17.3218 22.3957 17.1095 22.28L15.5371 21.3828C15.103 21.132 14.5628 21.4503 14.5628 21.952V22.9842C14.5628 23.4955 14.0129 23.8138 13.5692 23.563L10.4822 21.788L7.40486 20.0226C6.9611 19.7718 6.9611 19.1255 7.40486 18.8747L10.4822 17.1093L13.5692 15.3343C14.0129 15.0835 14.5628 15.4018 14.5628 15.9131V16.4244C14.5628 19.0097 17.3603 20.6304 19.5984 19.3377L22.9844 17.3987L26.3222 15.4886C28.5603 14.1863 28.5603 10.9354 26.3126 9.64268Z" fill="white"/>
</svg>
