<svg xmlns="http://www.w3.org/2000/svg" width="24" height="24" viewBox="0 0 24 24"><path fill-rule="evenodd" d="M12.47 10.848v.001l-1.054-1.817c-.237-.407-.49-.807-.7-1.23a1.899 1.899 0 011.708-2.78c3.23-.026 6.46-.029 9.69-.01a1.879 1.879 0 011.838 2.299 3.181 3.181 0 01-.354.85c-1.498 2.614-3.007 5.225-4.513 7.835-.081.14-.173.278-.273.406-.896 1.16-2.472 1.084-3.226-.17-.635-1.057-.909-1.568-1.523-2.638-.05-.09-.114-.17-.162-.298l2.48-1.44c.295.502.222.39.499.835.269.43.494.43.752-.01a388.152 388.152 0 002.393-4.152c.238-.42.123-.622-.35-.624a398.62 398.62 0 00-4.791.004c-.55.003-.65.193-.384.675.25.457.184.34.459.823l-2.489 1.441zm-7.18 8.064v.002c-1.03 0-3.02.016-3.486-.013A1.884 1.884 0 01.268 16.05a683.976 683.976 0 014.82-8.318 1.863 1.863 0 012.887-.433c.219.214.405.46.552.727 1.498 2.59 2.986 5.183 4.474 7.777.081.14.152.286.214.436.546 1.345-.303 2.66-1.753 2.682h-3.36v-2.874h.964c.504-.016.617-.208.367-.649-.781-1.379-1.576-2.75-2.37-4.123-.26-.451-.472-.416-.71-.01a385.621 385.621 0 00-2.384 4.113c-.268.472-.156.665.39.665.537 0 .933.004.933.004l-.003 2.865z"/></svg>