<svg width="32" height="32" viewBox="0 0 32 32" fill="none" xmlns="http://www.w3.org/2000/svg">
<path d="M15.002 17.7797C13.588 18.3435 12.0077 18.3221 10.6092 17.7209C9.2107 17.1197 8.10865 15.9874 7.54484 14.5734L7.15783 13.6028L17.8209 9.35108L18.2079 10.3217C18.7717 11.7357 18.7503 13.3159 18.1491 14.7145C17.5479 16.113 16.416 17.2159 15.002 17.7797ZM14.228 15.8385C15.1273 15.4799 15.847 14.7788 16.2294 13.8893C16.4707 13.3278 16.5656 12.7206 16.5122 12.1228L10.0137 14.714C10.3863 15.1845 10.873 15.5599 11.4344 15.8012C12.3239 16.1836 13.3286 16.1971 14.228 15.8385Z" fill="#000"/>
<path d="M9.17476 8.83086C8.26421 7.61096 7.87592 6.07899 8.09465 4.57252C8.3134 3.06608 9.12188 1.70852 10.3418 0.79796L11.1791 0.172919L18.0458 9.37223L17.2084 9.99727C15.9885 10.9079 14.4566 11.2961 12.9501 11.0774C11.4436 10.8587 10.0854 10.0508 9.17476 8.83086ZM10.8495 7.58078C11.4287 8.35667 12.2922 8.8704 13.2503 9.00951C13.8551 9.09732 14.4662 9.03183 15.0299 8.82549L10.845 3.21904C10.4869 3.70072 10.2503 4.268 10.1625 4.87276C10.0234 5.83089 10.2704 6.8049 10.8495 7.58078Z" fill="#000"/>
<path d="M23.7207 9.91255C24.6313 11.1325 25.0196 12.6644 24.8009 14.1709C24.5821 15.6773 23.7736 17.0349 22.5537 17.9454L21.7164 18.5705L14.8497 9.37118L15.6871 8.74614C16.907 7.83555 18.4389 7.44729 19.9454 7.66602C21.4519 7.88475 22.8102 8.69263 23.7207 9.91255ZM22.046 11.1626C21.4669 10.3867 20.6033 9.87301 19.6452 9.7339C19.0404 9.64609 18.4293 9.71157 17.8656 9.91792L22.0505 15.5244C22.4086 15.0427 22.6452 14.4754 22.733 13.8707C22.8721 12.9125 22.6251 11.9385 22.046 11.1626Z" fill="#000"/>
<path d="M18.9609 1.99174C20.3749 1.42795 21.9552 1.4494 23.3537 2.05057C24.7522 2.65177 25.8542 3.78405 26.418 5.19804L26.8051 6.16865L16.142 10.4204L15.755 9.44979C15.1911 8.03577 15.2126 6.45555 15.8138 5.057C16.415 3.65845 17.5469 2.55556 18.9609 1.99174ZM19.7349 3.93296C18.8356 4.29156 18.1159 4.9927 17.7335 5.88221C17.4922 6.44366 17.3972 7.05087 17.4507 7.64873L23.9492 5.05753C23.5766 4.58695 23.0899 4.21163 22.5285 3.97028C21.639 3.58792 20.6343 3.57439 19.7349 3.93296Z" fill="#000"/>
<path d="M21.292 21C22.6743 21 24.0964 21.5961 25.124 22.8535L25.1943 22.9395L25.1094 23.0107L23.7334 24.1621L23.6465 24.2344L23.5742 24.1475C22.9828 23.4275 22.2184 22.9971 21.292 22.9971C20.5205 22.9972 19.846 23.2834 19.3643 23.792C18.8822 24.3009 18.5859 25.0402 18.5859 25.9551C18.586 26.803 18.8694 27.5249 19.3486 28.0342C19.8274 28.5429 20.5085 28.8457 21.3193 28.8457C22.258 28.8456 23.0486 28.3775 23.6006 27.6973L23.6729 27.6064L23.7607 27.6826L25.124 28.8594L25.2051 28.9307L25.1377 29.0146C24.3117 30.0437 23.0109 30.8309 21.3193 30.8311C19.986 30.8311 18.7593 30.4061 17.8652 29.5801C16.9699 28.7528 16.4161 27.5309 16.416 25.9551C16.416 24.5884 16.8549 23.3481 17.6875 22.4492C18.5212 21.5495 19.7427 21.0001 21.292 21ZM12.334 21.1914L15.8262 30.5869L15.8828 30.7373H13.6953L13.6699 30.6621L13.0479 28.8594H9.60938L9 30.6611L8.97461 30.7373H6.78711L6.84277 30.5869L10.3232 21.1914L10.3506 21.1191H12.3066L12.334 21.1914ZM10.2148 27.0469H12.4414L11.3281 23.7891L10.2148 27.0469Z" fill="#000"/>
</svg>
