<svg xmlns="http://www.w3.org/2000/svg" width="40" height="40" viewBox="0 0 40 40"><g><path d="M16.668 18.077v3.846l3.33 1.922 3.33-1.922v-3.846l-3.33-1.922-3.33 1.922zm3.83-3.943l4.33 2.5a1 1 0 01.5.866v5a1 1 0 01-.5.866l-4.33 2.5a.998.998 0 01-1 0l-4.33-2.5a1.002 1.002 0 01-.5-.866v-5c0-.357.191-.687.5-.866l4.33-2.5a.998.998 0 011 0zM22.962 7.134a1 1 0 011 1.732l-3.964 2.289-3.964-2.289a1 1 0 011-1.732l2.964 1.711 2.964-1.71z"/><path d="M20 3a1 1 0 011 1v11a1 1 0 01-2 0V4a1 1 0 011-1zM17.034 33.02a1 1 0 11-1-1.731L19.998 29l3.964 2.289a1 1 0 01-1 1.732l-2.964-1.712-2.964 1.712z"/><path d="M20 24a1 1 0 011 1v11a1 1 0 01-2 0V25a1 1 0 011-1z"/><g><path d="M32.64 16.103a1 1 0 01-1 1.732l-3.964-2.289V10.97a1 1 0 012 0v3.422l2.964 1.712z"/><path d="M34.74 11.47a1 1 0 01-.366 1.367l-9.527 5.5a1 1 0 01-1-1.732l9.527-5.5a1 1 0 011.366.366z"/><g><path d="M7.259 23.912a1 1 0 11.999-1.732l3.964 2.289v4.577a1 1 0 01-2 0v-3.423l-2.964-1.71z"/><path d="M16.553 21.97a1 1 0 01-.366 1.367l-9.526 5.5a1 1 0 01-1-1.732l9.526-5.5a1 1 0 011.366.366z"/></g></g><g><path d="M29.713 28.969a1 1 0 01-2 0V24.39l3.964-2.288a1 1 0 011 1.732l-2.964 1.711-.001 3.422z"/><path d="M34.774 28.47a1 1 0 01-1.366.367l-9.527-5.5a1 1 0 011-1.732l9.527 5.5a1 1 0 01.366 1.366z"/><g><path d="M10.259 10.892a1 1 0 111.999 0v4.577l-3.964 2.288a1 1 0 01-1-1.732l2.964-1.71V10.89z"/><path d="M16.587 17.97a1 1 0 01-1.366.367l-9.526-5.5a1 1 0 011-1.732l9.526 5.5a1 1 0 01.366 1.366z"/></g></g></g></svg>
