<svg width="32" height="32" viewBox="0 0 32 32" fill="none" xmlns="http://www.w3.org/2000/svg">
<path d="M15.9893 3C13.4181 3 10.9047 3.76244 8.76685 5.1909C6.62901 6.61935 4.96277 8.64968 3.97883 11.0251C2.99489 13.4006 2.73745 16.0144 3.23906 18.5362C3.74066 21.0579 4.97879 23.3743 6.79688 25.1924C8.61496 27.0105 10.9313 28.2486 13.4531 28.7502C15.9748 29.2518 18.5887 28.9944 20.9641 28.0104C23.3396 27.0265 25.3699 25.3603 26.7984 23.2224C28.2268 21.0846 28.9893 18.5712 28.9893 16C28.9856 12.5533 27.6148 9.24882 25.1776 6.81163C22.7404 4.37445 19.436 3.00364 15.9893 3ZM14.9893 10C14.9893 9.73478 15.0946 9.48043 15.2822 9.29289C15.4697 9.10536 15.724 9 15.9893 9C16.2545 9 16.5088 9.10536 16.6964 9.29289C16.8839 9.48043 16.9893 9.73478 16.9893 10V17C16.9893 17.2652 16.8839 17.5196 16.6964 17.7071C16.5088 17.8946 16.2545 18 15.9893 18C15.724 18 15.4697 17.8946 15.2822 17.7071C15.0946 17.5196 14.9893 17.2652 14.9893 17V10ZM15.9893 23C15.6926 23 15.4026 22.912 15.1559 22.7472C14.9092 22.5824 14.717 22.3481 14.6034 22.074C14.4899 21.7999 14.4602 21.4983 14.5181 21.2074C14.576 20.9164 14.7188 20.6491 14.9286 20.4393C15.1384 20.2296 15.4057 20.0867 15.6966 20.0288C15.9876 19.9709 16.2892 20.0007 16.5633 20.1142C16.8374 20.2277 17.0716 20.42 17.2365 20.6666C17.4013 20.9133 17.4893 21.2033 17.4893 21.5C17.4893 21.8978 17.3312 22.2794 17.0499 22.5607C16.7686 22.842 16.3871 23 15.9893 23Z" fill="#000"/>
</svg>
