<svg width="24" height="24" viewBox="0 0 24 24" xmlns="http://www.w3.org/2000/svg">
<path d="M22.5004 18.342L14.2084 3.10805C13.7644 2.29205 12.9424 1.80005 12.0064 1.80005C11.0704 1.80005 10.2424 2.29205 9.79845 3.10805L1.50645 18.342C1.29645 18.72 1.19445 19.152 1.20045 19.584C1.21245 20.016 1.33245 20.442 1.55445 20.814C1.77645 21.186 2.09445 21.498 2.47245 21.708C2.85045 21.924 3.27645 22.0321 3.71445 22.0321H20.2924C20.7244 22.0321 21.1504 21.918 21.5284 21.702C21.9064 21.486 22.2244 21.18 22.4464 20.808C22.6684 20.436 22.7884 20.01 22.8004 19.578C22.8124 19.146 22.7044 18.714 22.5004 18.336V18.342ZM21.4144 20.202C21.3004 20.394 21.1324 20.5561 20.9344 20.6701C20.7364 20.7841 20.5144 20.844 20.2864 20.844H3.71445C3.48645 20.844 3.26445 20.7841 3.06645 20.6701C2.86845 20.5621 2.70645 20.4 2.58645 20.202C2.47245 20.01 2.40645 19.788 2.40045 19.56C2.40045 19.332 2.44845 19.11 2.55645 18.912L10.8484 3.68405C11.0824 3.25805 11.5144 3.00005 12.0064 3.00005C12.4984 3.00005 12.9244 3.25805 13.1584 3.68405L21.4444 18.918C21.5524 19.116 21.6064 19.338 21.6004 19.566C21.6004 19.788 21.5344 20.01 21.4144 20.202Z"/>
<path d="M12.0004 16.524C11.5684 16.524 11.2144 16.878 11.2144 17.31C11.2144 17.742 11.5684 18.096 12.0004 18.096C12.4324 18.096 12.7864 17.742 12.7864 17.31C12.7864 16.878 12.4324 16.524 12.0004 16.524Z" />
<path d="M12.6004 7.84205H11.4004V14.982H12.6004V7.84205Z" />
</svg>
