<svg xmlns="http://www.w3.org/2000/svg" width="40" height="40" viewBox="0 0 40 40"><path d="M23.645 11.362a.9.9 0 011.513.11l.67 1.239c2.137.11 3.913.314 6.276.709l.614.104a.902.902 0 01.652.485c1.736 3.49 2.969 8.44 3.38 13.568a.9.9 0 01-.634.932c-3.791 1.157-9.863 1.865-16.24 1.865-6.375 0-12.447-.708-16.239-1.865a.9.9 0 01-.634-.932c.411-5.128 1.644-10.078 3.38-13.568a.901.901 0 01.653-.485c4.221-.73 6.649-.915 12.296-.926l1.449.001c.725.003 1.382.008 1.987.017l.174.003.637-1.154zm-3.768 3.035c-5.34 0-7.778.137-11.228.682l-.851.139-.082.175C6.33 18.42 5.308 22.518 4.878 26.814l-.017.174.357.094c3.52.896 8.652 1.452 14.057 1.49l.602.003c5.624 0 11.008-.564 14.658-1.493l.356-.094-.015-.174c-.43-4.296-1.452-8.395-2.839-11.42l-.082-.175-.326-.055a53.007 53.007 0 00-4.092-.533l1.721.94.104.065.09.076a.9.9 0 01-.194 1.438l-2.67 1.456-1.428 2.668-.066.105-.075.092a.9.9 0 01-1.442-.19l-1.457-2.674-2.674-1.457-.104-.066-.09-.076a.9.9 0 01.194-1.438l2.139-1.168zm9.346 5.75a.898.898 0 011.51.113l.871 1.611 1.612.871.105.066.091.075a.9.9 0 01-.196 1.442l-1.612.87-.87 1.612-.065.104-.076.091a.9.9 0 01-1.437-.185l-.899-1.619-1.618-.873-.104-.066-.092-.075a.9.9 0 01.196-1.442l1.618-.874.9-1.618zm.708 2.412l-.23.414-.07.107a.883.883 0 01-.289.247l-.382.206.382.207.109.068a.915.915 0 01.25.286l.23.413.218-.403.055-.09a.895.895 0 01.309-.274l.382-.207-.382-.206-.09-.055a.899.899 0 01-.274-.31l-.218-.403zm-5.579-8.77l-.782 1.42-.07.108a.901.901 0 01-.287.248l-1.458.794 1.458.796.108.07a.88.88 0 01.25.289l.789 1.444.769-1.438.055-.089a.904.904 0 01.307-.276l1.459-.796-1.459-.794-.109-.07a.894.894 0 01-.251-.292l-.401-.74h-.005l-.373-.674z"/></svg>
