<svg width="32" height="32" viewBox="0 0 32 32" fill="none" xmlns="http://www.w3.org/2000/svg">
<path d="M28.3721 16.4624V8.47607C28.3721 7.9239 27.9242 7.47626 27.3721 7.47607H4.73633C4.18404 7.47607 3.73633 7.92379 3.73633 8.47607V23.2358C3.73633 23.7881 4.18404 24.2358 4.73633 24.2358H16.2773C16.8296 24.2359 17.2773 24.6836 17.2773 25.2358C17.2773 25.7881 16.8296 26.2358 16.2773 26.2358H4.73633C3.07947 26.2358 1.73633 24.8927 1.73633 23.2358V8.47607C1.73633 6.81922 3.07947 5.47607 4.73633 5.47607H27.3721C29.0288 5.47626 30.3721 6.81933 30.3721 8.47607V16.4624C30.3721 17.0146 29.9242 17.4622 29.3721 17.4624C28.8198 17.4624 28.3721 17.0147 28.3721 16.4624Z" fill="#000"/>
<path d="M28.5576 10.9465C29.1099 10.9465 29.5576 11.3942 29.5576 11.9465C29.5576 12.4988 29.1099 12.9465 28.5576 12.9465H3.27441C2.72213 12.9465 2.27441 12.4988 2.27441 11.9465C2.27441 11.3942 2.72213 10.9465 3.27441 10.9465H28.5576Z" fill="#000"/>
<path d="M8.46582 17C9.01811 17 9.46582 17.4477 9.46582 18C9.46582 18.5523 9.01811 19 8.46582 19H6.81738C6.2651 19 5.81738 18.5523 5.81738 18C5.81738 17.4477 6.2651 17 6.81738 17H8.46582Z" fill="#000"/>
<path d="M16.4102 17C16.9624 17 17.4102 17.4477 17.4102 18C17.4102 18.5523 16.9624 19 16.4102 19H12C11.4477 19 11 18.5523 11 18C11 17.4477 11.4477 17 12 17H16.4102Z" fill="#000"/>
<path d="M24.75 23.645C24.7497 24.1971 24.3021 24.645 23.75 24.645C23.1979 24.645 22.7503 24.1971 22.75 23.645V21.0552C22.75 20.5029 23.1977 20.0552 23.75 20.0552C24.3023 20.0552 24.75 20.5029 24.75 21.0552V23.645Z" fill="#000"/>
<path d="M23.749 24.6445C23.197 24.6443 22.749 24.1967 22.749 23.6445C22.749 23.0924 23.197 22.6448 23.749 22.6445L26.3389 22.6445C26.8912 22.6445 27.3389 23.0922 27.3389 23.6445C27.3389 24.1968 26.8912 24.6445 26.3389 24.6445L23.749 24.6445Z" fill="#000"/>
<path d="M28.3721 22.9658C28.3721 20.776 26.597 19.0003 24.4072 19C22.2172 19 20.4414 20.7758 20.4414 22.9658C20.4417 25.1556 22.2174 26.9307 24.4072 26.9307C26.5968 26.9304 28.3718 25.1554 28.3721 22.9658ZM30.3721 22.9658C30.3718 26.26 27.7014 28.9304 24.4072 28.9307C21.1128 28.9307 18.4417 26.2602 18.4414 22.9658C18.4414 19.6713 21.1127 17 24.4072 17C27.7016 17.0003 30.3721 19.6714 30.3721 22.9658Z" fill="#000"/>
</svg>
