<svg width="22" height="22" viewBox="0 0 22 22" fill="none" xmlns="http://www.w3.org/2000/svg">
<path fill-rule="evenodd" clip-rule="evenodd" d="M17.9972 4.21976C17.9972 2.74415 16.7931 1.53992 15.3175 1.53992L4.22139 1.53992C2.74577 1.53992 1.54163 2.74415 1.54163 4.21976L1.54163 16.7654C1.54163 18.2401 2.74488 19.447 4.22139 19.447H9.04577V17.947H4.22139C3.57514 17.947 3.04162 17.4135 3.04163 16.7654L3.04163 4.21976C3.04163 3.57253 3.57425 3.03992 4.22139 3.03992L15.3175 3.03992C15.9645 3.03992 16.4971 3.57235 16.4972 4.21944C16.4963 5.27361 16.4963 5.29307 16.4969 6.08243L16.4969 6.15192L17.9969 6.15078L17.9969 6.0802C17.9963 5.29281 17.9963 5.27308 17.9972 4.21976Z" fill="#212338"/>
<path fill-rule="evenodd" clip-rule="evenodd" d="M20.4101 9.52854V8.0812C20.4101 6.6056 19.206 5.40137 17.7304 5.40137L3.73966 5.40135C3.35459 5.40136 3.04235 5.08914 3.04235 4.70398H1.54235C1.54235 5.91748 2.52608 6.90136 3.73966 6.90135L17.7304 6.90137C18.3775 6.90137 18.9101 7.43397 18.9101 8.0812V9.52854H20.4101Z" fill="#212338"/>
<path fill-rule="evenodd" clip-rule="evenodd" d="M15.8006 19.125C17.6365 19.125 19.125 17.6366 19.125 15.8005C19.125 13.9643 17.6365 12.4759 15.8006 12.4759C13.9646 12.4759 12.4762 13.9643 12.4762 15.8005C12.4762 17.6366 13.9646 19.125 15.8006 19.125ZM15.8006 20.625C18.465 20.625 20.625 18.465 20.625 15.8005C20.625 13.1359 18.465 10.9759 15.8006 10.9759C13.1361 10.9759 10.9762 13.1359 10.9762 15.8005C10.9762 18.465 13.1361 20.625 15.8006 20.625Z" fill="#212338"/>
<path fill-rule="evenodd" clip-rule="evenodd" d="M15.3186 13.6031C15.7328 13.6031 16.0686 13.9389 16.0686 14.3531V15.5329H17.2483C17.6625 15.5329 17.9983 15.8687 17.9983 16.2829C17.9983 16.6971 17.6625 17.0329 17.2483 17.0329H15.3186C14.9044 17.0329 14.5686 16.6971 14.5686 16.2829V14.3531C14.5686 13.9389 14.9044 13.6031 15.3186 13.6031Z" fill="#212338"/>
</svg>
