<svg width="24" height="24" viewBox="0 0 20 20" xmlns="http://www.w3.org/2000/svg"><path d="M18.788 8.4c-.812-3.541-3.494-6.247-6.824-6.894-1.447-.282-1.882.282-1.988.812-.07.34-.07 1.153 1.365 1.517 2.659.67 4.623 2.66 5.14 5.2.683 3.365-1.352 6.789-4.634 7.789-3.236.988-6.624-.518-8.024-3.518l.918-.294a.513.513 0 00.33-.365.47.47 0 00-.154-.459L1.741 9.435a.46.46 0 00-.47-.094.481.481 0 00-.318.353L.01 13.788a.502.502 0 00.142.47c.129.118.317.154.482.107l.882-.283c1.46 3.4 4.836 5.483 8.388 5.483a9.003 9.003 0 003.248-.6c4.211-1.612 6.635-6.153 5.635-10.565z"/><path d="M8.753 11.518l2.74 2.74c.2.2.471.318.765.33h.024c.282 0 .553-.106.753-.306l.118-.117c.411-.412.411-1.106-.024-1.541l-2.4-2.4V7.706c0-.624-.518-1.141-1.141-1.153-.294 0-.588.106-.812.318a1.176 1.176 0 00-.353.835v3.07c.012.271.13.542.33.742zM3.929 8.624h1.73v-.86h.858c.47 0 .86-.388.86-.858V4.318a.864.864 0 00-.86-.86H3.93v-.87h3.447V.871H5.658V0H3.93v.859H3.07a.882.882 0 00-.859.87v2.589c0 .47.389.858.86.858h2.587v.86H2.211v1.729h1.73v.859h-.012z"/></svg>
