<svg version="1.1" xmlns="http://www.w3.org/2000/svg" x="0" y="0" viewBox="0 0 24 24" width="24" height="24" xml:space="preserve"><path class="st0" d="M4.2 3C3.6 3 3 3.6 3 4.2v.5c0 .4.3.7.7.7h12.8V4.2c0-.6-.5-1.2-1.2-1.2H4.2zM18 5.4V4.2c0-1.5-1.2-2.7-2.7-2.7H4.2c-1.5 0-2.7 1.2-2.7 2.7v12.5c0 1.5 1.2 2.7 2.7 2.7H9v-1.5H4.2c-.6 0-1.2-.5-1.2-1.2v-10c.2.1.5.1.7.1h14c.6 0 1.2.5 1.2 1.2v1.4h1.5V8.1c0-1.4-1.1-2.6-2.4-2.7z"/><path class="st0" d="M15.8 19.1c1.8 0 3.3-1.5 3.3-3.3 0-1.8-1.5-3.3-3.3-3.3-1.8 0-3.3 1.5-3.3 3.3 0 1.8 1.5 3.3 3.3 3.3zm0 1.5c2.7 0 4.8-2.2 4.8-4.8 0-2.7-2.2-4.8-4.8-4.8S11 13.1 11 15.8c0 2.7 2.1 4.8 4.8 4.8z"/><path class="st0" d="M15.3 13.6c.4 0 .7.3.7.8v1.2h1.2c.4 0 .8.3.8.8 0 .4-.3.8-.8.8h-1.9c-.2 0-.4-.1-.5-.2-.1-.1-.2-.3-.2-.5v-1.9c0-.7.3-1 .7-1z"/></svg>