<svg xmlns="http://www.w3.org/2000/svg" viewBox="0 0 24 24" width="24" height="24" style="enable-background:new 0 0 24 24" xml:space="preserve"><path d="M19 6.4V5.2c0-1.5-1.2-2.7-2.7-2.7H5.2c-1.5 0-2.7 1.2-2.7 2.7v12.5c0 1.5 1.2 2.7 2.7 2.7H10v-1.5H5.2c-.6 0-1.2-.5-1.2-1.2v-10c.2.1.5.1.7.1h14c.6 0 1.2.5 1.2 1.2v1.4h1.5V9c0-1.3-1.2-2.5-2.4-2.6zm-1.5 0H4.7c-.5 0-.7-.4-.7-.7v-.5C4 4.5 4.5 4 5.2 4h11.1c.7 0 1.2.6 1.2 1.2v1.2zm-1.2 8.2c.4 0 .7.3.7.8v1.2h1.2c.4 0 .8.3.8.8 0 .4-.3.8-.8.8h-1.9c-.2 0-.4-.1-.5-.2s-.2-.3-.2-.5v-1.9c0-.7.3-1 .7-1zm.5-2.6c-2.6 0-4.8 2-4.8 4.8s2.1 4.8 4.8 4.8 4.8-2.2 4.8-4.8c-.1-2.8-2.2-4.8-4.8-4.8zm0 8c-1.8 0-3.3-1.5-3.3-3.3s1.5-3.3 3.3-3.3S20 15 20 16.8 18.5 20 16.8 20z"/></svg>