<svg xmlns="http://www.w3.org/2000/svg" width="40" height="40" viewBox="0 0 40 40"><g><path d="M24.545 5.701a.999.999 0 11-.605 1.906A13.027 13.027 0 0020 7C12.82 7 7 12.82 7 20s5.82 13 13 13c6.14 0 11.406-4.29 12.7-10.21a1 1 0 011.954.427A15.004 15.004 0 0120 35c-8.284 0-15-6.716-15-15 0-8.284 6.716-15 15-15 1.56 0 3.088.238 4.545.701z"/><path d="M35.876 18A15.982 15.982 0 0029.67 7.251l-3.039 5.264A9.992 9.992 0 0129.8 18h6.076zm-7.925 1.11a7.992 7.992 0 00-3.206-5.552 1 1 0 01-.273-1.304L28.486 5.3a1 1 0 011.417-.334 17.984 17.984 0 018.066 13.975 1 1 0 01-.998 1.058h-8.026a1 1 0 01-.994-.89zM20 16c-2.21 0-4 1.79-4 4s1.79 4 4 4 4-1.79 4-4-1.79-4-4-4zm0-2a6 6 0 110 12 6 6 0 010-12z"/></g></svg>
