<svg xmlns="http://www.w3.org/2000/svg" xmlns:xlink="http://www.w3.org/1999/xlink" width="24px" height="24px" viewBox="0 0 24 24" version="1.1">
<path style=" stroke:none;fill-rule:nonzero;fill:rgb(12.941177%,13.725491%,21.960784%);fill-opacity:1;" d="M 18.644531 2.570312 C 19.382812 2.570312 20.089844 2.863281 20.613281 3.386719 C 21.136719 3.910156 21.429688 4.617188 21.429688 5.355469 L 21.429688 18.644531 C 21.429688 19.382812 21.136719 20.089844 20.613281 20.613281 C 20.089844 21.136719 19.382812 21.429688 18.644531 21.429688 L 5.355469 21.429688 C 4.617188 21.429688 3.910156 21.136719 3.386719 20.613281 C 2.863281 20.089844 2.570312 19.382812 2.570312 18.644531 L 2.570312 5.355469 C 2.570312 4.617188 2.863281 3.910156 3.386719 3.386719 C 3.910156 2.863281 4.617188 2.570312 5.355469 2.570312 Z M 20.144531 8.144531 L 3.855469 8.144531 L 3.855469 18.644531 C 3.855469 19.472656 4.53125 20.144531 5.355469 20.144531 L 18.644531 20.144531 C 19.039062 20.144531 19.421875 19.984375 19.703125 19.703125 C 19.984375 19.421875 20.144531 19.039062 20.144531 18.644531 Z M 7.5 15 C 7.785156 15 8.054688 15.113281 8.257812 15.316406 C 8.457031 15.515625 8.570312 15.789062 8.570312 16.070312 C 8.570312 16.355469 8.457031 16.628906 8.257812 16.828125 C 8.054688 17.03125 7.785156 17.144531 7.5 17.144531 C 7.214844 17.144531 6.941406 17.03125 6.742188 16.828125 C 6.539062 16.628906 6.429688 16.355469 6.429688 16.070312 C 6.429688 15.789062 6.539062 15.515625 6.742188 15.316406 C 6.941406 15.113281 7.214844 15 7.5 15 Z M 12.003906 15 C 12.285156 15 12.558594 15.113281 12.761719 15.316406 C 12.960938 15.515625 13.074219 15.789062 13.074219 16.070312 C 13.074219 16.355469 12.960938 16.628906 12.761719 16.828125 C 12.558594 17.03125 12.285156 17.144531 12.003906 17.144531 C 11.71875 17.144531 11.445312 17.03125 11.246094 16.828125 C 11.042969 16.628906 10.929688 16.355469 10.929688 16.070312 C 10.929688 15.789062 11.042969 15.515625 11.246094 15.316406 C 11.445312 15.113281 11.71875 15 12.003906 15 Z M 7.5 10.714844 C 7.785156 10.714844 8.054688 10.828125 8.257812 11.027344 C 8.457031 11.230469 8.570312 11.503906 8.570312 11.785156 C 8.570312 12.070312 8.457031 12.34375 8.257812 12.542969 C 8.054688 12.746094 7.785156 12.859375 7.5 12.859375 C 7.214844 12.859375 6.941406 12.746094 6.742188 12.542969 C 6.539062 12.34375 6.429688 12.070312 6.429688 11.785156 C 6.429688 11.503906 6.539062 11.230469 6.742188 11.027344 C 6.941406 10.828125 7.214844 10.714844 7.5 10.714844 Z M 12.003906 10.714844 C 12.285156 10.714844 12.558594 10.828125 12.761719 11.027344 C 12.960938 11.230469 13.074219 11.503906 13.074219 11.785156 C 13.074219 12.070312 12.960938 12.34375 12.761719 12.542969 C 12.558594 12.746094 12.285156 12.859375 12.003906 12.859375 C 11.71875 12.859375 11.445312 12.746094 11.246094 12.542969 C 11.042969 12.34375 10.929688 12.070312 10.929688 11.785156 C 10.929688 11.503906 11.042969 11.230469 11.246094 11.027344 C 11.445312 10.828125 11.71875 10.714844 12.003906 10.714844 Z M 16.507812 10.714844 C 16.792969 10.714844 17.0625 10.828125 17.265625 11.027344 C 17.464844 11.230469 17.578125 11.503906 17.578125 11.785156 C 17.578125 12.070312 17.464844 12.34375 17.265625 12.542969 C 17.0625 12.746094 16.792969 12.859375 16.507812 12.859375 C 16.222656 12.859375 15.949219 12.746094 15.75 12.542969 C 15.546875 12.34375 15.4375 12.070312 15.4375 11.785156 C 15.4375 11.503906 15.546875 11.230469 15.75 11.027344 C 15.949219 10.828125 16.222656 10.714844 16.507812 10.714844 Z M 18.644531 3.855469 L 5.355469 3.855469 C 4.960938 3.855469 4.578125 4.015625 4.296875 4.296875 C 4.015625 4.578125 3.855469 4.960938 3.855469 5.355469 L 3.855469 6.859375 L 20.144531 6.859375 L 20.144531 5.355469 C 20.144531 4.960938 19.984375 4.578125 19.703125 4.296875 C 19.421875 4.015625 19.039062 3.855469 18.644531 3.855469 Z M 18.644531 3.855469 "/>
</svg>
