<svg width="32" height="32" viewBox="0 0 32 32" fill="none" xmlns="http://www.w3.org/2000/svg">
<path d="M28.8584 23.8318C28.8584 24.6602 28.1868 25.3318 27.3584 25.3318H4.7998C3.97138 25.3318 3.2998 24.6602 3.2998 23.8318V16.4597C3.29981 16.2476 3.34466 16.0379 3.43164 15.8445L7.14258 7.59937C7.38482 7.06113 7.9205 6.7146 8.51074 6.7146H10.4316C10.9837 6.71482 11.4316 7.16245 11.4316 7.7146C11.4316 8.26675 10.9837 8.71438 10.4316 8.7146H8.83398L5.2998 16.5671V23.3318H26.8584V16.5671L23.3242 8.7146H21.8096C21.2573 8.7146 20.8096 8.26688 20.8096 7.7146C20.8096 7.16231 21.2573 6.7146 21.8096 6.7146H23.6475C24.2377 6.7146 24.7734 7.06113 25.0156 7.59937L28.7266 15.8445C28.8136 16.0379 28.8584 16.2476 28.8584 16.4597V23.8318Z" fill="#000"/>
<path d="M29.6064 15.0234C30.1587 15.0234 30.6064 15.4712 30.6064 16.0234C30.6064 16.5757 30.1587 17.0234 29.6064 17.0234H2.39355C1.84127 17.0234 1.39355 16.5757 1.39355 16.0234C1.39355 15.4712 1.84127 15.0234 2.39355 15.0234H29.6064Z" fill="#000"/>
<path d="M8.22168 25.332H5.2998V27.1318H8.22168V25.332ZM10.2217 27.1318C10.2217 28.2364 9.32625 29.1318 8.22168 29.1318H5.2998C4.19523 29.1318 3.2998 28.2364 3.2998 27.1318V23.332H10.2217V27.1318Z" fill="#000"/>
<path d="M26.8584 25.332H23.9365V27.1318H26.8584V25.332ZM28.8584 27.1318C28.8584 28.2364 27.963 29.1318 26.8584 29.1318H23.9365C22.832 29.1318 21.9365 28.2364 21.9365 27.1318V23.332H28.8584V27.1318Z" fill="#000"/>
<path d="M24.2656 19.3569C24.8179 19.3569 25.2656 19.8046 25.2656 20.3569C25.2656 20.9092 24.8179 21.3569 24.2656 21.3569L22.2861 21.3569C21.7338 21.3569 21.2861 20.9092 21.2861 20.3569C21.2861 19.8046 21.7338 19.3569 22.2861 19.3569L24.2656 19.3569Z" fill="#000"/>
<path d="M10.168 19.3569C10.7203 19.3569 11.168 19.8046 11.168 20.3569C11.168 20.9092 10.7203 21.3569 10.168 21.3569L8.18848 21.3569C7.63619 21.3569 7.18848 20.9092 7.18848 20.3569C7.18848 19.8046 7.63619 19.3569 8.18848 19.3569L10.168 19.3569Z" fill="#000"/>
<path d="M17.0889 7.66772L17.0889 9.57104C17.0889 10.1233 16.6412 10.571 16.0889 10.571C15.5366 10.571 15.0889 10.1233 15.0889 9.57105L15.0889 7.66772C15.0889 7.11544 15.5366 6.66772 16.0889 6.66772C16.6412 6.66772 17.0889 7.11544 17.0889 7.66772Z" fill="#000"/>
<path d="M17.0889 5.10693L17.0889 5.18896C17.0889 5.74125 16.6412 6.18896 16.0889 6.18896C15.5366 6.18896 15.0889 5.74125 15.0889 5.18896L15.0889 5.10693C15.0889 4.55465 15.5366 4.10693 16.0889 4.10693C16.6412 4.10693 17.0889 4.55465 17.0889 5.10693Z" fill="#000"/>
<path d="M20.3193 7.56055C20.3193 5.17504 18.3855 3.24121 16 3.24121C13.6145 3.24121 11.6807 5.17504 11.6807 7.56055C11.6807 9.94605 13.6145 11.8799 16 11.8799C18.3855 11.8799 20.3193 9.94605 20.3193 7.56055ZM22.3193 7.56055C22.3193 11.0506 19.4901 13.8799 16 13.8799C12.5099 13.8799 9.68066 11.0506 9.68066 7.56055C9.68066 4.07047 12.5099 1.24121 16 1.24121C19.4901 1.24121 22.3193 4.07047 22.3193 7.56055Z" fill="#000"/>
</svg>
