<?xml version="1.0" encoding="UTF-8"?>
<svg id="uuid-7a5f83c5-f3ee-4143-aeb3-a839da41392d" data-name="Layer 1" xmlns="http://www.w3.org/2000/svg" viewBox="0 0 34.75 32.2">
  <rect x="11" y="19" width="13" height="2" style="fill: #212338; stroke-width: 0px;"/>
  <path d="M32.5,12h-.2l-.7-1.8h2.8v-2h-3.6l-1.9-5.1c-.7-1.8-2.5-3.1-4.4-3.1h-13.2c-1.9,0-3.6,1.1-4.3,2.8l-2.4,5.3H0v2h3.6l-.8,1.8h-.3c-1.2,0-2.2,1-2.2,2.2v15.9c0,1.2,1,2.2,2.2,2.2h2.9c1.2,0,2.2-1,2.2-2.2v-2.1h19.85v2.1c0,1.2,1,2.2,2.2,2.2h2.9c1.2,0,2.2-1,2.2-2.2v-3.1l-.05-12.7c0-1.2-1-2.2-2.2-2.2ZM8.7,3.6c.4-1,1.4-1.6,2.5-1.6h13.2c1.1,0,2.2.7,2.6,1.8l3.1,8.1H5l3.7-8.3ZM5.8,30.1h-.1c0,.1-.1.2-.2.2h-2.9c-.1,0-.2-.1-.2-.2v-2.1h3.4v2.1ZM2.3,26v-11.8c0-.1.1-.2.2-.2h30c.1,0,.2.1.2.2v11.8H2.3ZM32.95,30.1c0,.1-.1.2-.2.2h-3c-.1,0-.2-.1-.2-.2v-2.1h3.4v2.1Z" style="fill: #212338; stroke-width: 0px;"/>
  <path d="M6.1,18.4c-.88,0-1.6.72-1.6,1.6s.72,1.6,1.6,1.6,1.6-.72,1.6-1.6-.72-1.6-1.6-1.6Z" style="fill: #212338; stroke-width: 0px;"/>
  <path d="M28.9,18.4c-.88,0-1.6.72-1.6,1.6s.72,1.6,1.6,1.6,1.6-.72,1.6-1.6-.72-1.6-1.6-1.6Z" style="fill: #212338; stroke-width: 0px;"/>
</svg>