<svg width="32" height="32" viewBox="0 0 32 32" fill="none" xmlns="http://www.w3.org/2000/svg">
<path d="M3 17.4972C3 21.2178 4.56195 24.5747 7.0625 26.9464V28.3947C7.0625 28.9468 7.51044 29.3944 8.0625 29.3947C8.61479 29.3947 9.0625 28.9469 9.0625 28.3947V26.0568L8.72559 25.7589C6.43944 23.738 5 20.7859 5 17.4972C5.00013 13.2879 7.35986 9.62872 10.833 7.77161C11.3199 7.51123 11.5033 6.90505 11.2432 6.41809C10.9828 5.93113 10.3766 5.7467 9.88965 6.00696C5.7918 8.1981 3.00013 12.5211 3 17.4972ZM27.043 17.4972C27.043 20.7859 25.6045 23.738 23.3184 25.7589L22.9805 26.0568V28.3947C22.9805 28.9469 23.4282 29.3947 23.9805 29.3947C24.5326 29.3945 24.9805 28.9469 24.9805 28.3947V26.9464C27.4811 24.5746 29.043 21.2178 29.043 17.4972C29.0428 12.5211 26.2512 8.1981 22.1533 6.00696C21.6664 5.74686 21.0602 5.9312 20.7998 6.41809C20.5397 6.90505 20.7241 7.51126 21.2109 7.77161C24.6838 9.6288 27.0428 13.2881 27.043 17.4972Z" fill="#000"/>
<path d="M15.0225 17.9702V7.73389C15.0225 7.1816 15.4702 6.73389 16.0225 6.73389C16.5747 6.73389 17.0225 7.1816 17.0225 7.73389V17.9702C17.0225 18.5225 16.5747 18.9702 16.0225 18.9702C15.4702 18.9702 15.0225 18.5225 15.0225 17.9702Z" fill="#000"/>
<path d="M8.07324 25.267H23.9707C24.523 25.267 24.9707 25.7147 24.9707 26.267C24.9707 26.8193 24.523 27.267 23.9707 27.267H8.07324C7.521 27.2669 7.07324 26.8192 7.07324 26.267C7.07324 25.7147 7.521 25.267 8.07324 25.267Z" fill="#000"/>
<path d="M15.0225 21.9161L15.0225 21.8243C15.0225 21.2721 15.4702 20.8243 16.0225 20.8243C16.5747 20.8243 17.0225 21.2721 17.0225 21.8243L17.0225 21.9161C17.0225 22.4684 16.5747 22.9161 16.0225 22.9161C15.4702 22.9161 15.0225 22.4684 15.0225 21.9161Z" fill="#000"/>
<path d="M15.0225 28.3949L15.0225 26.267C15.0225 25.7147 15.4702 25.267 16.0225 25.267C16.5747 25.267 17.0225 25.7147 17.0225 26.267L17.0225 28.3949C17.0223 28.9471 16.5747 29.3949 16.0225 29.3949C15.4703 29.3949 15.0226 28.9471 15.0225 28.3949Z" fill="#000"/>
<path d="M11.248 28.3949L11.248 26.267C11.248 25.7147 11.6958 25.267 12.248 25.267C12.8003 25.267 13.248 25.7147 13.248 26.267L13.248 28.3949C13.2479 28.9471 12.8002 29.3949 12.248 29.3949C11.6958 29.3949 11.2482 28.9471 11.248 28.3949Z" fill="#000"/>
<path d="M9.36133 6.64832L9.36133 3.60535C9.36133 3.05306 9.80904 2.60535 10.3613 2.60535C10.9136 2.60535 11.3613 3.05306 11.3613 3.60535L11.3613 6.64832C11.3613 7.2006 10.9136 7.64832 10.3613 7.64832C9.80904 7.64832 9.36133 7.2006 9.36133 6.64832Z" fill="#000"/>
<path d="M20.6836 6.64832L20.6836 3.60535C20.6836 3.05306 21.1313 2.60535 21.6836 2.60535C22.2359 2.60535 22.6836 3.05306 22.6836 3.60535L22.6836 6.64832C22.6836 7.2006 22.2359 7.64832 21.6836 7.64832C21.1313 7.64832 20.6836 7.2006 20.6836 6.64832Z" fill="#000"/>
<path d="M18.7959 28.3949L18.7959 26.267C18.7959 25.7147 19.2436 25.267 19.7959 25.267C20.3482 25.267 20.7959 25.7147 20.7959 26.267L20.7959 28.3949C20.7958 28.9471 20.3481 29.3949 19.7959 29.3949C19.2437 29.3949 18.796 28.9471 18.7959 28.3949Z" fill="#000"/>
</svg>
