<svg width="40" height="40" viewBox="0 0 40 40" fill="none" xmlns="http://www.w3.org/2000/svg">
<path d="M13.5 23.9585H26.5" stroke="#212338" stroke-width="2"/>
<path d="M5.91699 16.9167L10.3345 7.19824C10.943 5.85951 12.2778 5 13.7483 5H26.9514C28.5064 5 29.9001 5.95967 30.4547 7.41237L34.0837 16.9167" stroke="#212338" stroke-width="2"/>
<path d="M3.75 31V34.0833C3.75 34.7737 4.30964 35.3333 5 35.3333H7.91667C8.60702 35.3333 9.16667 34.7737 9.16667 34.0833V31" stroke="#212338" stroke-width="2"/>
<path d="M32.5 13.125L36.875 13.125" stroke="#212338" stroke-width="2"/>
<path d="M2.5 13.125H7.5" stroke="#212338" stroke-width="2"/>
<path d="M30.834 31V34.0833C30.834 34.7737 31.3936 35.3333 32.084 35.3333H35.0007C35.691 35.3333 36.2507 34.7737 36.2507 34.0833V31" stroke="#212338" stroke-width="2"/>
<path d="M3.75 18.1665C3.75 17.4761 4.30964 16.9165 5 16.9165H35C35.6904 16.9165 36.25 17.4761 36.25 18.1665V30.9998H3.75V18.1665Z" stroke="#212338" stroke-width="2"/>
<circle cx="8.625" cy="23.9585" r="1.625" fill="#212338"/>
<circle cx="31.375" cy="23.9585" r="1.625" fill="#212338"/>
</svg>
