<svg width="32" height="32" viewBox="0 0 32 32" fill="none" xmlns="http://www.w3.org/2000/svg">
<path d="M4.61328 10.0175V15.2313H21.5928V10.0145L18.8145 3.84363H7.3916L4.61328 10.0175ZM23.5928 15.7313C23.5928 16.5597 22.9212 17.2313 22.0928 17.2313H4.11328C3.28485 17.2313 2.61328 16.5598 2.61328 15.7313V9.91003C2.61328 9.69797 2.65816 9.48821 2.74512 9.2948L5.7002 2.72839C5.94241 2.19021 6.47819 1.8437 7.06836 1.84363H19.1377C19.6912 1.84363 20.1965 2.14807 20.457 2.62976L20.5059 2.72839L23.4609 9.2948C23.5479 9.48826 23.5928 9.69791 23.5928 9.91003V15.7313Z" fill="#000"/>
<path d="M24 8.53775C24.5523 8.53775 25 8.98547 25 9.53775C25 10.09 24.5523 10.5378 24 10.5378H2.07617C1.52389 10.5378 1.07617 10.09 1.07617 9.53775C1.07617 8.98547 1.52389 8.53775 2.07617 8.53775H24Z" fill="#000"/>
<path d="M6.5791 17.2314H4.61328V18.2929H6.5791V17.2314ZM8.5791 18.2929C8.57906 19.3973 7.68346 20.2927 6.5791 20.2929H4.61328C3.50874 20.2929 2.61333 19.3974 2.61328 18.2929V15.2314H8.5791V18.2929Z" fill="#000"/>
<path d="M21.5928 17.2313H19.627V18.2928H21.5928V17.2313ZM23.5928 18.2928C23.5927 19.3973 22.6971 20.2926 21.5928 20.2928H19.627C18.5224 20.2928 17.627 19.3974 17.627 18.2928V15.2313H23.5928V18.2928Z" fill="#000"/>
<path d="M19.6982 12.0284C20.2505 12.0284 20.6982 12.4762 20.6982 13.0284C20.6982 13.5807 20.2505 14.0284 19.6982 14.0284L18.1035 14.0284C17.5512 14.0284 17.1035 13.5807 17.1035 13.0284C17.1035 12.4762 17.5512 12.0284 18.1035 12.0284L19.6982 12.0284Z" fill="#000"/>
<path d="M8.33984 12.0287C8.89213 12.0287 9.33984 12.4764 9.33984 13.0287C9.33984 13.581 8.89213 14.0287 8.33984 14.0287L6.74512 14.0287C6.19283 14.0287 5.74512 13.581 5.74512 13.0287C5.74512 12.4764 6.19283 12.0287 6.74512 12.0287L8.33984 12.0287Z" fill="#000"/>
<path d="M5 22.3684C5.00001 21.8161 5.44772 21.3684 6 21.3684C6.55228 21.3684 7 21.8161 7 22.3684C6.99998 24.1547 9.33902 29.0002 18.3418 29.0002C18.8941 29.0002 19.3418 29.448 19.3418 30.0002C19.3417 30.5524 18.894 31.0002 18.3418 31.0002C8.59035 31.0002 4.99997 25.5843 5 22.3684Z" fill="#000"/>
<path d="M19.6094 22.3684C19.6094 21.8161 20.0571 21.3684 20.6094 21.3684C21.1617 21.3684 21.6094 21.8161 21.6094 22.3684C21.6094 23.5768 21.7364 25.1803 22.7998 26.4924C23.8342 27.7688 25.9538 29.0002 30.4697 29.0002C31.0218 29.0005 31.4697 29.4481 31.4697 30.0002C31.4696 30.5523 31.0217 31 30.4697 31.0002C25.6088 31.0002 22.7974 29.6661 21.2461 27.7522C19.7238 25.8738 19.6094 23.6611 19.6094 22.3684Z" fill="#000"/>
</svg>
