<svg width="32" height="32" viewBox="0 0 32 32" fill="none" xmlns="http://www.w3.org/2000/svg"><g transform="translate(1.392 1.242)"><g id="Vector">
<path d="M27.4648 22.5906C27.4648 23.419 26.7933 24.0906 25.9648 24.0906H3.40625C2.57782 24.0906 1.90625 23.419 1.90625 22.5906V15.2185C1.90626 15.0064 1.9511 14.7967 2.03809 14.6033L5.74902 6.35815C5.99126 5.81992 6.52695 5.47339 7.11719 5.47339H9.03809C9.59019 5.4736 10.0381 5.92124 10.0381 6.47339C10.0381 7.02554 9.59019 7.47317 9.03809 7.47339H7.44043L3.90625 15.3259V22.0906H25.4648V15.3259L21.9307 7.47339H20.416C19.8637 7.47339 19.416 7.02567 19.416 6.47339C19.416 5.9211 19.8637 5.47339 20.416 5.47339H22.2539C22.8441 5.47339 23.3798 5.81992 23.6221 6.35815L27.333 14.6033C27.42 14.7967 27.4648 15.0064 27.4648 15.2185V22.5906Z" fill="#000"/>
<path d="M28.2129 13.7822C28.7652 13.7822 29.2129 14.2299 29.2129 14.7822C29.2129 15.3345 28.7652 15.7822 28.2129 15.7822H1C0.447715 15.7822 0 15.3345 0 14.7822C0 14.2299 0.447715 13.7822 1 13.7822H28.2129Z" fill="#000"/>
<path d="M6.82812 24.0908H3.90625V25.8906H6.82812V24.0908ZM8.82812 25.8906C8.82812 26.9952 7.93269 27.8906 6.82812 27.8906H3.90625C2.80168 27.8906 1.90625 26.9952 1.90625 25.8906V22.0908H8.82812V25.8906Z" fill="#000"/>
<path d="M25.4648 24.0908H22.543V25.8906H25.4648V24.0908ZM27.4648 25.8906C27.4648 26.9952 26.5694 27.8906 25.4648 27.8906H22.543C21.4384 27.8906 20.543 26.9952 20.543 25.8906V22.0908H27.4648V25.8906Z" fill="#000"/>
<path d="M22.8721 18.1157C23.4244 18.1157 23.8721 18.5634 23.8721 19.1157C23.8721 19.668 23.4244 20.1157 22.8721 20.1157H20.8926C20.3403 20.1157 19.8926 19.668 19.8926 19.1157C19.8926 18.5634 20.3403 18.1157 20.8926 18.1157H22.8721Z" fill="#000"/>
<path d="M8.77441 18.1157C9.3267 18.1157 9.77441 18.5634 9.77441 19.1157C9.77441 19.668 9.3267 20.1157 8.77441 20.1157H6.79492C6.24264 20.1157 5.79492 19.668 5.79492 19.1157C5.79492 18.5634 6.24264 18.1157 6.79492 18.1157H8.77441Z" fill="#000"/>
<path d="M13.6855 5.76886V3.86554C13.6855 3.31326 14.1333 2.86554 14.6855 2.86554C15.2378 2.86554 15.6855 3.31326 15.6855 3.86554V5.76886C15.6855 6.32115 15.2378 6.76886 14.6855 6.76886C14.1333 6.76886 13.6855 6.32115 13.6855 5.76886Z" fill="#000"/>
<path d="M13.6855 8.32948V8.24745C13.6855 7.69516 14.1333 7.24745 14.6855 7.24745C15.2378 7.24745 15.6855 7.69516 15.6855 8.24745V8.32948C15.6855 8.88176 15.2378 9.32948 14.6855 9.32948C14.1333 9.32948 13.6855 8.88176 13.6855 8.32948Z" fill="#000"/>
<path d="M18.9258 6.31934C18.9258 3.93383 16.9919 2 14.6064 2C12.2209 2 10.2871 3.93383 10.2871 6.31934C10.2871 8.70484 12.2209 10.6387 14.6064 10.6387C16.9919 10.6387 18.9258 8.70484 18.9258 6.31934ZM20.9258 6.31934C20.9258 9.80941 18.0965 12.6387 14.6064 12.6387C11.1164 12.6387 8.28711 9.80941 8.28711 6.31934C8.28711 2.82926 11.1164 0 14.6064 0C18.0965 0 20.9258 2.82926 20.9258 6.31934Z" fill="#000"/>
</g></g></svg>
