<svg width="32" height="32" viewBox="0 0 32 32" fill="none" xmlns="http://www.w3.org/2000/svg">
<path d="M7.62988 11.1328V16.3096H24.499V11.1328L21.7393 5H10.3896L7.62988 11.1328ZM26.499 16.8096C26.499 17.638 25.8274 18.3096 24.999 18.3096H7.12988C6.30145 18.3096 5.62988 17.638 5.62988 16.8096V11.0254C5.62993 10.8133 5.67471 10.6036 5.76172 10.4102L8.69922 3.88477L8.74805 3.78613C9.00853 3.30463 9.51316 3.00016 10.0664 3H22.0625C22.6526 3.00017 23.1875 3.34666 23.4297 3.88477L26.3672 10.4102C26.4542 10.6036 26.499 10.8133 26.499 11.0254V16.8096Z" fill="#000"/>
<path d="M26.8984 9.65479C27.4507 9.65482 27.8984 10.1025 27.8984 10.6548C27.8984 11.2071 27.4507 11.6548 26.8984 11.6548H5.10254C4.55025 11.6548 4.10254 11.2071 4.10254 10.6548C4.10254 10.1025 4.55025 9.65479 5.10254 9.65479H26.8984Z" fill="#000"/>
<path d="M9.57227 18.3096H7.62988V19.3535H9.57227V18.3096ZM11.5723 19.3535C11.5721 20.4579 10.6767 21.3535 9.57227 21.3535H7.62988C6.52544 21.3535 5.63009 20.4579 5.62988 19.3535V16.3096H11.5723V19.3535Z" fill="#000"/>
<path d="M24.498 18.3096H22.5557V19.3535H24.498V18.3096ZM26.498 19.3535C26.4978 20.4579 25.6024 21.3535 24.498 21.3535H22.5557C21.4512 21.3535 20.5559 20.4579 20.5557 19.3535V16.3096H26.498V19.3535Z" fill="#000"/>
<path d="M22.6211 13.1257C23.1733 13.1258 23.6211 13.5735 23.6211 14.1257C23.6211 14.6779 23.1733 15.1256 22.6211 15.1257L21.0352 15.1257C20.4829 15.1257 20.0352 14.678 20.0352 14.1257C20.0352 13.5734 20.4829 13.1257 21.0352 13.1257L22.6211 13.1257Z" fill="#000"/>
<path d="M11.3291 13.1257C11.8813 13.1258 12.3291 13.5735 12.3291 14.1257C12.3291 14.6779 11.8813 15.1256 11.3291 15.1257L9.74316 15.1257C9.19088 15.1257 8.74316 14.678 8.74316 14.1257C8.74316 13.5734 9.19088 13.1257 9.74316 13.1257L11.3291 13.1257Z" fill="#000"/>
<path d="M27.7314 21.7612C28.2836 21.7613 28.7314 22.209 28.7314 22.7612C28.7314 23.3135 28.2836 23.7611 27.7314 23.7612H4.63965C4.08736 23.7612 3.63965 23.3135 3.63965 22.7612C3.63965 22.2089 4.08736 21.7612 4.63965 21.7612H27.7314Z" fill="#000"/>
<path d="M20.0352 28C20.5874 28 21.0352 28.4477 21.0352 29C21.0352 29.5523 20.5874 30 20.0352 30H12.3359C11.7837 30 11.3359 29.5523 11.3359 29C11.3359 28.4477 11.7837 28 12.3359 28H20.0352Z" fill="#000"/>
<path d="M17.1563 27.8823C17.1561 28.4345 16.7085 28.8823 16.1563 28.8823C15.604 28.8823 15.1564 28.4345 15.1563 27.8823L15.1563 23.7085C15.1563 23.1562 15.604 22.7085 16.1562 22.7085C16.7085 22.7085 17.1563 23.1562 17.1563 23.7085L17.1563 27.8823Z" fill="#000"/>
</svg>
