<svg width="32" height="32" viewBox="0 0 32 32" fill="none" xmlns="http://www.w3.org/2000/svg">
<path d="M28.8584 23.8318C28.8584 24.6602 28.1868 25.3318 27.3584 25.3318H4.7998C3.97138 25.3318 3.2998 24.6602 3.2998 23.8318V16.4597C3.29981 16.2476 3.34466 16.0379 3.43164 15.8445L7.14258 7.59937C7.38482 7.06113 7.9205 6.7146 8.51074 6.7146H11.7578C12.31 6.71472 12.7578 7.16239 12.7578 7.7146C12.7578 8.26681 12.31 8.71448 11.7578 8.7146H8.83398L5.2998 16.5671V23.3318H26.8584V16.5671L23.3242 8.7146H21.8096C21.2573 8.7146 20.8096 8.26688 20.8096 7.7146C20.8096 7.16231 21.2573 6.7146 21.8096 6.7146H23.6475C24.2377 6.7146 24.7734 7.06113 25.0156 7.59937L28.7266 15.8445C28.8136 16.0379 28.8584 16.2476 28.8584 16.4597V23.8318Z" fill="#000"/>
<path d="M29.6064 15.0234C30.1587 15.0234 30.6064 15.4712 30.6064 16.0234C30.6064 16.5757 30.1587 17.0234 29.6064 17.0234H2.39355C1.84127 17.0234 1.39355 16.5757 1.39355 16.0234C1.39355 15.4712 1.84127 15.0234 2.39355 15.0234H29.6064Z" fill="#000"/>
<path d="M8.22168 25.332H5.2998V27.1318H8.22168V25.332ZM10.2217 27.1318C10.2217 28.2364 9.32625 29.1318 8.22168 29.1318H5.2998C4.19523 29.1318 3.2998 28.2364 3.2998 27.1318V23.332H10.2217V27.1318Z" fill="#000"/>
<path d="M26.8584 25.332H23.9365V27.1318H26.8584V25.332ZM28.8584 27.1318C28.8584 28.2364 27.963 29.1318 26.8584 29.1318H23.9365C22.832 29.1318 21.9365 28.2364 21.9365 27.1318V23.332H28.8584V27.1318Z" fill="#000"/>
<path d="M24.2656 19.3569C24.8179 19.3569 25.2656 19.8046 25.2656 20.3569C25.2656 20.9092 24.8179 21.3569 24.2656 21.3569L22.2861 21.3569C21.7338 21.3569 21.2861 20.9092 21.2861 20.3569C21.2861 19.8046 21.7338 19.3569 22.2861 19.3569L24.2656 19.3569Z" fill="#000"/>
<path d="M10.168 19.3569C10.7203 19.3569 11.168 19.8046 11.168 20.3569C11.168 20.9092 10.7203 21.3569 10.168 21.3569L8.18848 21.3569C7.63619 21.3569 7.18848 20.9092 7.18848 20.3569C7.18848 19.8046 7.63619 19.3569 8.18848 19.3569L10.168 19.3569Z" fill="#000"/>
<path d="M12.6226 11.4998L15.6719 6.21826C15.948 5.73997 16.5596 5.57609 17.0379 5.85223C17.5162 6.12838 17.6801 6.73997 17.4039 7.21826L14.3546 12.4998C14.0785 12.9781 13.4669 13.142 12.9886 12.8659C12.5103 12.5897 12.3464 11.9781 12.6226 11.4998Z" fill="#000"/>
<path d="M15.2417 3.36545L15.8623 2.29052C16.1384 1.81223 16.75 1.64836 17.2283 1.9245C17.7066 2.20064 17.8705 2.81223 17.5944 3.29052L16.9737 4.36545C16.7532 4.74747 16.8841 5.23611 17.2661 5.45666C17.6481 5.67715 18.1368 5.54626 18.3574 5.16427L18.978 4.08935C19.2541 3.61106 19.8657 3.44719 20.344 3.72333C20.8221 3.99952 20.9861 4.61113 20.71 5.08935L20.0894 6.16427C19.3166 7.50285 17.6047 7.96148 16.2661 7.18872C14.9275 6.41587 14.4689 4.70405 15.2417 3.36545Z" fill="#000"/>
</svg>
