<?xml version="1.0" encoding="UTF-8"?>
<svg id="Layer_1" data-name="Layer 1" xmlns="http://www.w3.org/2000/svg" version="1.1" viewBox="0 0 36 33">
  <defs>
    <style>
      .cls-1 {
        fill: #212338;
        stroke-width: 0px;
      }
    </style>
  </defs>
  <rect class="cls-1" x="11.5" y="19" width="13" height="2"/>
  <path class="cls-1" d="M35.2,27v-12.8c0-1.2-1-2.2-2.2-2.2h-.2l-.7-1.8h2.8v-2h-3.6l-1.9-5.1c-.7-1.8-2.5-3.1-4.4-3.1h-13.2c-1.9,0-3.6,1.1-4.3,2.8l-2.4,5.3H.5v2h3.6l-.8,1.8h-.3c-1.2,0-2.2,1-2.2,2.2v15.9c0,1.2,1,2.2,2.2,2.2h2.9c1.2,0,2.2-1,2.2-2.2v-2.1h19.7v2.1c0,1.2,1,2.2,2.2,2.2h2.9c1.2,0,2.2-1,2.2-2.2v-3.1h0ZM9.2,3.6c.4-1,1.4-1.6,2.5-1.6h13.2c1.1,0,2.2.7,2.6,1.8l3.1,8.1H5.5l3.8-8.3ZM2.8,14.2c0-.1.1-.2.2-.2h30c.1,0,.2.1.2.2v11.8H2.8v-11.8ZM6.2,30.1c0,.1-.1.2-.2.2h-2.9c-.1,0-.2-.1-.2-.2v-2.1h3.4v2.1ZM33,30.3h-2.9c-.1,0-.2-.1-.2-.2v-2.1h3.4v2.1c0,.1-.1.2-.2.2Z"/>
  <circle class="cls-1" cx="6.6" cy="20" r="1.6"/>
  <circle class="cls-1" cx="29.4" cy="20" r="1.6"/>
</svg>