<svg xmlns="http://www.w3.org/2000/svg" width="24" height="24" baseProfile="full" viewBox="0 0 24 24"><path fill-rule="evenodd" d="M3.208 9.333h15.584v1.5H3.208v-1.5ZM16.042 14.667c-.761 0-1.375-.614-1.375-1.375s.614-1.375 1.375-1.375c.76 0 1.375.614 1.375 1.375 0 .76-.615 1.375-1.375 1.375ZM5.958 14.667c-.76 0-1.375-.614-1.375-1.375s.614-1.375 1.375-1.375 1.375.614 1.375 1.375c0 .76-.614 1.375-1.375 1.375Z" clip-rule="evenodd"/><path d="M3.948 5.255a2.124 2.124 0 0 1 2.01-1.422h10.084c.928 0 1.723.591 2.01 1.422L20 10.874v7.46A1.67 1.67 0 0 1 18.333 20h-.916a1.67 1.67 0 0 1-1.667-1.667v-.166h-9.5v.166A1.67 1.67 0 0 1 4.583 20h-.916A1.67 1.67 0 0 1 2 18.333v-7.46l1.948-5.618Zm2.01.078a.624.624 0 0 0-.592.412L3.5 11.126v7.207c0 .09.077.167.167.167h.916a.17.17 0 0 0 .167-.167v-1.666h12.5v1.666c0 .09.077.167.167.167h.916a.17.17 0 0 0 .167-.167v-7.207l-1.865-5.38v-.001a.624.624 0 0 0-.593-.412H5.958Z"/></svg>
