<svg width="32" height="32" viewBox="0 0 32 32" fill="none" xmlns="http://www.w3.org/2000/svg">
<path d="M8.91797 3.89062C8.91797 3.72229 8.87873 3.66185 8.87109 3.65039C8.85939 3.63283 8.83639 3.60862 8.7832 3.58203C8.72615 3.55354 8.65703 3.53398 8.59375 3.52344C8.56451 3.51857 8.54223 3.51641 8.53125 3.51562H7.19824C7.19655 3.51584 7.19462 3.51628 7.19238 3.5166C7.16977 3.51983 7.12135 3.52792 7.05566 3.5498C6.92767 3.59247 6.72338 3.68877 6.50195 3.91016C6.06837 4.34374 5.41994 5.41881 5.41992 8.01367C5.41992 10.1039 6.0266 12.9814 6.7832 15.7314C7.50924 18.3703 8.34876 20.8032 8.83203 22.1445C10.0325 21.3754 11.6669 19.9029 11.667 17.6357C11.667 15.9049 10.8053 14.412 9.77344 12.8643C9.28118 12.1259 8.72414 11.3362 8.30957 10.5762C7.89119 9.80913 7.54395 8.94632 7.54395 8.01367C7.54396 6.42567 7.9547 5.54748 8.39844 4.88184C8.84352 4.21421 8.91789 4.19263 8.91797 3.89062ZM10.918 3.89062C10.9178 4.96244 10.3044 5.62833 10.0625 5.99121C9.81905 6.35641 9.54396 6.85301 9.54395 8.01367C9.54395 8.45552 9.71069 8.96778 10.0654 9.61816C10.424 10.2756 10.8989 10.9469 11.4375 11.7549C12.4673 13.2997 13.667 15.2433 13.667 17.6357C13.6669 21.1015 11.072 23.1244 9.71973 23.9502C8.63236 24.614 7.37615 24.0009 6.99707 22.9541C6.51331 21.6182 5.62466 19.0583 4.85547 16.2627C4.09306 13.4916 3.41992 10.392 3.41992 8.01367C3.41994 5.1109 4.14616 3.4371 5.08691 2.49609C5.55252 2.03049 6.0355 1.78251 6.42285 1.65332C6.61472 1.58936 6.78149 1.55439 6.90918 1.53613C6.97296 1.52702 7.02771 1.52244 7.07129 1.51953C7.09312 1.51808 7.11263 1.51713 7.12891 1.5166C7.13703 1.51634 7.14468 1.51573 7.15137 1.51563H7.16699C7.16791 1.51562 7.1688 1.51563 7.16895 2.28906V1.51563H8.54395V2.05859C8.54408 1.51563 8.54451 1.51562 8.54492 1.51563H8.56348C8.5715 1.51575 8.58105 1.51625 8.5918 1.5166C8.61365 1.51733 8.64158 1.51821 8.67383 1.52051C8.738 1.52509 8.8233 1.53419 8.92285 1.55078C9.11714 1.58318 9.39137 1.64982 9.67773 1.79297C9.96818 1.93819 10.2891 2.17199 10.5352 2.54102C10.7853 2.91629 10.918 3.37204 10.918 3.89062Z" fill="black"/>
<path d="M25.6805 24.8652C25.6805 23.9055 24.8911 23.1162 23.9314 23.1162V22.1162L23.9119 23.1162L19.4685 23.0273C18.7773 23.0135 18.1697 23.0009 17.7351 22.9922C17.5181 22.9878 17.3441 22.9848 17.2244 22.9824C17.1645 22.9812 17.118 22.9801 17.0867 22.9795C17.0748 22.9793 17.0649 22.9787 17.0574 22.9785C17.043 22.9806 16.9595 22.9932 16.7869 23.0596C16.6014 23.1309 16.3717 23.2416 16.1053 23.3896C15.573 23.6854 14.9637 24.0908 14.3758 24.5107C13.7915 24.9281 13.2466 25.3472 12.8465 25.6631C12.6742 25.7991 12.5292 25.915 12.4207 26.0029L12.4324 26.0244L12.4373 26.0322C12.4431 26.042 12.4538 26.0602 12.4695 26.085C12.501 26.1345 12.5518 26.2111 12.6219 26.3057C12.7632 26.4965 12.9772 26.7528 13.2605 27.0078C13.8285 27.5189 14.6315 27.9883 15.6844 27.9883H23.9314C24.8911 27.9883 25.6805 27.199 25.6805 26.2393V24.8652ZM27.6805 26.2393C27.6805 28.3035 25.9957 29.9883 23.9314 29.9883H15.6844C13.9882 29.9883 12.7292 29.221 11.9226 28.4951C11.5189 28.1317 11.2177 27.7691 11.0154 27.4961C10.9139 27.3591 10.8354 27.2429 10.781 27.1572C10.7538 27.1143 10.7323 27.0782 10.7166 27.0518C10.7089 27.0387 10.702 27.0281 10.6971 27.0195L10.6961 27.0166C10.5415 26.7775 10.3454 26.4206 10.3074 26.0039C10.285 25.7579 10.3162 25.4799 10.449 25.207C10.5639 24.9712 10.7337 24.7883 10.9217 24.6465H10.9207L10.9217 24.6455C10.9223 24.645 10.9235 24.6445 10.9246 24.6436C10.9269 24.6416 10.9301 24.6383 10.9344 24.6348C10.9429 24.6277 10.9555 24.6177 10.9715 24.6045C11.0035 24.5781 11.0498 24.5395 11.1092 24.4912C11.2279 24.3946 11.3988 24.2573 11.6072 24.0928C12.0232 23.7644 12.5954 23.3244 13.2137 22.8828C13.8282 22.4439 14.5073 21.9901 15.1346 21.6416C15.4479 21.4675 15.766 21.309 16.0691 21.1924C16.3559 21.0821 16.7061 20.9785 17.0594 20.9785H17.0906C17.0986 20.9787 17.1111 20.9792 17.1267 20.9795C17.1581 20.9801 17.2046 20.9812 17.2644 20.9824C17.3842 20.9848 17.5581 20.9878 17.7752 20.9922C18.2098 21.0009 18.8173 21.0135 19.5086 21.0273L23.9519 21.1162L23.951 21.1172C26.0064 21.1277 27.6805 22.8074 27.6805 24.8652V26.2393Z" fill="black"/>
</svg>
