<svg width="32" height="32" viewBox="0 0 32 32" fill="none" xmlns="http://www.w3.org/2000/svg">
<path d="M5.2342 6.84865C12.7415 5.65728 20.3948 5.69699 27.8924 6.96779C28.4907 7.06939 28.9513 7.55109 29.0262 8.15334L30.866 22.9531C31.0132 24.1375 29.9336 25.106 28.7723 24.8311C20.5052 22.8727 11.8948 22.8727 3.62776 24.8311C2.46645 25.106 1.38683 24.1375 1.53401 22.9531L3.37385 8.15334L3.39241 8.04201C3.50693 7.49242 3.94671 7.06305 4.50764 6.96779L5.2342 6.84865ZM27.0985 8.8633C19.8798 7.69059 12.5192 7.69049 5.30061 8.8633L3.56917 22.792C11.8818 20.8868 20.5173 20.8869 28.8299 22.792L27.0985 8.8633Z" fill="#000"/>
<path d="M26 17.6997C26.5523 17.6997 27 18.1474 27 18.6997C27 19.252 26.5523 19.6997 26 19.6997H18.6954L16.9375 24.4409C16.7456 24.9587 16.1702 25.2237 15.6524 25.0317C15.1347 24.8398 14.8708 24.2643 15.0625 23.7466L16.9414 18.6782L16.9864 18.5708C17.2299 18.0431 17.7595 17.6998 18.3477 17.6997H26Z" fill="#000"/>
<path d="M9.2558 10.7444C9.6247 10.3334 10.2569 10.2994 10.6679 10.6682C11.0789 11.0371 11.113 11.6693 10.7441 12.0803L7.84662 15.3089C7.47772 15.7197 6.84546 15.7538 6.43451 15.385C6.02352 15.0162 5.98952 14.3839 6.35834 13.9729L9.2558 10.7444Z" fill="#000"/>
<path d="M13.2558 10.7444C13.6247 10.3334 14.2569 10.2994 14.6679 10.6682C15.0789 11.0371 15.113 11.6693 14.7441 12.0803L11.8466 15.3089C11.4777 15.7197 10.8455 15.7538 10.4345 15.385C10.0235 15.0162 9.98952 14.3839 10.3583 13.9729L13.2558 10.7444Z" fill="#000"/>
</svg>
