<svg width="32" height="32" viewBox="0 0 32 32" fill="none" xmlns="http://www.w3.org/2000/svg">
<path d="M3.74121 18.22V23.0989H19.7305V18.22L17.1152 12.4094H6.35645L3.74121 18.22ZM21.7305 23.5989C21.7303 24.4271 21.0588 25.0989 20.2305 25.0989H3.24121C2.41292 25.0989 1.74143 24.4271 1.74121 23.5989V18.1125C1.74121 17.9005 1.78607 17.6907 1.87305 17.4973L4.66504 11.2942C4.90728 10.756 5.44297 10.4094 6.0332 10.4094H17.4385C17.9919 10.4094 18.4973 10.7139 18.7578 11.1956L18.8066 11.2942L21.5986 17.4973C21.6856 17.6907 21.7305 17.9005 21.7305 18.1125V23.5989Z" fill="#000"/>
<path d="M30.757 17.6895C30.7567 18.2414 30.3089 18.6893 29.757 18.6895C29.2048 18.6895 28.7572 18.2416 28.757 17.6895V11.8105L26.1417 6H15.3282L13.7941 8.7998C13.5287 9.28416 12.921 9.46165 12.4366 9.19629C11.9524 8.93089 11.7748 8.32318 12.0402 7.83887L13.7169 4.7793L13.8263 4.60742C14.1067 4.22852 14.5531 4 15.0323 4H26.465C27.0184 4.00005 27.5238 4.30438 27.7843 4.78613L27.8331 4.88477L30.6241 11.0879C30.7112 11.2814 30.757 11.491 30.757 11.7031V17.6895Z" fill="#000"/>
<path d="M22.125 16.7542C22.6773 16.7542 23.125 17.2019 23.125 17.7542C23.125 18.3064 22.6773 18.7542 22.125 18.7542H1.3457C0.793418 18.7542 0.345703 18.3064 0.345703 17.7542C0.345703 17.2019 0.793418 16.7542 1.3457 16.7542H22.125Z" fill="#000"/>
<path d="M30.6553 10.3445C31.2074 10.3447 31.6553 10.7923 31.6553 11.3445C31.6553 11.8966 31.2074 12.3442 30.6553 12.3445L21.3936 12.3445C20.8413 12.3445 20.3936 11.8968 20.3936 11.3445C20.3936 10.7922 20.8413 10.3445 21.3936 10.3445L30.6553 10.3445Z" fill="#000"/>
<path d="M5.5 25.0984H3.74121V25.9998H5.5V25.0984ZM7.5 25.9998C7.5 27.1042 6.60442 27.9996 5.5 27.9998H3.74121C2.63664 27.9998 1.74121 27.1043 1.74121 25.9998V23.0984H7.5V25.9998Z" fill="#000"/>
<path d="M19.7295 25.0984H17.9707V25.9998H19.7295V25.0984ZM21.7295 25.9998C21.7295 27.1042 20.8339 27.9996 19.7295 27.9998H17.9707C16.8661 27.9998 15.9707 27.1043 15.9707 25.9998V23.0984H21.7295V25.9998Z" fill="#000"/>
<path d="M28.7578 18.7542H26.999V19.6555H28.7578V18.7542ZM30.7578 19.6555C30.7578 20.76 29.8622 21.6553 28.7578 21.6555H26.999C25.8945 21.6555 24.999 20.7601 24.999 19.6555V16.7542H30.7578V19.6555Z" fill="#000"/>
<path d="M17.9863 20.0632C18.5386 20.0632 18.9863 20.5109 18.9863 21.0632C18.9863 21.6155 18.5386 22.0632 17.9863 22.0632L16.4746 22.0632C15.9223 22.0632 15.4746 21.6155 15.4746 21.0632C15.4746 20.5109 15.9223 20.0632 16.4746 20.0632L17.9863 20.0632Z" fill="#000"/>
<path d="M26.7549 13.6545C27.3072 13.6545 27.7549 14.1023 27.7549 14.6545C27.7549 15.2068 27.3072 15.6545 26.7549 15.6545L25.2432 15.6545C24.6909 15.6545 24.2432 15.2068 24.2432 14.6545C24.2432 14.1023 24.6909 13.6545 25.2432 13.6545L26.7549 13.6545Z" fill="#000"/>
<path d="M7.22168 20.0632C7.77396 20.0632 8.22168 20.5109 8.22168 21.0632C8.22168 21.6155 7.77396 22.0632 7.22168 22.0632L5.70996 22.0632C5.15768 22.0632 4.70996 21.6155 4.70996 21.0632C4.70996 20.5109 5.15768 20.0632 5.70996 20.0632L7.22168 20.0632Z" fill="#000"/>
</svg>
