<svg width="32" height="32" viewBox="0 0 32 32" fill="none" xmlns="http://www.w3.org/2000/svg"><g transform="translate(1.392 1.117)"><g id="Vector">
<path d="M27.4648 22.7166C27.4648 23.545 26.7933 24.2166 25.9648 24.2166H3.40625C2.57782 24.2166 1.90625 23.545 1.90625 22.7166V15.3445C1.90626 15.1324 1.9511 14.9227 2.03809 14.7292L5.74902 6.48413C5.99126 5.94589 6.52695 5.59937 7.11719 5.59937H9.34766C9.89994 5.59937 10.3477 6.04708 10.3477 6.59937C10.3477 7.15165 9.89994 7.59937 9.34766 7.59937H7.44043L3.90625 15.4519V22.2166H25.4648V15.4519L21.9307 7.59937H20.416C19.8637 7.59937 19.416 7.15165 19.416 6.59937C19.416 6.04708 19.8637 5.59937 20.416 5.59937H22.2539C22.8441 5.59937 23.3798 5.94589 23.6221 6.48413L27.333 14.7292C27.42 14.9227 27.4648 15.1324 27.4648 15.3445V22.7166Z" fill="#000"/>
<path d="M28.2129 13.9082C28.7652 13.9082 29.2129 14.3559 29.2129 14.9082C29.2129 15.4605 28.7652 15.9082 28.2129 15.9082H1C0.447715 15.9082 0 15.4605 0 14.9082C0 14.3559 0.447715 13.9082 1 13.9082H28.2129Z" fill="#000"/>
<path d="M6.82812 24.2168H3.90625V26.0166H6.82812V24.2168ZM8.82812 26.0166C8.82812 27.1212 7.93269 28.0166 6.82812 28.0166H3.90625C2.80168 28.0166 1.90625 27.1212 1.90625 26.0166V22.2168H8.82812V26.0166Z" fill="#000"/>
<path d="M25.4648 24.2168H22.543V26.0166H25.4648V24.2168ZM27.4648 26.0166C27.4648 27.1212 26.5694 28.0166 25.4648 28.0166H22.543C21.4384 28.0166 20.543 27.1212 20.543 26.0166V22.2168H27.4648V26.0166Z" fill="#000"/>
<path d="M22.8721 18.2417C23.4244 18.2417 23.8721 18.6894 23.8721 19.2417C23.8721 19.794 23.4244 20.2417 22.8721 20.2417H20.8926C20.3403 20.2417 19.8926 19.794 19.8926 19.2417C19.8926 18.6894 20.3403 18.2417 20.8926 18.2417H22.8721Z" fill="#000"/>
<path d="M8.77441 18.2417C9.3267 18.2417 9.77441 18.6894 9.77441 19.2417C9.77441 19.794 9.3267 20.2417 8.77441 20.2417H6.79492C6.24264 20.2417 5.79492 19.794 5.79492 19.2417C5.79492 18.6894 6.24264 18.2417 6.79492 18.2417H8.77441Z" fill="#000"/>
<path d="M15.2305 9.80786C15.2305 9.37909 14.8829 9.0315 14.4541 9.0315C14.0253 9.0315 13.6777 9.37909 13.6777 9.80786C13.6777 10.2366 14.0253 10.5842 14.4541 10.5842C14.8829 10.5842 15.2305 10.2366 15.2305 9.80786ZM17.2305 9.80786C17.2305 11.3412 15.9874 12.5842 14.4541 12.5842C12.9208 12.5842 11.6777 11.3412 11.6777 9.80786C11.6777 8.27452 12.9208 7.0315 14.4541 7.0315C15.9874 7.0315 17.2305 8.27452 17.2305 9.80786Z" fill="#000"/>
<path d="M13.5537 8.10742V1C13.5537 0.447715 14.0014 8.93578e-10 14.5537 0C15.106 -8.93578e-10 15.5537 0.447715 15.5537 1V2.62793H16.9863C17.5385 2.62804 17.9863 3.07572 17.9863 3.62793C17.9863 4.18008 17.5385 4.62781 16.9863 4.62793H15.5537V8.10742C15.5537 8.65971 15.106 9.10742 14.5537 9.10742C14.0014 9.10742 13.5537 8.65971 13.5537 8.10742Z" fill="#000"/>
</g></g></svg>
