<?xml version="1.0" encoding="UTF-8"?>
<svg width="24px" height="24px" viewBox="0 0 24 24" version="1.1" xmlns="http://www.w3.org/2000/svg" xmlns:xlink="http://www.w3.org/1999/xlink">
    <!-- Generator: Sketch 56.3 (81716) - https://sketch.com -->
    <title>car-windshield</title>
    <desc>Created with Sketch.</desc>
    <g id="car-windshield" stroke="none" stroke-width="1" fill="none" fill-rule="evenodd">
        <path d="M22.63,15.5 L20.21,5.85 C20.0885634,5.36932341 19.6332708,5.05019306 19.14,5.1 C17.8,5.24 14.14,5.5 12,5.5 C9.86,5.5 6.2,5.24 4.86,5.1 C4.36672919,5.05019306 3.91143655,5.36932341 3.79,5.85 L1.37,15.5 C1.2628032,15.9042435 1.32923762,16.3348851 1.55327547,16.6880295 C1.77731331,17.0411739 2.13861,17.2847525 2.55,17.36 C5.67886416,17.8159434 8.83823141,18.0299111 12,18 C15.1617686,18.0299111 18.3211358,17.8159434 21.45,17.36 C21.86139,17.2847525 22.2226867,17.0411739 22.4467245,16.6880295 C22.6707624,16.3348851 22.7371968,15.9042435 22.63,15.5 L22.63,15.5 Z M12,16 C9.13864746,16.0269107 6.27876072,15.8598612 3.44,15.5 L5.5,7.18 C7,7.32 10.16,7.5 12,7.5 C13.84,7.5 17,7.32 18.5,7.18 L20.56,15.5 C17.7212393,15.8598612 14.8613525,16.0269107 12,16 L12,16 Z" id="Shape" fill="#000000" fill-rule="nonzero"></path>
    </g>
</svg>