<svg width="32" height="32" viewBox="0 0 32 32" fill="none" xmlns="http://www.w3.org/2000/svg"><g transform="translate(1.392 1.789)"><g id="Vector">
<path d="M27.4648 22.0414C27.4648 22.8699 26.7933 23.5414 25.9648 23.5414H3.40625C2.57782 23.5414 1.90625 22.8699 1.90625 22.0414V14.6694C1.90626 14.4573 1.9511 14.2475 2.03809 14.0541L5.74902 5.809C5.99126 5.27077 6.52695 4.92424 7.11719 4.92424H10.3643C10.9164 4.92436 11.3643 5.37203 11.3643 5.92424C11.3643 6.47645 10.9164 6.92412 10.3643 6.92424H7.44043L3.90625 14.7768V21.5414H25.4648V14.7768L21.9307 6.92424H20.416C19.8637 6.92424 19.416 6.47652 19.416 5.92424C19.416 5.37195 19.8637 4.92424 20.416 4.92424H22.2539C22.8441 4.92424 23.3798 5.27077 23.6221 5.809L27.333 14.0541C27.42 14.2476 27.4648 14.4572 27.4648 14.6694V22.0414Z" fill="#000"/>
<path d="M28.2129 13.2331C28.7652 13.2331 29.2129 13.6808 29.2129 14.2331C29.2129 14.7854 28.7652 15.2331 28.2129 15.2331H1C0.447715 15.2331 0 14.7854 0 14.2331C0 13.6808 0.447715 13.2331 1 13.2331H28.2129Z" fill="#000"/>
<path d="M6.82812 23.5417H3.90625V25.3415H6.82812V23.5417ZM8.82812 25.3415C8.82812 26.446 7.93269 27.3415 6.82812 27.3415H3.90625C2.80168 27.3415 1.90625 26.446 1.90625 25.3415V21.5417H8.82812V25.3415Z" fill="#000"/>
<path d="M25.4648 23.5417H22.543V25.3415H25.4648V23.5417ZM27.4648 25.3415C27.4648 26.446 26.5694 27.3415 25.4648 27.3415H22.543C21.4384 27.3415 20.543 26.446 20.543 25.3415V21.5417H27.4648V25.3415Z" fill="#000"/>
<path d="M22.8721 17.5666C23.4244 17.5666 23.8721 18.0143 23.8721 18.5666C23.8721 19.1189 23.4244 19.5666 22.8721 19.5666H20.8926C20.3403 19.5666 19.8926 19.1189 19.8926 18.5666C19.8926 18.0143 20.3403 17.5666 20.8926 17.5666H22.8721Z" fill="#000"/>
<path d="M8.77441 17.5666C9.3267 17.5666 9.77441 18.0143 9.77441 18.5666C9.77441 19.1189 9.3267 19.5666 8.77441 19.5666H6.79492C6.24264 19.5666 5.79492 19.1189 5.79492 18.5666C5.79492 18.0143 6.24264 17.5666 6.79492 17.5666H8.77441Z" fill="#000"/>
<path d="M11.2292 9.70947L14.2785 4.4279C14.5546 3.94961 15.1662 3.78573 15.6445 4.06188C16.1228 4.33802 16.2867 4.94961 16.0106 5.4279L12.9612 10.7095C12.6851 11.1878 12.0735 11.3516 11.5952 11.0755C11.1169 10.7994 10.953 10.1878 11.2292 9.70947Z" fill="#000"/>
<path d="M13.8483 1.57509L14.4689 0.500167C14.7451 0.0218743 15.3567 -0.142001 15.835 0.134142C16.3133 0.410284 16.4771 1.02187 16.201 1.50017L15.5804 2.57509C15.3598 2.95711 15.4908 3.44575 15.8728 3.66631C16.2548 3.88679 16.7435 3.7559 16.964 3.37392L17.5846 2.299C17.8607 1.8207 18.4723 1.65683 18.9506 1.93297C19.4288 2.20917 19.5928 2.82077 19.3166 3.299L18.696 4.37392C17.9232 5.71249 16.2114 6.17112 14.8728 5.39836C13.5342 4.62551 13.0755 2.91369 13.8483 1.57509Z" fill="#000"/>
</g></g></svg>
