<svg width="32" height="32" viewBox="0 0 32 32" fill="none" xmlns="http://www.w3.org/2000/svg">
<path d="M15.9893 3C13.4181 3 10.9047 3.76244 8.76685 5.1909C6.62901 6.61935 4.96277 8.64968 3.97883 11.0251C2.99489 13.4006 2.73745 16.0144 3.23906 18.5362C3.74066 21.0579 4.97879 23.3743 6.79688 25.1924C8.61496 27.0105 10.9313 28.2486 13.4531 28.7502C15.9748 29.2518 18.5887 28.9944 20.9641 28.0104C23.3396 27.0265 25.3699 25.3603 26.7984 23.2224C28.2268 21.0846 28.9893 18.5712 28.9893 16C28.9856 12.5533 27.6148 9.24882 25.1776 6.81163C22.7404 4.37445 19.436 3.00364 15.9893 3ZM21.6968 13.7075L14.6968 20.7075C14.6039 20.8005 14.4936 20.8742 14.3722 20.9246C14.2508 20.9749 14.1207 21.0008 13.9893 21.0008C13.8578 21.0008 13.7277 20.9749 13.6063 20.9246C13.4849 20.8742 13.3746 20.8005 13.2818 20.7075L10.2818 17.7075C10.0941 17.5199 9.98871 17.2654 9.98871 17C9.98871 16.7346 10.0941 16.4801 10.2818 16.2925C10.4694 16.1049 10.7239 15.9994 10.9893 15.9994C11.2546 15.9994 11.5091 16.1049 11.6968 16.2925L13.9893 18.5863L20.2818 12.2925C20.3747 12.1996 20.485 12.1259 20.6064 12.0756C20.7278 12.0253 20.8579 11.9994 20.9893 11.9994C21.1207 11.9994 21.2508 12.0253 21.3722 12.0756C21.4936 12.1259 21.6039 12.1996 21.6968 12.2925C21.7897 12.3854 21.8634 12.4957 21.9137 12.6171C21.9639 12.7385 21.9898 12.8686 21.9898 13C21.9898 13.1314 21.9639 13.2615 21.9137 13.3829C21.8634 13.5043 21.7897 13.6146 21.6968 13.7075Z" fill="#000"/>
</svg>
