<svg width="32" height="32" viewBox="0 0 32 32" fill="none" xmlns="http://www.w3.org/2000/svg">
<path d="M25 4.00006H20.4675C19.9056 3.37097 19.2172 2.86763 18.4473 2.52301C17.6775 2.17839 16.8435 2.00024 16 2.00024C15.1565 2.00024 14.3225 2.17839 13.5527 2.52301C12.7828 2.86763 12.0944 3.37097 11.5325 4.00006H7C6.46957 4.00006 5.96086 4.21078 5.58579 4.58585C5.21071 4.96092 5 5.46963 5 6.00006V27.0001C5 27.5305 5.21071 28.0392 5.58579 28.4143C5.96086 28.7893 6.46957 29.0001 7 29.0001H25C25.5304 29.0001 26.0391 28.7893 26.4142 28.4143C26.7893 28.0392 27 27.5305 27 27.0001V6.00006C27 5.46963 26.7893 4.96092 26.4142 4.58585C26.0391 4.21078 25.5304 4.00006 25 4.00006ZM16 4.00006C17.0609 4.00006 18.0783 4.42149 18.8284 5.17164C19.5786 5.92178 20 6.9392 20 8.00006H12C12 6.9392 12.4214 5.92178 13.1716 5.17164C13.9217 4.42149 14.9391 4.00006 16 4.00006ZM25 27.0001H7V6.00006H10.3438C10.1163 6.64233 10 7.3187 10 8.00006V9.00006C10 9.26528 10.1054 9.51963 10.2929 9.70717C10.4804 9.89471 10.7348 10.0001 11 10.0001H21C21.2652 10.0001 21.5196 9.89471 21.7071 9.70717C21.8946 9.51963 22 9.26528 22 9.00006V8.00006C22 7.3187 21.8837 6.64233 21.6562 6.00006H25V27.0001Z" fill="#000"/>
<path d="M10.4639 18.7785C10.8624 18.3962 11.4956 18.4093 11.878 18.8078L14.6153 21.6603C14.9976 22.0588 14.9844 22.692 14.586 23.0744C14.1875 23.4568 13.5543 23.4436 13.1719 23.0451L10.4346 20.1926C10.0523 19.7941 10.0654 19.1609 10.4639 18.7785Z" fill="#000"/>
<path d="M21.794 14.8097C21.4126 14.4104 20.7793 14.3954 20.3799 14.7765L13.2031 21.63C12.8039 22.0115 12.7896 22.6448 13.1709 23.0441C13.5524 23.4432 14.1857 23.4576 14.585 23.0763L21.7608 16.2238C22.1601 15.8425 22.1751 15.2092 21.794 14.8097Z" fill="#000"/>
</svg>
