<svg version="1.1" xmlns="http://www.w3.org/2000/svg" x="0" y="0" viewBox="0 0 24 24" width="24" height="24" xml:space="preserve"><path class="st0" d="M11 4.6c.8 0 1.5.6 1.5 1.4s-.7 1.3-1.5 1.3-1.5-.6-1.5-1.4.6-1.3 1.5-1.3z"/><path class="st0" d="M10.9 1.1c2 0 3.4 1.1 4 2.2.1.2.2.3.4.4.1.1.2.1.3.1h1.8C18.8 3.8 20 5 20 6.4v11.9c0 1.4-1.2 2.6-2.6 2.6H4.5c-1.4 0-2.6-1.2-2.6-2.6L2 6.4C2 5 3.1 3.8 4.5 3.8h1.7c.1 0 .2 0 .3-.1l.4-.4c.7-1.1 2.1-2.2 4-2.2zM13.6 4c-.4-.7-1.4-1.5-2.7-1.5-1.3.1-2.3.8-2.7 1.5-.2.3-.4.6-.7.9-.3.2-.7.4-1.2.4H4.6c-.6 0-1.1.5-1.1 1.1v11.9c0 .6.5 1.1 1.1 1.1h12.8c.6 0 1.1-.5 1.1-1.1V6.4c0-.6-.5-1.1-1.1-1.1h-1.8c-.5 0-.9-.2-1.2-.4-.3-.3-.6-.6-.8-.9z"/><path class="st1" d="M8.2 9.6c0-.3.3-.6.6-.6h4.8c.3 0 .6.3.6.6s-.3.6-.6.6H8.8c-.3 0-.6-.3-.6-.6z"/><path class="st1" d="M8.8 9c.3 0 .6.3.6.6v5.8c0 .3-.3.6-.6.6s-.6-.3-.6-.6V9.6c0-.3.3-.6.6-.6z"/><path class="st1" d="M8.2 12.6c0-.3.3-.6.6-.6h3.8c.3 0 .6.3.6.6s-.3.6-.6.6H8.8c-.3 0-.6-.3-.6-.6z"/></svg>