<svg width="32" height="32" viewBox="0 0 32 32" fill="none" xmlns="http://www.w3.org/2000/svg">
<path d="M15.9893 3C13.4181 3 10.9047 3.76244 8.76685 5.1909C6.62901 6.61935 4.96277 8.64968 3.97883 11.0251C2.99489 13.4006 2.73745 16.0144 3.23906 18.5362C3.74066 21.0579 4.97879 23.3743 6.79688 25.1924C8.61496 27.0105 10.9313 28.2486 13.4531 28.7502C15.9748 29.2518 18.5887 28.9944 20.9641 28.0104C23.3396 27.0265 25.3699 25.3603 26.7984 23.2224C28.2268 21.0846 28.9893 18.5712 28.9893 16C28.9856 12.5533 27.6148 9.24882 25.1776 6.81163C22.7404 4.37445 19.436 3.00364 15.9893 3ZM20.6968 19.2925C20.7897 19.3854 20.8634 19.4957 20.9137 19.6171C20.9639 19.7385 20.9898 19.8686 20.9898 20C20.9898 20.1314 20.9639 20.2615 20.9137 20.3829C20.8634 20.5043 20.7897 20.6146 20.6968 20.7075C20.6039 20.8004 20.4936 20.8741 20.3722 20.9244C20.2508 20.9747 20.1207 21.0006 19.9893 21.0006C19.8579 21.0006 19.7278 20.9747 19.6064 20.9244C19.485 20.8741 19.3747 20.8004 19.2818 20.7075L15.9893 17.4137L12.6968 20.7075C12.6039 20.8004 12.4936 20.8741 12.3722 20.9244C12.2508 20.9747 12.1207 21.0006 11.9893 21.0006C11.8579 21.0006 11.7278 20.9747 11.6064 20.9244C11.485 20.8741 11.3747 20.8004 11.2818 20.7075C11.1889 20.6146 11.1152 20.5043 11.0649 20.3829C11.0146 20.2615 10.9887 20.1314 10.9887 20C10.9887 19.8686 11.0146 19.7385 11.0649 19.6171C11.1152 19.4957 11.1889 19.3854 11.2818 19.2925L14.5755 16L11.2818 12.7075C11.0941 12.5199 10.9887 12.2654 10.9887 12C10.9887 11.7346 11.0941 11.4801 11.2818 11.2925C11.4694 11.1049 11.7239 10.9994 11.9893 10.9994C12.2546 10.9994 12.5091 11.1049 12.6968 11.2925L15.9893 14.5863L19.2818 11.2925C19.3747 11.1996 19.485 11.1259 19.6064 11.0756C19.7278 11.0253 19.8579 10.9994 19.9893 10.9994C20.1207 10.9994 20.2508 11.0253 20.3722 11.0756C20.4936 11.1259 20.6039 11.1996 20.6968 11.2925C20.7897 11.3854 20.8634 11.4957 20.9137 11.6171C20.9639 11.7385 20.9898 11.8686 20.9898 12C20.9898 12.1314 20.9639 12.2615 20.9137 12.3829C20.8634 12.5043 20.7897 12.6146 20.6968 12.7075L17.403 16L20.6968 19.2925Z" fill="#000"/>
</svg>
