<svg xmlns="http://www.w3.org/2000/svg" width="40" height="40" viewBox="0 0 40 40"><g><path d="M7 8h26a1 1 0 010 2H7a1 1 0 010-2zm22 5a1 1 0 012 0v6a1 1 0 01-2 0v-6zm-17 0a1 1 0 012 0v2c0 .265-.105.52-.293.707L11 18.414V21a1 1 0 01-2 0v-3c0-.265.105-.52.293-.707L12 14.586V13zm10 0a1 1 0 012 0v2c0 .265-.105.52-.293.707L21 18.414V21a1 1 0 01-2 0v-3c0-.265.105-.52.293-.707L22 14.586V13z"/><path d="M29 20a1 1 0 00-1 1v7a1 1 0 001 1h2a1 1 0 001-1v-7a1 1 0 00-1-1h-2zm0-2h2a3 3 0 013 3v7a3 3 0 01-3 3h-2a3 3 0 01-3-3v-7a3 3 0 013-3zm-10 5a1 1 0 00-1 1v4a1 1 0 001 1h2a1 1 0 001-1v-4a1 1 0 00-1-1h-2zm0-2h2a3 3 0 013 3v4a3 3 0 01-3 3h-2a3 3 0 01-3-3v-4a3 3 0 013-3zM9 23a1 1 0 00-1 1v4a1 1 0 001 1h2a1 1 0 001-1v-4a1 1 0 00-1-1H9zm0-2h2a3 3 0 013 3v4a3 3 0 01-3 3H9a3 3 0 01-3-3v-4a3 3 0 013-3z"/></g></svg>
