<svg width="32" height="32" viewBox="0 0 32 32" fill="none" xmlns="http://www.w3.org/2000/svg"><g transform="translate(1.14 3)"><g id="Vector">
<path d="M2.86193 15.5V9.72852L4.86193 6.31934V1C4.86193 0.447715 5.30965 0 5.86193 0C6.41422 0 6.86193 0.447715 6.86193 1V6.8623L4.86193 10.2705V15.5C4.86193 16.0523 4.41421 16.5 3.86193 16.5C3.30965 16.5 2.86193 16.0523 2.86193 15.5Z" fill="#000"/>
<path d="M12.8619 15V1C12.8619 0.447715 13.3096 1.95702e-08 13.8619 4.37113e-08C14.4142 6.78525e-08 14.8619 0.447715 14.8619 1V15C14.8619 15.5523 14.4142 16 13.8619 16C13.3096 16 12.8619 15.5523 12.8619 15Z" fill="#000"/>
<path d="M11.8619 19H15.8619C16.4142 19 16.8619 19.4477 16.8619 20C16.8619 20.5523 16.4142 21 15.8619 21H11.8619C11.3096 21 10.8619 20.5523 10.8619 20C10.8619 19.4477 11.3096 19 11.8619 19Z" fill="#000"/>
<path d="M27.8619 15C28.4142 15 28.8619 15.4477 28.8619 16C28.8619 16.5523 28.4142 17 27.8619 17H21.8619C21.3096 17 20.8619 16.5523 20.8619 16C20.8619 15.4477 21.3096 15 21.8619 15H27.8619Z" fill="black"/>
<path d="M27.8619 19C28.4142 19 28.8619 19.4477 28.8619 20C28.8619 20.5523 28.4142 21 27.8619 21H21.8619C21.3096 21 20.8619 20.5523 20.8619 20C20.8619 19.4477 21.3096 19 21.8619 19H27.8619Z" fill="black"/>
<path d="M1.86193 19H5.86193C6.41422 19 6.86193 19.4477 6.86193 20C6.86193 20.5523 6.41422 21 5.86193 21H1.86193C1.30965 21 0.86193 20.5523 0.86193 20C0.86193 19.4477 1.30965 19 1.86193 19Z" fill="#000"/>
<path d="M23.8619 10L23.8619 1C23.8619 0.447715 24.3096 1.95702e-08 24.8619 4.37113e-08C25.4142 6.78525e-08 25.8619 0.447715 25.8619 1L25.8619 10C25.8619 10.5523 25.4142 11 24.8619 11C24.3096 11 23.8619 10.5523 23.8619 10Z" fill="#000"/>
<path d="M5.9381 15.0117C6.99159 15.1235 7.79139 16.0507 7.71935 17.1328L7.31994 23.1328L7.29748 23.3271C7.14005 24.2825 6.31097 25 5.32384 25V23L5.72424 17H1.99963L2.40002 23V25L2.2047 24.9902C1.24094 24.8968 0.469587 24.1178 0.403922 23.1328L0.00450827 17.1328C-0.0723278 15.9786 0.842801 15 1.99963 15H5.72424L5.9381 15.0117ZM5.32384 23V25H2.40002V23H5.32384Z" fill="#000"/>
<path d="M15.9381 15.0117C16.9916 15.1235 17.7914 16.0507 17.7194 17.1328L17.3199 23.1328L17.2975 23.3271C17.14 24.2825 16.311 25 15.3238 25V23L15.7242 17H11.9996L12.4 23V25L12.2047 24.9902C11.2409 24.8968 10.4696 24.1178 10.4039 23.1328L10.0045 17.1328C9.92767 15.9786 10.8428 15 11.9996 15H15.7242L15.9381 15.0117ZM15.3238 23V25H12.4V23H15.3238Z" fill="#000"/>
<path d="M23.3912 12L21.8619 18.0576V23H26.8619V12H23.3912ZM28.8619 23C28.8619 24.1046 27.9665 25 26.8619 25H21.8619C20.7574 25 19.8619 24.1046 19.8619 23V18.0576C19.8619 17.8927 19.8821 17.7283 19.9225 17.5684L21.4518 11.5107C21.676 10.6225 22.4752 10 23.3912 10H26.8619C27.9665 10 28.8619 10.8954 28.8619 12V23Z" fill="#000"/>
</g></g></svg>
