<svg xmlns="http://www.w3.org/2000/svg" width="24" height="24" baseProfile="full" viewBox="0 0 24 24"><path d="M18.816 4.556C16.78 3.538 14.077 3 11 3s-5.78.538-7.816 1.556C1.148 5.573 0 7.006 0 8.5v4.714c0 1.495 1.16 2.932 3.184 3.945C5.207 18.17 7.923 18.714 11 18.714s5.78-.538 7.816-1.555C20.852 16.14 22 14.709 22 13.214V8.5c0-1.495-1.16-2.932-3.184-3.944ZM11 4.57c6.152 0 9.429 2.282 9.429 3.929 0 1.647-3.277 3.929-9.429 3.929S1.571 10.147 1.571 8.5c0-1.647 3.277-3.929 9.429-3.929Zm-.786 9.415v3.143c-1.866-.06-3.437-.336-4.714-.736v-3.076c1.54.41 3.122.635 4.714.67Zm1.572 0a19.977 19.977 0 0 0 4.714-.669v3.075c-1.277.4-2.848.675-4.714.736v-3.142ZM1.57 13.214V11.4a8.14 8.14 0 0 0 1.613 1.044c.239.12.491.231.745.337v2.987c-1.555-.77-2.358-1.74-2.358-2.554Zm16.5 2.554V12.78a11.8 11.8 0 0 0 .745-.337 8.141 8.141 0 0 0 1.613-1.044v1.814c0 .814-.803 1.784-2.358 2.554Z"/></svg>
