<?xml version="1.0" encoding="UTF-8"?>
<svg width="33" height="32" viewBox="0 0 33 32" xmlns="http://www.w3.org/2000/svg">
<g clip-path="url(#clip0_4505_13915)">
<path d="M32.5 15.2001L26.844 15.2001C26.452 12.0481 23.756 9.6001 20.5 9.6001L12.5 9.6001C9.244 9.6001 6.548 12.0481 6.156 15.2001H0.5L0.5 16.8001H6.156C6.548 19.9521 9.244 22.4001 12.5 22.4001L20.5 22.4001C23.756 22.4001 26.452 19.9521 26.844 16.8001L32.5 16.8001V15.2001ZM7.7 16.0001C7.7 13.3521 9.852 11.2001 12.5 11.2001H15.7L15.7 20.8001H12.5C9.852 20.8001 7.7 18.6481 7.7 16.0001ZM20.5 20.8001H17.3L17.3 11.2001H20.5C23.148 11.2001 25.3 13.3521 25.3 16.0001C25.3 18.6481 23.148 20.8001 20.5 20.8001Z"/>
</g>
<defs>
<clipPath id="clip0_4505_13915">
<rect width="32" height="32" fill="white" transform="translate(0.5)"/>
</clipPath>
</defs>
</svg>
