<svg width="32" height="32" viewBox="0 0 32 32" fill="none" xmlns="http://www.w3.org/2000/svg">
<path d="M2.1416 25.3242V11.1348C2.1416 9.47792 3.48475 8.13477 5.1416 8.13477H9.59766C10.1499 8.13477 10.5977 8.58248 10.5977 9.13477C10.5977 9.68705 10.1499 10.1348 9.59766 10.1348H5.1416C4.58932 10.1348 4.1416 10.5825 4.1416 11.1348V25.3242C4.14165 25.8765 4.58935 26.3242 5.1416 26.3242H26.9668C27.519 26.3242 27.9667 25.8765 27.9668 25.3242V11.1348C27.9668 10.5825 27.5191 10.1348 26.9668 10.1348H22.5107C21.9585 10.1348 21.5107 9.68705 21.5107 9.13477C21.5107 8.58248 21.9585 8.13477 22.5107 8.13477H26.9668C28.6237 8.13477 29.9668 9.47791 29.9668 11.1348V25.3242C29.9667 26.981 28.6236 28.3242 26.9668 28.3242H5.1416C3.48478 28.3242 2.14165 26.981 2.1416 25.3242Z" fill="#000"/>
<path d="M28.1777 13.439C28.7299 13.4391 29.1777 13.8867 29.1777 14.439C29.1777 14.9912 28.7299 15.4389 28.1777 15.439H3.66309C3.1108 15.439 2.66309 14.9912 2.66309 14.439C2.66309 13.8867 3.1108 13.439 3.66309 13.439H28.1777Z" fill="#000"/>
<path d="M17.5186 22.4233C18.0707 22.4235 18.5186 22.8712 18.5186 23.4233C18.5186 23.9755 18.0707 24.4232 17.5186 24.4233H15.9199C15.3676 24.4233 14.9199 23.9756 14.9199 23.4233C14.9199 22.8711 15.3676 22.4233 15.9199 22.4233H17.5186Z" fill="#000"/>
<path d="M25.2217 22.4233C25.7738 22.4235 26.2217 22.8712 26.2217 23.4233C26.2217 23.9755 25.7738 24.4232 25.2217 24.4233H20.9453C20.393 24.4233 19.9453 23.9756 19.9453 23.4233C19.9453 22.8711 20.393 22.4233 20.9453 22.4233H25.2217Z" fill="#000"/>
<path d="M17.0547 10.0396C17.0547 10.5918 16.607 11.0396 16.0547 11.0396C15.5024 11.0396 15.0547 10.5918 15.0547 10.0396C15.0547 9.48727 15.5024 9.03955 16.0547 9.03955C16.607 9.03955 17.0547 9.48727 17.0547 10.0396Z" fill="#000"/>
<path d="M16.1552 5.25049C16.878 5.2505 17.5938 5.39283 18.2616 5.66943C18.9295 5.94608 19.5366 6.35162 20.0477 6.86279C20.4382 7.25326 20.4381 7.88634 20.0477 8.27686C19.6572 8.66736 19.0242 8.66732 18.6337 8.27686C18.3082 7.9514 17.9212 7.69323 17.496 7.51709C17.0709 7.34106 16.6153 7.2505 16.1552 7.25049C15.6949 7.25049 15.2386 7.34095 14.8134 7.51709C14.3883 7.69321 14.002 7.9515 13.6767 8.27686C13.2861 8.66738 12.6531 8.66738 12.2626 8.27686C11.8721 7.88633 11.8721 7.2533 12.2626 6.86279C12.7738 6.35164 13.3809 5.94607 14.0487 5.66943C14.7165 5.39286 15.4324 5.25049 16.1552 5.25049Z" fill="#000"/>
<path d="M16.1552 1.63086C17.3719 1.63086 18.5769 1.87033 19.7011 2.33594C20.8252 2.80156 21.8465 3.48439 22.7069 4.34473C23.0975 4.73525 23.0975 5.36826 22.7069 5.75879C22.3164 6.14926 21.6834 6.14929 21.2929 5.75879C20.6182 5.08417 19.8169 4.54871 18.9354 4.18359C18.054 3.81857 17.1092 3.63086 16.1552 3.63086C15.2011 3.63087 14.2563 3.81853 13.3749 4.18359C12.4934 4.54873 11.6922 5.08412 11.0175 5.75879C10.6269 6.14931 9.99394 6.14931 9.60341 5.75879C9.21294 5.36826 9.21291 4.73523 9.60341 4.34473C10.4638 3.48434 11.4851 2.80158 12.6093 2.33594C13.7334 1.8703 14.9384 1.63087 16.1552 1.63086Z" fill="#000"/>
</svg>
