<svg width="32" height="32" viewBox="0 0 32 32" fill="none" xmlns="http://www.w3.org/2000/svg">
<path d="M6.64648 20.9766C6.64661 20.4244 7.09428 19.9766 7.64648 19.9766C8.19869 19.9766 8.64636 20.4244 8.64648 20.9766C8.64648 23.1917 10.4434 25 12.6465 25H18.3486C19.8012 25 21.0786 24.2156 21.7812 23.0381C22.0642 22.5639 22.6781 22.4086 23.1523 22.6914C23.6264 22.9743 23.7816 23.5883 23.499 24.0625C22.4543 25.8132 20.5414 27 18.3486 27H12.6465C9.32676 27 6.64648 24.2842 6.64648 20.9766ZM7.66016 11C7.66016 10.0852 7.86627 9.21582 8.23438 8.4375C8.32858 8.21628 8.49701 7.7845 8.7041 7.44043C8.87291 7.16 7.875 7 8.7041 7L8.80566 7.00586C9.30992 7.05696 9.70394 7.4823 9.7041 8C9.7041 8.45503 10.8476 8.32905 10.4316 8.4502C10.4274 8.45685 10.4227 8.46387 10.418 8.47168C10.369 8.55297 10.3159 8.66032 10.2559 8.7959C10.1917 8.94067 10.1441 9.05998 10.0752 9.22168L10.0557 9.26465C9.80295 9.78841 9.66016 10.3761 9.66016 11C9.66016 13.209 11.4512 14.9998 13.6602 15H16.6279C17.1801 15.0002 17.6279 15.4478 17.6279 16C17.6279 16.5522 17.1801 16.9998 16.6279 17H13.6602C10.3466 16.9998 7.66016 14.3136 7.66016 11ZM21.707 11.1631V11C21.707 8.791 19.916 7.00023 17.707 7H13.6602C13.108 6.99984 12.6602 6.55219 12.6602 6C12.6602 5.44781 13.108 5.00016 13.6602 5H17.707C21.0205 5.00023 23.707 7.68643 23.707 11V11.1631C23.707 11.7152 23.2591 12.1629 22.707 12.1631C22.1547 12.1631 21.707 11.7154 21.707 11.1631Z" fill="#000"/>
<path d="M15 29.0059L15 26C15 25.4477 15.4477 25 16 25C16.5523 25 17 25.4477 17 26L17 29.0059C17 29.5581 16.5523 30.0059 16 30.0059C15.4477 30.0059 15 29.5581 15 29.0059Z" fill="#000"/>
<path d="M15 5.99976L15 2.9939C15 2.44161 15.4477 1.9939 16 1.9939C16.5523 1.9939 17 2.44161 17 2.9939L17 5.99976C17 6.55204 16.5523 6.99976 16 6.99976C15.4477 6.99976 15 6.55204 15 5.99976Z" fill="#000"/>
<path d="M27.8125 24.9938C28.2031 25.3843 28.2031 26.0175 27.8125 26.408C27.422 26.7985 26.7888 26.7985 26.3983 26.408L5.75481 5.76451C5.36428 5.37398 5.36428 4.74082 5.75481 4.3503C6.14533 3.95977 6.7785 3.95977 7.16902 4.3503L27.8125 24.9938Z" fill="#000"/>
</svg>
