<svg xmlns="http://www.w3.org/2000/svg" viewBox="0 0 108.39 88.59"><g><g><circle cx="31.38" cy="68.46" r="2.85"/><circle cx="57.05" cy="68.46" r="2.85"/><circle cx="78.73" cy="67.32" r="2.28"/><path d="M86.23 61l-.41-.5c-.56-.66-1.11-1.26-1.49-1.65a2.28 2.28 0 00-1.57-.68l-.35-1.29-1-3.6-.37-1.49a3.76 3.76 0 00-1.82-2.13 5.13 5.13 0 00-1.5-.58H60a4.69 4.69 0 00-2.26-2.63 6.47 6.47 0 00-1.88-.73l-.59-.06H33.34c-2.21 0-3.71 1.32-4.74 3.23a10.28 10.28 0 00-.94 2.42l-1.38 5.76h-.61a2.85 2.85 0 00-1.43.63c-.46.38-1.11 1-1.78 1.64-.31.32-.59.64-.85.95a6.52 6.52 0 00-1.32 2.23c-.28.88-.35 3-.32 7.19L20 75l.12 5.73.06.48.07.32a4.51 4.51 0 00.7 1.41 4.29 4.29 0 003.55 1.79h5.95l.47-.05a4.28 4.28 0 001.77-.68 4.38 4.38 0 002.13-3.87v-2.4h18.79v3.73a4.31 4.31 0 002.1 3.41 4.51 4.51 0 002 .66H64.35a4.41 4.41 0 003.87-3.5v-.47l.12-5.73v-1.11H76v3.09a3.46 3.46 0 001.67 2.65 3.51 3.51 0 001.6.52H84.61a3.43 3.43 0 002.44-1.41 3.56 3.56 0 00.62-1.39v-.38l.13-7c0-4.59 0-6.75-.24-7.56A7.22 7.22 0 0086.23 61zm-17.77 9.17c0-3.9 0-5.9-.32-6.74a5.33 5.33 0 00-.27-.68H81.7l.64.73.47.58.44.62v5.47zM25.7 72v-.1-7.65L26 64a7.2 7.2 0 01.55-.61l.3-.3.29-.28h33.63l.43.49.57.68.38.47.56.77c0 .07.06 3 0 6.47V72zm51.22-18l1.1 4.2H64.31l-.26-.28a2.84 2.84 0 00-2-.85l-.44-1.61-.49-1.82h15.71zm-43.71-1.38l.1-.35c0-.14.12-.29.19-.45l.12-.24c.1-.19.11-.23 0-.23h21.05l.56 2.19v.22L56.1 57h-24zM29.12 79h-3.3v-1.24h3.33zm30.19.89v-2.16h3.34v2.14zm21.23-3.42v-1.73h2.67v1.71z"/><path d="M102.69 0H5.7A5.7 5.7 0 000 5.7v11.41a5.7 5.7 0 005.7 5.71h2.86v63.25a2.86 2.86 0 002.83 2.52h.33a2.86 2.86 0 002.52-2.84V31.38h21.6c3.09 5.14 10.24 8.55 18.36 8.55s15.27-3.41 18.35-8.55h21.62v25.29a2.45 2.45 0 000 .38v29.02A2.86 2.86 0 0097 88.59h.34a2.86 2.86 0 002.52-2.84V22.82h2.82a5.7 5.7 0 005.7-5.71V5.7a5.7 5.7 0 00-5.69-5.7zM54.2 34.23c-8.07 0-14.27-4.13-14.27-8.56s6.2-8.56 14.27-8.56 14.26 4.14 14.26 8.56-6.2 8.56-14.26 8.56zm40-8.56h-20a10.43 10.43 0 00-.39-2.85h20.4zm-20.43 3zm.23-1.35v-.13zm28.66-10.21H70.23c-3.67-3.51-9.54-5.7-16-5.7-10.84 0-20 6.08-20 14.26h-20v-2.85h20.1a12.59 12.59 0 013.55-5.71H5.7V5.7h97zm-68 11.58zm-.29-1.33a1.22 1.22 0 010-.17 1.22 1.22 0 000 .17z"/></g></g></svg>
