<svg width="32" height="32" viewBox="0 0 32 32" fill="none" xmlns="http://www.w3.org/2000/svg">
<path d="M29.251 23.6998C29.251 24.5203 28.5902 25.1998 27.7539 25.1998H17.9355C17.3833 25.1998 16.9355 24.7521 16.9355 24.1998C16.9358 23.6477 17.3834 23.1998 17.9355 23.1998H27.251V16.4341L23.7178 8.58258H17.1201C16.5678 8.58258 16.1201 8.13487 16.1201 7.58258C16.1201 7.0303 16.5678 6.58258 17.1201 6.58258H24.04C24.6303 6.58258 25.166 6.92911 25.4082 7.46735L29.1191 15.7125C29.2062 15.9059 29.251 16.1156 29.251 16.3277V23.6998Z" fill="#000"/>
<path d="M30 14.8914C30.5521 14.8916 31 15.3393 31 15.8914C31 16.4436 30.5521 16.8912 30 16.8914L17.7422 16.8914C17.1899 16.8914 16.7422 16.4437 16.7422 15.8914C16.7422 15.3392 17.1899 14.8915 17.7422 14.8914L30 14.8914Z" fill="#000"/>
<path d="M7.56836 24.2214L7.56836 12.9109C7.56836 12.3586 8.01607 11.9109 8.56836 11.9109C9.12064 11.9109 9.56836 12.3586 9.56836 12.9109L9.56836 24.2214C9.56835 24.7737 9.12064 25.2214 8.56836 25.2214C8.01608 25.2214 7.56837 24.7737 7.56836 24.2214Z" fill="#000"/>
<path d="M27.251 25.2H24.3291V26.9998H27.251V25.2ZM29.251 26.9998C29.251 28.1044 28.3555 28.9998 27.251 28.9998H24.3291C23.2245 28.9998 22.3291 28.1044 22.3291 26.9998V23.2H29.251V26.9998Z" fill="#000"/>
<path d="M24.6582 19.2249C25.2105 19.2249 25.6582 19.6726 25.6582 20.2249C25.6582 20.7772 25.2105 21.2249 24.6582 21.2249L22.6787 21.2249C22.1264 21.2249 21.6787 20.7772 21.6787 20.2249C21.6787 19.6726 22.1264 19.2249 22.6787 19.2249L24.6582 19.2249Z" fill="#000"/>
<path d="M15.7275 8.79492V29.0137H1.67188V8.79492L8.7002 2.67383L15.7275 8.79492ZM3.67188 9.70605V27.0137H13.7275V9.70605L8.69922 5.3252L3.67188 9.70605Z" fill="#000"/>
<path d="M9.68164 8.62036C9.68164 9.17265 9.24201 9.62036 8.69971 9.62036C8.1574 9.62036 7.71777 9.17265 7.71777 8.62036C7.71777 8.06808 8.1574 7.62036 8.69971 7.62036C9.24201 7.62036 9.68164 8.06808 9.68164 8.62036Z" fill="#000"/>
<path d="M10.8428 20.2449C10.8426 19.7136 10.4112 19.283 9.87988 19.283H7.50586C5.87745 19.283 4.55688 17.9631 4.55664 16.3347C4.55664 14.7062 5.8773 13.3855 7.50586 13.3855H11.1455C11.6977 13.3856 12.1455 13.8333 12.1455 14.3855C12.1455 14.9377 11.6977 15.3854 11.1455 15.3855H7.50586C6.98187 15.3855 6.55664 15.8107 6.55664 16.3347C6.55688 16.8585 6.98202 17.283 7.50586 17.283H9.87988C11.5157 17.283 12.8426 18.6091 12.8428 20.2449C12.8428 21.8808 11.5158 23.2078 9.87988 23.2078H6.11914C5.56717 23.2076 5.1194 22.7597 5.11914 22.2078C5.11914 21.6556 5.56701 21.2079 6.11914 21.2078H9.87988C10.4112 21.2078 10.8428 20.7762 10.8428 20.2449Z" fill="#000"/>
</svg>
