<svg xmlns="http://www.w3.org/2000/svg" width="40" height="40" viewBox="0 0 40 40"><path d="M18.948 8c.68 0 1.342.232 1.874.657l8.052 6.442A3.001 3.001 0 0130 17.442V29a3 3 0 01-3 3H13a3 3 0 01-3-3V11a3 3 0 013-3h5.948zm0 2H13a1 1 0 00-1 1v18a1 1 0 001 1h14a1 1 0 001-1V17.442a1 1 0 00-.375-.781l-8.053-6.442a.997.997 0 00-.624-.219zm-2.655 9.293a1 1 0 011.414 0L20 21.585l2.293-2.292a1 1 0 011.414 1.414L21.415 23l2.292 2.293a1 1 0 01.083 1.32l-.083.094a1 1 0 01-1.414 0L20 24.415l-2.293 2.292a1 1 0 01-1.414-1.414L18.585 23l-2.292-2.293a1 1 0 01-.083-1.32zM17.895 12c.454 0 .895.155 1.25.438l1.507 1.206c.086.069.1.195.03.28a.197.197 0 01-.155.076H15a1 1 0 010-2h2.895zm7.73-4.326l3 2.4c1.04.834-.209 2.395-1.25 1.562l-3-2.401c-1.04-.833.209-2.395 1.25-1.561z" /></svg>
