<svg xmlns="http://www.w3.org/2000/svg" width="24" height="24" baseProfile="full" viewBox="0 0 24 24"><path d="M12.29 2.822h-.1V7.658l.157-.113 1.005-.719.94.686.16.116V2.821H12.289ZM4.883 19.078v.1h12.132v-.1h.098V2.822H15.538v6.47c0 .134-.11.244-.244.244a.24.24 0 0 1-.143-.047l-1.75-1.277-.057-.042-.06.042-1.8 1.287a.24.24 0 0 1-.339-.056l-.001-.002a.236.236 0 0 1-.045-.14V2.82H4.884v16.257ZM4.125 1.475h13.75c.325 0 .587.262.587.587v17.875a.587.587 0 0 1-.587.588H4.125a.587.587 0 0 1-.587-.587V2.063c0-.326.262-.588.587-.588Z"/></svg>
