<svg xmlns="http://www.w3.org/2000/svg" width="24" height="24" baseProfile="full" viewBox="0 0 24 24"><path d="M4.757 7.063a.687.687 0 0 1-.361.902L1.604 9.162V19.25c0 .127.103.23.23.23h18.333a.23.23 0 0 0 .229-.23V9.162l-2.792-1.197a.688.688 0 0 1 .542-1.264l3.208 1.375a.687.687 0 0 1 .417.632V19.25c0 .886-.718 1.604-1.604 1.604H1.833A1.604 1.604 0 0 1 .23 19.25V8.708c0-.275.164-.523.417-.632l3.208-1.375a.688.688 0 0 1 .903.362Z"/><path d="M.325 8.359a.688.688 0 0 1 .941-.243L11 13.868l9.733-5.752a.688.688 0 0 1 .7 1.184L11.35 15.26a.688.688 0 0 1-.7 0L.567 9.3a.688.688 0 0 1-.242-.941Z"/><path d="M11 2.215c.38 0 .687.308.687.688v.305c.35.08.688.222.981.438.505.372.853.95.853 1.693a.688.688 0 0 1-1.375 0 .68.68 0 0 0-.293-.586c-.203-.15-.51-.246-.853-.246-.343 0-.65.097-.853.246a.68.68 0 0 0-.293.586c0 .19.038.297.072.36.034.061.087.12.18.178.221.14.548.219 1.04.326l.052.011c.42.092.981.214 1.43.496.25.159.483.376.65.677.166.301.243.645.243 1.024 0 .743-.348 1.321-.853 1.693a2.632 2.632 0 0 1-.98.438v.305a.687.687 0 1 1-1.376 0v-.305a2.632 2.632 0 0 1-.98-.438 2.052 2.052 0 0 1-.853-1.693.688.688 0 0 1 1.375 0c0 .27.11.451.293.586.203.15.51.246.853.246.343 0 .65-.097.853-.246a.68.68 0 0 0 .293-.586.728.728 0 0 0-.072-.36.494.494 0 0 0-.18-.178c-.222-.14-.548-.219-1.04-.326l-.052-.011c-.42-.092-.981-.214-1.43-.496a1.864 1.864 0 0 1-.65-.677 2.087 2.087 0 0 1-.243-1.024c0-.743.348-1.321.853-1.693a2.63 2.63 0 0 1 .98-.438v-.305c0-.38.308-.688.688-.688Z"/><path d="M3.896.23h14.208v10.312H16.73V1.604H5.271v8.938H3.896V.229Z"/></svg>
