<svg xmlns="http://www.w3.org/2000/svg" width="24" height="24" baseProfile="full" viewBox="0 0 24 24"><g fill-rule="evenodd"><path d="M11 2.292a8.708 8.708 0 1 0 0 17.417 8.708 8.708 0 0 0 0-17.417Zm0-1.375C5.431.917.917 5.43.917 11S5.43 21.083 11 21.083 21.083 16.57 21.083 11 16.57.917 11 .917Z"/><path d="M11 4.354c.38 0 .688.308.688.688v.742c.576.091 1.14.303 1.61.65a2.735 2.735 0 0 1 1.14 2.262.688.688 0 0 1-1.376 0c0-.523-.224-.895-.58-1.156-.374-.276-.91-.436-1.482-.436s-1.108.16-1.483.436c-.355.261-.58.633-.58 1.156 0 .332.067.551.151.705.084.152.21.28.388.392.393.248.949.378 1.67.535l.06.013c.643.14 1.432.312 2.052.703.336.212.641.498.858.89.216.392.322.85.322 1.37 0 .996-.463 1.764-1.14 2.263a3.697 3.697 0 0 1-1.61.65v.741a.687.687 0 1 1-1.376 0v-.741a3.697 3.697 0 0 1-1.61-.65 2.735 2.735 0 0 1-1.14-2.263.687.687 0 1 1 1.375 0c0 .523.225.894.58 1.156.375.276.911.436 1.483.436.572 0 1.108-.16 1.483-.436.354-.262.58-.633.58-1.156 0-.332-.067-.552-.151-.705a1.08 1.08 0 0 0-.388-.392c-.393-.248-.95-.378-1.67-.535a9.302 9.302 0 0 1-.06-.013c-.643-.14-1.432-.312-2.052-.703a2.453 2.453 0 0 1-.858-.89c-.216-.392-.322-.85-.322-1.37 0-.996.463-1.764 1.14-2.263a3.696 3.696 0 0 1 1.61-.65v-.741c0-.38.308-.688.688-.688Z"/></g><defs><clipPath id="a"><path d="M0 0h22v22H0z"/></clipPath></defs></svg>
