<svg width="32" height="32" viewBox="0 0 32 32" fill="none" xmlns="http://www.w3.org/2000/svg">
<path d="M1.10254 21.8213V13.2471C1.10266 12.6949 1.55033 12.2471 2.10254 12.2471C2.65475 12.2471 3.10242 12.6949 3.10254 13.2471V21.8213H4.21387C4.76584 21.8215 5.21368 22.2693 5.21387 22.8213C5.21387 23.3734 4.76595 23.8211 4.21387 23.8213H3.10254C1.99797 23.8213 1.10254 22.9259 1.10254 21.8213ZM19.583 21.8213C20.1351 21.8213 20.5828 22.2692 20.583 22.8213C20.583 23.3735 20.1353 23.8212 19.583 23.8213H11.7031C11.1511 23.821 10.7031 23.3734 10.7031 22.8213C10.7033 22.2693 11.1512 21.8215 11.7031 21.8213H19.583ZM20.3047 19.7754V8.22363C20.3047 7.67135 20.7524 7.22363 21.3047 7.22363C21.857 7.22364 22.3047 7.67135 22.3047 8.22363V19.7754C22.3047 20.3277 21.857 20.7754 21.3047 20.7754C20.7524 20.7754 20.3047 20.3277 20.3047 19.7754Z" fill="#000"/>
<path d="M30.9336 22.4014C30.9335 23.2297 30.262 23.9013 29.4336 23.9014H26.6035C26.0514 23.9013 25.6036 23.4535 25.6035 22.9014C25.6035 22.3491 26.0513 21.9015 26.6035 21.9014H28.9336V13.1201L27.0615 9.07715H21.3721C20.8198 9.07715 20.3721 8.62943 20.3721 8.07715C20.3721 7.52486 20.8198 7.07715 21.3721 7.07715H27.3818C27.9296 7.07727 28.4306 7.3755 28.6934 7.84961L28.7432 7.94727L30.7949 12.3789C30.8864 12.5764 30.9336 12.7921 30.9336 13.0098V22.4014Z" fill="#000"/>
<path d="M29.5439 12.0781C30.0962 12.0782 30.5439 12.5259 30.5439 13.0781C30.5439 13.6304 30.0962 14.078 29.5439 14.0781L22.0195 14.0781C21.4672 14.0781 21.0195 13.6304 21.0195 13.0781C21.0195 12.5258 21.4672 12.0781 22.0195 12.0781L29.5439 12.0781Z" fill="#000"/>
<path d="M24.7812 22.9009C24.7811 21.7418 23.8407 20.8022 22.6816 20.8022C21.5227 20.8024 20.5832 21.7419 20.583 22.9009C20.583 24.06 21.5226 25.0003 22.6816 25.0005C23.8408 25.0005 24.7812 24.0601 24.7812 22.9009ZM26.7812 22.9009C26.7812 25.1647 24.9454 27.0005 22.6816 27.0005C20.418 27.0003 18.583 25.1646 18.583 22.9009C18.5832 20.6373 20.4181 18.8024 22.6816 18.8022C24.9453 18.8022 26.7811 20.6372 26.7812 22.9009Z" fill="#000"/>
<path d="M10.7041 22.9009C10.7039 21.7418 9.7636 20.8022 8.60449 20.8022C7.44552 20.8024 6.50602 21.7419 6.50586 22.9009C6.50586 24.06 7.44542 25.0003 8.60449 25.0005C9.76369 25.0005 10.7041 24.0601 10.7041 22.9009ZM12.7041 22.9009C12.7041 25.1647 10.8683 27.0005 8.60449 27.0005C6.34085 27.0003 4.50586 25.1646 4.50586 22.9009C4.50602 20.6373 6.34095 18.8024 8.60449 18.8022C10.8682 18.8022 12.7039 20.6372 12.7041 22.9009Z" fill="#000"/>
<path d="M20.4688 12.0781C21.021 12.0781 21.4688 12.5258 21.4688 13.0781C21.4688 13.6304 21.021 14.0781 20.4688 14.0781H2.06641C1.51412 14.0781 1.06641 13.6304 1.06641 13.0781C1.06641 12.5258 1.51412 12.0781 2.06641 12.0781H20.4688Z" fill="#000"/>
<path d="M10.673 6.06481C11.7327 5.29896 13.1666 5.30772 14.217 6.08629L18.5959 9.33336C19.0393 9.66227 19.1325 10.2882 18.8039 10.7318C18.4749 11.1754 17.8481 11.2687 17.4045 10.9398L13.0256 7.69274C12.6755 7.43357 12.198 7.43087 11.8449 7.6859L9.97087 9.04039C9.52326 9.36391 8.8979 9.26339 8.57439 8.81578C8.25088 8.36818 8.3514 7.74281 8.799 7.4193L10.673 6.06481Z" fill="#000"/>
<path d="M4.25881 7.17418C5.31224 6.2868 6.8344 6.23092 7.95021 7.03843L11.1113 9.32652C11.5585 9.65042 11.6588 10.2757 11.335 10.723C11.0112 11.1702 10.3858 11.2703 9.9385 10.9466L6.77834 8.65855C6.40637 8.38929 5.89807 8.4076 5.54689 8.70347L2.93947 10.9007C2.51713 11.2566 1.88615 11.2029 1.53029 10.7806C1.17446 10.3583 1.22811 9.7273 1.65041 9.37144L4.25881 7.17418Z" fill="#000"/>
</svg>
