<svg width="32" height="32" viewBox="0 0 32 32" fill="none" xmlns="http://www.w3.org/2000/svg">
<path d="M10.4639 19.2783C10.8624 18.896 11.4956 18.9091 11.878 19.3076L14.6153 22.1602C14.9976 22.5586 14.9844 23.1918 14.586 23.5742C14.1875 23.9566 13.5543 23.9434 13.1719 23.5449L10.4346 20.6924C10.0523 20.2939 10.0654 19.6607 10.4639 19.2783Z" fill="#000"/>
<path d="M21.7237 15.3092C21.3423 14.9099 20.709 14.8949 20.3096 15.276L13.1328 22.1295C12.7336 22.5109 12.7193 23.1442 13.1006 23.5436C13.4821 23.9427 14.1154 23.9571 14.5147 23.5758L21.6905 16.7232C22.0898 16.3419 22.1048 15.7086 21.7237 15.3092Z" fill="#000"/>
<path d="M24.9629 3.42445H15.3767C15.1139 3.42361 14.8536 3.475 14.6109 3.57565C14.3682 3.67629 14.1479 3.82417 13.9629 4.0107L12.6704 5.29945L11.3767 4.0107C11.0016 3.63591 10.4931 3.42538 9.9629 3.42538C9.43269 3.42538 8.92419 3.63591 8.54915 4.0107L5.54915 7.0107C5.17436 7.38573 4.96383 7.89424 4.96383 8.42445C4.96383 8.95465 5.17436 9.46316 5.54915 9.8382L6.8379 11.1319L5.54915 12.4244C5.36263 12.6095 5.21474 12.8298 5.1141 13.0725C5.01346 13.3152 4.96206 13.5755 4.9629 13.8382V27.4244C4.9629 27.9549 5.17361 28.4636 5.54869 28.8387C5.92376 29.2137 6.43247 29.4244 6.9629 29.4244H24.9629C25.4933 29.4244 26.002 29.2137 26.3771 28.8387C26.7522 28.4636 26.9629 27.9549 26.9629 27.4244V5.42445C26.9629 4.89402 26.7522 4.38531 26.3771 4.01023C26.002 3.63516 25.4933 3.42445 24.9629 3.42445ZM6.9629 8.42445L9.9629 5.42445L11.2554 6.71695L8.2554 9.71695L6.9629 8.42445ZM24.9629 27.4244H6.9629V13.8382L8.9629 11.8382L15.3767 5.42445H24.9629V27.4244ZM15.9629 8.42445C15.9629 8.15923 16.0683 7.90488 16.2558 7.71734C16.4433 7.52981 16.6977 7.42445 16.9629 7.42445H21.9629C22.2281 7.42445 22.4825 7.52981 22.67 7.71734C22.8575 7.90488 22.9629 8.15923 22.9629 8.42445C22.9629 8.68966 22.8575 8.94402 22.67 9.13156C22.4825 9.31909 22.2281 9.42445 21.9629 9.42445H16.9629C16.6977 9.42445 16.4433 9.31909 16.2558 9.13156C16.0683 8.94402 15.9629 8.68966 15.9629 8.42445Z" fill="#000"/>
</svg>
