<svg width="32" height="32" viewBox="0 0 32 32" fill="none" xmlns="http://www.w3.org/2000/svg">
<path d="M7.15918 7.91504C7.57042 7.54661 8.20272 7.58114 8.57129 7.99219L25.459 26.8408C25.8275 27.2521 25.7921 27.8844 25.3809 28.2529C24.9696 28.6214 24.3373 28.587 23.9688 28.1758L22.835 26.9102C22.7098 26.9665 22.5719 27 22.4258 27H13.79C13.4029 26.9999 13.0302 26.8502 12.751 26.582L10.6621 24.5752H7.77734C6.949 24.5752 6.27748 23.9035 6.27734 23.0752V19.2041L3.4707 19.2051C3.45562 19.2051 3.4407 19.2028 3.42578 19.2021V23.2041C3.42578 23.7564 2.97807 24.2041 2.42578 24.2041C1.8735 24.2041 1.42578 23.7564 1.42578 23.2041V13.2041C1.42595 12.652 1.8736 12.2041 2.42578 12.2041C2.97796 12.2041 3.42562 12.652 3.42578 13.2041V17.207C3.44061 17.2064 3.45572 17.2051 3.4707 17.2051L6.27734 17.2041V14.0879C6.27744 13.6799 6.44409 13.2896 6.73828 13.0068L8.69434 11.127L7.08203 9.32715C6.71362 8.91592 6.74817 8.28361 7.15918 7.91504ZM20 5.59668C20.5523 5.59668 21 6.04439 21 6.59668C20.9999 7.14885 20.5522 7.59668 20 7.59668H16.2344C16.2347 7.60691 16.2363 7.61762 16.2363 7.62793V10.4502H21.9258C22.7542 10.4502 23.4258 11.1218 23.4258 11.9502V15.2998H25.2129V13.1631C25.2129 12.3347 25.8845 11.6631 26.7129 11.6631H29.5C30.3284 11.6631 31 12.3347 31 13.1631V24.2881C30.9997 25.1162 30.3282 25.7881 29.5 25.7881H26.7129C25.8847 25.7881 25.2132 25.1162 25.2129 24.2881V21.1504C25.2129 20.5981 25.6606 20.1504 26.2129 20.1504C26.7652 20.1504 27.2129 20.5981 27.2129 21.1504V23.7881H29V13.6631H27.2129V15.7998C27.2128 16.6281 26.5412 17.2998 25.7129 17.2998H22.9258C22.0974 17.2998 21.4259 16.6281 21.4258 15.7998V12.4502H15.3125C15.2997 12.4502 15.2871 12.4477 15.2744 12.4473C15.2618 12.4477 15.2491 12.4502 15.2363 12.4502C14.6842 12.4502 14.2366 12.0023 14.2363 11.4502V7.62793C14.2363 7.61762 14.238 7.60691 14.2383 7.59668H10C9.4478 7.59668 9.00013 7.14885 9 6.59668C9 6.04439 9.44771 5.59668 10 5.59668H20ZM8.27734 14.3018V22.5752H10.8633C11.2021 22.5752 11.5293 22.6901 11.793 22.8984L11.9023 22.9932L13.9912 25H21.123L10.0303 12.6172L8.27734 14.3018Z" fill="#000"/>
</svg>
