<?xml version="1.0" encoding="UTF-8"?>
<svg xmlns="http://www.w3.org/2000/svg" version="1.1" width="24" height="24" baseProfile="full" viewBox="0 0 24 24">
  <path d="M18.5,8c0-.3-.3-.5-.5-.7-.3-.2-.5-.3-.9-.3H6.1c-.3,0-.6,0-.9.3-.3.2-.4.4-.5.7l-2.1,6v8c0,.3,0,.5.3.7s.4.3.7.3h1c.3,0,.5,0,.7-.3s.3-.4.3-.7v-1h12v1c0,.3,0,.5.3.7s.4.3.7.3h1c.3,0,.5,0,.7-.3s.3-.4.3-.7v-8l-2.1-6ZM8.2,17.2c-.3.3-.6.4-1.1.4s-.8-.1-1.1-.4c-.3-.3-.4-.6-.4-1.1s.1-.8.4-1.1c.3-.3.6-.4,1.1-.4s.8.1,1.1.4c.3.3.4.6.4,1.1s-.1.8-.4,1.1ZM17.2,17.2c-.3.3-.6.4-1.1.4s-.8-.1-1.1-.4c-.3-.3-.4-.6-.4-1.1s.1-.8.4-1.1c.3-.3.6-.4,1.1-.4s.8.1,1.1.4c.3.3.4.6.4,1.1s-.1.8-.4,1.1ZM5.4,11.6l1-3h10.3l1,3H5.4Z"/>
  <polygon class="st0" points="13 6 7 3 11 3 11 1 17 4 13 4 13 6"/>
</svg>