<svg width="32" height="32" viewBox="0 0 32 32" fill="none" xmlns="http://www.w3.org/2000/svg">
<path d="M16.8629 1.2881C17.2561 0.900353 17.8891 0.9048 18.277 1.29786C18.6647 1.69109 18.6604 2.32412 18.2672 2.71192L15.4566 5.48438H17.8111C19.1307 5.48456 19.8074 7.06613 18.8961 8.02052L14.7516 12.3584C14.3702 12.7576 13.7379 12.7727 13.3385 12.3916C12.9392 12.0103 12.9242 11.377 13.3053 10.9775L16.6422 7.48438H14.2369C12.8957 7.48412 12.2292 5.85784 13.1842 4.91602L16.8629 1.2881Z" fill="#000"/>
<path d="M28.8584 23.8318C28.8584 24.6602 28.1868 25.3318 27.3584 25.3318H4.7998C3.97138 25.3318 3.2998 24.6602 3.2998 23.8318V16.4597C3.29981 16.2476 3.34466 16.0379 3.43164 15.8445L7.14258 7.59937C7.38482 7.06113 7.9205 6.7146 8.51074 6.7146H10.7412C11.2935 6.7146 11.7412 7.16231 11.7412 7.7146C11.7412 8.26688 11.2935 8.7146 10.7412 8.7146H8.83398L5.2998 16.5671V23.3318H26.8584V16.5671L23.3242 8.7146H21.8096C21.2573 8.7146 20.8096 8.26688 20.8096 7.7146C20.8096 7.16231 21.2573 6.7146 21.8096 6.7146H23.6475C24.2377 6.7146 24.7734 7.06113 25.0156 7.59937L28.7266 15.8445C28.8136 16.0379 28.8584 16.2476 28.8584 16.4597V23.8318Z" fill="#000"/>
<path d="M29.6064 15.0234C30.1587 15.0234 30.6064 15.4712 30.6064 16.0234C30.6064 16.5757 30.1587 17.0234 29.6064 17.0234H2.39355C1.84127 17.0234 1.39355 16.5757 1.39355 16.0234C1.39355 15.4712 1.84127 15.0234 2.39355 15.0234H29.6064Z" fill="#000"/>
<path d="M8.22168 25.332H5.2998V27.1318H8.22168V25.332ZM10.2217 27.1318C10.2217 28.2364 9.32625 29.1318 8.22168 29.1318H5.2998C4.19523 29.1318 3.2998 28.2364 3.2998 27.1318V23.332H10.2217V27.1318Z" fill="#000"/>
<path d="M26.8584 25.332H23.9365V27.1318H26.8584V25.332ZM28.8584 27.1318C28.8584 28.2364 27.963 29.1318 26.8584 29.1318H23.9365C22.832 29.1318 21.9365 28.2364 21.9365 27.1318V23.332H28.8584V27.1318Z" fill="#000"/>
<path d="M24.2656 19.3569C24.8179 19.3569 25.2656 19.8046 25.2656 20.3569C25.2656 20.9092 24.8179 21.3569 24.2656 21.3569L22.2861 21.3569C21.7338 21.3569 21.2861 20.9092 21.2861 20.3569C21.2861 19.8046 21.7338 19.3569 22.2861 19.3569L24.2656 19.3569Z" fill="#000"/>
<path d="M10.168 19.3569C10.7203 19.3569 11.168 19.8046 11.168 20.3569C11.168 20.9092 10.7203 21.3569 10.168 21.3569L8.18848 21.3569C7.63619 21.3569 7.18848 20.9092 7.18848 20.3569C7.18848 19.8046 7.63619 19.3569 8.18848 19.3569L10.168 19.3569Z" fill="#000"/>
</svg>
