<svg xmlns="http://www.w3.org/2000/svg" viewBox="0 0 24 24" width="24" height="24" xml:space="preserve"><path d="M8.7 13.3c.6.6 1.1 1.3 1.4 2.1.3.8.5 1.6.5 2.5 0 .3-.1.5-.3.7-.2.2-.5.3-.7.3-.3 0-.5-.1-.7-.3-.2-.2-.3-.5-.3-.7 0-1.2-.5-2.3-1.3-3.2-.8-.8-2-1.3-3.2-1.3-.3 0-.5-.1-.7-.3-.2-.2-.3-.5-.3-.7 0-.3.1-.5.3-.7.2-.2.5-.3.7-.3.9 0 1.7.2 2.5.5s1.5.7 2.1 1.4zM4.1 7.2c-.3 0-.5.1-.7.3-.2.2-.3.5-.3.8 0 .3.1.5.3.7.2.2.5.3.7.3 2.3 0 4.5.9 6.1 2.5 1.6 1.6 2.5 3.8 2.5 6.1 0 .3.1.5.3.7.2.2.5.3.7.3s.5-.1.7-.3c.2-.2.3-.5.3-.7 0-2.8-1.1-5.5-3.1-7.5C9.7 8.3 7 7.2 4.1 7.2zm10.5.2C13.2 6 11.6 5 9.8 4.2 8 3.5 6.1 3.1 4.1 3.1c-.3 0-.5.1-.7.3-.2.2-.3.5-.3.7 0 .3.1.5.3.7.2.2.5.4.7.4 1.7 0 3.3.3 4.9 1 1.5.6 2.9 1.6 4.1 2.8 1.2 1.2 2.1 2.6 2.8 4.1.6 1.5 1 3.2 1 4.9 0 .3.1.5.3.7.2.2.5.3.7.3s.5-.1.7-.3c.2-.2.3-.5.3-.7 0-1.9-.4-3.9-1.1-5.7-.8-1.9-1.8-3.5-3.2-4.9zM4.5 16.2c-.3 0-.5.1-.8.2s-.4.4-.5.6c-.1.3-.1.5-.1.8.1.3.2.5.4.7.2.2.4.3.7.4.3.1.5 0 .8-.1.3-.1.5-.3.6-.5.2-.2.2-.5.2-.8 0-.4-.1-.7-.4-1-.2-.2-.6-.3-.9-.3z"/></svg>