<svg width="32" height="32" viewBox="0 0 32 32" fill="none" xmlns="http://www.w3.org/2000/svg">
<path d="M4.04297 10.3337V26.031H27.957V10.3337H4.04297ZM29.957 26.031C29.9569 27.1355 29.0615 28.031 27.957 28.031H4.04297C2.93848 28.031 2.0431 27.1355 2.04297 26.031V10.3337C2.04297 9.22917 2.9384 8.33374 4.04297 8.33374H27.957C29.0616 8.33374 29.957 9.22917 29.957 10.3337V26.031Z" fill="#000"/>
<path d="M7.33594 12.6367C7.33594 13.189 6.88822 13.6367 6.33594 13.6367C5.78365 13.6367 5.33594 13.189 5.33594 12.6367C5.33594 12.0844 5.78365 11.6367 6.33594 11.6367C6.88822 11.6367 7.33594 12.0844 7.33594 12.6367Z" fill="#000"/>
<path d="M26.6631 12.6367C26.6631 13.189 26.2154 13.6367 25.6631 13.6367C25.1108 13.6367 24.6631 13.189 24.6631 12.6367C24.6631 12.0844 25.1108 11.6367 25.6631 11.6367C26.2154 11.6367 26.6631 12.0844 26.6631 12.6367Z" fill="#000"/>
<path d="M26.6631 23.8478C26.6631 24.4001 26.2154 24.8478 25.6631 24.8478C25.1108 24.8478 24.6631 24.4001 24.6631 23.8478C24.6631 23.2956 25.1108 22.8478 25.6631 22.8478C26.2154 22.8478 26.6631 23.2956 26.6631 23.8478Z" fill="#000"/>
<path d="M7.33594 23.8478C7.33594 24.4001 6.88822 24.8478 6.33594 24.8478C5.78365 24.8478 5.33594 24.4001 5.33594 23.8478C5.33594 23.2956 5.78365 22.8478 6.33594 22.8478C6.88822 22.8478 7.33594 23.2956 7.33594 23.8478Z" fill="#000"/>
<path d="M24.6631 4.14099C25.2154 4.14099 25.6631 4.58871 25.6631 5.14099C25.6631 5.69328 25.2154 6.14099 24.6631 6.14099H7.33594C6.78365 6.14099 6.33594 5.69328 6.33594 5.14099C6.33594 4.58871 6.78365 4.14099 7.33594 4.14099H24.6631Z" fill="#000"/>
<path d="M19.9009 21.9971C17.7466 21.9971 16.0967 20.5995 16.0967 18.2034C16.0967 16.0176 17.5049 14.3677 19.8379 14.3677C20.8993 14.3677 22.0342 14.788 22.8014 15.6393L21.761 16.543C21.2986 16.0806 20.6575 15.7654 19.8379 15.7654C18.6083 15.7654 17.6415 16.6796 17.6415 18.2034C17.6415 19.5801 18.5032 20.652 19.9009 20.652C20.4369 20.652 20.9308 20.5154 21.4037 20.2211V19.1282H19.7328V17.8566H22.8434V21.0724C22.1603 21.6188 21.0464 21.9971 19.9009 21.9971Z" fill="#000"/>
<path d="M9.46484 21.9236V14.4623H14.4145V15.7759H10.9256V17.7726H13.8366V19.0967H10.9256V21.9236H9.46484Z" fill="#000"/>
<path d="M17.6416 18.2039C17.6416 16.6801 18.6083 15.7654 19.8379 15.7654L20.1367 15.78C20.8148 15.8467 21.3562 16.1382 21.7607 16.5427L22.8008 15.6394C22.0815 14.8414 21.0392 14.422 20.0371 14.3728L19.8379 14.3679C17.5049 14.3679 16.0967 16.018 16.0967 18.2039L16.1016 18.4255C16.2006 20.6855 17.8137 21.9967 19.9004 21.9968C21.0459 21.9968 22.1607 21.6185 22.8438 21.072V17.8562H19.7324V19.1287H21.4033V20.2214C20.9305 20.5155 20.4362 20.6521 19.9004 20.6521V20.4021C20.346 20.4021 20.7568 20.2982 21.1533 20.0769V19.3787H19.4824V17.6062H23.0938V21.1921L22.999 21.2673C22.2646 21.8548 21.0928 22.2468 19.9004 22.2468C18.7695 22.2467 17.7536 21.8791 17.0186 21.1794C16.2817 20.478 15.8468 19.4617 15.8467 18.2039C15.8467 17.0575 16.2165 16.0336 16.9102 15.2947C17.6057 14.5538 18.6095 14.1179 19.8379 14.1179C20.8898 14.118 22.016 14.507 22.8291 15.3064L22.9873 15.4714L23.1572 15.6609L21.9248 16.7322L21.749 16.8845L21.584 16.7195C21.1659 16.3015 20.5874 16.0154 19.8379 16.0154C19.287 16.0154 18.8049 16.2192 18.46 16.5847C18.1149 16.9505 17.8916 17.4959 17.8916 18.2039L17.9004 18.4382C17.9432 18.9755 18.1332 19.4391 18.4336 19.7781C18.7742 20.1623 19.2702 20.402 19.9004 20.4021V20.6521L19.6455 20.6394C18.482 20.5249 17.7445 19.6265 17.6514 18.4578L17.6416 18.2039Z" fill="#000"/>
<path d="M9.46484 14.4626V21.9236H10.9248V19.0964H13.8359V17.7722H10.9248V15.7761H14.4141V14.4626H9.46484ZM14.6641 16.0261H11.1748V17.5222H14.0859V19.3464H11.1748V22.1736H9.21484V14.2126H14.6641V16.0261Z" fill="#000"/>
</svg>
