<?xml version="1.0" encoding="UTF-8"?>
<svg viewBox="0 0 40 40" xmlns="http://www.w3.org/2000/svg">
<path d="M4 4.79527C4 4.26383 4.4293 3.83301 4.95887 3.83301H35.0411C35.5707 3.83301 36 4.26383 36 4.79527V8.89338C35.9997 10.1493 35.5024 11.3538 34.6174 12.2417C34.6174 12.2418 34.6174 12.2417 34.6174 12.2417L26.5993 20.2882V33.0972C26.5993 33.5113 26.3352 33.8791 25.9436 34.01L14.6628 37.7836C14.3704 37.8814 14.049 37.8322 13.7989 37.6514C13.5489 37.4705 13.4007 37.18 13.4007 36.8707V21.205L5.22704 12.1822C4.43763 11.3106 4.00013 10.1751 4 8.99726V4.79527ZM5.91774 5.75754V8.99706C5.91774 8.99702 5.91774 8.99709 5.91774 8.99706C5.91784 9.69616 6.1775 10.3703 6.64605 10.8876C6.64603 10.8876 6.64607 10.8876 6.64605 10.8876L15.0691 20.1857C15.2295 20.3628 15.3184 20.5936 15.3184 20.833V35.5357L24.6816 32.4036V19.8896C24.6816 19.6344 24.7826 19.3896 24.9624 19.2092L33.2613 10.8809C33.7867 10.3538 34.082 9.63886 34.0823 8.89338C34.0823 8.89332 34.0823 8.89345 34.0823 8.89338V5.75754H5.91774Z"/>
</svg>
