<svg width="32" height="32" viewBox="0 0 32 32" fill="none" xmlns="http://www.w3.org/2000/svg">
<path d="M20.9785 20.3457C20.9785 20.8979 20.5306 21.3455 19.9785 21.3457C19.4262 21.3457 18.9785 20.898 18.9785 20.3457V15.9834H16.0498L14.4688 17.5303L17.7402 21.3496C18.0994 21.7691 18.0513 22.4005 17.6318 22.7598C17.377 22.978 17.0439 23.0444 16.7412 22.9697C17.005 23.1498 17.1787 23.4524 17.1787 23.7959C17.1787 24.3481 16.7309 24.7958 16.1787 24.7959H8.2334C7.68112 24.7959 7.2334 24.3482 7.2334 23.7959C7.2334 23.2436 7.68112 22.7959 8.2334 22.7959H16.1787C16.262 22.7959 16.3426 22.807 16.4199 22.8262C16.3482 22.7774 16.2808 22.7195 16.2217 22.6504L12.6465 18.4756C12.1328 17.8758 12.172 16.9801 12.7363 16.4277L14.7969 14.4111L14.9062 14.3145C15.1715 14.1013 15.5026 13.9834 15.8457 13.9834H18.6162L16.4277 7H5.27246C4.72018 7 4.27246 6.55228 4.27246 6C4.27246 5.44772 4.72018 5 5.27246 5H16.7959C17.4106 5.00002 17.9589 5.37416 18.1865 5.93652L18.2275 6.05176L20.9785 14.8311V20.3457Z" fill="#000"/>
<path d="M4.05859 20.1523V6C4.05859 5.44772 4.50631 5 5.05859 5C5.61088 5 6.05859 5.44772 6.05859 6V20.1523C6.05847 20.7045 5.6108 21.1523 5.05859 21.1523C4.50638 21.1523 4.05871 20.7045 4.05859 20.1523Z" fill="#000"/>
<path d="M22.0371 23.7959C22.0371 22.659 21.1154 21.7373 19.9785 21.7373C18.8416 21.7373 17.9199 22.659 17.9199 23.7959C17.9199 24.9328 18.8416 25.8545 19.9785 25.8545C21.1154 25.8545 22.0371 24.9328 22.0371 23.7959ZM24.0371 23.7959C24.0371 26.0374 22.22 27.8545 19.9785 27.8545C17.737 27.8545 15.9199 26.0374 15.9199 23.7959C15.9199 21.5544 17.737 19.7373 19.9785 19.7373C22.22 19.7373 24.0371 21.5544 24.0371 23.7959Z" fill="#000"/>
<path d="M7.11719 23.6284C7.11719 22.4915 6.19552 21.5698 5.05859 21.5698C3.92166 21.5698 3 22.4915 3 23.6284C3 24.7653 3.92166 25.687 5.05859 25.687C6.19552 25.687 7.11719 24.7653 7.11719 23.6284ZM9.11719 23.6284C9.11719 25.8699 7.30009 27.687 5.05859 27.687C2.81709 27.687 1 25.8699 1 23.6284C1 21.3869 2.81709 19.5698 5.05859 19.5698C7.30009 19.5698 9.11719 21.3869 9.11719 23.6284Z" fill="#000"/>
<path d="M13.6151 10.072C14.0559 9.73936 14.6838 9.82648 15.0165 10.2673C15.349 10.7081 15.2609 11.335 14.8202 11.6677L14.1581 12.1668L15.9354 14.7097C16.2515 15.1624 16.1409 15.786 15.6883 16.1023C15.2357 16.4186 14.6121 16.3079 14.2957 15.8552L12.5604 13.3728L11.8651 13.8982C11.4242 14.2309 10.7974 14.1428 10.4647 13.7019C10.1321 13.2611 10.2192 12.6342 10.66 12.3015L13.6151 10.072Z" fill="#000"/>
<path d="M22.251 5.18677C22.251 4.63448 22.6987 4.18677 23.251 4.18677C23.8033 4.18677 24.251 4.63448 24.251 5.18677V23.0002H29.4131C29.9654 23.0002 30.4131 23.448 30.4131 24.0002C30.413 24.5524 29.9653 25.0002 29.4131 25.0002H23.751C22.9226 25.0002 22.2511 24.3286 22.251 23.5002V5.18677Z" fill="#000"/>
<path d="M9.4668 16.198C10.0191 16.198 10.4668 16.6457 10.4668 17.198C10.4668 17.7503 10.0191 18.198 9.4668 18.198L2.73145 18.198C2.17916 18.198 1.73145 17.7503 1.73145 17.198C1.73145 16.6457 2.17916 16.198 2.73145 16.198L9.4668 16.198Z" fill="#000"/>
</svg>
