<svg width="32" height="32" viewBox="0 0 32 32" fill="none" xmlns="http://www.w3.org/2000/svg">
<path d="M23.3333 12.8602L21.2342 7.96018H13.0999V13.8402C13.0999 14.1001 12.9967 14.3494 12.8129 14.5332C12.6291 14.717 12.3798 14.8202 12.1199 14.8202H6.23988V16.7802C6.23988 17.0402 6.13663 17.2894 5.95284 17.4732C5.76905 17.657 5.51978 17.7602 5.25987 17.7602C4.99996 17.7602 4.75069 17.657 4.5669 17.4732C4.38311 17.2894 4.27986 17.0402 4.27986 16.7802V13.8402L4.28966 13.702L5.26771 6.85571C5.29143 6.66394 5.37164 6.48354 5.49816 6.33748C5.62468 6.19142 5.79178 6.08628 5.97822 6.03545C6.06813 6.0103 6.16123 5.99842 6.25458 6.00017L21.88 6.00017C22.272 6.00017 22.6268 6.23341 22.7816 6.59405L25.5374 13.0258L29.9496 14.8584C30.1542 14.917 30.3342 15.0405 30.4624 15.2105C30.5906 15.3804 30.66 15.5874 30.6601 15.8002V22.6603C30.6601 22.9202 30.5568 23.1695 30.373 23.3533C30.1892 23.537 29.94 23.6403 29.6801 23.6403H28.7001C28.4401 23.6403 28.1909 23.537 28.0071 23.3533C27.8233 23.1695 27.7201 22.9202 27.7201 22.6603C27.7201 22.4004 27.8233 22.1511 28.0071 21.9673C28.1909 21.7835 28.4401 21.6803 28.7001 21.6803V16.5392L24.6828 14.8202H15.0399C14.78 14.8202 14.5308 14.717 14.347 14.5332C14.1632 14.3494 14.0599 14.1001 14.0599 13.8402V10.9002C14.0599 10.6403 14.1632 10.391 14.347 10.2072C14.5308 10.0234 14.78 9.9202 15.0399 9.9202C15.2999 9.9202 15.5491 10.0234 15.7329 10.2072C15.9167 10.391 16.02 10.6403 16.02 10.9002V12.8602H23.3333ZM11.1399 7.96018H7.08954L6.38982 12.8602H11.1399V7.96018ZM19.0415 21.6881C19.2783 20.7629 19.8447 19.9559 20.6343 19.4186C21.4239 18.8813 22.3824 18.6507 23.33 18.77C24.2776 18.8893 25.149 19.3504 25.7808 20.0667C26.4125 20.783 26.7611 21.7052 26.7611 22.6603C26.7611 23.6153 26.4125 24.5376 25.7808 25.2539C25.149 25.9701 24.2776 26.4312 23.33 26.5506C22.3824 26.6699 21.4239 26.4393 20.6343 25.902C19.8447 25.3647 19.2783 24.5577 19.0415 23.6325C19.0023 23.6374 18.9611 23.6403 18.92 23.6403H13.0399C12.78 23.6403 12.5308 23.537 12.347 23.3533C12.1632 23.1695 12.0599 22.9202 12.0599 22.6603C12.0599 22.4004 12.1632 22.1511 12.347 21.9673C12.5308 21.7835 12.78 21.6803 13.0399 21.6803H18.92C18.9611 21.6803 19.0013 21.6832 19.0415 21.6881ZM9.1799 20.7003C8.91888 20.6944 8.65932 20.7407 8.41645 20.8365C8.17357 20.9323 7.95229 21.0756 7.76558 21.2581C7.57887 21.4406 7.4305 21.6585 7.32918 21.8992C7.22786 22.1398 7.17564 22.3982 7.17557 22.6593C7.17551 22.9204 7.2276 23.1788 7.3288 23.4195C7.43 23.6602 7.57826 23.8782 7.76488 24.0608C7.9515 24.2434 8.17271 24.3868 8.41554 24.4827C8.65836 24.5787 8.9179 24.6251 9.17892 24.6193C9.69103 24.608 10.1784 24.3966 10.5366 24.0305C10.8948 23.6643 11.0955 23.1725 11.0956 22.6603C11.0957 22.148 10.8953 21.6561 10.5373 21.2898C10.1792 20.9235 9.69201 20.7119 9.1799 20.7003ZM9.1799 18.7403C11.3457 18.7403 13.0999 20.4945 13.0999 22.6603C13.0999 24.8261 11.3457 26.5803 9.1799 26.5803C7.01408 26.5803 5.25987 24.8261 5.25987 22.6603C5.25987 20.4945 7.01408 18.7403 9.1799 18.7403ZM22.84 20.7003C22.579 20.6944 22.3194 20.7407 22.0766 20.8365C21.8337 20.9323 21.6124 21.0756 21.4257 21.2581C21.239 21.4406 21.0906 21.6585 20.9893 21.8992C20.888 22.1398 20.8358 22.3982 20.8357 22.6593C20.8356 22.9204 20.8877 23.1788 20.9889 23.4195C21.0901 23.6602 21.2384 23.8782 21.425 24.0608C21.6116 24.2434 21.8328 24.3868 22.0756 24.4827C22.3185 24.5787 22.578 24.6251 22.839 24.6193C23.3511 24.608 23.8385 24.3966 24.1967 24.0305C24.5549 23.6643 24.7556 23.1725 24.7557 22.6603C24.7558 22.148 24.5554 21.6561 24.1974 21.2898C23.8393 20.9235 23.3521 20.7119 22.84 20.7003ZM2.31985 12.8602C2.57976 12.8602 2.82903 12.9635 3.01282 13.1473C3.19661 13.331 3.29986 13.5803 3.29986 13.8402V18.7403C3.29986 19.0002 3.19661 19.2494 3.01282 19.4332C2.82903 19.617 2.57976 19.7203 2.31985 19.7203C2.05994 19.7203 1.81067 19.617 1.62688 19.4332C1.44309 19.2494 1.33984 19.0002 1.33984 18.7403V13.8402C1.33984 13.5803 1.44309 13.331 1.62688 13.1473C1.81067 12.9635 2.05994 12.8602 2.31985 12.8602Z" fill="#000"/>
</svg>
