<svg width="32" height="32" viewBox="0 0 32 32" fill="none" xmlns="http://www.w3.org/2000/svg"><g transform="translate(4.963 3.424)"><path id="Vector" d="M20 1.01186e-05H10.4138C10.151 -0.000829299 9.89073 0.0505663 9.64803 0.151209C9.40533 0.251852 9.18505 0.399735 9.00001 0.58626L7.70751 1.87501L6.41376 0.58626C6.03872 0.211471 5.53022 0.00093709 5.00001 0.00093709C4.4698 0.00093709 3.9613 0.211471 3.58626 0.58626L0.58626 3.58626C0.211471 3.96129 0.00093709 4.4698 0.00093709 5.00001C0.00093709 5.53022 0.211471 6.03872 0.58626 6.41376L1.87501 7.70751L0.58626 9.00001C0.399734 9.18505 0.251852 9.40533 0.151209 9.64803C0.0505661 9.89073 -0.000829299 10.151 1.01187e-05 10.4138V24C1.01187e-05 24.5304 0.210724 25.0391 0.585796 25.4142C0.960869 25.7893 1.46958 26 2.00001 26H20C20.5304 26 21.0391 25.7893 21.4142 25.4142C21.7893 25.0391 22 24.5304 22 24V2.00001C22 1.46958 21.7893 0.960869 21.4142 0.585796C21.0391 0.210724 20.5304 1.01186e-05 20 1.01186e-05ZM2.00001 5.00001L5.00001 2.00001L6.29251 3.29251L3.29251 6.29251L2.00001 5.00001ZM20 24H2.00001V10.4138L4.00001 8.41376L10.4138 2.00001H20V24ZM11 5.00001C11 4.73479 11.1054 4.48044 11.2929 4.2929C11.4804 4.10537 11.7348 4.00001 12 4.00001H17C17.2652 4.00001 17.5196 4.10537 17.7071 4.2929C17.8947 4.48044 18 4.73479 18 5.00001C18 5.26523 17.8947 5.51958 17.7071 5.70712C17.5196 5.89465 17.2652 6.00001 17 6.00001H12C11.7348 6.00001 11.4804 5.89465 11.2929 5.70712C11.1054 5.51958 11 5.26523 11 5.00001Z" fill="#000"/></g><g transform="translate(10.157 14.998)"><g id="Group 103">
<g id="Vector">
<path d="M0.307678 4.27866C0.706187 3.89633 1.33938 3.90947 1.72174 4.30796L4.45905 7.1605C4.8414 7.55898 4.82818 8.19218 4.42975 8.57456C4.03124 8.95693 3.39806 8.94377 3.01569 8.54526L0.278381 5.69272C-0.103951 5.29421 -0.0908138 4.66102 0.307678 4.27866Z" fill="#000"/>
<path d="M11.5675 0.309546C11.1861 -0.0897755 10.5528 -0.104776 10.1534 0.276343L2.97665 7.12986C2.57744 7.5113 2.56307 8.14457 2.94442 8.54392C3.32587 8.94303 3.95917 8.95746 4.35848 8.57615L11.5343 1.72361C11.9336 1.34229 11.9486 0.708986 11.5675 0.309546Z" fill="#000"/>
</g>
</g></g></svg>
