<svg width="32" height="32" viewBox="0 0 32 32" fill="none" xmlns="http://www.w3.org/2000/svg">
<path d="M18.3136 21.8896C18.3833 21.8896 18.4478 21.8468 18.4671 21.7799C18.7205 20.904 19.2719 20.1423 20.0279 19.6279C20.8175 19.0906 21.776 18.86 22.7236 18.9793C23.6712 19.0987 24.5426 19.5598 25.1744 20.276C25.8061 20.9923 26.1547 21.9146 26.1547 22.8696C26.1547 23.8247 25.8061 24.7469 25.1744 25.4632C24.5426 26.1795 23.6712 26.6406 22.7236 26.7599C21.776 26.8792 20.8175 26.6486 20.0279 26.1113C19.2719 25.5969 18.7206 24.8353 18.4671 23.9594C18.4478 23.8925 18.3832 23.8496 18.3136 23.8496H12.4335C12.1736 23.8496 11.9244 23.7464 11.7406 23.5626C11.5568 23.3788 11.4535 23.1295 11.4535 22.8696C11.4535 22.6097 11.5568 22.3604 11.7406 22.1767C11.9244 21.9929 12.1736 21.8896 12.4335 21.8896H18.3136ZM8.57349 20.9096C8.31248 20.9037 8.05291 20.95 7.81004 21.0458C7.56717 21.1416 7.34588 21.2849 7.15917 21.4674C6.97246 21.6499 6.82409 21.8679 6.72277 22.1085C6.62145 22.3491 6.56923 22.6076 6.56916 22.8686C6.5691 23.1297 6.62119 23.3882 6.72239 23.6288C6.82359 23.8695 6.97185 24.0875 7.15847 24.2701C7.34509 24.4527 7.5663 24.5962 7.80913 24.6921C8.05195 24.788 8.31149 24.8344 8.57251 24.8287C9.08462 24.8173 9.57195 24.606 9.93018 24.2398C10.2884 23.8737 10.4891 23.3819 10.4892 22.8696C10.4893 22.3574 10.2889 21.8654 9.93087 21.4991C9.57282 21.1328 9.0856 20.9212 8.57349 20.9096ZM8.57349 18.9496C10.7393 18.9496 12.4935 20.7038 12.4935 22.8696C12.4935 25.0354 10.7393 26.7897 8.57349 26.7897C6.40767 26.7897 4.65346 25.0354 4.65346 22.8696C4.65346 20.7038 6.40767 18.9496 8.57349 18.9496ZM22.2336 20.9096C21.9726 20.9037 21.713 20.95 21.4702 21.0458C21.2273 21.1416 21.006 21.2849 20.8193 21.4674C20.6326 21.6499 20.4842 21.8679 20.3829 22.1085C20.2816 22.3491 20.2293 22.6076 20.2293 22.8686C20.2292 23.1297 20.2813 23.3882 20.3825 23.6288C20.4837 23.8695 20.632 24.0875 20.8186 24.2701C21.0052 24.4527 21.2264 24.5962 21.4692 24.6921C21.7121 24.788 21.9716 24.8344 22.2326 24.8287C22.7447 24.8173 23.2321 24.606 23.5903 24.2398C23.9485 23.8737 24.1492 23.3819 24.1493 22.8696C24.1494 22.3574 23.949 21.8654 23.591 21.4991C23.2329 21.1328 22.7457 20.9212 22.2336 20.9096Z" fill="#000"/>
<path d="M6.7832 19.7816V7.20935H2.8916C2.33932 7.20935 1.8916 6.76164 1.8916 6.20935C1.8916 5.65707 2.33932 5.20935 2.8916 5.20935H26.249C26.8013 5.20937 27.249 5.65707 27.249 6.20935C27.249 6.76163 26.8013 7.20934 26.249 7.20935H24.3848L26.0869 13.6967C26.2271 14.2307 25.908 14.777 25.374 14.9174C24.8399 15.0575 24.2926 14.7386 24.1523 14.2045L22.3174 7.20935H8.7832V19.7816C8.7832 20.3338 8.33528 20.7814 7.7832 20.7816C7.23092 20.7816 6.7832 20.3339 6.7832 19.7816Z" fill="#000"/>
<path d="M14.1242 15.2094C14.6765 15.2094 15.1242 15.6571 15.1242 16.2094C15.1242 16.7616 14.6765 17.2094 14.1242 17.2094L4.15639 17.2094C3.60411 17.2094 3.15639 16.7616 3.15639 16.2094C3.15639 15.6571 3.60411 15.2094 4.15639 15.2094L14.1242 15.2094Z" fill="#000"/>
<path d="M19.3019 12.4012C19.7554 12.0864 20.3784 12.1989 20.6935 12.6522L22.7697 15.6385C23.0848 16.092 22.9722 16.7149 22.5187 17.0302C22.0652 17.3452 21.4423 17.2336 21.1271 16.7802L19.0509 13.7928C18.736 13.3394 18.8485 12.7164 19.3019 12.4012Z" fill="#000"/>
<path d="M22.1856 10.9649C22.5229 11.4022 22.4417 12.0302 22.0044 12.3675L18.5895 15.0015C18.1522 15.3386 17.5242 15.2574 17.1869 14.8202C16.8496 14.3829 16.9309 13.7549 17.3682 13.4176L20.783 10.7836C21.2204 10.4464 21.8484 10.5276 22.1856 10.9649Z" fill="#000"/>
<path d="M28.3937 22.226V17.8871C28.3936 16.4167 27.2085 15.2241 25.7414 15.2103L22.5294 17.7767L22.9669 19.4105C23.1099 19.944 22.7933 20.4931 22.2599 20.6361C21.7264 20.7791 21.1782 20.4616 21.0353 19.9281L20.5968 18.2943C20.3913 17.5268 20.6597 16.7102 21.2804 16.2142L24.5177 13.6293C24.8579 13.3576 25.2807 13.2094 25.716 13.2094L25.9562 13.2152C28.428 13.3403 30.3936 15.3843 30.3937 17.8871V22.226C30.3936 23.3302 29.4983 24.226 28.3937 24.226H25.3937C24.8415 24.226 24.3938 23.7781 24.3937 23.226C24.3937 22.6737 24.8414 22.226 25.3937 22.226H28.3937Z" fill="#000"/>
</svg>
