<svg width="24" height="24" viewBox="0 0 20 20" xmlns="http://www.w3.org/2000/svg">
<path d="M14.7989 5.67993C13.2581 5.67993 11.9381 6.78393 11.0549 7.75833C10.6085 8.24793 10.2533 8.73273 9.99891 9.10233C9.74931 8.73273 9.38931 8.24793 8.94291 7.75833C8.05971 6.78393 6.73971 5.67993 5.19891 5.67993C2.81331 5.67993 0.878906 7.61433 0.878906 9.99993C0.878906 12.3855 2.81331 14.3199 5.19891 14.3199C6.73971 14.3199 8.05971 13.2159 8.94291 12.2415C9.38931 11.7519 9.74451 11.2671 9.99891 10.8975C10.2485 11.2671 10.6085 11.7519 11.0549 12.2415C11.9381 13.2159 13.2629 14.3199 14.7989 14.3199C17.1845 14.3199 19.1189 12.3855 19.1189 9.99993C19.1189 7.61433 17.1845 5.67993 14.7989 5.67993ZM9.22131 10.3311C8.98611 10.6767 8.64531 11.1375 8.23251 11.5983C7.37331 12.5439 6.29811 13.3599 5.19891 13.3599C3.34131 13.3599 1.83891 11.8575 1.83891 9.99993C1.83891 8.14233 3.34131 6.63993 5.19891 6.63993C6.29811 6.63993 7.37811 7.45593 8.23251 8.40153C8.65011 8.86233 8.98611 9.32313 9.22131 9.66873C9.30771 9.79833 9.37971 9.90873 9.43731 9.99993C9.37971 10.0911 9.30771 10.2015 9.22131 10.3311ZM14.7989 13.3599C13.6997 13.3599 12.6197 12.5439 11.7653 11.5983C11.3477 11.1375 11.0117 10.6767 10.7765 10.3311C10.6901 10.2015 10.6181 10.0911 10.5605 9.99993C10.6181 9.90873 10.6901 9.79833 10.7765 9.66873C11.0117 9.32313 11.3525 8.86233 11.7653 8.40153C12.6245 7.45593 13.6997 6.63993 14.7989 6.63993C16.6565 6.63993 18.1589 8.14233 18.1589 9.99993C18.1589 11.8575 16.6565 13.3599 14.7989 13.3599Z"/>
</svg>
