<svg width="23" height="22" viewBox="0 0 23 22" fill="none" xmlns="http://www.w3.org/2000/svg">
<circle cx="11.5" cy="11" r="11" fill="#E12E28"/>
<path d="M11.8964 5.71479C12.0339 5.85232 12.1112 6.03884 12.1112 6.23333V12.1C12.1112 12.2945 12.0339 12.481 11.8964 12.6185C11.7589 12.7561 11.5723 12.8333 11.3778 12.8333C11.1833 12.8333 10.9968 12.7561 10.8593 12.6185C10.7218 12.481 10.6445 12.2945 10.6445 12.1V6.23333C10.6445 6.03884 10.7218 5.85232 10.8593 5.71479C10.9968 5.57726 11.1833 5.5 11.3778 5.5C11.5723 5.5 11.7589 5.57726 11.8964 5.71479Z" fill="white"/>
<path d="M12.1556 14.6222C12.3619 14.8285 12.4778 15.1083 12.4778 15.4C12.4778 15.6917 12.3619 15.9715 12.1556 16.1778C11.9494 16.3841 11.6696 16.5 11.3778 16.5C11.0861 16.5 10.8063 16.3841 10.6 16.1778C10.3937 15.9715 10.2778 15.6917 10.2778 15.4C10.2778 15.1083 10.3937 14.8285 10.6 14.6222C10.8063 14.4159 11.0861 14.3 11.3778 14.3C11.6696 14.3 11.9494 14.4159 12.1556 14.6222Z" fill="white"/>
</svg>
