<svg width="32" height="32" viewBox="0 0 32 32" fill="none" xmlns="http://www.w3.org/2000/svg">
<path d="M15.9893 3C13.4181 3 10.9047 3.76244 8.76685 5.1909C6.62901 6.61935 4.96277 8.64968 3.97883 11.0251C2.99489 13.4006 2.73745 16.0144 3.23906 18.5362C3.74066 21.0579 4.97879 23.3743 6.79688 25.1924C8.61496 27.0105 10.9313 28.2486 13.4531 28.7502C15.9748 29.2518 18.5887 28.9944 20.9641 28.0104C23.3396 27.0265 25.3699 25.3603 26.7984 23.2224C28.2268 21.0846 28.9893 18.5712 28.9893 16C28.9856 12.5533 27.6148 9.24882 25.1776 6.81163C22.7404 4.37445 19.436 3.00364 15.9893 3ZM15.4893 9C15.7859 9 16.0759 9.08797 16.3226 9.2528C16.5693 9.41762 16.7616 9.65189 16.8751 9.92597C16.9886 10.2001 17.0183 10.5017 16.9604 10.7926C16.9026 11.0836 16.7597 11.3509 16.5499 11.5607C16.3401 11.7704 16.0729 11.9133 15.7819 11.9712C15.4909 12.0291 15.1893 11.9994 14.9152 11.8858C14.6411 11.7723 14.4069 11.58 14.2421 11.3334C14.0772 11.0867 13.9893 10.7967 13.9893 10.5C13.9893 10.1022 14.1473 9.72064 14.4286 9.43934C14.7099 9.15804 15.0914 9 15.4893 9ZM16.9893 23C16.4588 23 15.9501 22.7893 15.5751 22.4142C15.2 22.0391 14.9893 21.5304 14.9893 21V16C14.724 16 14.4697 15.8946 14.2822 15.7071C14.0946 15.5196 13.9893 15.2652 13.9893 15C13.9893 14.7348 14.0946 14.4804 14.2822 14.2929C14.4697 14.1054 14.724 14 14.9893 14C15.5197 14 16.0284 14.2107 16.4035 14.5858C16.7785 14.9609 16.9893 15.4696 16.9893 16V21C17.2545 21 17.5088 21.1054 17.6964 21.2929C17.8839 21.4804 17.9893 21.7348 17.9893 22C17.9893 22.2652 17.8839 22.5196 17.6964 22.7071C17.5088 22.8946 17.2545 23 16.9893 23Z" fill="#000"/>
</svg>
