<svg width="32" height="32" viewBox="0 0 32 32" fill="none" xmlns="http://www.w3.org/2000/svg">
<path d="M10.2037 2.09803C8.71413 2.16831 7.69689 2.40603 6.80761 2.75547C5.88725 3.11415 5.10717 3.59547 4.33101 4.37443C3.55486 5.15339 3.0769 5.93403 2.72074 6.85579C2.37606 7.74703 2.14254 8.76511 2.07674 10.2556C2.01094 11.746 1.99638 12.2251 2.00366 16.0269C2.01094 19.8287 2.02774 20.3053 2.09998 21.7988C2.1711 23.2881 2.40798 24.3051 2.75742 25.1947C3.11666 26.115 3.59742 26.8948 4.37665 27.6713C5.15589 28.4477 5.93597 28.9245 6.85997 29.2813C7.75037 29.6254 8.76873 29.86 10.2589 29.9253C11.7491 29.9905 12.2287 30.0056 16.0294 29.9983C19.8301 29.9911 20.3086 29.9743 21.8019 29.9034C23.2951 29.8326 24.3068 29.594 25.1966 29.2463C26.117 28.8862 26.8973 28.4063 27.6732 27.6267C28.4491 26.8472 28.9268 26.066 29.2826 25.1437C29.6276 24.2533 29.862 23.2349 29.9266 21.7459C29.9919 20.2515 30.0073 19.7744 30 15.9732C29.9927 12.1719 29.9756 11.6953 29.9048 10.2024C29.834 8.70939 29.5968 7.69551 29.2476 6.80539C28.8878 5.88503 28.4076 5.10579 27.6287 4.32879C26.8497 3.55179 26.068 3.07439 25.1459 2.71935C24.255 2.37467 23.2372 2.13975 21.747 2.07535C20.2568 2.01095 19.7772 1.99443 15.9751 2.00171C12.173 2.00899 11.697 2.02523 10.2037 2.09803ZM10.3673 27.4067C9.00225 27.3473 8.26109 27.1205 7.76717 26.9307C7.11309 26.6787 6.64717 26.374 6.15493 25.8865C5.66269 25.3991 5.36029 24.9315 5.10493 24.2788C4.91313 23.7849 4.68213 23.0445 4.61829 21.6795C4.54885 20.2042 4.53429 19.7613 4.52617 16.0236C4.51805 12.2858 4.53233 11.8434 4.59701 10.3676C4.65525 9.00367 4.88345 8.26167 5.07301 7.76803C5.32501 7.11311 5.62853 6.64803 6.11713 6.15607C6.60573 5.66411 7.07193 5.36115 7.72517 5.10579C8.21853 4.91315 8.95885 4.68411 10.3233 4.61915C11.7997 4.54915 12.2421 4.53515 15.9793 4.52703C19.7164 4.51891 20.16 4.53291 21.637 4.59787C23.0008 4.65723 23.7431 4.88319 24.2362 5.07387C24.8906 5.32587 25.3562 5.62855 25.8482 6.11799C26.3401 6.60743 26.6434 7.07195 26.8987 7.72659C27.0916 8.21855 27.3207 8.95859 27.3851 10.3239C27.4554 11.8003 27.4713 12.243 27.478 15.9799C27.4848 19.7167 27.4716 20.1605 27.4069 21.6359C27.3473 23.0009 27.121 23.7423 26.9309 24.2368C26.6789 24.8906 26.3751 25.3568 25.8862 25.8485C25.3974 26.3401 24.9317 26.6431 24.2782 26.8985C23.7854 27.0908 23.0442 27.3204 21.6809 27.3854C20.2045 27.4548 19.7621 27.4694 16.0235 27.4775C12.285 27.4856 11.844 27.4705 10.3675 27.4067M21.7803 8.51759C21.7809 8.84989 21.88 9.17456 22.0651 9.45053C22.2501 9.72651 22.5129 9.9414 22.8201 10.068C23.1274 10.1947 23.4652 10.2273 23.791 10.1619C24.1168 10.0965 24.4159 9.93595 24.6504 9.70055C24.885 9.46515 25.0444 9.16548 25.1087 8.83945C25.1729 8.51342 25.139 8.17567 25.0112 7.86891C24.8835 7.56215 24.6676 7.30017 24.3909 7.1161C24.1143 6.93202 23.7893 6.83413 23.457 6.83479C23.0115 6.83568 22.5846 7.01346 22.2702 7.32903C21.9558 7.6446 21.7796 8.07213 21.7803 8.51759ZM8.81353 16.014C8.82137 19.9844 12.0459 23.1957 16.0154 23.1882C19.985 23.1806 23.1985 19.9564 23.191 15.986C23.1834 12.0156 19.9581 8.80347 15.988 8.81131C12.0179 8.81915 8.80597 12.0442 8.81353 16.014ZM11.3352 16.009C11.3334 15.086 11.6053 14.1832 12.1166 13.4147C12.6278 12.6463 13.3555 12.0467 14.2075 11.6918C15.0596 11.3369 15.9977 11.2426 16.9033 11.4209C17.809 11.5992 18.6414 12.042 19.2953 12.6933C19.9493 13.3447 20.3954 14.1754 20.5772 15.0803C20.7591 15.9852 20.6685 16.9237 20.317 17.7771C19.9655 18.6305 19.3688 19.3606 18.6024 19.8749C17.8359 20.3892 16.9342 20.6647 16.0112 20.6665C15.3983 20.6678 14.7912 20.5483 14.2245 20.315C13.6578 20.0816 13.1427 19.7389 12.7084 19.3063C12.2742 18.8738 11.9295 18.36 11.6938 17.7943C11.4582 17.2285 11.3364 16.6219 11.3352 16.009Z" fill="#000"/>
</svg>
