<svg width="32" height="32" viewBox="0 0 32 32" fill="none" xmlns="http://www.w3.org/2000/svg">
<rect x="3" y="3" width="26" height="26" rx="3" fill="#000" stroke="#000" stroke-width="2"/>
<path d="M11.8594 6.06994C10.7954 6.12014 10.0688 6.28994 9.43359 6.53954C8.77619 6.79574 8.21899 7.13954 7.66459 7.69593C7.11019 8.25233 6.76879 8.80993 6.51439 9.46833C6.26819 10.1049 6.10139 10.8321 6.05439 11.8967C6.00739 12.9613 5.99699 13.3035 6.00219 16.0191C6.00739 18.7347 6.01939 19.0751 6.07099 20.1419C6.12179 21.2057 6.29099 21.9321 6.54059 22.5675C6.79719 23.2249 7.14059 23.7819 7.69719 24.3365C8.25379 24.8911 8.81099 25.2317 9.47099 25.4865C10.107 25.7323 10.8344 25.8999 11.8988 25.9465C12.9632 25.9931 13.3058 26.0039 16.0206 25.9987C18.7354 25.9935 19.0772 25.9815 20.1438 25.9309C21.2104 25.8803 21.933 25.7099 22.5686 25.4615C23.226 25.2043 23.7834 24.8615 24.3376 24.3047C24.8918 23.7479 25.233 23.1899 25.4872 22.5311C25.7336 21.8951 25.901 21.1677 25.9472 20.1041C25.9938 19.0367 26.0048 18.6959 25.9996 15.9807C25.9944 13.2655 25.9822 12.9251 25.9316 11.8587C25.881 10.7923 25.7116 10.0681 25.4622 9.43233C25.2052 8.77493 24.8622 8.21833 24.3058 7.66333C23.7494 7.10834 23.191 6.76734 22.5324 6.51374C21.896 6.26754 21.169 6.09974 20.1046 6.05374C19.0402 6.00774 18.6976 5.99594 15.9818 6.00114C13.266 6.00634 12.926 6.01794 11.8594 6.06994ZM11.9762 24.1475C11.0012 24.1051 10.4718 23.9431 10.119 23.8075C9.65179 23.6275 9.31899 23.4099 8.96739 23.0617C8.61579 22.7135 8.39979 22.3795 8.21739 21.9133C8.08039 21.5605 7.91539 21.0317 7.86979 20.0567C7.82019 19.0029 7.80979 18.6865 7.80399 16.0167C7.79819 13.3469 7.80839 13.0309 7.85459 11.9767C7.89619 11.0025 8.05919 10.4725 8.19459 10.1199C8.37459 9.65213 8.59139 9.31993 8.94039 8.96853C9.28939 8.61713 9.62239 8.40073 10.089 8.21833C10.4414 8.08073 10.9702 7.91713 11.9448 7.87073C12.9994 7.82073 13.3154 7.81073 15.9848 7.80493C18.6542 7.79913 18.971 7.80913 20.026 7.85553C21.0002 7.89793 21.5304 8.05933 21.8826 8.19553C22.35 8.37553 22.6826 8.59173 23.034 8.94133C23.3854 9.29093 23.602 9.62273 23.7844 10.0903C23.9222 10.4417 24.0858 10.9703 24.1318 11.9455C24.182 13.0001 24.1934 13.3163 24.1982 15.9855C24.203 18.6547 24.1936 18.9717 24.1474 20.0255C24.1048 21.0005 23.9432 21.5301 23.8074 21.8833C23.6274 22.3503 23.4104 22.6833 23.0612 23.0345C22.712 23.3857 22.3794 23.6021 21.9126 23.7845C21.5606 23.9219 21.0312 24.0859 20.0574 24.1323C19.0028 24.1819 18.6868 24.1923 16.0164 24.1981C13.346 24.2039 13.031 24.1931 11.9764 24.1475M20.1284 10.6553C20.1288 10.8927 20.1995 11.1246 20.3317 11.3217C20.4639 11.5188 20.6516 11.6723 20.8711 11.7628C21.0905 11.8532 21.3319 11.8766 21.5646 11.8298C21.7973 11.7831 22.0109 11.6684 22.1784 11.5003C22.346 11.3322 22.4599 11.1181 22.5057 10.8852C22.5516 10.6523 22.5274 10.4111 22.4361 10.192C22.3449 9.97287 22.1907 9.78574 21.9931 9.65426C21.7955 9.52278 21.5633 9.45286 21.326 9.45333C21.0078 9.45397 20.7029 9.58095 20.4783 9.80636C20.2537 10.0318 20.1278 10.3371 20.1284 10.6553ZM10.8664 16.0099C10.872 18.8459 13.1752 21.1397 16.0106 21.1343C18.846 21.1289 21.1414 18.8259 21.136 15.9899C21.1306 13.1539 18.8268 10.8595 15.991 10.8651C13.1552 10.8707 10.861 13.1743 10.8664 16.0099ZM12.6676 16.0063C12.6663 15.347 12.8605 14.7022 13.2257 14.1533C13.5909 13.6044 14.1106 13.1761 14.7192 12.9226C15.3278 12.6691 15.9979 12.6018 16.6448 12.7291C17.2917 12.8564 17.8863 13.1727 18.3534 13.638C18.8205 14.1033 19.1391 14.6966 19.269 15.3429C19.3989 15.9893 19.3342 16.6597 19.0831 17.2693C18.8321 17.8789 18.4058 18.4003 17.8584 18.7677C17.3109 19.135 16.6669 19.3318 16.0076 19.3331C15.5698 19.334 15.1362 19.2487 14.7314 19.082C14.3266 18.9153 13.9586 18.6705 13.6485 18.3616C13.3383 18.0526 13.092 17.6856 12.9237 17.2815C12.7554 16.8774 12.6684 16.4441 12.6676 16.0063Z" fill="white"/>
</svg>
