<svg width="32" height="32" viewBox="0 0 32 32" fill="none" xmlns="http://www.w3.org/2000/svg">
<path d="M26.8889 2C27.714 2 28.5053 2.32778 29.0888 2.91122C29.6722 3.49467 30 4.28599 30 5.11111V26.8889C30 27.714 29.6722 28.5053 29.0888 29.0888C28.5053 29.6722 27.714 30 26.8889 30H5.11111C4.28599 30 3.49467 29.6722 2.91122 29.0888C2.32778 28.5053 2 27.714 2 26.8889V5.11111C2 3.39222 3.37667 2 5.09556 2H26.8889ZM26.1002 26.0987V17.8589C26.1002 16.5172 25.5673 15.2306 24.6186 14.2819C23.6699 13.3332 22.3832 12.8002 21.0416 12.8002C19.7193 12.8002 18.1762 13.6122 17.428 14.8224V13.0911H13.0911V26.1002H17.428V18.4391C17.4431 17.8743 17.6782 17.3376 18.083 16.9435C18.4879 16.5493 19.0306 16.3287 19.5957 16.3287C20.1607 16.3287 20.7035 16.5493 21.1083 16.9435C21.5132 17.3376 21.7482 17.8743 21.7633 18.4391V26.1002L26.1002 26.0987ZM8.03244 10.6489C8.37665 10.6489 8.71749 10.5811 9.0355 10.4494C9.35351 10.3176 9.64246 10.1246 9.88585 9.88118C10.1292 9.63779 10.3223 9.34884 10.454 9.03083C10.5858 8.71283 10.6536 8.37199 10.6536 8.02778C10.6536 7.68357 10.5858 7.34273 10.454 7.02472C10.3223 6.70671 10.1292 6.41777 9.88585 6.17437C9.64246 5.93098 9.35351 5.73791 9.0355 5.60619C8.71749 5.47446 8.37665 5.40667 8.03244 5.40667C7.33728 5.40667 6.67059 5.68282 6.17904 6.17437C5.68748 6.66593 5.41133 7.33262 5.41133 8.02778C5.41133 8.72294 5.68748 9.38963 6.17904 9.88118C6.67059 10.3727 7.33728 10.6489 8.03244 10.6489ZM10.1993 26.0987V13.088H5.864V26.0987H10.1993Z" fill="#000"/>
</svg>
