<svg width="22" height="22" viewBox="0 0 22 22" fill="none" xmlns="http://www.w3.org/2000/svg">
<path fill-rule="evenodd" clip-rule="evenodd" d="M2.91663 2.75C2.91663 2.33579 3.25241 2 3.66663 2H11.913C12.3272 2 12.663 2.33579 12.663 2.75C12.663 3.16421 12.3272 3.5 11.913 3.5H4.41663V18.5H11.9166C12.3308 18.5 12.6666 18.8358 12.6666 19.25C12.6666 19.6642 12.3308 20 11.9166 20H3.66663C3.25241 20 2.91663 19.6642 2.91663 19.25V2.75ZM15.5113 6.34467C15.8042 6.05178 16.2791 6.05178 16.572 6.34467L20.6509 10.4236C20.8135 10.5612 20.9166 10.7667 20.9166 10.9963C20.9166 10.9969 20.9166 10.9976 20.9166 10.9982C20.9171 11.1907 20.8439 11.3834 20.697 11.5303L16.572 15.6553C16.2791 15.9482 15.8042 15.9482 15.5113 15.6553C15.2184 15.3624 15.2184 14.8876 15.5113 14.5947L18.3596 11.7463H8.24996C7.83575 11.7463 7.49996 11.4105 7.49996 10.9963C7.49996 10.5821 7.83575 10.2463 8.24996 10.2463H18.3523L15.5113 7.40533C15.2184 7.11244 15.2184 6.63756 15.5113 6.34467Z" fill="#212338"/>
</svg>
