<svg width="32" height="32" viewBox="0 0 32 32" fill="none" xmlns="http://www.w3.org/2000/svg">
<path d="M29 17.4153C29 13.7799 26.0524 10.8323 22.417 10.8323H9.69043C6.055 10.8323 3.10742 13.7799 3.10742 17.4153C3.10768 21.0505 6.05516 23.9973 9.69043 23.9973H22.417C26.0523 23.9973 28.9997 21.0505 29 17.4153ZM31 17.4153C30.9997 22.1551 27.1568 25.9973 22.417 25.9973H9.69043C4.95059 25.9973 1.10768 22.1551 1.10742 17.4153C1.10742 12.6753 4.95043 8.83228 9.69043 8.83228H22.417C27.157 8.83228 31 12.6753 31 17.4153Z" fill="#000"/>
<path d="M23 28.0002V24.9973C23 24.445 23.4477 23.9973 24 23.9973C24.5523 23.9973 25 24.445 25 24.9973V28.0002C24.9999 28.5524 24.5522 29.0002 24 29.0002C23.4478 29.0002 23.0001 28.5524 23 28.0002Z" fill="#000"/>
<path d="M7 28.0002V24.9973C7 24.445 7.44772 23.9973 8 23.9973C8.55228 23.9973 9 24.445 9 24.9973V28.0002C8.99986 28.5524 8.5522 29.0002 8 29.0002C7.4478 29.0002 7.00014 28.5524 7 28.0002Z" fill="#000"/>
<path d="M7.78711 8.83203H13V6.70605H7.78711V8.83203ZM15 9.33203C15 10.1605 14.3284 10.832 13.5 10.832H7.28711C6.45868 10.832 5.78711 10.1605 5.78711 9.33203V6.20605C5.78711 5.37763 6.45868 4.70605 7.28711 4.70605H13.5C14.3284 4.70605 15 5.37763 15 6.20605V9.33203Z" fill="#000"/>
<path d="M23.0626 21.1302C21.0429 21.1302 19.4961 19.8199 19.4961 17.5736C19.4961 15.5244 20.8163 13.9776 23.0034 13.9776C23.9985 13.9776 25.0625 14.3717 25.7817 15.1697L24.8064 16.017C24.3729 15.5835 23.7719 15.2879 23.0034 15.2879C21.8507 15.2879 20.9444 16.1451 20.9444 17.5736C20.9444 18.8642 21.7522 19.8692 23.0626 19.8692C23.565 19.8692 24.0281 19.7411 24.4714 19.4652V18.4406H22.9049V17.2485H25.8211V20.2632C25.1808 20.7756 24.1364 21.1302 23.0626 21.1302Z" fill="#000"/>
<path d="M13.1523 21.0613V14.0663H15.7434C17.438 14.0663 18.1769 15.0515 18.1769 16.3914C18.1769 17.9283 17.1424 18.6672 15.6055 18.6672H14.5218V21.0613H13.1523ZM14.5218 17.4456H15.4577C16.3247 17.4456 16.7385 17.0121 16.7385 16.3717C16.7385 15.7214 16.3247 15.2978 15.5267 15.2978H14.5218V17.4456Z" fill="#000"/>
<path d="M7.0918 21.0613V14.0663H8.50065V19.8298H11.5942V21.0613H7.0918Z" fill="#000"/>
<path d="M20.9443 17.574C20.9443 16.1455 21.8503 15.2879 23.0029 15.2878C23.6754 15.2878 24.2198 15.5141 24.6357 15.8611L24.8057 16.0173L25.7812 15.1697C25.062 14.3717 23.998 13.9773 23.0029 13.9773C20.8158 13.9773 19.4961 15.5248 19.4961 17.574L19.5 17.781C19.5894 19.8319 21.0092 21.0502 22.874 21.1267L23.0625 21.1306C24.1361 21.1305 25.18 20.7755 25.8203 20.2634V17.2488H22.9043V18.4402H24.4707V19.4656C24.0276 19.7412 23.5647 19.8688 23.0625 19.8689V19.6189C23.4746 19.6188 23.8538 19.5232 24.2207 19.3201V18.6902H22.6543V16.9988H26.0703V20.3835L25.9766 20.4587C25.2849 21.0119 24.1831 21.3805 23.0625 21.3806C21.999 21.3806 21.0421 21.0347 20.3496 20.3757C19.6552 19.7148 19.2462 18.7571 19.2461 17.574C19.2461 16.4959 19.5937 15.5318 20.2471 14.8357C20.9024 14.1378 21.8476 13.7273 23.0029 13.7273C23.9927 13.7273 25.0528 14.0938 25.8184 14.8464L25.9668 15.0027L26.1377 15.1912L24.9697 16.2058L24.7939 16.3582L24.6289 16.1941C24.2397 15.8048 23.7015 15.5378 23.0029 15.5378C22.4905 15.5379 22.0428 15.7278 21.7227 16.0671C21.4024 16.4067 21.1943 16.9137 21.1943 17.574L21.2021 17.7927C21.2421 18.2935 21.4191 18.7249 21.6982 19.0398C22.0146 19.3966 22.4758 19.6189 23.0625 19.6189V19.8689L22.8223 19.8572C21.7319 19.7497 21.0405 18.9077 20.9531 17.8123L20.9443 17.574Z" fill="#000"/>
<path d="M12.9023 13.8162H15.7441V14.0662H13.1523V21.0613H14.5225V18.6667H15.6055C17.1424 18.6667 18.1768 17.9283 18.1768 16.3914C18.1767 15.1353 17.5279 14.1912 16.0508 14.0779L15.7441 14.0662V13.8162C16.64 13.8162 17.3208 14.0781 17.7764 14.5535C18.2299 15.0267 18.4268 15.6774 18.4268 16.3914C18.4268 17.22 18.1453 17.865 17.6279 18.2976C17.1176 18.7241 16.41 18.9167 15.6055 18.9167H14.7725V21.3113H12.9023V13.8162ZM16.4893 16.3718C16.4893 16.1012 16.4041 15.9055 16.2627 15.7751C16.1367 15.6591 15.941 15.5724 15.6553 15.5525L15.5273 15.5476H14.7725V17.196H15.458V17.446H14.5225V15.2976H15.5273C16.3252 15.2977 16.7393 15.7217 16.7393 16.3718L16.7344 16.489C16.6859 17.0645 16.2709 17.446 15.458 17.446V17.196C15.8526 17.196 16.1061 17.0966 16.2578 16.9617C16.4054 16.8302 16.4892 16.636 16.4893 16.3718Z" fill="#000"/>
<path d="M7.0918 14.0662V21.0613H11.5938V19.8298H8.5V14.0662H7.0918ZM8.75 19.5798H11.8438V21.3113H6.8418V13.8162H8.75V19.5798Z" fill="#000"/>
</svg>
