<svg xmlns="http://www.w3.org/2000/svg" width="24" height="24" baseProfile="full" viewBox="0 0 24 24"><path d="M3.896 8.25A7.1 7.1 0 0 1 11 1.146a7.1 7.1 0 0 1 7.104 7.104c0 1.342-.443 2.791-1.063 4.173-.623 1.392-1.448 2.767-2.263 3.975a43.305 43.305 0 0 1-3.19 4.143l-.057.063-.015.017-.005.006-.511-.46-.51.46-.006-.006-.015-.017-.056-.063c-.05-.055-.12-.136-.21-.24a43.327 43.327 0 0 1-2.982-3.903c-.814-1.208-1.64-2.583-2.262-3.975-.62-1.382-1.063-2.83-1.063-4.173ZM11 20.167l-.51.46.51.565.51-.565-.51-.46Zm0-1.052a41.912 41.912 0 0 0 2.638-3.487c.79-1.17 1.569-2.472 2.149-3.767.584-1.303.942-2.547.942-3.611A5.724 5.724 0 0 0 11 2.52a5.724 5.724 0 0 0-5.73 5.73c0 1.064.36 2.308.943 3.611.58 1.294 1.36 2.598 2.149 3.768A41.95 41.95 0 0 0 11 19.114Zm0-12.47a1.605 1.605 0 1 0 .002 3.21A1.605 1.605 0 0 0 11 6.646ZM8.02 8.25a2.98 2.98 0 1 1 5.96.002 2.98 2.98 0 0 1-5.96-.002Z"/></svg>
