<svg xmlns="http://www.w3.org/2000/svg" width="24" height="24" fill="none" viewBox="0 0 24 24"><g clip-path="url(#a)"><path d="M5.7.307c0 .063.065.038.106.053.15.057.328.277.348.437.028.226-.022.507 0 .74l.045.06 1.85.01a.09.09 0 0 0 .097-.07c.032-.39-.126-.874.267-1.122.065-.04.147-.057.201-.108h.287c-.007.053.07.038.105.054.141.066.26.181.324.325.085.187.055.556.055.777 0 .043-.024.087.003.124a.3.3 0 0 0 .094.02c.568.044 1.193-.036 1.767 0a.09.09 0 0 0 .097-.07c.013-.407-.105-.975.364-1.176.042-.018.099.007.12-.054h.287c.035.054.11.059.17.094.435.255.251.739.297 1.137.007.063.044.064.098.068.567.05 1.207-.04 1.783 0 .135-.012.082-.043.081-.128-.004-.425-.078-.907.38-1.116.036-.017.086 0 .104-.054h.287c.053.05.135.067.2.108.36.227.28.694.283 1.062 0 .025-.015.056-.012.073a.2.2 0 0 0 .05.055h1.886l.023-.023V.86c0-.005.031-.048.037-.068.077-.25.158-.344.404-.443.023-.01.05 0 .042-.04h.302c-.009.04.019.03.042.04.607.248.363.688.425 1.19.008.064.056.064.113.068.562.046 1.2-.073 1.751.046.834.18 1.482.927 1.577 1.775l.008 1.606c.012.018.069.027.092.03.361.036.81-.119 1.087.165.296.304.22.849-.185 1.009a1 1 0 0 1-.163.049h-.815l-.023.022v1.917c0 .02.047.036.068.039.294.04.705-.074.973.068.37.195.432.677.152.98-.29.315-.757.138-1.125.188-.02.002-.068.02-.068.038v1.91c.036.006.06.026.098.03.46.053.967-.178 1.219.366.136.295-.01.693-.324.815-.024.01-.172.056-.185.056h-.785l-.023.023v1.917l.023.023h.815c.007 0 .12.03.132.034.155.057.362.278.388.442.007.045.01.276 0 .313-.002.011-.024.009-.028.022-.055.154-.128.276-.278.362-.244.14-.694.026-.985.064-.025.004-.046.006-.06.031l-.006 1.894q.002.024.02.04c.045.035.676.002.8.015.514.056.723.679.372 1.048-.287.302-.744.146-1.11.188-.028.003-.055.008-.075.03l-.01 1.59c-.093.845-.73 1.584-1.552 1.77-.57.128-1.213 0-1.79.05-.055.006-.092.006-.099.069-.044.384.128.801-.225 1.088-.19.153-.343.137-.578.125-.512-.212-.462-.697-.45-1.168.001-.024.032-.112-.006-.112H15.82c-.058.059-.021.127-.022.188 0 .399.068.828-.35 1.04a.63.63 0 0 1-.818-.25c-.122-.214-.09-.587-.086-.836 0-.026.036-.142-.022-.142H9.42c-.005 0-.023.02-.037.015v.686a.7.7 0 0 1-.213.437.73.73 0 0 1-.595.144 1.4 1.4 0 0 1-.257-.165c-.279-.27-.137-.69-.173-1.035-.003-.022-.005-.056-.025-.069H6.178c-.017.01-.022.037-.024.055-.06.43.163.915-.33 1.168-.143.073-.297.044-.461.044-.161-.06-.434-.312-.434-.488v-.777q-.04-.012-.082-.016c-.709-.056-1.461.128-2.135-.16a2.07 2.07 0 0 1-1.225-1.718l-.007-1.518-.06-.045c-.396-.022-.91.111-1.143-.307-.036-.064-.032-.14-.088-.177v-.286c.054-.018.037-.07.054-.105.236-.489.748-.342 1.192-.363.045-.008.053-.06.053-.098-.037-.572.047-1.202 0-1.767a.3.3 0 0 0-.023-.098l-.017-.013c-.047.013-.087 0-.133-.003-.235-.01-.52.04-.736-.034-.134-.046-.276-.203-.336-.328-.016-.034 0-.111-.054-.105v-.302c.04.008.031-.019.04-.042a.8.8 0 0 1 .147-.255c.056-.054.276-.17.35-.17h.746l.008-1.933c-.014-.025-.034-.027-.06-.03-.355-.047-.794.113-1.073-.211l-.158-.272v-.287c.053.007.039-.07.054-.104a.68.68 0 0 1 .275-.3c.271-.131.607-.037.901-.065.051-.01.07-.067.069-.112-.036-.568.045-1.19 0-1.752-.005-.057-.004-.106-.068-.114-.422-.051-.946.155-1.174-.365-.018-.042-.001-.097-.057-.117v-.272l.128-.242c.134-.15.264-.228.468-.241.203-.014.437.011.65 0 .045-.007.053-.059.053-.097-.037-.573.046-1.201 0-1.768-.005-.057-.004-.105-.068-.113-.44-.054-.93.16-1.177-.363-.016-.034 0-.11-.054-.104v-.287c.05-.047.06-.121.096-.183.24-.42.707-.255 1.105-.284.027-.003.055-.003.079-.02a1 1 0 0 0 .019-.124c.06-.99-.218-1.85.535-2.665.83-.899 1.746-.57 2.809-.648.033-.003.064-.014.097-.016V.796c0-.015.117-.24.137-.267a.9.9 0 0 1 .22-.161c.036-.02.116-.012.111-.063h.302zm15.046 2.949a.6.6 0 0 0-.273-.127H3.458a.55.55 0 0 0-.44.405 1622 1622 0 0 0-.003 17.098.55.55 0 0 0 .443.417l17.067-.008c.217-.074.372-.23.393-.468V3.62a.51.51 0 0 0-.172-.364"/><path d="M18.889 4.766c.315.207.541.566.608.94.026 4.252.03 8.512-.003 12.765a1.41 1.41 0 0 1-1.14 1.155 873 873 0 0 1-12.793 0 1.44 1.44 0 0 1-1.144-1.271V5.809a1.44 1.44 0 0 1 1.29-1.276h12.516c.233.036.468.102.666.233M6.184 9.01v5.374l.022.022h1.178l.022-.022v-2.559l1.47 1.42 1.414-1.427.03.015v2.55l.022.023h1.163l.022-.022V9.002l-2.664 2.642-2.65-2.65zm6.744-.019c-.459.056-.73.596-.513 1.003.02.037.06.102.102.11l1.063-.007a.691.691 0 0 0-.652-1.106m4.036 3.938c-.336.669-1.328.584-1.504-.168-.214-.91.795-1.515 1.396-.822.028.032.115.176.142.172l.878-.618-.001-.075c-.938-1.369-3.147-1.02-3.55.615-.502 2.033 2.106 3.306 3.421 1.747.034-.04.15-.181.135-.224-.018-.055-.771-.52-.859-.62zm-4.493-2.297-.023.023v3.729l.023.022h1.117l.023-.022v-3.729l-.023-.023z"/></g><defs><clipPath id="a"><path d="M0 0h24v24H0z"/></clipPath></defs></svg>