<svg xmlns="http://www.w3.org/2000/svg" width="24" height="24" viewBox="0 0 24 24" style="enable-background:new 0 0 24 24" xml:space="preserve"><path d="M0 8.5h1.2v1.3c.5-.9 1.4-1.4 2.4-1.4 1.1 0 1.9.5 2.2 1.5.5-1 1.5-1.5 2.6-1.5 1.6 0 2.5 1.1 2.5 3.1v4.1H9.8v-3.8c0-1.5-.5-2.4-1.6-2.4s-2 1-2 2.6v3.6H4.9v-3.8c0-1.5-.6-2.4-1.7-2.4-1.2 0-2.1 1-2.1 2.6v3.6H0V8.5zM13 8.5h1.2v1.3c.5-.9 1.4-1.4 2.4-1.4 1.1 0 1.9.5 2.2 1.5.5-1 1.5-1.5 2.6-1.5 1.6 0 2.5 1.1 2.5 3.1v4.1h-1.2v-3.8c0-1.5-.5-2.4-1.6-2.4s-2 1-2 2.6v3.6H18v-3.8c0-1.5-.6-2.4-1.7-2.4-1.2 0-2.1 1-2.1 2.6v3.6H13V8.5z"/></svg>
