<svg xmlns="http://www.w3.org/2000/svg" viewBox="0 0 105.09 64.67"><g><g><path d="M103.89 27.4l-4.8-5L88.64 1.49A2.7 2.7 0 0086.23 0H21.56a2.7 2.7 0 00-2.68 2.36l-1.05 8.42H8.08a2.7 2.7 0 000 5.39h9.08l-.68 5.42H5.39a2.7 2.7 0 100 5.39h10.78v5.38H2.69a2.7 2.7 0 000 5.39h13.48v8.09a2.68 2.68 0 002.69 2.69h9.54a10.77 10.77 0 109.48-5.38H21.56v-5.43h8.16a2.7 2.7 0 000-5.39h-8.16V27h37.72A2.69 2.69 0 0062 24.25V5.39h22.56l8.08 16.17H72.75v-8.09a2.7 2.7 0 00-5.39 0v10.78a2.7 2.7 0 002.7 2.7h25.86l3.78 4.13v14.73a2.7 2.7 0 100 5.39h2.69a2.7 2.7 0 002.7-2.7V29.64a2.69 2.69 0 00-1.2-2.24zM43.11 53.89a5.39 5.39 0 11-5.39-5.39 5.39 5.39 0 015.39 5.39zm13.48-32.33H21.91l.68-5.39H35a2.7 2.7 0 000-5.39H23.26l.68-5.39h32.65z"/><path d="M21.56 51.2h-8.09a2.7 2.7 0 000 5.39h8.09a2.7 2.7 0 000-5.39zM64.67 51.2h-8.08a2.7 2.7 0 100 5.39h8.08a2.7 2.7 0 000-5.39z"/><path d="M83.53 43.11H53.89a2.7 2.7 0 000 5.39h20.32a10.77 10.77 0 109.32-5.39zm0 16.17a5.39 5.39 0 115.39-5.39 5.39 5.39 0 01-5.39 5.39z"/></g></g></svg>
