<svg width="32" height="32" viewBox="0 0 32 32" fill="none" xmlns="http://www.w3.org/2000/svg">
<path d="M3 20.6989V18.6617C3 18.1095 3.44772 17.6617 4 17.6617C4.55228 17.6617 5 18.1095 5 18.6617V20.6989C5 21.2511 5.44772 21.6989 6 21.6989H7.38965C7.94185 21.6989 8.38952 22.1467 8.38965 22.6989C8.38965 23.2511 7.94193 23.6989 7.38965 23.6989H6C4.34315 23.6989 3 22.3557 3 20.6989ZM19.2803 21.6989C19.8324 21.6989 20.2801 22.1467 20.2803 22.6989C20.2803 23.2511 19.8325 23.6988 19.2803 23.6989H14.6777C14.1254 23.6989 13.6777 23.2511 13.6777 22.6989C13.6779 22.1467 14.1255 21.6989 14.6777 21.6989H19.2803ZM3 9.54846V8.54944C3 6.89258 4.34315 5.54944 6 5.54944H23.5C24.4404 5.54944 25.3266 5.99061 25.8936 6.74084L30.3896 12.6901C30.7832 13.2108 30.9961 13.8459 30.9961 14.4987V20.6989C30.9961 22.3557 29.653 23.6989 27.9961 23.6989H26.6162C26.064 23.6987 25.6162 23.2511 25.6162 22.6989C25.6163 22.1468 26.0641 21.699 26.6162 21.6989H27.9961C28.5484 21.6989 28.9961 21.2511 28.9961 20.6989V14.4987C28.9961 14.2812 28.925 14.0697 28.7939 13.8961L24.2979 7.9469C24.1089 7.69679 23.8135 7.54944 23.5 7.54944H6C5.44771 7.54944 5 7.99715 5 8.54944V9.54846C5 10.1007 4.55228 10.5485 4 10.5485C3.44772 10.5485 3 10.1007 3 9.54846Z" fill="#000"/>
<path d="M13.9746 16.9964L16.4502 12.7086C16.7263 12.2303 17.3379 12.0664 17.8162 12.3425C18.2945 12.6187 18.4584 13.2303 18.1822 13.7086L15.7067 17.9964C15.4305 18.4747 14.8189 18.6386 14.3406 18.3624C13.8623 18.0863 13.6985 17.4747 13.9746 16.9964Z" fill="#000"/>
<path d="M16.1006 10.3924L16.6045 9.51965C16.8806 9.04136 17.4922 8.87748 17.9705 9.15363C18.4488 9.42977 18.6127 10.0414 18.3365 10.5197L17.8326 11.3924C17.7056 11.6125 17.7806 11.8944 18.0005 12.0216C18.2207 12.1487 18.503 12.0731 18.6302 11.8529L19.1341 10.9801C19.4102 10.5018 20.0218 10.3379 20.5001 10.6141C20.9783 10.8903 21.1422 11.5019 20.8661 11.9801L20.3622 12.8529C19.6828 14.0297 18.1773 14.4331 17.0005 13.7537C15.824 13.0742 15.4212 11.5691 16.1006 10.3924Z" fill="#000"/>
<path d="M24.5029 22.6996C24.5029 21.7324 23.719 20.9479 22.752 20.9476C21.7846 20.9476 21 21.7323 21 22.6996C21.0003 23.6667 21.7848 24.4506 22.752 24.4506C23.7189 24.4503 24.5027 23.6665 24.5029 22.6996ZM26.5029 22.6996C26.5027 24.7711 24.8234 26.4503 22.752 26.4506C20.6802 26.4506 19.0003 24.7712 19 22.6996C19 20.6277 20.6801 18.9476 22.752 18.9476C24.8236 18.9479 26.5029 20.6279 26.5029 22.6996Z" fill="#000"/>
<path d="M12.5029 22.6996C12.5029 21.7324 11.719 20.9479 10.752 20.9476C9.78465 20.9476 9 21.7323 9 22.6996C9.00026 23.6667 9.78481 24.4506 10.752 24.4506C11.7189 24.4503 12.5027 23.6665 12.5029 22.6996ZM14.5029 22.6996C14.5027 24.7711 12.8234 26.4503 10.752 26.4506C8.68024 26.4506 7.00026 24.7712 7 22.6996C7 20.6277 8.68008 18.9476 10.752 18.9476C12.8236 18.9479 14.5029 20.6279 14.5029 22.6996Z" fill="#000"/>
<path d="M9.13379 9.63C9.68607 9.63 10.1338 10.0777 10.1338 10.63C10.1338 11.1823 9.68607 11.63 9.13379 11.63H2C1.44772 11.63 1 11.1823 1 10.63C1 10.0777 1.44772 9.63 2 9.63H9.13379Z" fill="#000"/>
<path d="M8 16.4967C8.55228 16.4967 9 16.9444 9 17.4967C9 18.049 8.55228 18.4967 8 18.4967H2.86621C2.31393 18.4967 1.86621 18.049 1.86621 17.4967C1.86621 16.9444 2.31393 16.4967 2.86621 16.4967H8Z" fill="#000"/>
<path d="M4.58301 13.1085C5.13529 13.1085 5.58301 13.5562 5.58301 14.1085C5.58301 14.6608 5.13529 15.1085 4.58301 15.1085H1.14941C0.597129 15.1085 0.149414 14.6608 0.149414 14.1085C0.149414 13.5562 0.597129 13.1085 1.14941 13.1085H4.58301Z" fill="#000"/>
<path d="M28.9365 13.1085C29.4888 13.1085 29.9365 13.5562 29.9365 14.1085C29.9365 14.6608 29.4888 15.1085 28.9365 15.1085L24 15.1085C23.4477 15.1085 23 14.6608 23 14.1085C23 13.5562 23.4477 13.1085 24 13.1085L28.9365 13.1085Z" fill="#000"/>
</svg>
