<svg width="32" height="32" viewBox="0 0 32 32" fill="none" xmlns="http://www.w3.org/2000/svg">
<path d="M18.2626 5.55475C18.6531 5.16432 19.2861 5.16426 19.6766 5.55475C20.067 5.94525 20.067 6.57831 19.6766 6.96881L8.01549 18.629L16.286 26.8995C16.6765 27.29 16.6765 27.923 16.286 28.3135C15.8955 28.7039 15.2624 28.704 14.8719 28.3135L4.64342 18.085C4.25293 17.6945 4.25302 17.0615 4.64342 16.671C5.03394 16.2804 5.66696 16.2804 6.05748 16.671L6.60143 17.2149L18.2626 5.55475Z" fill="#000"/>
<path d="M17.9386 25.2449C17.5481 25.6354 16.915 25.6354 16.5245 25.2449C16.1341 24.8544 16.1341 24.2214 16.5245 23.8308L26.4474 13.909L18.1769 5.63846C17.7864 5.24794 17.7864 4.61493 18.1769 4.2244C18.5674 3.83396 19.2004 3.8339 19.5909 4.2244L29.8195 14.4529C30.2099 14.8434 30.2099 15.4764 29.8195 15.867C29.4289 16.2575 28.7959 16.2575 28.4054 15.867L27.8614 15.323L17.9386 25.2449Z" fill="#000"/>
<path d="M18.4833 10.5173C18.8739 10.1268 19.5069 10.1268 19.8974 10.5173C20.2879 10.9078 20.2879 11.5409 19.8974 11.9314L12.707 19.1218C12.3165 19.512 11.6834 19.512 11.2929 19.1218C10.9024 18.7313 10.9024 18.0973 11.2929 17.7068L18.4833 10.5173Z" fill="#000"/>
<path d="M10.5633 23.3145C10.9418 22.9126 11.5743 22.8933 11.9764 23.2715C12.3785 23.6501 12.3979 24.2834 12.0194 24.6856L10.1922 26.626C9.86564 26.9729 9.39377 27.1439 8.92075 27.0869L5.09653 26.626L4.01352 27.7598C3.63181 28.1589 2.9986 28.1727 2.59946 27.791C2.20068 27.4094 2.18679 26.777 2.56821 26.3779L3.82505 25.0635L3.95395 24.9434C4.22366 24.7206 4.56313 24.5987 4.91294 24.5996L5.08872 24.6104L8.90903 25.0703L10.5633 23.3145Z" fill="#000"/>
<path d="M26.9135 12.1947C26.523 12.585 25.8898 12.5851 25.4993 12.1947C25.1089 11.8042 25.109 11.171 25.4993 10.7805L27.4073 8.87254L26.6152 8.0805L24.7073 9.98845C24.3168 10.3788 23.6835 10.3789 23.2931 9.98845C22.9026 9.59798 22.9027 8.96477 23.2931 8.57423L25.5546 6.31274C26.1404 5.72695 27.0901 5.72695 27.6759 6.31274L29.175 7.81188C29.7607 8.39768 29.7608 9.34745 29.175 9.9332L26.9135 12.1947Z" fill="#000"/>
</svg>
