<svg xmlns="http://www.w3.org/2000/svg" width="40" height="40" viewBox="0 0 40 40"><path d="M32.163 17.607l-9.9-9.9a1 1 0 011.415-1.414l4.95 4.95 2.828-2.829a1 1 0 011.414 0l2.828 2.829a.999.999 0 010 1.414l-2.828 2.828 2.121 2.122a1 1 0 01-1.414 1.414L22.263 30.335a1 1 0 01-1.414-1.415l11.314-11.313zm-10.607-6.364L10.243 22.556l9.9 9.9a1 1 0 01-1.415 1.414l-3.536-3.535-1.679 1.679a1.005 1.005 0 01-.792.29L7.97 31.9l-1.263 1.262a1 1 0 01-1.414-1.414l1.59-1.591c.21-.209.499-.314.792-.29l4.752.403 1.351-1.35-6.364-6.365a1 1 0 011.414-1.414L20.142 9.828a1 1 0 011.414 1.415zm8.486 1.414l1.414 1.414 2.121-2.121-1.414-1.414-2.121 2.12z"/></svg>
