<svg width="22" height="22" viewBox="0 0 22 22" fill="none" xmlns="http://www.w3.org/2000/svg">
<path d="M8.74328 13.2567C9.35156 13.8619 9.83382 14.5816 10.1622 15.3743C10.4905 16.167 10.6585 17.017 10.6563 17.875C10.6563 18.1485 10.5476 18.4108 10.3542 18.6042C10.1608 18.7976 9.89851 18.9062 9.625 18.9062C9.3515 18.9062 9.08919 18.7976 8.8958 18.6042C8.7024 18.4108 8.59375 18.1485 8.59375 17.875C8.59375 16.6898 8.12294 15.5532 7.28488 14.7151C6.44683 13.8771 5.31019 13.4062 4.125 13.4062C3.8515 13.4062 3.58919 13.2976 3.3958 13.1042C3.2024 12.9108 3.09375 12.6485 3.09375 12.375C3.09375 12.1015 3.2024 11.8392 3.3958 11.6458C3.58919 11.4524 3.8515 11.3437 4.125 11.3437C4.98304 11.3414 5.83301 11.5093 6.62574 11.8377C7.41846 12.166 8.13819 12.6484 8.74328 13.2567ZM4.125 7.21875C3.8515 7.21875 3.58919 7.32739 3.3958 7.52079C3.2024 7.71419 3.09375 7.97649 3.09375 8.25C3.09375 8.5235 3.2024 8.7858 3.3958 8.9792C3.58919 9.1726 3.8515 9.28124 4.125 9.28124C6.4042 9.28124 8.59006 10.1867 10.2017 11.7983C11.8133 13.4099 12.7188 15.5958 12.7188 17.875C12.7188 18.1485 12.8274 18.4108 13.0208 18.6042C13.2142 18.7976 13.4765 18.9062 13.75 18.9062C14.0235 18.9062 14.2858 18.7976 14.4792 18.6042C14.6726 18.4108 14.7813 18.1485 14.7813 17.875C14.7813 15.0488 13.6585 12.3383 11.6601 10.3399C9.66167 8.34145 6.95121 7.21875 4.125 7.21875ZM14.5767 7.42328C13.2075 6.0463 11.5786 4.95462 9.78459 4.21145C7.99054 3.46828 6.06688 3.08838 4.125 3.09374C3.8515 3.09374 3.58919 3.20239 3.3958 3.39579C3.2024 3.58919 3.09375 3.85149 3.09375 4.12499C3.09375 4.3985 3.2024 4.6608 3.3958 4.8542C3.58919 5.0476 3.8515 5.15625 4.125 5.15625C5.79593 5.15157 7.45119 5.47844 8.99492 6.11791C10.5387 6.75738 11.9402 7.69676 13.1184 8.88164C14.3032 10.0598 15.2426 11.4613 15.8821 13.0051C16.5216 14.5488 16.8484 16.2041 16.8438 17.875C16.8438 18.1485 16.9524 18.4108 17.1458 18.6042C17.3392 18.7976 17.6015 18.9062 17.875 18.9062C18.1485 18.9062 18.4108 18.7976 18.6042 18.6042C18.7976 18.4108 18.9063 18.1485 18.9063 17.875C18.9116 15.9331 18.5317 14.0095 17.7885 12.2154C17.0454 10.4213 15.9537 8.79254 14.5767 7.42328ZM4.46875 16.1562C4.1968 16.1562 3.93096 16.2369 3.70484 16.388C3.47872 16.5391 3.30249 16.7538 3.19842 17.0051C3.09435 17.2563 3.06712 17.5328 3.12017 17.7995C3.17323 18.0662 3.30418 18.3112 3.49648 18.5035C3.68878 18.6958 3.93378 18.8268 4.2005 18.8798C4.46723 18.9329 4.74369 18.9057 4.99494 18.8016C5.24619 18.6975 5.46093 18.5213 5.61202 18.2952C5.76311 18.069 5.84375 17.8032 5.84375 17.5312C5.84375 17.1666 5.69889 16.8168 5.44102 16.559C5.18316 16.3011 4.83342 16.1562 4.46875 16.1562Z" fill="#212338"/>
</svg>
