<svg xmlns="http://www.w3.org/2000/svg" width="28" height="28" viewBox="0 0 28 28"><path d="M0 7a7 7 0 0 1 7-7h14a7 7 0 0 1 7 7v14a7 7 0 0 1-7 7H7a7 7 0 0 1-7-7V7Zm7-5a5 5 0 0 0-5 5v14a5 5 0 0 0 5 5h14a5 5 0 0 0 5-5V7a5 5 0 0 0-5-5H7Z" clip-rule="evenodd"/><path d="m20.011 9.428-1.074 1.075a.578.578 0 0 1-.775.012 5.777 5.777 0 0 0-3.72-1.364c-1.121 0-2.242.37-2.242 1.398 0 1.04 1.202 1.388 2.588 1.908 2.427.809 4.438 1.826 4.438 4.208 0 2.59-2.011 4.37-5.293 4.566l-.3 1.387a.566.566 0 0 1-.555.451h-2.069l-.104-.011a.577.577 0 0 1-.439-.682l.324-1.469a7.556 7.556 0 0 1-3.328-1.815v-.011a.555.555 0 0 1 0-.786l1.156-1.122a.566.566 0 0 1 .774 0 5.587 5.587 0 0 0 3.917 1.526c1.502 0 2.508-.635 2.508-1.641s-1.017-1.272-2.935-1.989c-2.034-.728-3.964-1.757-3.964-4.161 0-2.798 2.323-4.162 5.073-4.29l.289-1.421a.555.555 0 0 1 .554-.44h2.057l.116.012c.3.07.497.359.427.66l-.312 1.583c1.04.347 2.023.89 2.866 1.607l.023.023c.22.231.22.578 0 .786Z"/></svg>
