<svg width="32" height="32" viewBox="0 0 32 32" fill="none" xmlns="http://www.w3.org/2000/svg">
<path d="M5.88086 5.99738V26.1741H26.1191V5.99738H5.88086ZM28.1191 26.1741C28.119 27.2786 27.2236 28.1741 26.1191 28.1741H5.88086C4.77638 28.1741 3.88101 27.2786 3.88086 26.1741V5.99738C3.88086 4.89281 4.77629 3.99738 5.88086 3.99738H26.1191C27.2237 3.99738 28.1191 4.89281 28.1191 5.99738V26.1741Z" fill="#000"/>
<path d="M12.2344 22V10.6165H16.4511C19.2088 10.6165 20.4113 12.2198 20.4113 14.4003C20.4113 16.9014 18.7278 18.1039 16.2266 18.1039H14.463V22H12.2344ZM14.463 16.1158H15.9861C17.397 16.1158 18.0704 15.4104 18.0704 14.3682C18.0704 13.31 17.397 12.6206 16.0984 12.6206H14.463V16.1158Z" fill="#000"/>
</svg>
