<svg xmlns="http://www.w3.org/2000/svg" width="24" height="24" baseProfile="full" viewBox="0 0 24 24"><path d="M1.083 20.167a.75.75 0 0 1 .75-.75h18.334a.75.75 0 0 1 0 1.5H1.833a.75.75 0 0 1-.75-.75Z"/><path d="M17.963 2.035C17.276 1.348 16.49 1 15.623 1h-.013c-1.63.006-2.908 1.287-2.96 1.34L5.2 9.841c-.198.199-.35.433-.449.696l-1.649 4.356-.013.039c-.2.644-.058 1.273.38 1.682.271.253.623.385.99.385.188 0 .38-.035.568-.106l4.523-1.592a1.78 1.78 0 0 0 .668-.422l7.463-7.515a5.29 5.29 0 0 0 1.06-1.653c.524-1.345.248-2.651-.778-3.677ZM9.272 13.94a.439.439 0 0 1-.165.104l-3.564 1.254-.847-.847 1.302-3.44a.647.647 0 0 1 .148-.23l6.278-6.321a5.67 5.67 0 0 0 1.298 1.983 5.732 5.732 0 0 0 1.786 1.217l-6.236 6.28Zm8.239-8.744a3.953 3.953 0 0 1-.776 1.228l-.187.189A4.25 4.25 0 0 1 14.665 5.5c-.613-.613-1.02-1.357-1.168-2.121l.1-.101c.01-.01.954-.944 2.024-.945h.001c.507 0 .965.211 1.398.645.648.647.808 1.373.49 2.218Z"/></svg>
