<svg xmlns="http://www.w3.org/2000/svg" viewBox="0 0 24 24" width="24" height="24" xml:space="preserve"><path d="M1.1 20.2c0-.4.3-.8.8-.8h18.3c.4 0 .8.3.8.8s-.3.8-.8.8H1.8c-.4-.1-.7-.4-.7-.8z" style="fill-rule:evenodd;clip-rule:evenodd;"/><path d="M18 2c-.7-.7-1.5-1-2.3-1-1.6 0-2.9 1.3-3 1.3L5.2 9.8c-.2.2-.3.5-.4.7l-1.6 4.4c-.2.6-.1 1.3.4 1.7.3.3.6.4 1 .4.2 0 .4 0 .6-.1l4.5-1.6c.3-.1.5-.2.7-.4l7.5-7.5s.7-.7 1.1-1.7c.3-1.3 0-2.6-1-3.7zM9.3 13.9s-.1.1-.2.1l-3.6 1.3-.8-.8L6 11c0-.1.1-.2.1-.2l6.3-6.3c.3.7.7 1.4 1.3 2 .5.5 1.1.9 1.8 1.2l-6.2 6.2zm8.2-8.7c-.3.7-.8 1.2-.8 1.2l-.2.2c-.7-.2-1.3-.6-1.9-1.1-.6-.6-1-1.4-1.2-2.1l.1-.1s1-.9 2-.9c.5 0 1 .2 1.4.6.8.6.9 1.4.6 2.2z" /></svg>