<svg xmlns="http://www.w3.org/2000/svg" width="40" height="40" viewBox="0 0 40 40"><path d="M7.164 27.6a.999.999 0 11-1.832.8C4.457 26.4 4 24.23 4 22c0-8.837 7.163-16 16-16s16 7.163 16 16c0 2.23-.457 4.399-1.332 6.4a1 1 0 11-1.832-.8A13.96 13.96 0 0034 22c0-7.732-6.268-14-14-14S6 14.268 6 22c0 1.954.4 3.85 1.164 5.6zm20.614-13.378a1 1 0 010 1.414l-5.07 5.071a3 3 0 01-4.829 3.414 2.998 2.998 0 010-4.242 2.999 2.999 0 013.414-.587l5.071-5.07a1 1 0 011.414 0zM10 21a1 1 0 110 2 1 1 0 010-2zm20 0a1 1 0 110 2 1 1 0 010-2zm-10.707.293a1 1 0 101.416 1.414 1 1 0 00-1.416-1.414zm-5.657-7.071a1 1 0 11-1.416 1.414 1 1 0 011.416-1.414zM20 11a1 1 0 110 2 1 1 0 010-2z"/></svg>
