<svg xmlns="http://www.w3.org/2000/svg" width="24" height="24" baseProfile="full" viewBox="0 0 24 24"><path d="M9.932 13.6c-1.912 0-4.035-1.093-6.11-3.17C1.28 7.881.217 5.26.828 3.045c.09-.323.26-.626.495-.875.54-.573 1.161-.994 1.796-1.218a1.006 1.006 0 0 1 1.035.221 7.643 7.643 0 0 1 1.702 2.407c.154.344.105.743-.13 1.042-.302.384-.659.791-1.09 1.245a.491.491 0 0 0-.085.551c.32.66.797 1.317 1.38 1.9a7.198 7.198 0 0 0 1.897 1.383.488.488 0 0 0 .549-.085c.452-.432.859-.79 1.243-1.092a1.008 1.008 0 0 1 1.04-.13 7.64 7.64 0 0 1 2.403 1.704c.264.278.348.675.22 1.037-.223.635-.643 1.257-1.215 1.798-.249.236-.55.407-.873.497a4.711 4.711 0 0 1-1.262.168Z"/></svg>
