<svg xmlns="http://www.w3.org/2000/svg" width="24" height="24" baseProfile="full" viewBox="0 0 24 24"><path d="M15.1 22.8c-2.9 0-6.1-1.6-9.2-4.7C2.2 14.2.6 10.3 1.5 6.8c.2-.5.5-1.1.9-1.5.8-.9 1.8-1.6 2.8-1.9.8-.3 1.7-.1 2.3.5.9.8 1.5 1.7 2.1 2.7.2.3.3.6.5.9.3.7.2 1.6-.3 2.2-.4.6-1 1.2-1.6 1.8.4.8 1.1 1.7 1.8 2.4.8.8 1.6 1.4 2.5 1.8.6-.6 1.2-1.1 1.7-1.6.6-.5 1.5-.6 2.2-.3.3.1.6.3.9.5 1 .6 1.9 1.2 2.7 2.1.6.6.8 1.5.5 2.2-.4 1-1 2-1.9 2.8-.4.4-1 .7-1.6.9-.5.4-1.2.5-1.9.5ZM6 4.8h-.2c-.9.3-1.6.8-2.3 1.5-.3.3-.4.6-.5.9-.8 2.9.6 6.4 4 9.8 3.4 3.4 6.9 4.9 9.7 4.1.3-.1.7-.3.9-.5.7-.7 1.3-1.5 1.5-2.3.1-.2 0-.5-.1-.7-.7-.7-1.5-1.3-2.3-1.8-.3-.2-.5-.3-.8-.4-.2-.1-.5-.1-.7.1-.5.4-1.1.9-1.7 1.5-.4.4-1.1.5-1.6.3-1-.5-2-1.2-2.9-2.1-.9-.9-1.6-1.9-2.1-2.9-.3-.7-.2-1.3.2-1.8.6-.6 1.1-1.2 1.5-1.7.2-.2.2-.5.1-.7-.1-.3-.3-.5-.4-.8-.5-.9-1.1-1.6-1.9-2.4-.1-.1-.3-.1-.4-.1Z"/><path fill-rule="evenodd" clip-rule="evenodd" d="M19.997 3.078a.75.75 0 0 1 .75.75v5.657a.75.75 0 0 1-1.5 0V5.64l-5.888 5.889a.75.75 0 0 1-1.061-1.06l5.889-5.89H14.34a.75.75 0 0 1 0-1.5h5.657Z"/><defs><clipPath id="a"><path d="M0 0h24v24H0z"/></clipPath></defs></svg>
