<svg viewBox="0 0 40 40" xmlns="http://www.w3.org/2000/svg">
<path fill-rule="evenodd" clip-rule="evenodd" d="M32.5 6.16699H7V3.66699L32.5 3.66699V6.16699Z"/>
<circle cx="7.49902" cy="14.4995" r="1.5"/>
<circle cx="7.49902" cy="30.5" r="1.5"/>
<circle cx="32.499" cy="14.4995" r="1.5"/>
<circle cx="32.499" cy="30.5" r="1.5"/>
<path d="M10 26.9041L13.6583 17.1245H15.55L19.2222 26.9041H17.1775L16.4959 24.9481H12.7124L12.0447 26.9041H10ZM13.2688 23.2953H15.9395L14.6181 19.4661H14.5902L13.2688 23.2953Z"/>
<path d="M26.1053 27.0005C23.2537 27.0005 21.0699 25.1685 21.0699 22.028C21.0699 19.163 22.9338 17.0005 26.0218 17.0005C27.4267 17.0005 28.9289 17.5515 29.9444 18.6672L28.5673 19.8517C27.9553 19.2457 27.1068 18.8324 26.0218 18.8324C24.3943 18.8324 23.1146 20.0308 23.1146 22.028C23.1146 23.8324 24.2553 25.2374 26.1053 25.2374C26.8147 25.2374 27.4684 25.0583 28.0944 24.6727V23.2402H25.8827V21.5735H30V25.7884C29.0959 26.5046 27.6214 27.0005 26.1053 27.0005Z"/>
<path fill-rule="evenodd" clip-rule="evenodd" d="M3.73793 11.0023C3.70955 11.0333 3.66699 11.1058 3.66699 11.2222V33.4444C3.66699 33.5609 3.70955 33.6334 3.73794 33.6643C3.73868 33.6652 3.73941 33.6659 3.74011 33.6667H36.2605C36.2612 33.6659 36.262 33.6652 36.2627 33.6643C36.2911 33.6334 36.3337 33.5609 36.3337 33.4444V11.2222C36.3337 11.1058 36.2911 11.0333 36.2627 11.0023C36.262 11.0015 36.2612 11.0007 36.2605 11H3.74011C3.73941 11.0007 3.73868 11.0015 3.73793 11.0023ZM3.70403 9C2.579 9 1.66699 9.99492 1.66699 11.2222V33.4444C1.66699 34.6717 2.57901 35.6667 3.70403 35.6667H36.2966C37.4216 35.6667 38.3337 34.6717 38.3337 33.4444V11.2222C38.3337 9.99492 37.4216 9 36.2966 9H3.70403Z"/>
</svg>
