<svg width="32" height="32" viewBox="0 0 32 32" fill="none" xmlns="http://www.w3.org/2000/svg">
<path d="M4.04297 10.3337V26.031H27.957V10.3337H4.04297ZM29.957 26.031C29.9569 27.1355 29.0615 28.031 27.957 28.031H4.04297C2.93848 28.031 2.0431 27.1355 2.04297 26.031V10.3337C2.04297 9.22917 2.9384 8.33374 4.04297 8.33374H27.957C29.0616 8.33374 29.957 9.22917 29.957 10.3337V26.031Z" fill="#000"/>
<path d="M7.33594 12.6367C7.33594 13.189 6.88822 13.6367 6.33594 13.6367C5.78365 13.6367 5.33594 13.189 5.33594 12.6367C5.33594 12.0844 5.78365 11.6367 6.33594 11.6367C6.88822 11.6367 7.33594 12.0844 7.33594 12.6367Z" fill="#000"/>
<path d="M26.6631 12.6367C26.6631 13.189 26.2154 13.6367 25.6631 13.6367C25.1108 13.6367 24.6631 13.189 24.6631 12.6367C24.6631 12.0844 25.1108 11.6367 25.6631 11.6367C26.2154 11.6367 26.6631 12.0844 26.6631 12.6367Z" fill="#000"/>
<path d="M26.6631 23.8478C26.6631 24.4001 26.2154 24.8478 25.6631 24.8478C25.1108 24.8478 24.6631 24.4001 24.6631 23.8478C24.6631 23.2956 25.1108 22.8478 25.6631 22.8478C26.2154 22.8478 26.6631 23.2956 26.6631 23.8478Z" fill="#000"/>
<path d="M7.33594 23.8478C7.33594 24.4001 6.88822 24.8478 6.33594 24.8478C5.78365 24.8478 5.33594 24.4001 5.33594 23.8478C5.33594 23.2956 5.78365 22.8478 6.33594 22.8478C6.88822 22.8478 7.33594 23.2956 7.33594 23.8478Z" fill="#000"/>
<path d="M24.6631 4.14099C25.2154 4.14099 25.6631 4.58871 25.6631 5.14099C25.6631 5.69328 25.2154 6.14099 24.6631 6.14099H7.33594C6.78365 6.14099 6.33594 5.69328 6.33594 5.14099C6.33594 4.58871 6.78365 4.14099 7.33594 4.14099H24.6631Z" fill="#000"/>
<path d="M20.4273 21.7103C18.2729 21.7103 16.623 20.3126 16.623 17.9166C16.623 15.7307 18.0312 14.0808 20.3642 14.0808C21.4256 14.0808 22.5606 14.5012 23.3277 15.3524L22.2874 16.2562C21.825 15.7938 21.1839 15.4785 20.3642 15.4785C19.1347 15.4785 18.1679 16.3928 18.1679 17.9166C18.1679 19.2932 19.0296 20.3651 20.4273 20.3651C20.9632 20.3651 21.4571 20.2285 21.93 19.9343V18.8413H20.2591V17.5698H23.3698V20.7855C22.6867 21.332 21.5727 21.7103 20.4273 21.7103Z" fill="#000"/>
<path d="M8.32324 21.6367L11.0871 14.1754H12.5163L15.2907 21.6367H13.7458L13.2309 20.1445H10.3725L9.86805 21.6367H8.32324ZM10.7928 18.8834H12.8105L11.8122 15.9619H11.7912L10.7928 18.8834Z" fill="#000"/>
<path d="M18.168 17.917C18.168 16.3932 19.1347 15.4785 20.3643 15.4785L20.6631 15.4932C21.3411 15.5598 21.8826 15.8514 22.2871 16.2559L23.3271 15.3525C22.6079 14.5545 21.5656 14.1352 20.5635 14.0859L20.3643 14.0811C18.0313 14.0811 16.623 15.7311 16.623 17.917L16.6279 18.1387C16.7269 20.3986 18.34 21.7098 20.4268 21.71C21.5722 21.71 22.6861 21.3316 23.3691 20.7852V17.5693H20.2588V18.8418H21.9297V19.9346C21.4569 20.2287 20.9626 20.3652 20.4268 20.3652V20.1152C20.8724 20.1152 21.2831 20.0114 21.6797 19.79V19.0918H20.0088V17.3193H23.6191V20.9053L23.5254 20.9805C22.7909 21.568 21.6192 21.96 20.4268 21.96C19.2958 21.9599 18.28 21.5923 17.5449 20.8926C16.808 20.1911 16.3731 19.1748 16.373 17.917C16.373 16.7706 16.7429 15.7467 17.4365 15.0078C18.1321 14.2669 19.1359 13.8311 20.3643 13.8311C21.4159 13.8311 22.5415 14.2205 23.3545 15.0195L23.5137 15.1846L23.6836 15.374L22.4512 16.4453L22.2754 16.5977L22.1104 16.4326C21.6923 16.0146 21.1138 15.7286 20.3643 15.7285C19.8134 15.7285 19.3312 15.9323 18.9863 16.2979C18.6413 16.6636 18.418 17.209 18.418 17.917L18.4268 18.1514C18.4696 18.6887 18.6595 19.1523 18.96 19.4912C19.3006 19.8754 19.7965 20.1152 20.4268 20.1152V20.3652L20.1709 20.3525C19.0079 20.2377 18.2709 19.3394 18.1777 18.1709L18.168 17.917Z" fill="#000"/>
<path d="M12.6904 13.9258L12.751 14.0879L15.6504 21.8867H13.5674L13.5098 21.7188L13.0537 20.3945H10.5518L10.1055 21.7168L10.0479 21.8867H7.96387L10.9131 13.9258H12.6904ZM11.0869 14.1758L8.32324 21.6367H9.86816L10.373 20.1445H13.2314L13.7461 21.6367H15.291L12.5166 14.1758H11.0869ZM11.8125 15.9619L12.8105 18.8838H10.793L11.791 15.9619H11.8125ZM11.1426 18.6338H12.4619L11.8018 16.7041L11.1426 18.6338Z" fill="#000"/>
</svg>
