<svg xmlns="http://www.w3.org/2000/svg" viewBox="0 0 24 24" width="24" height="24" xml:space="preserve"><path d="M12 5.4c.4 0 .7.3.7.7v.7c.6.1 1.1.3 1.6.6.7.5 1.1 1.3 1.1 2.3 0 .4-.3.7-.7.7s-.7-.3-.7-.7c0-.5-.2-.9-.6-1.2-.4-.3-.9-.4-1.5-.4s-1.1.2-1.5.4c-.4.3-.6.6-.6 1.2 0 .3.1.6.2.7.1.2.2.3.4.4.4.2.9.4 1.7.5h.1c.6.1 1.4.3 2.1.7.3.2.6.5.9.9.2.4.3.8.3 1.4 0 1-.5 1.8-1.1 2.3-.5.3-1 .6-1.6.6v.8c0 .4-.3.7-.7.7s-.7-.3-.7-.7v-.7c-.6-.1-1.1-.3-1.6-.6-.7-.5-1.1-1.3-1.1-2.3 0-.4.3-.7.7-.7s.7.3.7.7c0 .5.2.9.6 1.2.4.3.9.4 1.5.4s1.1-.2 1.5-.4c.4-.3.6-.6.6-1.2 0-.3-.1-.6-.2-.7-.1-.2-.2-.3-.4-.4-.4-.2-.9-.4-1.7-.5h-.1c-.6-.1-1.4-.3-2.1-.7-.3-.2-.6-.5-.9-.9-.2-.4-.3-.8-.3-1.4 0-1 .5-1.8 1.1-2.3.5-.3 1-.6 1.6-.6V6c0-.3.3-.6.7-.6zm0-3.5C6.4 1.9 1.9 6.4 1.9 12S6.4 22.1 12 22.1 22.1 17.6 22.1 12 17.6 1.9 12 1.9zm0 18.8c-4.8 0-8.7-3.9-8.7-8.7S7.2 3.3 12 3.3s8.7 3.9 8.7 8.7-3.9 8.7-8.7 8.7z"/></svg>