<svg xmlns="http://www.w3.org/2000/svg" viewBox="0 0 24 24" width="24" height="24" xml:space="preserve"><path d="M3.9.2h14.2v6.5l3.2 1.4c.3.1.4.4.4.6v10.5c0 .9-.7 1.6-1.6 1.6H1.8c-.9 0-1.6-.7-1.6-1.6V8.7c0-.3.2-.5.4-.6l3.2-1.4V.2zm0 8-1.5.6 1.5.9V8.2zm1.4 2.3 5.7 3.4 5.7-3.4V1.6H5.3v8.9zm12.8-.8 1.5-.9-1.5-.6v1.5zm2.3.2-9 5.3c-.2.1-.5.1-.7 0l-9-5.3v9.3c0 .1.1.2.2.2h18.3c.1 0 .2-.1.2-.2V9.9zM10.3 3.2v-.3h1.4v.3c.3.1.7.2 1 .4.5.4.9 1 .9 1.7h-1.4c0-.3-.1-.5-.3-.6-.2-.1-.5-.2-.9-.2s-.6.1-.9.2c-.1.2-.2.4-.2.6 0 .2 0 .3.1.4 0 .1.1.1.2.2.2.1.5.2 1 .3h.1c.4.1 1 .2 1.4.5.3.2.5.4.7.7.2.3.2.6.2 1 0 .7-.3 1.3-.9 1.7-.3.2-.6.4-1 .4v.3h-1.4v-.3c-.3-.1-.7-.2-1-.4-.5-.4-.9-1-.9-1.7h1.4c0 .3.1.5.3.6.2.1.5.2.9.2s.6-.1.9-.2c.2-.1.3-.3.3-.6 0-.2 0-.3-.1-.4-.1 0-.1-.1-.2-.1-.2-.1-.5-.2-1-.3h-.1c-.4-.1-1-.2-1.4-.5-.3-.2-.5-.4-.7-.7-.2-.3-.2-.6-.2-1 0-.7.3-1.3.9-1.7.2-.3.6-.4.9-.5z" style="fill-rule:evenodd;clip-rule:evenodd;"/></svg>