<svg width="32" height="32" viewBox="0 0 32 32" fill="none" xmlns="http://www.w3.org/2000/svg">
<path d="M16.7793 22.5631C16.2998 22.851 15.7004 22.8486 15.2236 22.5563L4.28906 15.8532V27.8376H27.9834V15.8346L16.7793 22.5631ZM29.9834 28.3376C29.9833 29.1659 29.3118 29.8376 28.4834 29.8376H3.78906C2.9607 29.8376 2.28917 29.1659 2.28906 28.3376V14.9596C2.28936 13.8608 3.41825 13.1601 4.38281 13.5817L4.57324 13.6813L16.0098 20.6921L27.7109 13.6647L27.9014 13.5671C28.865 13.1556 29.9834 13.8575 29.9834 14.9508V28.3376Z" fill="#000"/>
<path d="M25.2627 15.996C25.2627 16.5482 24.8148 16.9958 24.2627 16.996C23.7104 16.996 23.2627 16.5483 23.2627 15.996V4.75482H8.74805V15.6015C8.74805 16.1538 8.30033 16.6015 7.74805 16.6015C7.19576 16.6015 6.74805 16.1538 6.74805 15.6015V4.25482C6.74805 3.42639 7.41962 2.75482 8.24805 2.75482H23.7627C24.5909 2.75506 25.2627 3.42654 25.2627 4.25482V15.996Z" fill="#000"/>
<path d="M23.7289 11.2194C24.0248 10.7532 24.6435 10.615 25.1098 10.9108L29.5199 13.7087C29.986 14.0045 30.124 14.6223 29.8285 15.0886C29.5327 15.5549 28.914 15.693 28.4477 15.3971L24.0375 12.6003C23.5713 12.3044 23.4331 11.6857 23.7289 11.2194Z" fill="#000"/>
<path d="M8.59333 11.2195C8.29744 10.7533 7.67877 10.6151 7.21247 10.9109L2.80232 13.7087C2.33631 14.0046 2.19822 14.6224 2.49372 15.0886C2.78957 15.555 3.40822 15.693 3.87458 15.3972L8.28474 12.6003C8.75095 12.3044 8.88913 11.6858 8.59333 11.2195Z" fill="#000"/>
<path d="M16.2884 17.582C14.993 17.582 13.6692 17.0695 12.6016 15.9734L13.8115 14.493C14.566 15.3471 15.5339 15.7599 16.3311 15.7599C17.2991 15.7599 17.7688 15.3186 17.7688 14.6923C17.7688 13.9521 17.2421 13.6816 16.0179 13.2546C14.4806 12.7279 12.9574 12.0304 12.9574 10.1087C12.9574 8.4859 14.3952 7.23323 16.203 7.21899C17.4557 7.21899 18.6087 7.67451 19.6194 8.50013L18.4521 10.009C17.6122 9.32576 16.872 9.01259 16.2457 9.01259C15.5482 9.01259 15.0357 9.38269 15.0215 10.0233C15.0215 10.6496 15.5624 10.9058 16.7297 11.3613C18.4806 12.0446 19.8756 12.5001 19.8756 14.4503C19.8756 16.671 17.9254 17.582 16.2884 17.582Z" fill="#000"/>
<path d="M15.168 6.10474H17.1041V8.04082H15.168V6.10474Z" fill="#000"/>
<path d="M15.168 16.4858H17.1041V18.4219H15.168V16.4858Z" fill="#000"/>
</svg>
