<svg width="22" height="22" viewBox="0 0 22 22" fill="none" xmlns="http://www.w3.org/2000/svg">
<path fill-rule="evenodd" clip-rule="evenodd" d="M4.75686 7.06251C4.90643 7.41151 4.74476 7.81567 4.39577 7.96524L1.60411 9.16167V19.25C1.60411 19.3766 1.70671 19.4792 1.83328 19.4792H20.1666C20.2932 19.4792 20.3958 19.3766 20.3958 19.25V9.16166L17.6041 7.96524C17.2551 7.81567 17.0935 7.41151 17.243 7.06251C17.3926 6.71352 17.7968 6.55185 18.1458 6.70142L21.3541 8.07642C21.6069 8.18475 21.7708 8.43331 21.7708 8.70833V19.25C21.7708 20.136 21.0526 20.8542 20.1666 20.8542H1.83328C0.947322 20.8542 0.229112 20.136 0.229112 19.25V8.70833C0.229112 8.43331 0.39301 8.18475 0.645793 8.07642L3.85413 6.70142C4.20312 6.55185 4.60729 6.71352 4.75686 7.06251Z" fill="#212338"/>
<path fill-rule="evenodd" clip-rule="evenodd" d="M0.324725 8.35858C0.517888 8.03169 0.939473 7.92328 1.26636 8.11644L10.9999 13.8681L20.7335 8.11644C21.0604 7.92328 21.482 8.03169 21.6752 8.35858C21.8683 8.68547 21.7599 9.10706 21.433 9.30022L11.3497 15.2586C11.134 15.386 10.8659 15.386 10.6502 15.2586L0.566861 9.30022C0.239971 9.10706 0.131563 8.68547 0.324725 8.35858Z" fill="#212338"/>
<path fill-rule="evenodd" clip-rule="evenodd" d="M10.9999 2.21529C11.3796 2.21529 11.6874 2.5231 11.6874 2.90279V3.20827C12.0363 3.28733 12.375 3.43001 12.6682 3.64595C13.1728 4.01777 13.5208 4.5962 13.5208 5.3391C13.5208 5.71879 13.213 6.0266 12.8333 6.0266C12.4536 6.0266 12.1458 5.71879 12.1458 5.3391C12.1458 5.06897 12.0354 4.88764 11.8526 4.75295C11.6498 4.60359 11.3427 4.50707 10.9999 4.50707C10.6572 4.50707 10.3501 4.60359 10.1473 4.75295C9.96451 4.88764 9.85411 5.06897 9.85411 5.3391C9.85411 5.52866 9.89158 5.63564 9.92606 5.69811C9.96019 5.75995 10.0134 5.81807 10.1065 5.87684C10.3274 6.01629 10.6542 6.09599 11.1464 6.20329C11.1633 6.20698 11.1805 6.21071 11.1979 6.21449C11.6176 6.30567 12.1793 6.42768 12.6273 6.71044C12.878 6.86864 13.1112 7.08601 13.2776 7.38747C13.4437 7.68828 13.5208 8.03237 13.5208 8.41094C13.5208 9.15383 13.1728 9.73226 12.6682 10.1041C12.375 10.32 12.0363 10.4627 11.6874 10.5418V10.8472C11.6874 11.2269 11.3796 11.5347 10.9999 11.5347C10.6202 11.5347 10.3124 11.2269 10.3124 10.8472V10.5418C9.96357 10.4627 9.62484 10.32 9.33174 10.1041C8.82705 9.73226 8.47911 9.15383 8.47911 8.41094C8.47911 8.03124 8.78692 7.72344 9.16661 7.72344C9.54631 7.72344 9.85411 8.03124 9.85411 8.41094C9.85411 8.68106 9.96451 8.8624 10.1473 8.99708C10.3501 9.14645 10.6572 9.24297 10.9999 9.24297C11.3427 9.24297 11.6498 9.14645 11.8526 8.99708C12.0354 8.8624 12.1458 8.68106 12.1458 8.41094C12.1458 8.22137 12.1083 8.11439 12.0738 8.05192C12.0397 7.99009 11.9865 7.93196 11.8934 7.87319C11.6725 7.73375 11.3457 7.65404 10.8535 7.54674C10.8366 7.54306 10.8194 7.53933 10.802 7.53554C10.3823 7.44437 9.82056 7.32236 9.37257 7.03959C9.12193 6.88139 8.88866 6.66402 8.72227 6.36257C8.55623 6.06175 8.47911 5.71766 8.47911 5.3391C8.47911 4.5962 8.82705 4.01777 9.33174 3.64595C9.62484 3.43001 9.96357 3.28733 10.3124 3.20827V2.90279C10.3124 2.5231 10.6202 2.21529 10.9999 2.21529Z" fill="#212338"/>
<path fill-rule="evenodd" clip-rule="evenodd" d="M3.89578 0.229164H18.1041V10.5417H16.7291V1.60416H5.27078V10.5417H3.89578V0.229164Z" fill="#212338"/>
</svg>
