<?xml version="1.0" encoding="UTF-8"?>
<svg width="14" height="14" viewBox="0 0 14 14" xmlns="http://www.w3.org/2000/svg">
<rect width="14" height="14" x="11" y="19" />
<path d="M12.4283 7.43749L12.3828 7.78399C12.2568 8.74299 11.8718 9.65299 11.2698 10.4125C10.6678 11.172 9.8698 11.7495 8.9598 12.089C8.4908 12.264 8.0008 12.369 7.5073 12.4075C7.5003 12.4075 7.4933 12.4075 7.4828 12.4075C7.3603 12.418 7.2378 12.4215 7.1153 12.4215C7.0558 12.4215 6.9928 12.4215 6.9333 12.4215C6.8703 12.4215 6.8108 12.418 6.7478 12.4145C6.66031 12.411 6.5728 12.404 6.4888 12.3935C6.4748 12.3935 6.4573 12.39 6.4433 12.3865C4.7213 12.1835 3.1673 11.158 2.3448 9.57249H5.3023V8.87249H5.3058L2.0613 8.86899H1.3998C1.3718 8.86899 1.3508 8.87949 1.3228 8.88299C1.1688 8.91799 1.0498 9.05099 1.0498 9.21899V13.125H1.7498V9.93299C2.4253 11.207 3.5173 12.1555 4.7948 12.6735C4.8018 12.6735 4.8123 12.6805 4.8193 12.684C4.9278 12.726 5.0363 12.768 5.1448 12.803C5.1658 12.81 5.1833 12.817 5.2043 12.824C5.3023 12.8555 5.4003 12.8835 5.4983 12.9115C5.6278 12.9465 5.7608 12.978 5.8938 13.006C5.9008 13.006 5.9043 13.006 5.9113 13.0095C5.9358 13.013 5.9603 13.02 5.9848 13.027C6.0758 13.0445 6.1703 13.055 6.2613 13.069C6.3243 13.076 6.3873 13.0865 6.4503 13.0935C6.5238 13.1005 6.6008 13.1075 6.6743 13.111C6.7653 13.118 6.8563 13.1215 6.9473 13.1215C7.0033 13.1215 7.0593 13.1215 7.1153 13.1215C7.2588 13.1215 7.4023 13.1145 7.5493 13.104C7.5563 13.104 7.5633 13.104 7.5703 13.104C7.9063 13.076 8.2458 13.02 8.5818 12.936C8.5888 12.936 8.5993 12.9325 8.6063 12.929C8.9948 12.8275 9.3728 12.6875 9.7333 12.5125C9.7403 12.5125 9.7438 12.5055 9.7508 12.5055C9.8663 12.4495 9.9748 12.39 10.0868 12.327C10.0973 12.32 10.1078 12.313 10.1183 12.3095C10.2233 12.25 10.3248 12.1835 10.4263 12.117C10.4403 12.1065 10.4543 12.0995 10.4683 12.089C10.5663 12.0225 10.6643 11.9525 10.7588 11.879C10.7728 11.8685 10.7833 11.858 10.7973 11.8475C10.8918 11.774 10.9863 11.697 11.0773 11.6165C11.0878 11.6095 11.0948 11.6025 11.1018 11.592C11.1998 11.5045 11.2908 11.417 11.3818 11.326C11.4763 11.2315 11.5673 11.1335 11.6548 11.032C11.6548 11.0285 11.6618 11.025 11.6653 11.0215C11.7493 10.9235 11.8298 10.822 11.9103 10.717C11.9138 10.71 11.9208 10.703 11.9243 10.696C11.9978 10.5945 12.0713 10.493 12.1378 10.388C12.1448 10.3775 12.1518 10.3635 12.1623 10.353C12.2253 10.255 12.2883 10.1535 12.3443 10.0485C12.3548 10.0275 12.3653 10.01 12.3758 9.98899C12.4283 9.89449 12.4773 9.79649 12.5263 9.69499C12.5403 9.66699 12.5508 9.63899 12.5648 9.61099C12.6068 9.51999 12.6488 9.42549 12.6838 9.33099C12.6978 9.29599 12.7118 9.26099 12.7258 9.22599C12.7608 9.13499 12.7923 9.04399 12.8203 8.95299C12.8343 8.91449 12.8448 8.87599 12.8553 8.83399C12.8833 8.74299 12.9078 8.65199 12.9323 8.55749C12.9428 8.51899 12.9498 8.48049 12.9603 8.44199C12.9813 8.34399 13.0023 8.24599 13.0198 8.14799C13.0268 8.11649 13.0303 8.08499 13.0373 8.04999C13.0653 7.87849 13.0828 7.70349 13.0968 7.52849L12.4178 7.44099L12.4283 7.43749Z"/>
<path d="M12.4248 1.04999V4.24199C11.7493 2.96799 10.6573 2.01949 9.37982 1.50149C9.37282 1.50149 9.36232 1.49449 9.35532 1.49099C9.24682 1.44899 9.13832 1.40699 9.02982 1.37199C9.00882 1.36499 8.99132 1.35799 8.97032 1.35099C8.87232 1.31949 8.77432 1.29149 8.67282 1.26349C8.54332 1.22849 8.41032 1.19699 8.27732 1.16899C8.27032 1.16899 8.26682 1.16899 8.25982 1.16549C8.23532 1.16199 8.21082 1.15499 8.18632 1.14799C8.09532 1.13049 8.00082 1.11999 7.90982 1.10599C7.84682 1.09899 7.78382 1.08849 7.72082 1.08149C7.64732 1.07449 7.57382 1.06749 7.49682 1.06399C7.40582 1.05699 7.31482 1.05349 7.22032 1.05349C7.16432 1.05349 7.10832 1.05349 7.05232 1.05349C6.90882 1.05349 6.76532 1.06049 6.61832 1.07099C6.61132 1.07099 6.60432 1.07099 6.60082 1.07099C6.26482 1.09899 5.92532 1.15499 5.58932 1.23899C5.58232 1.23899 5.57182 1.24249 5.56482 1.24599C5.17632 1.34749 4.79832 1.48749 4.43782 1.66249C4.43082 1.66249 4.42732 1.66949 4.42032 1.66949C4.30832 1.72549 4.19632 1.78499 4.08432 1.84799C4.07382 1.85499 4.06332 1.86199 4.04932 1.86899C3.94432 1.92849 3.84282 1.99499 3.74132 2.06149C3.72732 2.07199 3.71332 2.07899 3.69932 2.08949C3.60132 2.15599 3.50332 2.22599 3.40882 2.29949C3.39482 2.30999 3.38082 2.32049 3.37032 2.33099C3.27582 2.40449 3.18132 2.48149 3.09032 2.56199C3.08332 2.56899 3.07282 2.57599 3.06582 2.58649C2.96782 2.67399 2.87332 2.76149 2.78232 2.85599C2.68782 2.95049 2.59682 3.05199 2.50932 3.14999C2.50932 3.15349 2.50232 3.15699 2.49882 3.16049C2.41482 3.25849 2.33432 3.35999 2.25382 3.46499C2.25032 3.47199 2.24332 3.47899 2.23982 3.48599C2.16632 3.58749 2.09282 3.68899 2.02632 3.79399C2.01932 3.80449 2.01232 3.81849 2.00182 3.82899C1.93882 3.92699 1.87582 4.02849 1.81982 4.13349C1.80932 4.15449 1.79882 4.17199 1.78832 4.19299C1.73582 4.29099 1.68682 4.38899 1.63782 4.48699C1.62382 4.51499 1.61332 4.54299 1.59932 4.57099C1.55732 4.66199 1.51532 4.75649 1.47682 4.85099C1.46282 4.88599 1.44882 4.92099 1.43482 4.95599C1.39982 5.04699 1.36832 5.13799 1.34032 5.22899C1.32632 5.26749 1.31582 5.30599 1.30532 5.34799C1.27732 5.43899 1.25282 5.52999 1.22832 5.62449C1.21782 5.66299 1.21082 5.70149 1.20032 5.73999C1.17932 5.83799 1.15832 5.93599 1.14082 6.03399C1.13382 6.06549 1.13032 6.09699 1.12332 6.12849C1.09532 6.29999 1.07782 6.47499 1.06382 6.64999L1.74282 6.73749L1.78832 6.39099C1.91432 5.43199 2.29932 4.52199 2.90132 3.76249C3.50332 3.00299 4.30132 2.42549 5.21132 2.08599C5.68032 1.91099 6.17032 1.80599 6.66382 1.76749C6.67082 1.76749 6.67782 1.76749 6.68832 1.76749C6.81082 1.75699 6.93332 1.75349 7.05232 1.75349C7.11532 1.75349 7.17482 1.75349 7.23432 1.75349C7.29732 1.75349 7.35682 1.75699 7.41982 1.76049C7.50732 1.76399 7.59482 1.77099 7.67882 1.78149C7.69282 1.78149 7.71032 1.78499 7.72432 1.78849C9.44632 1.99149 11.0003 3.01699 11.8228 4.60249H8.86532V5.30249L12.1098 5.30599H12.7713C12.7993 5.30599 12.8203 5.29549 12.8483 5.29199C13.0023 5.25699 13.1213 5.12399 13.1213 4.95599V1.04999H12.4213H12.4248Z"/>
</svg>
