<svg xmlns="http://www.w3.org/2000/svg" width="40" height="40" viewBox="0 0 40 40"><path d="M15.718 9c5.367 0 9.718 4.392 9.718 9.809a9.95 9.95 0 01-.38 2.727l8.65 8.732a1.023 1.023 0 010 1.435 1 1 0 01-1.422 0l-9.086-9.171a1.02 1.02 0 01-.234-1.064c.304-.845.461-1.74.461-2.66 0-4.296-3.45-7.779-7.707-7.779-.34 0-.676.023-1.008.066l1.895 1.913a4.424 4.424 0 010 6.218l-.473.479a4.328 4.328 0 01-6.161 0l-1.895-1.913a7.98 7.98 0 00-.065 1.017c0 4.296 3.45 7.78 7.707 7.78.91 0 1.798-.16 2.634-.467a1 1 0 011.054.236l3.874 3.91a1.023 1.023 0 010 1.435 1 1 0 01-1.422 0l-3.438-3.47a9.632 9.632 0 01-2.702.385c-5.367 0-9.718-4.392-9.718-9.81 0-1.156.199-2.286.583-3.351a1 1 0 011.655-.371l3.154 3.184a2.332 2.332 0 003.318 0l.474-.479a2.383 2.383 0 000-3.348l-3.154-3.184a1.019 1.019 0 01.367-1.671A9.63 9.63 0 0115.718 9zm6.575 16.293a1 1 0 011.413 0l4.001 4.001a1 1 0 01-1.413 1.413l-4.001-4.001a1 1 0 010-1.413z"/></svg>
