<svg width="22" height="22" viewBox="0 0 22 22" fill="none" xmlns="http://www.w3.org/2000/svg">
<path d="M16.4375 14.375C16.0938 14.375 15.75 14.2375 15.475 13.9625L13.4125 11.9C13.1375 11.625 13 11.2812 13 10.9375C13 10.5938 13.1375 10.25 13.4125 9.975L15.475 7.9125C15.75 7.6375 16.0938 7.5 16.4375 7.5C16.7812 7.5 17.125 7.6375 17.4 7.9125L19.4625 9.975C19.7375 10.25 19.875 10.5938 19.875 10.9375C19.875 11.2812 19.7375 11.625 19.4625 11.9L17.4 13.9625C17.125 14.2375 16.7812 14.375 16.4375 14.375ZM16.4375 8.875L14.375 10.9375L16.4375 13L18.5 10.9375L16.4375 8.875ZM10.9375 8.875C10.5938 8.875 10.25 8.7375 9.975 8.4625L7.9125 6.4C7.6375 6.125 7.5 5.78125 7.5 5.4375C7.5 5.09375 7.6375 4.75 7.9125 4.475L9.975 2.4125C10.25 2.1375 10.5938 2 10.9375 2C11.2812 2 11.625 2.1375 11.9 2.4125L13.9625 4.475C14.2375 4.75 14.375 5.09375 14.375 5.4375C14.375 5.78125 14.2375 6.125 13.9625 6.4L11.9 8.4625C11.625 8.7375 11.2812 8.875 10.9375 8.875ZM10.9375 3.375L8.875 5.4375L10.9375 7.5L13 5.4375L10.9375 3.375ZM10.9375 19.875C10.5938 19.875 10.25 19.7375 9.975 19.4625L7.9125 17.4C7.6375 17.125 7.5 16.7812 7.5 16.4375C7.5 16.0938 7.6375 15.75 7.9125 15.475L9.975 13.4125C10.25 13.1375 10.5938 13 10.9375 13C11.2812 13 11.625 13.1375 11.9 13.4125L13.9625 15.475C14.2375 15.75 14.375 16.0938 14.375 16.4375C14.375 16.7812 14.2375 17.125 13.9625 17.4L11.9 19.4625C11.625 19.7375 11.2812 19.875 10.9375 19.875ZM10.9375 14.375L8.875 16.4375L10.9375 18.5L13 16.4375L10.9375 14.375ZM5.4375 14.375C5.09375 14.375 4.75 14.2375 4.475 13.9625L2.4125 11.9C2.1375 11.625 2 11.2812 2 10.9375C2 10.5938 2.1375 10.25 2.4125 9.975L4.475 7.9125C4.75 7.6375 5.09375 7.5 5.4375 7.5C5.78125 7.5 6.125 7.6375 6.4 7.9125L8.4625 9.975C8.7375 10.25 8.875 10.5938 8.875 10.9375C8.875 11.2812 8.7375 11.625 8.4625 11.9L6.4 13.9625C6.125 14.2375 5.78125 14.375 5.4375 14.375ZM5.4375 8.875L3.375 10.9375L5.4375 13L7.5 10.9375L5.4375 8.875Z" fill="#212338"/>
</svg>
