<svg xmlns="http://www.w3.org/2000/svg" viewBox="0 0 24 24" width="24" height="24" xml:space="preserve"><path d="M16.4 14.4c-.3 0-.7-.1-1-.4l-2.1-2.1c-.3-.3-.4-.6-.4-1s.1-.7.4-1l2.1-2.1c.3-.3.6-.4 1-.4s.7.1 1 .4l2.1 2.1c.3.3.4.6.4 1s-.1.7-.4 1L17.4 14c-.3.2-.6.4-1 .4zm0-5.5L14.3 11l2.1 2.1 2.1-2.1-2.1-2.1zm-5.5 0c-.3 0-.7-.1-1-.4l-2-2.1c-.3-.3-.4-.6-.4-1s.1-.7.4-1l2.1-2c.3-.3.6-.4 1-.4s.7.1 1 .4l2 2.1c.3.3.4.6.4 1s-.1.7-.4 1l-2.1 2.1c-.3.1-.6.3-1 .3zm0-5.5-2 2L11 7.5l2-2.1-2.1-2zm0 16.5c-.3 0-.7-.1-1-.4l-2.1-2.1c-.3-.3-.4-.6-.4-1s.1-.7.4-1l2.1-2.1c.3-.3.6-.4 1-.4s.7.1 1 .4l2.1 2.1c.3.3.4.6.4 1s-.1.7-.4 1l-2.1 2.1c-.3.2-.6.4-1 .4zm0-5.5-2.1 2.1 2.1 2.1 2.1-2.1-2.1-2.1zm-5.5 0c-.3 0-.7-.1-1-.4l-2.1-2.1c-.3-.3-.4-.6-.4-1s.1-.7.4-1l2.1-2.1c.3-.3.6-.4 1-.4s.7.1 1 .4L8.5 10c.3.3.4.6.4 1s-.1.7-.4 1l-2.1 2c-.3.2-.6.4-1 .4zm0-5.5L3.3 11l2.1 2 2.1-2.1-2.1-2z"/></svg>