<?xml version="1.0" encoding="UTF-8"?>
<svg width="16" height="16" viewBox="0 0 16 16" xmlns="http://www.w3.org/2000/svg">
<path d="M13.8833 8.772L13.9613 8.1771L12.7715 8.02107L12.6935 8.61597L13.8833 8.772ZM6.67172 2.83532L6.52265 2.25413L6.52225 2.25424L6.67172 2.83532ZM12.6935 8.61597C12.5817 9.46795 12.2402 10.2734 11.7055 10.9461L12.6448 11.6928C13.3151 10.8497 13.7432 9.83997 13.8833 8.772L12.6935 8.61597ZM11.7055 10.9461C11.1708 11.6187 10.463 12.133 9.6582 12.434L10.0785 13.558C11.0874 13.1807 11.9745 12.536 12.6448 11.6928L11.7055 10.9461ZM9.6582 12.434C8.85337 12.735 7.98178 12.8112 7.13693 12.6544L6.91804 13.8343C7.97708 14.0308 9.06963 13.9353 10.0785 13.558L9.6582 12.434ZM7.13693 12.6544C6.29208 12.4977 5.50583 12.1139 4.8625 11.5443L4.067 12.4427C4.87342 13.1568 5.859 13.6378 6.91804 13.8343L7.13693 12.6544ZM4.8625 11.5443C4.21918 10.9747 3.74305 10.2407 3.48517 9.42102L2.34049 9.78115C2.66374 10.8086 3.26058 11.7287 4.067 12.4427L4.8625 11.5443ZM3.48517 9.42102C3.2273 8.60136 3.19741 7.72697 3.39872 6.89161L2.23212 6.61048C1.97977 7.65762 2.01724 8.75369 2.34049 9.78115L3.48517 9.42102ZM3.39872 6.89161C3.60003 6.05626 4.02493 5.29146 4.62786 4.67923L3.77287 3.83722C3.01708 4.60465 2.48446 5.56335 2.23212 6.61048L3.39872 6.89161ZM4.62786 4.67923C5.23079 4.06701 5.98901 3.63046 6.82118 3.41641L6.52225 2.25424C5.47909 2.52256 4.52866 3.06978 3.77287 3.83722L4.62786 4.67923ZM6.82078 3.41651C9.13327 2.82341 11.5181 4.01423 12.3977 6.22205L13.5124 5.77793C12.4054 2.99908 9.40883 1.5139 6.52265 2.25413L6.82078 3.41651Z"/>
<path d="M13.3333 2.66663V5.99996H10" stroke-width="1.2" stroke-linecap="square"/>
</svg>
