<svg xmlns="http://www.w3.org/2000/svg" width="24" height="24" viewBox="0 0 24 24"><path d="M10.25 11.24q0.7 -0.76 0.98 -1.81l-1.45 -0.35q-0.12 0.55 -0.44 0.99T8.5 10.5q-0.53 0 -0.84 -0.44T7.23 9.08l-1.45 0.35q0.28 1.05 0.98 1.81t1.75 0.76q1.05 0 1.75 -0.76ZM12 17.5q0.98 0 1.88 -0.44t1.68 -1.31l-1.1 -1q-0.55 0.6 -1.18 0.91T12 15.98q-0.65 0 -1.28 -0.31T9.55 14.75l-1.1 1q0.8 0.88 1.69 1.31T12 17.5Zm5.25 -6.26q0.7 -0.76 0.98 -1.81l-1.45 -0.35q-0.12 0.55 -0.44 0.99T15.5 10.5q-0.53 0 -0.84 -0.44T14.23 9.08l-1.45 0.35q0.28 1.05 0.98 1.81t1.75 0.76q1.05 0 1.75 -0.76Zm-9.15 9.98Q6.28 20.43 4.93 19.07t-2.14 -3.18Q2 14.08 2 12t0.79 -3.9Q3.58 6.28 4.93 4.93t3.18 -2.14Q9.93 2 12 2t3.9 0.79Q17.73 3.58 19.07 4.93t2.14 3.18Q22 9.93 22 12t-0.79 3.9Q20.43 17.73 19.07 19.07t-3.18 2.14Q14.08 22 12 22t-3.9 -0.79ZM12 12Zm5.91 5.91q2.43 -2.43 2.43 -5.91t-2.43 -5.91q-2.43 -2.43 -5.91 -2.43t-5.91 2.43q-2.43 2.43 -2.43 5.91t2.43 5.91q2.43 2.43 5.91 2.43t5.91 -2.43Z"/></svg>
