<svg xmlns="http://www.w3.org/2000/svg" width="40" height="40" viewBox="0 0 40 40"><g stroke-width=".3"><path d="M36.792 29.643v1.5h-1.973v-1.5zM13.347 9.29H9.732l-5.355 7.974v16.603h5.461V20.452l-.107.177c.853-1.417 1.629-2.609 2.327-3.573l.335-.457c.024-.035.03-.051.026-.063l.04.024c.063.044.165.141.329.32l.204.225c.45.496.754.734 1.23.796a6.56 6.56 0 00.975.056l.903-.025a67.829 67.829 0 011.932-.025c1.166 0 2.108-.704 2.207-1.67.107-1.034-.751-1.76-2.03-1.82l-.177-.005c-2.192 0-2.824-.51-2.922-1.716l-.009-.132a5.562 5.562 0 01-.007-.353l.013-.91c-.003-.455-.04-.704-.155-1.004-.248-.654-.814-1.007-1.605-1.007zm-7.47 8.429l4.654-6.93h2.938c.07.002.069.009.081.041l.027.097c.023.112.031.275.03.553l-.013.739c0 .155.002.279.009.419.101 2.048 1.295 3.203 4.156 3.271l.273.003c.581 0 .721.111.715.171-.014.136-.266.324-.715.324l-.625.003c-.197.001-.384.003-.565.006l-1.517.039a4.904 4.904 0 01-.909-.041l-.176-.17c-.04-.042-.086-.09-.138-.148l-.11-.123c-.475-.528-.715-.741-1.137-.873-.664-.208-1.282.088-1.795.78-.704.948-1.48 2.116-2.328 3.505l-.394.65v12.332H5.877V17.719zm9.058-14.093a2.726 2.726 0 11.001 5.453 2.726 2.726 0 01-.001-5.453zm0 1.5a1.227 1.227 0 100 2.453 1.227 1.227 0 000-2.453z"/><path d="M36.301 13.727l.98 1.135-4.413 3.808c-.633.447-1.316.698-2.035.744l-.241.008-9.86-.005c-2.234.26-3.26 1.12-3.33 2.674l-.004.175v5.596h-1.5v-5.596c0-2.43 1.55-3.897 4.47-4.309l.278-.035h9.946a2.34 2.34 0 001.2-.334l.153-.098 4.356-3.763z"/><path d="M20.932 27.431V31h-4.428a1.57 1.57 0 01-1.57-1.57V29a1.57 1.57 0 011.57-1.569h4.428zM19.43 29.5v-.57l-2.927.001a.07.07 0 00-.064.042l-.005.027v.43c0 .03.017.054.042.065l.027.005h2.927zm1.502-22.872h2.288l9.456 11.284-1.15.963-9.007-10.748-1.587.001z"/><path d="M27.897 12.287V19h-1.5v-6.713zm-.042 13.389a2.726 2.726 0 11.001 5.453 2.726 2.726 0 01-.001-5.453zm0 1.5a1.228 1.228 0 10.002 2.456 1.228 1.228 0 00-.002-2.456z"/><path d="M27.855 22.497a5.906 5.906 0 110 11.811 5.906 5.906 0 010-11.811zm0 1.5a4.406 4.406 0 100 8.813 4.406 4.406 0 000-8.813z"/></g></svg>
