<svg xmlns="http://www.w3.org/2000/svg" width="22" height="20" viewBox="0 0 24 24" >
  <path d="M3.51659 3.47482H19.287C20.2603 3.47482 20.9534 4.38105 20.645 5.3042C19.9589 7.35792 18.9346 10.0468 18.608 10.8742C18.0554 12.2741 17.5028 12.624 16.2134 12.624H5.88492M3.51659 3.47482C3.07451 1.51499 1.5016 1.37502 0.5 1.375M3.51659 3.47482L5.88492 12.624M19.358 15.3737C15.9195 15.3737 8.85846 15.3737 8.12165 15.3737C7.20064 15.3737 6.64803 15.1988 6.27963 14.1488L5.88492 12.624" stroke="currentColor" stroke-width="1.5"/>
  <circle cx="8.17897" cy="18.3787" r="1.0016" />
  <circle cx="17.5276" cy="18.3787" r="1.0016" />
  <path d="M19.2872 3.47485H3.51685L5.88518 12.6241H16.2136C17.503 12.6241 18.0556 12.2741 18.6082 10.8742C18.9349 10.0468 19.9592 7.35796 20.6453 5.30424C20.9537 4.38109 20.2605 3.47485 19.2872 3.47485Z"  stroke="currentColor"
stroke-width="1.5"/>
</svg>
