<svg xmlns="http://www.w3.org/2000/svg" width="24" height="24" viewBox="3 3 18 18"><g transform="translate(15.86752 6.26665) rotate(90)"><path d="M7.46667 7.73504C7.32 7.73504 7.18667 7.68171 7.08 7.57504C6.88 7.36171 6.88 7.02837 7.09333 6.81504L10.16 3.86837L7.09333 0.921711C6.88 0.721711 6.88 0.375043 7.08 0.161709C7.28 -0.0516238 7.62667 -0.0516287 7.84 0.148371L11.3067 3.4817C11.4133 3.58837 11.4667 3.72171 11.4667 3.86837C11.4667 4.01504 11.4133 4.14838 11.3067 4.25504L7.84 7.58838C7.73333 7.68171 7.6 7.73504 7.46667 7.73504ZM4.38667 7.57504C4.58667 7.36171 4.58667 7.02837 4.37333 6.81504L1.30667 3.86837L4.37333 0.921711C4.58667 0.721711 4.58667 0.375043 4.38667 0.161709C4.18667 -0.0516238 3.84 -0.0516287 3.62667 0.148371L0.16 3.4817C0.0533333 3.58837 0 3.72171 0 3.86837C0 4.01504 0.0533333 4.14838 0.16 4.25504L3.62667 7.58838C3.73333 7.68171 3.86667 7.73504 4 7.73504C4.14667 7.73504 4.28 7.68171 4.38667 7.57504Z"/></g></svg>
