<svg width="12" height="11" viewBox="0 0 12 11" fill="none" xmlns="http://www.w3.org/2000/svg">
<path d="M5.69009 0.350342C5.7185 0.283361 5.81312 0.283298 5.84146 0.350342L7.16763 3.48901C7.26608 3.72194 7.48602 3.88121 7.73795 3.90308L11.1559 4.19995C11.2281 4.20654 11.2576 4.29687 11.2028 4.34448L8.61685 6.58569C8.42588 6.75126 8.34212 7.00937 8.39908 7.25562L9.16959 10.5876C9.18582 10.6585 9.10882 10.7141 9.04654 10.6765L6.11783 8.90991C5.90107 8.77923 5.62949 8.77917 5.41275 8.90991L2.48404 10.6765C2.42179 10.7138 2.3457 10.6584 2.36197 10.5876L3.13248 7.25562C3.18944 7.00938 3.10566 6.75126 2.9147 6.58569L0.328766 4.34448C0.273807 4.29683 0.303231 4.20635 0.375641 4.19995L3.79361 3.90308C4.04548 3.88121 4.26447 3.72186 4.36295 3.48901L5.69009 0.350342Z" stroke="currentColor" stroke-width="0.6"/>
</svg>
