<svg xmlns="http://www.w3.org/2000/svg" width="24" height="24" baseProfile="full" viewBox="0 0 24 24"><path d="M3.531 1.945a.687.687 0 0 1 .594-.34h13.75c.244 0 .47.129.594.34l3.208 5.5a.687.687 0 0 1-.594 1.034H.917a.687.687 0 0 1-.594-1.034l3.208-5.5ZM4.52 2.98 2.114 7.104h17.772L17.48 2.98H4.52ZM2.75 9.854c.38 0 .687.308.687.688v8.937h15.126v-8.937a.688.688 0 1 1 1.375 0v9.625c0 .38-.308.687-.688.687H2.75a.687.687 0 0 1-.688-.687v-9.625c0-.38.308-.688.688-.688Z"/><path d="M4.812 12.833c0-.38.308-.687.688-.687h4.125c.38 0 .688.308.688.687V20H8.937v-6.48h-2.75V20H4.812v-7.167Zm6.875 0c0-.38.308-.687.688-.687h3.667c.38 0 .687.308.687.687V16.5c0 .38-.308.688-.687.688h-3.667a.687.687 0 0 1-.688-.688v-3.667Zm1.376.688v2.291h2.291v-2.291h-2.291ZM1.604 7.792a1.833 1.833 0 0 0 3.667 0h1.375a3.208 3.208 0 0 1-6.417 0h1.375Z"/><path d="M6.646 7.792a1.833 1.833 0 0 0 3.667 0h1.374a1.833 1.833 0 1 0 3.667 0h1.375A3.208 3.208 0 0 1 11 9.777a3.208 3.208 0 0 1-5.73-1.985h1.376Z"/><path d="M16.73 7.792a1.833 1.833 0 0 0 3.666 0h1.375a3.208 3.208 0 1 1-6.417 0h1.375Z"/></svg>
