<svg xmlns="http://www.w3.org/2000/svg" x="0" y="0" viewBox="0 0 24 24" width="24" height="24" xml:space="preserve"><path class="st0" d="M3.5 1.9c.1-.2.3-.3.6-.3h13.8c.2 0 .5.1.6.3l3.2 5.5c.1.2.1.5 0 .7-.1.2-.4.3-.6.3H.9c-.2 0-.5-.1-.6-.3-.1-.2-.1-.5 0-.7l3.2-5.5zm1 1.1L2.1 7.1h17.8L17.5 3h-13zM2.7 9.9c.4 0 .7.3.7.7v8.9h15.1v-8.9c0-.4.3-.7.7-.7.4 0 .7.3.7.7v9.6c0 .4-.3.7-.7.7H2.7c-.4 0-.7-.3-.7-.7v-9.6c.1-.4.4-.7.7-.7z"/><path class="st0" d="M4.8 12.8c0-.4.3-.7.7-.7h4.1c.4 0 .7.3.7.7V20H8.9v-6.5H6.2V20H4.8v-7.2zm6.9 0c0-.4.3-.7.7-.7H16c.4 0 .7.3.7.7v3.7c0 .4-.3.7-.7.7h-3.7c-.4 0-.7-.3-.7-.7v-3.7zm1.4.7v2.3h2.3v-2.3h-2.3zM1.6 7.8c0 1 .8 1.8 1.8 1.8s1.8-.8 1.8-1.8h1.4c0 1.8-1.4 3.2-3.2 3.2S.2 9.6.2 7.8h1.4z"/><path class="st0" d="M6.6 7.8c0 1 .8 1.8 1.8 1.8s1.8-.8 1.8-1.8h1.4c0 1 .8 1.8 1.8 1.8s1.8-.8 1.8-1.8h1.4c0 1.8-1.4 3.2-3.2 3.2-1 0-1.9-.5-2.5-1.2-.5.7-1.4 1.2-2.4 1.2-1.8 0-3.2-1.4-3.2-3.2h1.3z"/><path class="st0" d="M16.7 7.8c0 1 .8 1.8 1.8 1.8s1.8-.8 1.8-1.8h1.4c0 1.8-1.4 3.2-3.2 3.2-1.8 0-3.2-1.4-3.2-3.2h1.4z"/></svg>