<svg xmlns="http://www.w3.org/2000/svg" width="40" height="40" viewBox="0 0 40 40"><path d="M8.656 8.657a2 2 0 102.83 2.829 2 2 0 00-2.83-2.829zM7.242 7.243a4 4 0 115.657 5.657 4 4 0 01-5.657-5.657zm19.092 14.85a1 1 0 011.414 0l4.95 4.949a4 4 0 01-5.657 5.657l-3.536-3.536a1 1 0 011.414-1.414l3.536 3.535a2 2 0 002.828-2.828l-4.95-4.95a1.002 1.002 0 010-1.414zm-4.438-3.81l3.535-.706a1 1 0 011.075 1.456l-4.98 9.162a1 1 0 11-1.757-.954l3.96-7.284-1.44.287a1 1 0 11-.393-1.96zm-4.243-4.242l3.536-.707a1 1 0 011.075 1.457L18.29 22.1l1.493-.285a1 1 0 01.372 1.966l-3.566.677a1 1 0 01-1.064-1.46l3.96-7.285-1.44.288a1 1 0 11-.393-1.961zm-.033-4.849c.485.265.665.872.4 1.357l-3.972 7.308 1.494-.283a1 1 0 01.372 1.965l-3.566.677a1 1 0 01-1.064-1.46l4.98-9.162a1 1 0 011.356-.402z"/></svg>
