<svg width="32" height="32" viewBox="0 0 32 32" fill="none" xmlns="http://www.w3.org/2000/svg">
<path d="M27.4087 4.66111C27.7847 5.03722 27.9959 5.54728 27.9958 6.07908C27.9957 6.61088 27.7843 7.12086 27.4082 7.49684C27.0321 7.87281 26.522 8.08398 25.9902 8.08389C25.4584 8.08379 24.9485 7.87244 24.5725 7.49634C24.1965 7.12023 23.9853 6.61017 23.9854 6.07837C23.9855 5.54657 24.1969 5.03659 24.573 4.66061C24.7592 4.47445 24.9803 4.32679 25.2236 4.22606C25.4669 4.12534 25.7276 4.07352 25.991 4.07357C26.5228 4.07366 27.0327 4.28501 27.4087 4.66111ZM28.8258 3.244C28.074 2.49219 27.0543 2.06982 25.9911 2.06982C24.9279 2.06982 23.9082 2.49219 23.1564 3.244C22.4046 3.99582 21.9822 5.0155 21.9822 6.07873C21.9822 7.14195 22.4046 8.16163 23.1564 8.91345C23.9082 9.66526 24.9279 10.0876 25.9911 10.0876C27.0543 10.0876 28.074 9.66526 28.8258 8.91345C29.5776 8.16163 30 7.14195 30 6.07873C30 5.0155 29.5776 3.99582 28.8258 3.244ZM9.69183 18.1267C9.50389 17.9388 9.24902 17.8332 8.98327 17.8332C8.71752 17.8332 8.46266 17.9388 8.27472 18.1267L3.31383 23.0866C2.56201 23.8384 2.13965 24.858 2.13965 25.9213C2.13965 26.9845 2.56201 28.0042 3.31383 28.756C4.06564 29.5078 5.08532 29.9302 6.14855 29.9302C7.21178 29.9302 8.23145 29.5078 8.98327 28.756L12.5271 25.2122C12.7096 25.0232 12.8106 24.77 12.8083 24.5073C12.8061 24.2445 12.7007 23.9931 12.5148 23.8073C12.329 23.6215 12.0777 23.5161 11.8149 23.5138C11.5521 23.5115 11.299 23.6126 11.1099 23.7951L7.56616 27.3379C7.18813 27.703 6.68181 27.905 6.15626 27.9005C5.63072 27.8959 5.12799 27.6851 4.75636 27.3135C4.38473 26.9418 4.17392 26.4391 4.16936 25.9136C4.16479 25.388 4.36682 24.8817 4.73194 24.5037L9.69283 19.5428C9.88022 19.3546 9.98543 19.0998 9.98543 18.8342C9.98543 18.5686 9.88022 18.3139 9.69283 18.1257L9.69183 18.1267ZM14.1396 14.3083L10.5968 13.6007C10.4103 13.5636 10.217 13.5804 10.0396 13.649C9.86218 13.7176 9.70798 13.8354 9.59499 13.9884C9.48201 14.1414 9.41491 14.3234 9.40153 14.5132C9.38815 14.7029 9.42905 14.8926 9.51945 15.0599L14.5104 24.2421C14.5711 24.3614 14.6551 24.4673 14.7574 24.5536C14.8598 24.6399 14.9783 24.7048 15.1062 24.7445C15.234 24.7843 15.3685 24.798 15.5017 24.7849C15.6349 24.7718 15.7641 24.7321 15.8818 24.6682C15.9994 24.6044 16.1031 24.5176 16.1866 24.413C16.2702 24.3084 16.3319 24.1881 16.3682 24.0593C16.4045 23.9305 16.4146 23.7957 16.398 23.6628C16.3813 23.53 16.3382 23.4019 16.2713 23.286L12.3026 15.986L13.7457 16.2736C13.8765 16.3041 14.012 16.3081 14.1443 16.2852C14.2766 16.2623 14.403 16.2131 14.5159 16.1404C14.6288 16.0678 14.7259 15.9732 14.8016 15.8622C14.8772 15.7513 14.9298 15.6263 14.9562 15.4947C14.9826 15.363 14.9822 15.2274 14.9552 15.0959C14.9282 14.9644 14.875 14.8397 14.7989 14.7291C14.7227 14.6185 14.6251 14.5244 14.5118 14.4523C14.3986 14.3802 14.272 14.3305 14.1396 14.3083ZM18.3919 10.057L14.8481 9.3484C14.6614 9.31114 14.468 9.32782 14.2904 9.3965C14.1129 9.46517 13.9585 9.58301 13.8455 9.7362C13.7325 9.8894 13.6654 10.0716 13.6522 10.2615C13.639 10.4515 13.6801 10.6412 13.7708 10.8086L17.7535 18.1337L16.2572 17.8481C15.996 17.7986 15.7257 17.855 15.506 18.0048C15.2863 18.1546 15.1351 18.3855 15.0857 18.6468C15.0362 18.9081 15.0926 19.1783 15.2424 19.398C15.3922 19.6177 15.6231 19.7689 15.8844 19.8184L19.4583 20.4969C19.6445 20.532 19.837 20.5136 20.0132 20.4437C20.1894 20.3739 20.3422 20.2555 20.4539 20.1023C20.5655 19.9491 20.6314 19.7674 20.6439 19.5782C20.6565 19.3891 20.6151 19.2002 20.5246 19.0337L16.5559 11.7326L17.9991 12.0213C18.1283 12.0475 18.2614 12.048 18.3908 12.0228C18.5202 11.9975 18.6433 11.9469 18.7531 11.874C18.863 11.8011 18.9573 11.7072 19.0308 11.5977C19.1043 11.4882 19.1554 11.3654 19.1813 11.2361C19.2072 11.1068 19.2074 10.9737 19.1818 10.8444C19.1561 10.715 19.1053 10.592 19.032 10.4824C18.9588 10.3728 18.8646 10.2787 18.755 10.2055C18.6453 10.1323 18.5223 10.0815 18.3929 10.056L18.3919 10.057ZM18.425 5.19729C17.9389 5.46287 17.7585 6.07121 18.0241 6.55728L22.0048 13.8814L20.5076 13.5977C20.2476 13.5512 19.9798 13.6091 19.7623 13.7589C19.5449 13.9087 19.3953 14.1383 19.3462 14.3978C19.2971 14.6573 19.3523 14.9257 19.5 15.1446C19.6477 15.3636 19.8758 15.5154 20.1347 15.567L23.7086 16.2455C23.8949 16.2807 24.0873 16.2622 24.2635 16.1924C24.4398 16.1225 24.5926 16.0041 24.7042 15.8509C24.8158 15.6977 24.8818 15.516 24.8943 15.3269C24.9068 15.1377 24.8654 14.9489 24.7749 14.7823L19.784 5.60018C19.7212 5.48448 19.6363 5.38229 19.534 5.29942C19.4317 5.21656 19.3141 5.15466 19.1879 5.11724C19.0617 5.07983 18.9294 5.06765 18.7985 5.08138C18.6676 5.09511 18.5407 5.1345 18.425 5.19729Z" fill="#000"/>
</svg>
