<?xml version="1.0" encoding="UTF-8"?>
<svg width="25" height="25" viewBox="0 0 25 25" xmlns="http://www.w3.org/2000/svg">
<path d="M9.78574 18.3265L5.97476 14.5095L6.82231 13.6619L9.78574 16.6253L17.2634 9.14764L18.111 9.99519L9.78574 18.3265Z"/>
<path d="M19.7642 22.8767L4.2979 22.8767C2.37437 22.8767 1.68311 21.386 1.68311 20.3882L1.68311 6.55082C1.68311 5.55299 2.38038 4.06226 4.2979 4.06226L8.55369 4.06226C8.62583 4.06226 8.70998 4.00816 8.77009 3.93002C9.25698 3.27482 10.333 2.1748 12.0281 2.1748C13.7232 2.1748 14.7991 3.27482 15.286 3.93002C15.3461 4.01417 15.4303 4.06226 15.5024 4.06226L19.7582 4.06226C21.6817 4.06226 22.379 5.55299 22.379 6.55082L22.379 20.3882C22.379 21.386 21.6817 22.8767 19.7582 22.8767L19.7642 22.8767ZM4.2979 5.26447C3.00553 5.26447 2.88531 6.25027 2.88531 6.55683L2.88531 20.3882C2.88531 20.6887 3.00553 21.6745 4.2979 21.6745L19.7642 21.6745C21.1408 21.6745 21.1828 20.5204 21.1828 20.3882L21.1828 6.55082C21.1828 6.25027 21.0626 5.26447 19.7642 5.26447L15.5084 5.26447C15.0576 5.26447 14.6188 5.03605 14.3303 4.65134C13.9756 4.17647 13.2002 3.37701 12.0341 3.37701C10.8679 3.37701 10.0925 4.17647 9.73786 4.65134C9.44933 5.03605 9.01053 5.26447 8.5597 5.26447L4.2979 5.26447Z"/>
<path d="M12.0338 5.17444C11.4928 5.17444 11.0601 5.61325 11.0601 6.14823C11.0601 6.68321 11.4989 7.12201 12.0338 7.12201C12.5688 7.12201 13.0076 6.68321 13.0076 6.14823C13.0076 5.61325 12.5688 5.17444 12.0338 5.17444Z"/>
</svg>
