<svg width="32" height="32" viewBox="0 0 32 32" fill="none" xmlns="http://www.w3.org/2000/svg">
<path d="M24.4157 7.76808C22.933 6.80306 21.8637 5.25834 21.5296 3.45858C21.4578 3.06981 21.4178 2.66933 21.4178 2.25989H16.6865L16.6789 21.1936C16.5995 23.3138 14.8517 25.0157 12.7097 25.0157C12.0436 25.0157 11.4168 24.8496 10.8646 24.5594C9.59857 23.8942 8.73225 22.5694 8.73225 21.0447C8.73225 18.8548 10.5167 17.0729 12.709 17.0729C13.1184 17.0729 13.5112 17.1405 13.8825 17.2563V12.4333C13.498 12.3809 13.1073 12.3485 12.709 12.3485C7.90735 12.3485 4.00098 16.2492 4.00098 21.0447C4.00098 23.9866 5.47268 26.5901 7.7189 28.1644C9.13331 29.1563 10.8542 29.7402 12.7097 29.7402C17.5114 29.7402 21.4178 25.8394 21.4178 21.0447V11.4434C23.2733 12.7731 25.5471 13.5568 28.0004 13.5568V8.83235C26.6792 8.83235 25.4484 8.44014 24.4157 7.76808Z" fill="#000"/>
</svg>
