<svg width="32" height="32" viewBox="0 0 32 32" fill="none" xmlns="http://www.w3.org/2000/svg">
<rect x="3" y="3" width="26" height="26" rx="3" fill="#000" stroke="#000" stroke-width="2"/>
<path d="M22.4242 9.71574C21.2923 8.97906 20.476 7.79984 20.221 6.42593C20.1662 6.12915 20.1356 5.82343 20.1356 5.51086H16.5238L16.518 19.9646C16.4574 21.5832 15.1231 22.8824 13.488 22.8824C12.9795 22.8824 12.501 22.7555 12.0794 22.534C11.113 22.0262 10.4516 21.0149 10.4516 19.8509C10.4516 18.1792 11.8138 16.8189 13.4875 16.8189C13.7999 16.8189 14.0998 16.8705 14.3833 16.9589V13.2771C14.0898 13.2371 13.7915 13.2124 13.4875 13.2124C9.82192 13.2124 6.83984 16.1901 6.83984 19.8509C6.83984 22.0967 7.96332 24.0842 9.67806 25.2861C10.7578 26.0433 12.0715 26.4889 13.488 26.4889C17.1535 26.4889 20.1356 23.5112 20.1356 19.8509V12.5214C21.5521 13.5365 23.2879 14.1348 25.1607 14.1348V10.5282C24.1521 10.5282 23.2125 10.2288 22.4242 9.71574Z" fill="white"/>
</svg>
