<?xml version="1.0" encoding="UTF-8"?>
<svg width="25" height="26" viewBox="0 0 25 26" xmlns="http://www.w3.org/2000/svg">
<path d="M19.8899 23.3577C19.6518 23.3572 19.408 23.3161 19.1643 23.2344C18.555 23.0301 18.1493 22.6405 18.1087 22.5939L8.69049 13.1436C7.11552 13.9128 4.95614 13.5663 3.48944 12.2865C1.94157 10.9427 1.52135 8.95669 2.33816 6.83358C2.44318 6.56094 2.6758 6.364 2.96042 6.30647C3.25086 6.24315 3.54102 6.33656 3.75548 6.54013L6.14336 8.93615L7.98158 7.10517L5.5879 4.70913C5.37925 4.49977 5.29269 4.20356 5.35709 3.91924C5.41568 3.6349 5.61933 3.40308 5.88662 3.29908C8.01329 2.4903 9.99832 2.9177 11.3368 4.47008C12.6115 5.94688 12.9443 8.10112 12.175 9.67285L21.5874 19.1232C21.6337 19.1697 22.022 19.571 22.2241 20.1808C22.5129 21.0405 22.279 21.905 21.581 22.6003C21.0807 23.0986 20.4938 23.3588 19.8841 23.3576L19.8899 23.3577ZM8.74499 11.9247C8.97725 11.9251 9.20354 12.0126 9.36582 12.1812L18.9231 21.7711C19.0738 21.9223 19.897 22.6321 20.758 21.7745C21.1535 21.3805 21.2646 20.9918 21.1202 20.5445C21.0048 20.1902 20.7671 19.9402 20.7613 19.9402L11.2098 10.3503C10.9316 10.0711 10.8744 9.63563 11.0724 9.2877C11.7191 8.1279 11.461 6.38594 10.4644 5.23473C9.91394 4.60098 8.73111 3.67582 6.75586 4.24108L9.01044 6.50334C9.3466 6.84065 9.34557 7.39792 9.00818 7.73399L6.75694 9.97636C6.41955 10.3124 5.86212 10.3114 5.52597 9.9741L3.27139 7.71184C2.69873 9.68447 3.61979 10.8704 4.25168 11.423C5.40534 12.4236 7.14679 12.6938 8.30348 12.0458C8.44297 11.9706 8.59401 11.9302 8.74498 11.9305L8.74499 11.9247Z"/>
</svg>
