<svg xmlns="http://www.w3.org/2000/svg" width="24" height="24" baseProfile="full" viewBox="0 0 24 24"><g clip-path="url(#a)"><path d="M9.76 6.618a5.615 5.615 0 0 1 5.2-5.602 5.621 5.621 0 0 1 2.731.482.624.624 0 0 1 .185 1.01L15.012 5.37l1.615 1.614 2.864-2.862a.625.625 0 0 1 1.01.183 5.616 5.616 0 0 1-6.502 7.76L6.05 20.112a2.944 2.944 0 0 1-4.213-4.11l8.024-8.311a5.64 5.64 0 0 1-.102-1.074Zm5.618-4.369a4.372 4.372 0 0 0-4.23 5.475.624.624 0 0 1-.155.59L2.736 16.87a1.694 1.694 0 1 0 2.425 2.366l8.21-8.313a.625.625 0 0 1 .639-.155 4.372 4.372 0 0 0 5.645-5.047l-2.587 2.587a.625.625 0 0 1-.883 0l-2.497-2.496a.625.625 0 0 1 0-.884l2.588-2.586a4.394 4.394 0 0 0-.899-.093h.001Z"/></g><defs><clipPath id="a"><path d="M0 0h22v22H0z"/></clipPath></defs></svg>
