<svg width="32" height="32" viewBox="0 0 32 32" fill="none" xmlns="http://www.w3.org/2000/svg">
<path d="M6.85745 3.29074C7.26452 2.91765 7.89733 2.94527 8.27054 3.35227L20.7364 16.947C21.1096 17.354 21.0827 17.9868 20.6758 18.3601C20.2688 18.7333 19.636 18.7056 19.2627 18.2986L6.79593 4.70383C6.42283 4.29677 6.45046 3.66395 6.85745 3.29074Z" fill="#000"/>
<path d="M2.75391 13.1144V12.2961C2.75396 11.7438 3.20166 11.2961 3.75391 11.2961C4.30616 11.2961 4.75385 11.7438 4.75391 12.2961V13.1144H6.5332V4.10272C6.5332 3.55044 6.98092 3.10272 7.5332 3.10272C8.08549 3.10272 8.5332 3.55044 8.5332 4.10272V13.1144C8.53295 14.2188 7.63761 15.1144 6.5332 15.1144H4.75391C3.64949 15.1144 2.75416 14.2188 2.75391 13.1144Z" fill="#000"/>
<path fill-rule="evenodd" clip-rule="evenodd" d="M27.3223 8.9922C27.7211 8.99083 28.1116 9.10917 28.4424 9.33204C28.773 9.55491 29.0293 9.8721 29.1777 10.2422L30.9277 14.6172C30.9759 14.7363 31.0003 14.8637 31 14.9922V22.9922C31 23.5226 30.7891 24.0312 30.4141 24.4063C30.039 24.7813 29.5304 24.9922 29 24.9922H26.875C26.6547 25.8526 26.1547 26.6156 25.4531 27.1602C24.7515 27.7048 23.8882 28 23 28C22.1118 28 21.2485 27.7048 20.5469 27.1602C19.8453 26.6156 19.3453 25.8526 19.125 24.9922H12.875C12.6547 25.8526 12.1547 26.6156 11.4531 27.1602C10.7515 27.7048 9.88817 28 9 28C8.11183 28 7.24848 27.7048 6.54688 27.1602C5.84533 26.6156 5.34529 25.8526 5.125 24.9922H3C2.46957 24.9922 1.96101 24.7813 1.58594 24.4063C1.21087 24.0312 1 23.5226 1 22.9922V19.0156C1.00001 17.9111 1.89543 17.0156 3 17.0156H20.9873V16.9922H21V10.9922C21 9.88763 21.8954 8.9922 23 8.9922H27.3223ZM9.76562 22.1445C9.40017 21.9932 8.99733 21.9531 8.60938 22.0303C8.22156 22.1075 7.86555 22.2985 7.58594 22.5781C7.30632 22.8578 7.1153 23.2138 7.03809 23.6016C6.96092 23.9895 7.00097 24.3924 7.15234 24.7578C7.30372 25.1231 7.55988 25.4356 7.88867 25.6553C8.21757 25.875 8.60444 25.9922 9 25.9922C9.53043 25.9922 10.039 25.7813 10.4141 25.4063C10.7891 25.0312 11 24.5226 11 23.9922C11 23.5966 10.8828 23.2098 10.6631 22.8809C10.4434 22.5521 10.1309 22.2959 9.76562 22.1445ZM23.7656 22.1445C23.4002 21.9932 22.9973 21.9531 22.6094 22.0303C22.2216 22.1075 21.8656 22.2985 21.5859 22.5781C21.3063 22.8578 21.1153 23.2138 21.0381 23.6016C20.9609 23.9895 21.001 24.3924 21.1523 24.7578C21.3037 25.1231 21.5599 25.4356 21.8887 25.6553C22.2176 25.875 22.6044 25.9922 23 25.9922C23.5304 25.9922 24.039 25.7813 24.4141 25.4063C24.7891 25.0312 25 24.5226 25 23.9922C25 23.5966 24.8828 23.2098 24.6631 22.8809C24.4434 22.5521 24.1309 22.2959 23.7656 22.1445ZM3 22.9922H5.125C5.34529 22.1318 5.84533 21.3688 6.54688 20.8242C7.24848 20.2796 8.11183 19.9844 9 19.9844C9.88817 19.9844 10.7515 20.2796 11.4531 20.8242C12.1547 21.3688 12.6547 22.1318 12.875 22.9922H19.125C19.2591 22.4783 19.4936 21.9957 19.8154 21.5733C20.1372 21.1508 20.5403 20.797 21 20.5313V18.9922H3V22.9922ZM23 19.9922C23.8868 19.993 24.748 20.2882 25.4492 20.8311C26.1504 21.3739 26.6521 22.1339 26.875 22.9922H29V15.9922H23V19.9922ZM23 13.9922H28.5225L27.3223 10.9922H23V13.9922Z" fill="#000"/>
</svg>
