<svg width="22" height="22" viewBox="0 0 22 22" fill="none" xmlns="http://www.w3.org/2000/svg">
<path d="M12.2891 2.82187H12.1891V2.92188V7.46367V7.65813L12.3472 7.54501L13.352 6.82647L14.2927 7.51225L14.4516 7.6281V7.43145V2.92188V2.82187H14.3516H12.2891ZM4.88437 19.0781V19.1781H4.98438H16.9135H17.0135H17.0156V19.0781H17.1135V2.92188V2.82187H17.0135H15.6385H15.5385V2.92188V9.29199C15.5385 9.42583 15.4286 9.53574 15.2947 9.53574C15.2432 9.53574 15.1932 9.51905 15.1523 9.48878L15.1517 9.48836L13.4029 8.21219L13.3446 8.16962L13.2858 8.21162L11.4854 9.49853L11.4849 9.49886C11.4591 9.51758 11.4297 9.53099 11.3986 9.5383C11.3675 9.54561 11.3353 9.54668 11.3038 9.54146C11.2723 9.53623 11.2421 9.5248 11.215 9.50784C11.188 9.49088 11.1645 9.46872 11.1461 9.44264L11.1461 9.44263L11.1448 9.44087C11.1155 9.40135 11.1 9.35168 11.1 9.30059V2.92188V2.82187H11H4.98438H4.88437V2.92188V19.0781ZM4.125 1.475H17.875C18.2 1.475 18.4625 1.73746 18.4625 2.0625V19.9375C18.4625 20.2625 18.2 20.525 17.875 20.525H4.125C3.79996 20.525 3.5375 20.2625 3.5375 19.9375V2.0625C3.5375 1.73746 3.79996 1.475 4.125 1.475Z" fill="#212338" stroke="#212338" stroke-width="0.2"/>
</svg>
