<svg xmlns="http://www.w3.org/2000/svg" width="40" height="40" viewBox="0 0 40 40"><g><path d="M9 9a2 2 0 10-.001 3.999A2 2 0 009 9zm0-2c2.21 0 4 1.79 4 4s-1.79 4-4 4-4-1.79-4-4 1.79-4 4-4zm0 20a2 2 0 10-.001 3.999A2 2 0 009 27zm0-2c2.21 0 4 1.79 4 4s-1.79 4-4 4-4-1.79-4-4 1.79-4 4-4zM20 9a2 2 0 10-.001 3.999A2 2 0 0020 9zm0-2c2.21 0 4 1.79 4 4s-1.79 4-4 4-4-1.79-4-4 1.79-4 4-4zm0 20a2 2 0 10-.001 3.999A2 2 0 0020 27zm0-2c2.21 0 4 1.79 4 4s-1.79 4-4 4-4-1.79-4-4 1.79-4 4-4zM31 9a2 2 0 10-.001 3.999A2 2 0 0031 9zm0-2c2.21 0 4 1.79 4 4s-1.79 4-4 4-4-1.79-4-4 1.79-4 4-4z"/><path d="M30 19v-6h2v7a1 1 0 01-1 1H8v-2h22z"/><path d="M8 13h2v14H8zm11 0h2v14h-2z"/></g></svg>
