<svg width="32" height="32" viewBox="0 0 32 32" fill="none" xmlns="http://www.w3.org/2000/svg">
<path d="M8.25684 7.4458C8.25684 6.35023 7.36896 5.46165 6.27344 5.46143C5.17773 5.46143 4.28906 6.35009 4.28906 7.4458C4.28929 8.54132 5.17786 9.4292 6.27344 9.4292C7.36882 9.42898 8.25661 8.54119 8.25684 7.4458ZM10.2568 7.4458C10.2566 9.64576 8.47339 11.429 6.27344 11.4292C4.07329 11.4292 2.28929 9.64589 2.28906 7.4458C2.28906 5.24552 4.07316 3.46143 6.27344 3.46143C8.47353 3.46165 10.2568 5.24566 10.2568 7.4458Z" fill="#000"/>
<path d="M18.2773 7.4458C18.2773 6.35023 17.3895 5.46165 16.2939 5.46143C15.1982 5.46143 14.3096 6.35009 14.3096 7.4458C14.3098 8.54132 15.1984 9.4292 16.2939 9.4292C17.3893 9.42898 18.2771 8.54119 18.2773 7.4458ZM20.2773 7.4458C20.2771 9.64576 18.4939 11.429 16.2939 11.4292C14.0938 11.4292 12.3098 9.64589 12.3096 7.4458C12.3096 5.24552 14.0937 3.46143 16.2939 3.46143C18.494 3.46165 20.2773 5.24566 20.2773 7.4458Z" fill="#000"/>
<path d="M8.25684 24.8789C8.25684 23.7833 7.36896 22.8948 6.27344 22.8945C5.17773 22.8945 4.28906 23.7832 4.28906 24.8789C4.28929 25.9744 5.17786 26.8623 6.27344 26.8623C7.36882 26.8621 8.25661 25.9743 8.25684 24.8789ZM10.2568 24.8789C10.2566 27.0789 8.47339 28.8621 6.27344 28.8623C4.07329 28.8623 2.28929 27.079 2.28906 24.8789C2.28906 22.6786 4.07316 20.8945 6.27344 20.8945C8.47353 20.8948 10.2568 22.6788 10.2568 24.8789Z" fill="#000"/>
<path d="M18.2773 24.8789C18.2773 23.7833 17.3895 22.8948 16.2939 22.8945C15.1982 22.8945 14.3096 23.7832 14.3096 24.8789C14.3098 25.9744 15.1984 26.8623 16.2939 26.8623C17.3893 26.8621 18.2771 25.9743 18.2773 24.8789ZM20.2773 24.8789C20.2771 27.0789 18.4939 28.8621 16.2939 28.8623C14.0938 28.8623 12.3098 27.079 12.3096 24.8789C12.3096 22.6786 14.0937 20.8945 16.2939 20.8945C18.494 20.8948 20.2773 22.6788 20.2773 24.8789Z" fill="#000"/>
<path d="M28.2979 7.4458C28.2979 6.35023 27.41 5.46165 26.3145 5.46143C25.2187 5.46143 24.3301 6.35009 24.3301 7.4458C24.3303 8.54132 25.2189 9.4292 26.3145 9.4292C27.4098 9.42898 28.2976 8.54119 28.2979 7.4458ZM30.2979 7.4458C30.2976 9.64576 28.5144 11.429 26.3145 11.4292C24.1143 11.4292 22.3303 9.64589 22.3301 7.4458C22.3301 5.24552 24.1142 3.46143 26.3145 3.46143C28.5145 3.46165 30.2979 5.24566 30.2979 7.4458Z" fill="#000"/>
<path d="M5.18555 21.5405L5.18555 10.728C5.18555 10.1757 5.63326 9.72797 6.18555 9.72797C6.73783 9.72797 7.18555 10.1757 7.18555 10.728L7.18555 21.5405C7.18555 22.0928 6.73783 22.5405 6.18555 22.5405C5.63326 22.5405 5.18555 22.0928 5.18555 21.5405Z" fill="#000"/>
<path d="M15.293 21.5405L15.293 10.728C15.293 10.1757 15.7407 9.72797 16.293 9.72797C16.8453 9.72797 17.293 10.1757 17.293 10.728L17.293 21.5405C17.293 22.0928 16.8453 22.5405 16.293 22.5405C15.7407 22.5405 15.293 22.0928 15.293 21.5405Z" fill="#000"/>
<path d="M6.5918 15.1294L26.3135 15.1294C26.8658 15.1294 27.3135 15.5771 27.3135 16.1294C27.3135 16.6817 26.8658 17.1294 26.3135 17.1294L6.5918 17.1294C6.03963 17.1293 5.5918 16.6816 5.5918 16.1294C5.5918 15.5772 6.03963 15.1295 6.5918 15.1294Z" fill="#000"/>
<path d="M25.3135 16.0024V10.728C25.3135 10.1757 25.7612 9.72803 26.3135 9.72803C26.8658 9.72803 27.3135 10.1757 27.3135 10.728V16.0024C27.3135 16.5547 26.8658 17.0024 26.3135 17.0024C25.7612 17.0024 25.3135 16.5547 25.3135 16.0024Z" fill="#000"/>
</svg>
