<svg width="32" height="32" viewBox="0 0 32 32" fill="none" xmlns="http://www.w3.org/2000/svg">
<path d="M3 21.3667V16.8032C3.00022 16.2511 3.44785 15.8032 4 15.8032C4.55215 15.8032 4.99978 16.2511 5 16.8032V21.3667H5.9668C6.51908 21.3667 6.9668 21.8144 6.9668 22.3667C6.9668 22.919 6.51908 23.3667 5.9668 23.3667H5C3.89543 23.3667 3 22.4713 3 21.3667ZM20.2871 21.3667C20.8394 21.3667 21.2871 21.8144 21.2871 22.3667C21.2871 22.919 20.8394 23.3667 20.2871 23.3667H12.9463C12.394 23.3667 11.9463 22.919 11.9463 22.3667C11.9463 21.8144 12.394 21.3667 12.9463 21.3667H20.2871ZM20.8916 19.5288V7.50049H5V9.74756C4.99982 10.2997 4.55217 10.7476 4 10.7476C3.44783 10.7476 3.00018 10.2997 3 9.74756V7.50049C3 6.39592 3.89543 5.50049 5 5.50049H20.8916C21.9962 5.50049 22.8916 6.39592 22.8916 7.50049V19.5288C22.8916 20.0811 22.4439 20.5288 21.8916 20.5288C21.3393 20.5288 20.8916 20.0811 20.8916 19.5288Z" fill="#000"/>
<path d="M30.9326 21.9412C30.9325 22.7695 30.261 23.4411 29.4326 23.4412H26.8301C26.2778 23.4412 25.8302 22.9934 25.8301 22.4412C25.8301 21.8889 26.2778 21.4412 26.8301 21.4412H28.9326V13.3425L27.2129 9.62866H22.6104C22.0581 9.62866 21.6104 9.18095 21.6104 8.62866C21.6104 8.07638 22.0581 7.62866 22.6104 7.62866H27.5332C28.0809 7.62877 28.5819 7.92701 28.8447 8.40112L28.8945 8.49878L30.7939 12.6013C30.8854 12.7988 30.9326 13.0145 30.9326 13.2322V21.9412Z" fill="#000"/>
<path d="M29.5684 12.2883C30.1206 12.2883 30.5684 12.736 30.5684 13.2883C30.5684 13.8406 30.1206 14.2883 29.5684 14.2883L22.5576 14.2883C22.0053 14.2883 21.5576 13.8406 21.5576 13.2883C21.5576 12.736 22.0053 12.2883 22.5576 12.2883L29.5684 12.2883Z" fill="#000"/>
<path d="M25.0625 22.4412C25.0625 21.3989 24.2181 20.5536 23.1758 20.5535C22.1334 20.5535 21.2881 21.3988 21.2881 22.4412C21.2882 23.4834 22.1335 24.3279 23.1758 24.3279C24.218 24.3277 25.0624 23.4833 25.0625 22.4412ZM27.0625 22.4412C27.0624 24.5879 25.3225 26.3277 23.1758 26.3279C21.0289 26.3279 19.2882 24.588 19.2881 22.4412C19.2881 20.2942 21.0288 18.5535 23.1758 18.5535C25.3226 18.5536 27.0625 20.2943 27.0625 22.4412Z" fill="#000"/>
<path d="M11.9453 22.4412C11.9453 21.3989 11.1009 20.5536 10.0586 20.5535C9.0162 20.5535 8.1709 21.3988 8.1709 22.4412C8.17105 23.4834 9.01629 24.3279 10.0586 24.3279C11.1008 24.3277 11.9452 23.4833 11.9453 22.4412ZM13.9453 22.4412C13.9452 24.5879 12.2053 26.3277 10.0586 26.3279C7.91172 26.3279 6.17105 24.588 6.1709 22.4412C6.1709 20.2942 7.91163 18.5535 10.0586 18.5535C12.2054 18.5536 13.9453 20.2943 13.9453 22.4412Z" fill="#000"/>
<path d="M8.9209 8.84766C9.47318 8.84766 9.9209 9.29537 9.9209 9.84766C9.9209 10.3999 9.47318 10.8477 8.9209 10.8477L2.5 10.8477C1.94772 10.8477 1.5 10.3999 1.5 9.84766C1.5 9.29537 1.94772 8.84766 2.5 8.84766L8.9209 8.84766Z" fill="#000"/>
<path d="M7.63379 15.4049C8.18607 15.4049 8.63379 15.8526 8.63379 16.4049C8.63379 16.9572 8.18607 17.4049 7.63379 17.4049H2.5C1.94772 17.4049 1.5 16.9572 1.5 16.4049C1.5 15.8526 1.94772 15.4049 2.5 15.4049H7.63379Z" fill="#000"/>
<path d="M4.69531 12.0464C5.2476 12.0464 5.69531 12.4941 5.69531 13.0464C5.69531 13.5987 5.2476 14.0464 4.69531 14.0464H1.26172C0.709434 14.0464 0.261719 13.5987 0.261719 13.0464C0.261719 12.4941 0.709434 12.0464 1.26172 12.0464H4.69531Z" fill="#000"/>
<path d="M21.8604 15.4049C22.4126 15.4049 22.8604 15.8526 22.8604 16.4049C22.8604 16.9572 22.4126 17.4049 21.8604 17.4049H12.292C11.7397 17.4049 11.292 16.9572 11.292 16.4049C11.292 15.8526 11.7397 15.4049 12.292 15.4049H21.8604Z" fill="#000"/>
</svg>
