<svg width="32" height="32" viewBox="0 0 32 32" fill="none" xmlns="http://www.w3.org/2000/svg">
<path d="M7.35545 3.19128C7.81218 2.9338 8.37139 2.9338 8.82811 3.19128L8.92381 3.24987L13.6465 6.39831C14.1059 6.70461 14.23 7.32552 13.9238 7.78503C13.6175 8.24456 12.9966 8.36873 12.5371 8.06237L8.09178 5.09851L3.64647 8.06237C3.18694 8.36873 2.5661 8.24456 2.25975 7.78503C1.95359 7.32552 2.07764 6.70461 2.5371 6.39831L7.25975 3.24987L7.35545 3.19128Z" fill="#000"/>
<path d="M7.35545 7.52453C7.81218 7.26705 8.37139 7.26705 8.82811 7.52453L8.92381 7.58313L13.6465 10.7316C14.1059 11.0379 14.23 11.6588 13.9238 12.1183C13.6175 12.5778 12.9966 12.702 12.5371 12.3956L8.09178 9.43176L3.64647 12.3956C3.18694 12.702 2.5661 12.5778 2.25975 12.1183C1.95359 11.6588 2.07764 11.0379 2.5371 10.7316L7.25975 7.58313L7.35545 7.52453Z" fill="#000"/>
<path d="M7.35545 11.8578C7.81218 11.6003 8.37139 11.6003 8.82811 11.8578L8.92381 11.9164L13.6465 15.0648C14.1059 15.3711 14.23 15.992 13.9238 16.4515C13.6175 16.9111 12.9966 17.0352 12.5371 16.7289L8.09178 13.765L3.64647 16.7289C3.18694 17.0352 2.5661 16.9111 2.25975 16.4515C1.95359 15.992 2.07764 15.3711 2.5371 15.0648L7.25975 11.9164L7.35545 11.8578Z" fill="#000"/>
<path d="M7.35545 16.191C7.81218 15.9336 8.37139 15.9336 8.82811 16.191L8.92381 16.2496L13.6465 19.3981C14.1059 19.7044 14.23 20.3253 13.9238 20.7848C13.6175 21.2443 12.9966 21.3685 12.5371 21.0621L8.09178 18.0983L3.64647 21.0621C3.18694 21.3685 2.5661 21.2443 2.25975 20.7848C1.95359 20.3253 2.07764 19.7044 2.5371 19.3981L7.25975 16.2496L7.35545 16.191Z" fill="#000"/>
<path d="M7.35545 20.5243C7.81218 20.2668 8.37139 20.2668 8.82811 20.5243L8.92381 20.5829L13.6465 23.7313C14.1059 24.0376 14.23 24.6585 13.9238 25.118C13.6175 25.5776 12.9966 25.7017 12.5371 25.3954L8.09178 22.4315L3.64647 25.3954C3.18694 25.7017 2.5661 25.5776 2.25975 25.118C1.95359 24.6585 2.07764 24.0376 2.5371 23.7313L7.25975 20.5829L7.35545 20.5243Z" fill="#000"/>
<path d="M7.54524 24.6844C6.99321 24.6851 6.54657 25.1331 6.54701 25.6851C6.5476 26.2373 6.99526 26.6851 7.5474 26.6847L8.63635 26.683C9.18863 26.6824 9.63602 26.2341 9.63543 25.6818C9.63465 25.1297 9.18671 24.6831 8.63467 24.6835L7.54524 24.6844Z" fill="#000"/>
<path d="M2.57586 2.25324C2.0979 2.52945 1.93447 3.14054 2.21039 3.61867C2.48652 4.09685 3.09796 4.26144 3.57619 3.98548L4.51894 3.44048C4.9972 3.16429 5.16108 2.55247 4.88489 2.0742C4.60868 1.59624 3.99759 1.4328 3.51946 1.70873L2.57586 2.25324Z" fill="#000"/>
<path d="M13.5355 2.25324C14.0134 2.52945 14.1769 3.14054 13.9009 3.61867C13.6248 4.09685 13.0134 4.26144 12.5351 3.98548L11.5924 3.44048C11.1141 3.16429 10.9503 2.55247 11.2264 2.0742C11.5026 1.59624 12.1137 1.4328 12.5919 1.70873L13.5355 2.25324Z" fill="#000"/>
<path d="M23.1875 7.52288C23.6442 7.2654 24.2034 7.2654 24.6601 7.52288L24.7558 7.58148L29.4785 10.7299C29.938 11.0362 30.062 11.6571 29.7558 12.1166C29.4495 12.5762 28.8287 12.7003 28.3691 12.394L23.9238 9.43011L19.4785 12.394C19.019 12.7003 18.3981 12.5762 18.0918 12.1166C17.7856 11.6571 17.9097 11.0362 18.3691 10.7299L23.0918 7.58148L23.1875 7.52288Z" fill="#000"/>
<path d="M23.1875 11.8561C23.6442 11.5987 24.2034 11.5987 24.6601 11.8561L24.7558 11.9147L29.4785 15.0632C29.938 15.3695 30.062 15.9904 29.7558 16.4499C29.4495 16.9094 28.8287 17.0336 28.3691 16.7272L23.9238 13.7634L19.4785 16.7272C19.019 17.0336 18.3981 16.9094 18.0918 16.4499C17.7856 15.9904 17.9097 15.3695 18.3691 15.0632L23.0918 11.9147L23.1875 11.8561Z" fill="#000"/>
<path d="M23.1875 16.1894C23.6442 15.9319 24.2034 15.9319 24.6601 16.1894L24.7558 16.248L29.4785 19.3964C29.938 19.7027 30.062 20.3236 29.7558 20.7831C29.4495 21.2427 28.8287 21.3668 28.3691 21.0605L23.9238 18.0966L19.4785 21.0605C19.019 21.3668 18.3981 21.2427 18.0918 20.7831C17.7856 20.3236 17.9097 19.7027 18.3691 19.3964L23.0918 16.248L23.1875 16.1894Z" fill="#000"/>
<path d="M23.1875 20.5226C23.6442 20.2652 24.2034 20.2652 24.6601 20.5226L24.7558 20.5812L29.4785 23.7297C29.938 24.036 30.062 24.6569 29.7558 25.1164C29.4495 25.5759 28.8287 25.7001 28.3691 25.3937L23.9238 22.4299L19.4785 25.3937C19.019 25.7001 18.3981 25.5759 18.0918 25.1164C17.7856 24.6569 17.9097 24.036 18.3691 23.7297L23.0918 20.5812L23.1875 20.5226Z" fill="#000"/>
<path d="M23.1875 24.8559C23.6442 24.5984 24.2034 24.5984 24.6601 24.8559L24.7558 24.9145L29.4785 28.0629C29.938 28.3692 30.062 28.9901 29.7558 29.4496C29.4495 29.9092 28.8287 30.0333 28.3691 29.727L23.9238 26.7631L19.4785 29.727C19.019 30.0333 18.3981 29.9092 18.0918 29.4496C17.7856 28.9901 17.9097 28.3692 18.3691 28.0629L23.0918 24.9145L23.1875 24.8559Z" fill="#000"/>
<path d="M23.3773 29.016C22.8252 29.0168 22.3786 29.4647 22.379 30.0167C22.3796 30.5689 22.8273 31.0167 23.3794 31.0163L24.4684 31.0146C25.0207 31.014 25.468 30.5657 25.4675 30.0134C25.4667 29.4613 25.0187 29.0147 24.4667 29.0151L23.3773 29.016Z" fill="#000"/>
<path d="M18.4079 6.58484C17.9299 6.86106 17.7665 7.47214 18.0424 7.95028C18.3186 8.42845 18.93 8.59304 19.4082 8.31708L20.351 7.77208C20.8292 7.4959 20.9931 6.88407 20.7169 6.4058C20.4407 5.92784 19.8296 5.76441 19.3515 6.04033L18.4079 6.58484Z" fill="#000"/>
<path d="M29.3675 6.58484C29.8455 6.86106 30.0089 7.47214 29.733 7.95028C29.4568 8.42845 28.8454 8.59304 28.3672 8.31708L27.4244 7.77208C26.9462 7.4959 26.7823 6.88407 27.0585 6.4058C27.3347 5.92784 27.9458 5.76441 28.4239 6.04033L29.3675 6.58484Z" fill="#000"/>
</svg>
