<svg xmlns="http://www.w3.org/2000/svg" width="40" height="40" viewBox="0 0 40 40"><path d="M21 6.035V8a1 1 0 01-2 0V6.035a13.992 13.992 0 00-10.595 6.116l1.703.983a1 1 0 01-1 1.732l-1.704-.984A13.937 13.937 0 006 20c0 2.194.505 4.27 1.404 6.118l1.704-.984a1 1 0 011 1.732l-1.703.983A13.992 13.992 0 0019 33.965V32a1 1 0 012 0v1.965a13.992 13.992 0 0010.595-6.116l-1.703-.983a1 1 0 011-1.732l1.704.984A13.937 13.937 0 0034 20c0-2.194-.505-4.27-1.404-6.118l-1.704.984a1 1 0 01-1-1.732l1.703-.983A13.992 13.992 0 0021 6.035zM20 13a7 7 0 100 14 7 7 0 000-14zm0-2a9 9 0 11-.001 18.001A9 9 0 0120 11zm0 8a1 1 0 100 2 1 1 0 000-2zm0-2a3 3 0 110 6 3 3 0 010-6zm0-13c8.837 0 16 7.163 16 16s-7.163 16-16 16S4 28.837 4 20 11.163 4 20 4z"/></svg>
