<svg xmlns="http://www.w3.org/2000/svg" xml:space="preserve" viewBox="200 200 256.84 518.46" width="250" height="500"><defs><clipPath clipPathUnits="userSpaceOnUse" id="a"><path d="M11331.8 0h-762.5c-256.3 0-464.1 207.809-464.1 464.172V6902.07c0 256.35 207.8 464.16 464.1 464.16h762.5c256.4 0 464.2-207.81 464.2-464.16V464.172C11796 207.809 11588.2 0 11331.8 0Z"/></clipPath></defs><g clip-path="url(#clipPath764)" transform="matrix(.147 0 0 -.06667 -1282 705)"><g clip-path="url(#a)"><path d="M11005.7 3110.38v27.25c73.9 0 146.4-17.88 213.8-52.25v99.02c-164.1 101.38-373.7 101.38-537.8 0v-99.02c67.4 34.37 139.9 52.25 213.8 52.25v-27.25c-74 0-146.7-19.23-213.8-56.04v-142.81c164.1 101.39 373.7 101.39 537.8 0v142.81c-67.1 36.81-139.8 56.04-213.8 56.04m-656.6-158.24v-27.25c73.8 0 146.3 17.88 213.8 52.25v-99.02c-164.2-101.39-373.7-101.39-537.8 0v99.02c67.4-34.37 139.9-52.25 213.8-52.25v27.25c-74 0-146.7 19.23-213.8 56.04v142.81c164.1-101.39 373.6-101.39 537.8 0v-142.81c-67.1-36.81-139.8-56.04-213.8-56.04m1313.2 0v-27.25c73.9 0 146.4 17.88 213.8 52.25v-99.02c-164.1-101.39-373.7-101.39-537.8 0v99.02c67.4-34.37 139.9-52.25 213.8-52.25v27.25c-74 0-146.7 19.23-213.8 56.04v142.81c164.1-101.39 373.7-101.39 537.8 0v-142.81c-67.1-36.81-139.8-56.04-213.8-56.04"/><path d="M10950.6 2920.81c1.9 9.29 0 389.82 0 389.82" style="fill:none;stroke:#fff;stroke-width:24.5006;stroke-linecap:butt;stroke-linejoin:miter;stroke-miterlimit:10;stroke-dasharray:none;stroke-opacity:1"/><path d="M11005.7 2748.41v27.25c73.9 0 146.4-17.88 213.8-52.24v99.01c-164.1 101.39-373.7 101.39-537.8 0v-99.01c67.4 34.36 139.9 52.24 213.8 52.24v-27.25c-74 0-146.7-19.23-213.8-56.05v-142.8c164.1 101.39 373.7 101.39 537.8 0v142.8c-67.1 36.82-139.8 56.05-213.8 56.05m-656.6-158.24v-27.24c73.8 0 146.3 17.87 213.8 52.24v-99.02c-164.2-101.38-373.7-101.38-537.8 0v99.02c67.4-34.37 139.9-52.24 213.8-52.24v27.24c-74 0-146.7 19.24-213.8 56.04v142.81c164.1-101.38 373.6-101.38 537.8 0v-142.81c-67.1-36.8-139.8-56.04-213.8-56.04m1313.2 0v-27.24c73.9 0 146.4 17.87 213.8 52.24v-99.02c-164.1-101.38-373.7-101.38-537.8 0v99.02c67.4-34.37 139.9-52.24 213.8-52.24v27.24c-74 0-146.7 19.24-213.8 56.04v142.81c164.1-101.38 373.7-101.38 537.8 0v-142.81c-67.1-36.8-139.8-56.04-213.8-56.04"/><path d="M10950.6 2558.85c1.9 9.28 0 389.8 0 389.8" style="fill:none;stroke:#fff;stroke-width:24.5006;stroke-linecap:butt;stroke-linejoin:miter;stroke-miterlimit:10;stroke-dasharray:none;stroke-opacity:1"/><path d="M11005.7 2386.45v27.24c73.9 0 146.4-17.88 213.8-52.24v99.02c-164.1 101.38-373.7 101.38-537.8 0v-99.02c67.4 34.36 139.9 52.24 213.8 52.24v-27.24c-74 0-146.7-19.23-213.8-56.05v-142.8c164.1 101.39 373.7 101.39 537.8 0v142.8c-67.1 36.82-139.8 56.05-213.8 56.05m-656.6-158.25v-27.24c73.8 0 146.3 17.88 213.8 52.24v-99.02c-164.2-101.39-373.7-101.39-537.8 0v99.02c67.4-34.36 139.9-52.24 213.8-52.24v27.24c-74 0-146.7 19.23-213.8 56.05v142.8c164.1-101.38 373.6-101.38 537.8 0v-142.8c-67.1-36.82-139.8-56.05-213.8-56.05m1313.2 0v-27.24c73.9 0 146.4 17.88 213.8 52.24v-99.02c-164.1-101.39-373.7-101.39-537.8 0v99.02c67.4-34.36 139.9-52.24 213.8-52.24v27.24c-74 0-146.7 19.23-213.8 56.05v142.8c164.1-101.38 373.7-101.38 537.8 0v-142.8c-67.1-36.82-139.8-56.05-213.8-56.05"/><path d="M10950.6 2196.88c1.9 9.28 0 389.81 0 389.81" style="fill:none;stroke:#fff;stroke-width:24.5006;stroke-linecap:butt;stroke-linejoin:miter;stroke-miterlimit:10;stroke-dasharray:none;stroke-opacity:1"/><path d="M11005.7 2024.47v27.25c73.9 0 146.4-17.87 213.8-52.24v99.02c-164.1 101.38-373.7 101.38-537.8 0v-99.02c67.4 34.37 139.9 52.24 213.8 52.24v-27.25c-74 0-146.7-19.22-213.8-56.04v-142.8c164.1 101.38 373.7 101.38 537.8 0v142.8c-67.1 36.82-139.8 56.04-213.8 56.04m-656.6-158.23V1839c73.8 0 146.3 17.87 213.8 52.23v-99.01c-164.2-101.39-373.7-101.39-537.8 0v99.01c67.4-34.36 139.9-52.23 213.8-52.23v27.24c-74 0-146.7 19.23-213.8 56.05v142.8c164.1-101.39 373.6-101.39 537.8 0v-142.81c-67.1-36.81-139.8-56.04-213.8-56.04m1313.2 0V1839c73.9 0 146.4 17.87 213.8 52.23v-99.01c-164.1-101.39-373.7-101.39-537.8 0v99.01c67.4-34.36 139.9-52.23 213.8-52.23v27.24c-74 0-146.7 19.23-213.8 56.05v142.8c164.1-101.39 373.7-101.39 537.8 0v-142.81c-67.1-36.81-139.8-56.04-213.8-56.04"/><path d="M10950.6 1834.91c1.9 9.28 0 389.81 0 389.81" style="fill:none;stroke:#fff;stroke-width:24.5006;stroke-linecap:butt;stroke-linejoin:miter;stroke-miterlimit:10;stroke-dasharray:none;stroke-opacity:1"/><path d="M11005.7 1662.51v27.25c73.9 0 146.4-17.88 213.8-52.25v99.02c-164.1 101.38-373.7 101.38-537.8 0v-99.02c67.4 34.37 139.9 52.25 213.8 52.25v-27.25c-74 0-146.7-19.23-213.8-56.04v-142.81c164.1 101.39 373.7 101.39 537.8 0v142.81c-67.1 36.81-139.8 56.04-213.8 56.04m-656.6-158.24v-27.25c73.8 0 146.3 17.88 213.8 52.25v-99.02c-164.2-101.38-373.7-101.38-537.8 0v99.02c67.4-34.37 139.9-52.25 213.8-52.25v27.25c-74 0-146.7 19.23-213.8 56.04v142.81c164.1-101.39 373.6-101.39 537.8 0v-142.81c-67.1-36.81-139.8-56.04-213.8-56.04m1313.2 0v-27.25c73.9 0 146.4 17.88 213.8 52.25v-99.02c-164.1-101.38-373.7-101.38-537.8 0v99.02c67.4-34.37 139.9-52.25 213.8-52.25v27.25c-74 0-146.7 19.23-213.8 56.04v142.81c164.1-101.39 373.7-101.39 537.8 0v-142.81c-67.1-36.81-139.8-56.04-213.8-56.04"/><path d="M10950.6 1472.94c1.9 9.29 0 389.82 0 389.82" style="fill:none;stroke:#fff;stroke-width:24.5006;stroke-linecap:butt;stroke-linejoin:miter;stroke-miterlimit:10;stroke-dasharray:none;stroke-opacity:1"/><path d="M11005.7 1300.54v27.24c73.9 0 146.4-17.87 213.8-52.23v99.01c-164.1 101.39-373.7 101.39-537.8 0v-99.01c67.4 34.36 139.9 52.23 213.8 52.23v-27.24c-74 0-146.7-19.23-213.8-56.05v-142.8c164.1 101.39 373.7 101.39 537.8 0v142.81c-67.1 36.81-139.8 56.04-213.8 56.04m-656.6-158.23v-27.25c73.8 0 146.3 17.87 213.8 52.24v-99.02c-164.2-101.382-373.7-101.382-537.8 0v99.02c67.4-34.37 139.9-52.24 213.8-52.24v27.25c-74 0-146.7 19.22-213.8 56.04v142.8c164.1-101.38 373.6-101.38 537.8 0v-142.81c-67.1-36.81-139.8-56.03-213.8-56.03m1313.2 0v-27.25c73.9 0 146.4 17.87 213.8 52.24v-99.02c-164.1-101.382-373.7-101.382-537.8 0v99.02c67.4-34.37 139.9-52.24 213.8-52.24v27.25c-74 0-146.7 19.22-213.8 56.04v142.8c164.1-101.38 373.7-101.38 537.8 0v-142.81c-67.1-36.81-139.8-56.03-213.8-56.03"/><path d="M10950.6 1110.98c1.9 9.28 0 389.8 0 389.8" style="fill:none;stroke:#fff;stroke-width:24.5006;stroke-linecap:butt;stroke-linejoin:miter;stroke-miterlimit:10;stroke-dasharray:none;stroke-opacity:1"/><path d="M11005.7 938.578v27.242c73.9 0 146.4-17.879 213.8-52.242v99.022c-164.1 101.38-373.7 101.38-537.8 0v-99.022c67.4 34.363 139.9 52.242 213.8 52.242v-27.242c-74 0-146.7-19.226-213.8-56.047V739.73c164.1 101.379 373.7 101.379 537.8 0v142.801c-67.1 36.821-139.8 56.047-213.8 56.047m-656.6-158.25V753.09c73.8 0 146.3 17.879 213.8 52.238v-99.019c-164.2-101.379-373.7-101.379-537.8 0v99.019c67.4-34.359 139.9-52.238 213.8-52.238v27.238c-74 0-146.7 19.231-213.8 56.051V979.18c164.1-101.391 373.6-101.391 537.8 0V836.379c-67.1-36.82-139.8-56.051-213.8-56.051m1313.2 0V753.09c73.9 0 146.4 17.879 213.8 52.238v-99.019c-164.1-101.379-373.7-101.379-537.8 0v99.019c67.4-34.359 139.9-52.238 213.8-52.238v27.238c-74 0-146.7 19.231-213.8 56.051V979.18c164.1-101.391 373.7-101.391 537.8 0V836.379c-67.1-36.82-139.8-56.051-213.8-56.051"/><path d="M10950.6 749.012c1.9 9.277 0 389.808 0 389.808" style="fill:none;stroke:#fff;stroke-width:24.5006;stroke-linecap:butt;stroke-linejoin:miter;stroke-miterlimit:10;stroke-dasharray:none;stroke-opacity:1"/><path d="M11005.7 576.602v27.25c73.9 0 146.4-17.872 213.8-52.243v99.02c-164.1 101.383-373.7 101.383-537.8 0v-99.02c67.4 34.371 139.9 52.243 213.8 52.243v-27.25c-74 0-146.7-19.231-213.8-56.043V377.762c164.1 101.379 373.7 101.379 537.8 0V520.57c-67.1 36.801-139.8 56.032-213.8 56.032m-656.6-158.231v-27.25c73.8 0 146.3 17.879 213.8 52.238v-99.007c-164.2-101.391-373.7-101.391-537.8 0v99.007c67.4-34.359 139.9-52.238 213.8-52.238v27.25c-74 0-146.7 19.231-213.8 56.047v142.801c164.1-101.387 373.6-101.387 537.8 0V474.418c-67.1-36.816-139.8-56.047-213.8-56.047m1313.2 0v-27.25c73.9 0 146.4 17.879 213.8 52.238v-99.007c-164.1-101.391-373.7-101.391-537.8 0v99.007c67.4-34.359 139.9-52.238 213.8-52.238v27.25c-74 0-146.7 19.231-213.8 56.047v142.801c164.1-101.387 373.7-101.387 537.8 0V474.418c-67.1-36.816-139.8-56.047-213.8-56.047"/><path d="M10950.6 387.039c1.9 9.281 0 389.813 0 389.813" style="fill:none;stroke:#fff;stroke-width:24.5006;stroke-linecap:butt;stroke-linejoin:miter;stroke-miterlimit:10;stroke-dasharray:none;stroke-opacity:1"/><path d="M11005.7 214.641v27.25c73.9 0 146.4-17.879 213.8-52.25v99.019c-164.1 101.391-373.7 101.391-537.8 0v-99.019c67.4 34.371 139.9 52.25 213.8 52.25v-27.25c-74 0-146.7-19.231-213.8-56.039V15.789c164.1 101.391 373.7 101.391 537.8 0v142.813c-67.1 36.808-139.8 56.039-213.8 56.039m-656.6-158.239V29.148c73.8 0 146.3 17.883 213.8 52.254v-99.03c-164.2-101.372-373.7-101.372-537.8 0v99.03c67.4-34.37 139.9-52.254 213.8-52.254v27.254c-74 0-146.7 19.227-213.8 56.039V255.25c164.1-101.391 373.6-101.391 537.8 0V112.441c-67.1-36.812-139.8-56.039-213.8-56.039m1313.2 0V29.148c73.9 0 146.4 17.883 213.8 52.254v-99.03c-164.1-101.372-373.7-101.372-537.8 0v99.03c67.4-34.37 139.9-52.254 213.8-52.254v27.254c-74 0-146.7 19.227-213.8 56.039V255.25c164.1-101.391 373.7-101.391 537.8 0V112.441c-67.1-36.812-139.8-56.039-213.8-56.039"/><path d="M10950.6 25.07c1.9 9.29 0 389.809 0 389.809" style="fill:none;stroke:#fff;stroke-width:24.5006;stroke-linecap:butt;stroke-linejoin:miter;stroke-miterlimit:10;stroke-dasharray:none;stroke-opacity:1"/><path d="M11005.7-147.32v27.23c73.9 0 146.4-17.871 213.8-52.23v99.011c-164.1 101.391-373.7 101.391-537.8 0v-99.011c67.4 34.359 139.9 52.23 213.8 52.23v-27.23c-74 0-146.7-19.239-213.8-56.051V-346.18c164.1 101.391 373.7 101.391 537.8 0v142.809c-67.1 36.812-139.8 56.051-213.8 56.051"/><path d="M10950.6-336.891c1.9 9.27 0 389.813 0 389.813" style="fill:none;stroke:#fff;stroke-width:24.5006;stroke-linecap:butt;stroke-linejoin:miter;stroke-miterlimit:10;stroke-dasharray:none;stroke-opacity:1"/><path d="M11005.7 7453.99v27.25c73.9 0 146.4-17.88 213.8-52.24v99.02c-164.1 101.37-373.7 101.37-537.8 0V7429c67.4 34.36 139.9 52.24 213.8 52.24v-27.25c-74 0-146.7-19.23-213.8-56.04v-142.81c164.1 101.39 373.7 101.39 537.8 0v142.81c-67.1 36.81-139.8 56.04-213.8 56.04m-656.6-158.24v-27.24c73.8 0 146.3 17.87 213.8 52.24v-99.02c-164.2-101.38-373.7-101.38-537.8 0v99.02c67.4-34.37 139.9-52.24 213.8-52.24v27.24c-74 0-146.7 19.23-213.8 56.05v142.8c164.1-101.39 373.6-101.39 537.8 0v-142.81c-67.1-36.81-139.8-56.04-213.8-56.04m1313.2 0v-27.24c73.9 0 146.4 17.87 213.8 52.24v-99.02c-164.1-101.38-373.7-101.38-537.8 0v99.02c67.4-34.37 139.9-52.24 213.8-52.24v27.24c-74 0-146.7 19.23-213.8 56.05v142.8c164.1-101.39 373.7-101.39 537.8 0v-142.81c-67.1-36.81-139.8-56.04-213.8-56.04"/><path d="M10950.6 7264.43c1.9 9.28 0 389.8 0 389.8" style="fill:none;stroke:#fff;stroke-width:24.5006;stroke-linecap:butt;stroke-linejoin:miter;stroke-miterlimit:10;stroke-dasharray:none;stroke-opacity:1"/><path d="M11005.7 7092.02v27.25c73.9 0 146.4-17.88 213.8-52.24v99.02c-164.1 101.38-373.7 101.38-537.8 0v-99.02c67.4 34.36 139.9 52.24 213.8 52.24v-27.25c-74 0-146.7-19.23-213.8-56.04v-142.8c164.1 101.38 373.7 101.38 537.8 0v142.8c-67.1 36.81-139.8 56.04-213.8 56.04m-656.6-158.23v-27.25c73.8 0 146.3 17.87 213.8 52.24v-99.02c-164.2-101.38-373.7-101.38-537.8 0v99.02c67.4-34.37 139.9-52.24 213.8-52.24v27.25c-74 0-146.7 19.23-213.8 56.04v142.8c164.1-101.38 373.6-101.38 537.8 0v-142.8c-67.1-36.81-139.8-56.04-213.8-56.04m1313.2 0v-27.25c73.9 0 146.4 17.87 213.8 52.24v-99.02c-164.1-101.38-373.7-101.38-537.8 0v99.02c67.4-34.37 139.9-52.24 213.8-52.24v27.25c-74 0-146.7 19.23-213.8 56.04v142.8c164.1-101.38 373.7-101.38 537.8 0v-142.8c-67.1-36.81-139.8-56.04-213.8-56.04"/><path d="M10950.6 6902.46c1.9 9.28 0 389.81 0 389.81" style="fill:none;stroke:#fff;stroke-width:24.5006;stroke-linecap:butt;stroke-linejoin:miter;stroke-miterlimit:10;stroke-dasharray:none;stroke-opacity:1"/><path d="M11005.7 6730.05v27.25c73.9 0 146.4-17.87 213.8-52.24v99.02c-164.1 101.38-373.7 101.38-537.8 0v-99.02c67.4 34.37 139.9 52.24 213.8 52.24v-27.25c-74 0-146.7-19.22-213.8-56.04v-142.8c164.1 101.38 373.7 101.38 537.8 0v142.81c-67.1 36.81-139.8 56.03-213.8 56.03m-656.6-158.23v-27.25c73.8 0 146.3 17.88 213.8 52.24v-99.02c-164.2-101.38-373.7-101.38-537.8 0v99.02c67.4-34.36 139.9-52.24 213.8-52.24v27.25c-74 0-146.7 19.23-213.8 56.04v142.8c164.1-101.38 373.6-101.38 537.8 0v-142.8c-67.1-36.81-139.8-56.04-213.8-56.04m1313.2 0v-27.25c73.9 0 146.4 17.88 213.8 52.24v-99.02c-164.1-101.38-373.7-101.38-537.8 0v99.02c67.4-34.36 139.9-52.24 213.8-52.24v27.25c-74 0-146.7 19.23-213.8 56.04v142.8c164.1-101.38 373.7-101.38 537.8 0v-142.8c-67.1-36.81-139.8-56.04-213.8-56.04"/><path d="M10950.6 6540.49c1.9 9.28 0 389.81 0 389.81" style="fill:none;stroke:#fff;stroke-width:24.5006;stroke-linecap:butt;stroke-linejoin:miter;stroke-miterlimit:10;stroke-dasharray:none;stroke-opacity:1"/><path d="M11005.7 6368.09v27.24c73.9 0 146.4-17.87 213.8-52.24v99.02c-164.1 101.39-373.7 101.39-537.8 0v-99.02c67.4 34.37 139.9 52.24 213.8 52.24v-27.24c-74 0-146.7-19.23-213.8-56.05v-142.8c164.1 101.39 373.7 101.39 537.8 0v142.81c-67.1 36.81-139.8 56.04-213.8 56.04m-656.6-158.24v-27.25c73.8 0 146.3 17.88 213.8 52.25v-99.02c-164.2-101.39-373.7-101.39-537.8 0v99.02c67.4-34.37 139.9-52.25 213.8-52.25v27.25c-74 0-146.7 19.23-213.8 56.04v142.81c164.1-101.39 373.6-101.39 537.8 0v-142.81c-67.1-36.81-139.8-56.04-213.8-56.04m1313.2 0v-27.25c73.9 0 146.4 17.88 213.8 52.25v-99.02c-164.1-101.39-373.7-101.39-537.8 0v99.02c67.4-34.37 139.9-52.25 213.8-52.25v27.25c-74 0-146.7 19.23-213.8 56.04v142.81c164.1-101.39 373.7-101.39 537.8 0v-142.81c-67.1-36.81-139.8-56.04-213.8-56.04"/><path d="M10950.6 6178.52c1.9 9.28 0 389.81 0 389.81" style="fill:none;stroke:#fff;stroke-width:24.5006;stroke-linecap:butt;stroke-linejoin:miter;stroke-miterlimit:10;stroke-dasharray:none;stroke-opacity:1"/><path d="M11005.7 6006.12v27.25c73.9 0 146.4-17.88 213.8-52.25v99.02c-164.1 101.39-373.7 101.39-537.8 0v-99.02c67.4 34.37 139.9 52.25 213.8 52.25v-27.25c-74 0-146.7-19.23-213.8-56.04v-142.81c164.1 101.39 373.7 101.39 537.8 0v142.81c-67.1 36.81-139.8 56.04-213.8 56.04m-656.6-158.24v-27.24c73.8 0 146.3 17.87 213.8 52.24v-99.02c-164.2-101.38-373.7-101.38-537.8 0v99.02c67.4-34.37 139.9-52.24 213.8-52.24v27.24c-74 0-146.7 19.23-213.8 56.05v142.8c164.1-101.39 373.6-101.39 537.8 0v-142.8c-67.1-36.82-139.8-56.05-213.8-56.05m1313.2 0v-27.24c73.9 0 146.4 17.87 213.8 52.24v-99.02c-164.1-101.38-373.7-101.38-537.8 0v99.02c67.4-34.37 139.9-52.24 213.8-52.24v27.24c-74 0-146.7 19.23-213.8 56.05v142.8c164.1-101.39 373.7-101.39 537.8 0v-142.8c-67.1-36.82-139.8-56.05-213.8-56.05"/><path d="M10950.6 5816.55c1.9 9.29 0 389.81 0 389.81" style="fill:none;stroke:#fff;stroke-width:24.5006;stroke-linecap:butt;stroke-linejoin:miter;stroke-miterlimit:10;stroke-dasharray:none;stroke-opacity:1"/><path d="M11005.7 5644.16v27.24c73.9 0 146.4-17.88 213.8-52.24v99.02c-164.1 101.38-373.7 101.38-537.8 0v-99.02c67.4 34.36 139.9 52.24 213.8 52.24v-27.24c-74 0-146.7-19.24-213.8-56.05V5445.3c164.1 101.39 373.7 101.39 537.8 0v142.81c-67.1 36.81-139.8 56.05-213.8 56.05m-656.6-158.25v-27.24c73.8 0 146.3 17.87 213.8 52.24v-99.01c-164.2-101.39-373.7-101.39-537.8 0v99.01c67.4-34.37 139.9-52.24 213.8-52.24v27.24c-74 0-146.7 19.23-213.8 56.05v142.8c164.1-101.38 373.6-101.38 537.8 0v-142.8c-67.1-36.82-139.8-56.05-213.8-56.05m1313.2 0v-27.24c73.9 0 146.4 17.87 213.8 52.24v-99.01c-164.1-101.39-373.7-101.39-537.8 0v99.01c67.4-34.37 139.9-52.24 213.8-52.24v27.24c-74 0-146.7 19.23-213.8 56.05v142.8c164.1-101.38 373.7-101.38 537.8 0v-142.8c-67.1-36.82-139.8-56.05-213.8-56.05"/><path d="M10950.6 5454.59c1.9 9.28 0 389.81 0 389.81" style="fill:none;stroke:#fff;stroke-width:24.5006;stroke-linecap:butt;stroke-linejoin:miter;stroke-miterlimit:10;stroke-dasharray:none;stroke-opacity:1"/><path d="M11005.7 5282.19v27.24c73.9 0 146.4-17.88 213.8-52.24v99.02c-164.1 101.38-373.7 101.38-537.8 0v-99.02c67.4 34.36 139.9 52.24 213.8 52.24v-27.24c-74 0-146.7-19.23-213.8-56.05v-142.8c164.1 101.38 373.7 101.38 537.8 0v142.8c-67.1 36.82-139.8 56.05-213.8 56.05m-656.6-158.24v-27.25c73.8 0 146.3 17.88 213.8 52.24v-99.01c-164.2-101.39-373.7-101.39-537.8 0v99.01c67.4-34.36 139.9-52.24 213.8-52.24v27.25c-74 0-146.7 19.23-213.8 56.04v142.8c164.1-101.38 373.6-101.38 537.8 0v-142.8c-67.1-36.81-139.8-56.04-213.8-56.04m1313.2 0v-27.25c73.9 0 146.4 17.88 213.8 52.24v-99.01c-164.1-101.39-373.7-101.39-537.8 0v99.01c67.4-34.36 139.9-52.24 213.8-52.24v27.25c-74 0-146.7 19.23-213.8 56.04v142.8c164.1-101.38 373.7-101.38 537.8 0v-142.8c-67.1-36.81-139.8-56.04-213.8-56.04"/><path d="M10950.6 5092.62c1.9 9.28 0 389.81 0 389.81" style="fill:none;stroke:#fff;stroke-width:24.5006;stroke-linecap:butt;stroke-linejoin:miter;stroke-miterlimit:10;stroke-dasharray:none;stroke-opacity:1"/><path d="M11005.7 4920.22v27.24c73.9 0 146.4-17.87 213.8-52.24v99.02c-164.1 101.39-373.7 101.39-537.8 0v-99.02c67.4 34.37 139.9 52.24 213.8 52.24v-27.24c-74 0-146.7-19.23-213.8-56.04v-142.81c164.1 101.39 373.7 101.39 537.8 0v142.81c-67.1 36.81-139.8 56.04-213.8 56.04m-656.6-158.24v-27.25c73.8 0 146.3 17.88 213.8 52.24v-99.01c-164.2-101.39-373.7-101.39-537.8 0v99.01c67.4-34.36 139.9-52.24 213.8-52.24v27.25c-74 0-146.7 19.23-213.8 56.04v142.81c164.1-101.39 373.6-101.39 537.8 0v-142.81c-67.1-36.81-139.8-56.04-213.8-56.04m1313.2 0v-27.25c73.9 0 146.4 17.88 213.8 52.24v-99.01c-164.1-101.39-373.7-101.39-537.8 0v99.01c67.4-34.36 139.9-52.24 213.8-52.24v27.25c-74 0-146.7 19.23-213.8 56.04v142.81c164.1-101.39 373.7-101.39 537.8 0v-142.81c-67.1-36.81-139.8-56.04-213.8-56.04"/><path d="M10950.6 4730.65c1.9 9.28 0 389.82 0 389.82" style="fill:none;stroke:#fff;stroke-width:24.5006;stroke-linecap:butt;stroke-linejoin:miter;stroke-miterlimit:10;stroke-dasharray:none;stroke-opacity:1"/><path d="M11005.7 4558.25v27.24c73.9 0 146.4-17.87 213.8-52.24v99.02c-164.1 101.39-373.7 101.39-537.8 0v-99.02c67.4 34.37 139.9 52.24 213.8 52.24v-27.24c-74 0-146.7-19.23-213.8-56.04V4359.4c164.1 101.39 373.7 101.39 537.8 0v142.81c-67.1 36.81-139.8 56.04-213.8 56.04m-656.6-158.24v-27.24c73.8 0 146.3 17.87 213.8 52.24v-99.02c-164.2-101.38-373.7-101.38-537.8 0v99.02c67.4-34.37 139.9-52.24 213.8-52.24v27.24c-74 0-146.7 19.23-213.8 56.05v142.8c164.1-101.39 373.6-101.39 537.8 0v-142.8c-67.1-36.82-139.8-56.05-213.8-56.05m1313.2 0v-27.24c73.9 0 146.4 17.87 213.8 52.24v-99.02c-164.1-101.38-373.7-101.38-537.8 0v99.02c67.4-34.37 139.9-52.24 213.8-52.24v27.24c-74 0-146.7 19.23-213.8 56.05v142.8c164.1-101.39 373.7-101.39 537.8 0v-142.8c-67.1-36.82-139.8-56.05-213.8-56.05"/><path d="M10950.6 4368.68c1.9 9.29 0 389.82 0 389.82" style="fill:none;stroke:#fff;stroke-width:24.5006;stroke-linecap:butt;stroke-linejoin:miter;stroke-miterlimit:10;stroke-dasharray:none;stroke-opacity:1"/><path d="M11005.7 4196.29v27.24c73.9 0 146.4-17.88 213.8-52.24v99.01c-164.1 101.39-373.7 101.39-537.8 0v-99.01c67.4 34.36 139.9 52.24 213.8 52.24v-27.24c-74 0-146.7-19.24-213.8-56.05v-142.8c164.1 101.38 373.7 101.38 537.8 0v142.8c-67.1 36.82-139.8 56.05-213.8 56.05m-656.6-158.25v-27.24c73.8 0 146.3 17.87 213.8 52.24v-99.02c-164.2-101.38-373.7-101.38-537.8 0v99.02c67.4-34.37 139.9-52.24 213.8-52.24v27.24c-74 0-146.7 19.23-213.8 56.05v142.8c164.1-101.39 373.6-101.39 537.8 0v-142.8c-67.1-36.82-139.8-56.05-213.8-56.05m1313.2 0v-27.24c73.9 0 146.4 17.87 213.8 52.24v-99.02c-164.1-101.38-373.7-101.38-537.8 0v99.02c67.4-34.37 139.9-52.24 213.8-52.24v27.24c-74 0-146.7 19.23-213.8 56.05v142.8c164.1-101.39 373.7-101.39 537.8 0v-142.8c-67.1-36.82-139.8-56.05-213.8-56.05"/><path d="M10950.6 4006.72c1.9 9.28 0 389.81 0 389.81" style="fill:none;stroke:#fff;stroke-width:24.5006;stroke-linecap:butt;stroke-linejoin:miter;stroke-miterlimit:10;stroke-dasharray:none;stroke-opacity:1"/><path d="M11005.7 3834.32v27.24c73.9 0 146.4-17.88 213.8-52.24v99.02c-164.1 101.38-373.7 101.38-537.8 0v-99.02c67.4 34.36 139.9 52.24 213.8 52.24v-27.24c-74 0-146.7-19.24-213.8-56.05v-142.8c164.1 101.38 373.7 101.38 537.8 0v142.8c-67.1 36.82-139.8 56.05-213.8 56.05m-656.6-158.24v-27.25c73.8 0 146.3 17.88 213.8 52.24v-99.02c-164.2-101.38-373.7-101.38-537.8 0v99.02c67.4-34.36 139.9-52.24 213.8-52.24v27.25c-74 0-146.7 19.22-213.8 56.04v142.8c164.1-101.38 373.6-101.38 537.8 0v-142.8c-67.1-36.82-139.8-56.04-213.8-56.04m1313.2 0v-27.25c73.9 0 146.4 17.88 213.8 52.24v-99.02c-164.1-101.38-373.7-101.38-537.8 0v99.02c67.4-34.36 139.9-52.24 213.8-52.24v27.25c-74 0-146.7 19.22-213.8 56.04v142.8c164.1-101.38 373.7-101.38 537.8 0v-142.8c-67.1-36.82-139.8-56.04-213.8-56.04"/><path d="M10950.6 3644.75c1.9 9.28 0 389.81 0 389.81" style="fill:none;stroke:#fff;stroke-width:24.5006;stroke-linecap:butt;stroke-linejoin:miter;stroke-miterlimit:10;stroke-dasharray:none;stroke-opacity:1"/><path d="M11005.7 3472.35v27.24c73.9 0 146.4-17.87 213.8-52.24v99.02c-164.1 101.39-373.7 101.39-537.8 0v-99.02c67.4 34.37 139.9 52.24 213.8 52.24v-27.24c-74 0-146.7-19.23-213.8-56.05v-142.8c164.1 101.38 373.7 101.38 537.8 0v142.8c-67.1 36.82-139.8 56.05-213.8 56.05m-656.6-158.25v-27.23c73.8 0 146.3 17.87 213.8 52.23v-99.01c-164.2-101.39-373.7-101.39-537.8 0v99.01c67.4-34.36 139.9-52.23 213.8-52.23v27.23c-74 0-146.7 19.24-213.8 56.05v142.81c164.1-101.39 373.6-101.39 537.8 0v-142.81c-67.1-36.82-139.8-56.05-213.8-56.05m1313.2 0v-27.23c73.9 0 146.4 17.87 213.8 52.23v-99.01c-164.1-101.39-373.7-101.39-537.8 0v99.01c67.4-34.36 139.9-52.23 213.8-52.23v27.23c-74 0-146.7 19.24-213.8 56.05v142.81c164.1-101.39 373.7-101.39 537.8 0v-142.81c-67.1-36.82-139.8-56.05-213.8-56.05"/><path d="M10950.6 3282.78c1.9 9.28 0 389.81 0 389.81" style="fill:none;stroke:#fff;stroke-width:24.5006;stroke-linecap:butt;stroke-linejoin:miter;stroke-miterlimit:10;stroke-dasharray:none;stroke-opacity:1"/><path d="M10643.8-1104.13h-34.9v9071.02h34.9v-9071.02m648.5 0h-34.9v9071.02h34.9v-9071.02"/></g></g></svg>