<svg xmlns="http://www.w3.org/2000/svg" width="75" height="150" viewBox="0 0 75 150"><defs><clipPath id="5h1366v600H"><path d="M121.24 139.77v10.73c4.28 0 7.76-4.11 7.76-9.19v-4.39a46.54 46.54 0 0 1-7.76 2.85Zm0-13.78v9.21a43.62 43.62 0 0 0 7.76-3.1v-9a47.45 47.45 0 0 1-7.76 2.9Zm0-13.78v9.21a43.62 43.62 0 0 0 7.76-3.1v-9a46.58 46.58 0 0 1-7.76 2.89ZM128.15 8.5a7.74 7.74 0 0 0-6.91-5v7.67a44.24 44.24 0 0 0 6.91-2.67Zm.85 13.35v-9a45.71 45.71 0 0 1-7.76 2.86V25a43.62 43.62 0 0 0 7.76-3.15Zm0 13.78v-9a45.67 45.67 0 0 1-7.76 2.85v9.21a43.62 43.62 0 0 0 7.76-3.06Zm-7.76 62.8v9.21a43.62 43.62 0 0 0 7.76-3.1v-9a46.58 46.58 0 0 1-7.76 2.89Zm0-13.78v9.21a43.62 43.62 0 0 0 7.76-3.1v-9a46.58 46.58 0 0 1-7.76 2.89Zm0-13.78v9.21A42.92 42.92 0 0 0 129 77v-9a46.58 46.58 0 0 1-7.76 2.87Zm0-13.79v9.22a43.66 43.66 0 0 0 7.76-3.11v-9a45.67 45.67 0 0 1-7.76 2.89Zm0-9.36v4.8a43.66 43.66 0 0 0 7.76-3.11v-9a45.67 45.67 0 0 1-7.76 2.85ZM101.82 51v-9.24a45.15 45.15 0 0 1 15.53 8.15v8.51A47.59 47.59 0 0 0 101.82 51Zm0 13.78a47.79 47.79 0 0 1 15.53 7.44v-8.53a45 45 0 0 0-15.53-8.14Zm0 13.78v-9.23a44.81 44.81 0 0 1 15.53 8.15V86a47.79 47.79 0 0 0-15.53-7.46Zm0 13.78a48 48 0 0 1 15.53 7.44v-8.5a44.81 44.81 0 0 0-15.53-8.15Zm0 13.78v-9.23a45 45 0 0 1 15.53 8.11v8.5a48 48 0 0 0-15.53-7.4Zm0 13.78a47.81 47.81 0 0 1 15.53 7.45v-8.51a45.15 45.15 0 0 0-15.53-8.15Zm0 13.79v-9.22a45.15 45.15 0 0 1 15.53 8.15v8.51a47.59 47.59 0 0 0-15.53-7.46Zm0 16.83h7.72a47.39 47.39 0 0 0 7.2-4.59 45 45 0 0 0-14.92-7.68Zm0-140.87a47.81 47.81 0 0 1 15.53 7.45V3.5h-15.53Zm0 13.79V14.2a45.15 45.15 0 0 1 15.53 8.15v8.51a47.59 47.59 0 0 0-15.53-7.44ZM74.65 150.5H82a49.38 49.38 0 0 1-7.35-4.39ZM70.76 9.63V3.5C66.48 3.5 63 7.61 63 12.69v-.2a46.58 46.58 0 0 1 7.76-2.86Zm0 13.79V14.2A43.66 43.66 0 0 0 63 17.31v9a45.67 45.67 0 0 1 7.76-2.89ZM63 141.31c0 5.08 3.48 9.19 7.76 9.19v-12.27a43.66 43.66 0 0 0-7.76 3.11Zm0-13.75v9a45.67 45.67 0 0 1 7.76-2.85v-9.22a43.66 43.66 0 0 0-7.76 3.07Zm0-13.78v9a46.58 46.58 0 0 1 7.76-2.86v-9.21a42.92 42.92 0 0 0-7.76 3.07ZM63 100v9a46.58 46.58 0 0 1 7.76-2.86v-9.25A43.62 43.62 0 0 0 63 100Zm7.76-62.8V28A43.66 43.66 0 0 0 63 31.09v9a45.67 45.67 0 0 1 7.76-2.89Zm0 13.78v-9.21a43.62 43.62 0 0 0-7.76 3.1v9A46.54 46.54 0 0 1 70.76 51ZM63 86.21v9a46.58 46.58 0 0 1 7.76-2.86v-9.24a43.62 43.62 0 0 0-7.76 3.1Zm0-13.78v9a46.58 46.58 0 0 1 7.76-2.86v-9.24a43.62 43.62 0 0 0-7.76 3.1Zm7.76-12.09v-4.79a43.62 43.62 0 0 0-7.76 3.1v9a46.54 46.54 0 0 1 7.76-2.85Zm19.42-3.26v9.22a45.15 45.15 0 0 1-15.53-8.15v-8.51a47.59 47.59 0 0 0 15.53 7.44Zm0-13.78v9.22a45.15 45.15 0 0 1-15.53-8.15v-8.51a47.59 47.59 0 0 0 15.53 7.44Zm0-13.78a47.59 47.59 0 0 1-15.53-7.44v8.51a45.15 45.15 0 0 0 15.53 8.15Zm0-13.78V25a44.81 44.81 0 0 1-15.53-8.2V8.3a47.79 47.79 0 0 0 15.53 7.44Zm0-12.24H75.25a44.81 44.81 0 0 0 14.93 7.67Zm0 136.27V149a45.15 45.15 0 0 1-15.53-8.15v-8.51a47.59 47.59 0 0 0 15.53 7.43Zm0-13.78a47.79 47.79 0 0 1-15.53-7.44v8.51a45 45 0 0 0 15.53 8.14Zm0-13.78v9.21a44.81 44.81 0 0 1-15.53-8.15v-8.5a47.79 47.79 0 0 0 15.53 7.44Zm0-13.78A48 48 0 0 1 74.65 91v8.5a44.81 44.81 0 0 0 15.53 8.15Zm0-13.78v9.21a45.15 45.15 0 0 1-15.53-8.15V77.2a47.81 47.81 0 0 0 15.53 7.45ZM94.06 81v69.5h3.88V3.5h-3.88V81Zm-3.88-10.13a47.81 47.81 0 0 1-15.53-7.45v8.51a45.15 45.15 0 0 0 15.53 8.15Zm11.64-33.67a47.59 47.59 0 0 1 15.53 7.44v-8.51A45.15 45.15 0 0 0 101.82 28Z"/></clipPath><clipPath id="5h76v157H58z"><path d="M-243-214.5h1366v600H-243z"/></clipPath></defs><g style="clip-path:url(#5h1366v600H)" transform="matrix(1.1 0 0 1 -68 -3)"><path d="M58-1.5h76v157H58z" style="clip-path:url(#5h76v157H58z)"/></g></svg>
