<svg width="32" height="32" viewBox="0 0 32 32" fill="none" xmlns="http://www.w3.org/2000/svg">
<path d="M23.4504 19.6943C23.6194 19.1687 24.1825 18.879 24.7082 19.0479C25.2338 19.2168 25.5234 19.78 25.3547 20.3057C23.5364 25.9614 18.2326 30.0566 11.9699 30.0566C8.23063 30.0566 4.83013 28.5956 2.31268 26.2148C1.91144 25.8354 1.89415 25.202 2.27362 24.8008C2.6531 24.3995 3.28642 24.3822 3.68768 24.7617C5.84856 26.8051 8.76199 28.0566 11.9699 28.0566C17.3385 28.0566 21.8901 24.547 23.4504 19.6943ZM11.9699 1.94336C14.755 1.94336 17.3538 2.75424 19.5392 4.15332C20.0044 4.4511 20.1398 5.07002 19.842 5.53516C19.5441 5.99999 18.9261 6.13555 18.4611 5.83789C16.5879 4.63866 14.3616 3.94336 11.9699 3.94336C8.76199 3.94336 5.84856 5.19489 3.68768 7.23828C3.28642 7.61776 2.6531 7.60047 2.27362 7.19922C1.89414 6.79796 1.91144 6.16464 2.31268 5.78516C4.83013 3.40437 8.23063 1.94336 11.9699 1.94336Z" fill="#000"/>
<path d="M16 16C16 13.7741 14.1956 11.9697 11.9697 11.9697C9.74387 11.9697 7.93945 13.7741 7.93945 16C7.93945 18.2259 9.74387 20.0303 11.9697 20.0303C14.1956 20.0303 16 18.2259 16 16ZM18 16C18 19.3304 15.3002 22.0303 11.9697 22.0303C8.6393 22.0303 5.93945 19.3304 5.93945 16C5.93945 12.6696 8.6393 9.96973 11.9697 9.96973C15.3002 9.96973 18 12.6696 18 16Z" fill="#000"/>
<path d="M28.0003 18.6445C28.0003 12.9789 25.829 7.53948 21.9514 3.43357L18.3968 7.12107C21.3454 10.2764 22.984 14.4495 22.9544 18.7881L22.9534 19H28.0003V18.6445ZM30.0003 19.6797C30.0002 20.4088 29.4091 20.9999 28.68 21H22.1751C21.4936 20.9999 20.9429 20.4451 20.9475 19.7637L20.9544 18.7744C20.9821 14.714 19.3534 10.8175 16.4446 7.98436C15.9721 7.52415 15.9598 6.76896 16.4173 6.29393L21.0218 1.51756C21.4899 1.03195 22.2456 0.993499 22.7591 1.40818L22.8587 1.49705L23.2815 1.92674C27.5879 6.41833 30.0003 12.4065 30.0003 18.6445V19.6797Z" fill="#000"/>
<path d="M27.4336 28.0566C27.9859 28.0566 28.4336 28.5044 28.4336 29.0566C28.4336 29.6089 27.9859 30.0566 27.4336 30.0566H24C23.4477 30.0566 23 29.6089 23 29.0566C23 28.5044 23.4477 28.0566 24 28.0566H27.4336Z" fill="#000"/>
<path d="M29.7168 25C30.2691 25 30.7168 25.4477 30.7168 26C30.7168 26.5523 30.2691 27 29.7168 27H26.2832C25.7309 27 25.2832 26.5523 25.2832 26C25.2832 25.4477 25.7309 25 26.2832 25H29.7168Z" fill="#000"/>
<path d="M12.9697 16C12.9697 16.5523 12.522 17 11.9697 17C11.4174 17 10.9697 16.5523 10.9697 16C10.9697 15.4477 11.4174 15 11.9697 15C12.522 15 12.9697 15.4477 12.9697 16Z" fill="#000"/>
</svg>
