<svg width="32" height="32" viewBox="0 0 32 32" fill="none" xmlns="http://www.w3.org/2000/svg">
<rect x="3" y="3" width="26" height="26" rx="3" fill="#000" stroke="#000" stroke-width="2"/>
<path d="M5.45626 16.8517V12.0618H4.2998V16.912C4.2998 18.7345 5.57641 19.9396 7.22848 19.9396C8.0395 19.9396 8.74538 19.6232 9.27104 19.081V19.804H10.4125V12.0618H9.25602V16.8517C9.25602 18.0868 8.42999 18.9153 7.36365 18.9153C6.28229 18.9002 5.45626 18.1019 5.45626 16.8517ZM11.5539 19.8191H12.6503V19.1111C13.1609 19.6383 13.8818 19.9546 14.6628 19.9546C16.3149 19.9546 17.6215 18.6442 17.6215 17.0023C17.6215 15.3605 16.3149 14.05 14.6628 14.05C13.8818 14.05 13.1759 14.3664 12.6653 14.8936V12.0618H11.5539V19.8191ZM12.6503 17.0023C12.6503 15.9028 13.5214 15.0442 14.5877 15.0442C15.6541 15.0442 16.5251 15.9028 16.5251 17.0023C16.5251 18.0868 15.6541 18.9605 14.5877 18.9605C13.5064 18.9605 12.6503 18.0868 12.6503 17.0023ZM18.2824 16.9873C18.2824 18.6743 19.589 19.9396 21.2711 19.9396C22.2924 19.9396 23.1334 19.4877 23.7042 18.7345L22.8931 18.132C22.4726 18.6894 21.9169 18.9605 21.2711 18.9605C20.3249 18.9605 19.559 18.2676 19.4088 17.3488H23.9895V16.9873C23.9895 15.3002 22.803 14.05 21.181 14.05C19.5289 14.05 18.2824 15.3906 18.2824 16.9873ZM21.151 15.0291C21.977 15.0291 22.6679 15.6015 22.8631 16.4751H19.4238C19.634 15.6015 20.3249 15.0291 21.151 15.0291ZM27.6992 15.1647V14.1254H27.3087C26.6929 14.1254 26.2423 14.4115 25.957 14.8634V14.1705H24.8756V19.8191H25.987V16.5956C25.987 15.722 26.5127 15.1496 27.2486 15.1496H27.6992V15.1647Z" fill="white"/>
</svg>
