<svg width="23" height="22" viewBox="0 0 23 22" fill="none" xmlns="http://www.w3.org/2000/svg">
<path fill-rule="evenodd" clip-rule="evenodd" d="M20.5 1.8H2.5C2.38954 1.8 2.3 1.88954 2.3 2V20C2.3 20.1105 2.38954 20.2 2.5 20.2H20.5C20.6105 20.2 20.7 20.1105 20.7 20V2C20.7 1.88954 20.6105 1.8 20.5 1.8ZM2.5 0C1.39543 0 0.5 0.89543 0.5 2V20C0.5 21.1046 1.39543 22 2.5 22H20.5C21.6046 22 22.5 21.1046 22.5 20V2C22.5 0.895431 21.6046 0 20.5 0H2.5Z" fill="#212338"/>
<path d="M4.1493 12.6859C4.21903 12.8727 4.31556 13.0324 4.43893 13.1651C4.56229 13.2978 4.70844 13.3993 4.87737 13.4697C5.04632 13.5401 5.23001 13.5753 5.42846 13.5753C5.62155 13.5753 5.80255 13.5387 5.9715 13.4656C6.14045 13.3925 6.28793 13.2896 6.41397 13.157C6.54 13.0243 6.63789 12.8659 6.70761 12.6818C6.77734 12.4977 6.8122 12.292 6.8122 12.0645V8.55566H7.65692V14.2413H6.82024V13.7133C6.63253 13.9137 6.41128 14.068 6.15653 14.1763C5.90176 14.2846 5.62691 14.3387 5.33192 14.3387C5.03156 14.3387 4.75134 14.2859 4.49121 14.1804C4.2311 14.0748 4.00582 13.9245 3.81544 13.7296C3.62506 13.5346 3.47487 13.3005 3.36493 13.027C3.25497 12.7536 3.2 12.449 3.2 12.1132V8.55566H4.04472V12.0645C4.04472 12.292 4.07957 12.499 4.1493 12.6859ZM9.11298 8.55566V10.6269C9.30069 10.4373 9.51792 10.2871 9.76463 10.1761C10.0113 10.0651 10.2795 10.0096 10.5691 10.0096C10.8695 10.0096 11.151 10.0664 11.4138 10.1801C11.6766 10.2938 11.9046 10.4482 12.0977 10.6431C12.2907 10.838 12.4436 11.0682 12.5562 11.3335C12.6689 11.5988 12.7252 11.8804 12.7252 12.1782C12.7252 12.476 12.6689 12.7562 12.5562 13.0189C12.4436 13.2815 12.2907 13.5103 12.0977 13.7052C11.9046 13.9001 11.6766 14.0545 11.4138 14.1682C11.151 14.2819 10.8695 14.3387 10.5691 14.3387C10.2795 14.3387 10.01 14.2832 9.76061 14.1722C9.51121 14.0612 9.29265 13.911 9.10494 13.7214V14.2413H8.30045V8.55566H9.11298ZM9.20549 12.7387C9.27789 12.9119 9.37847 13.0636 9.50719 13.1935C9.63591 13.3235 9.78608 13.4264 9.9577 13.5022C10.1293 13.578 10.3144 13.6159 10.5128 13.6159C10.7059 13.6159 10.8882 13.578 11.0599 13.5022C11.2315 13.4264 11.3803 13.3235 11.5064 13.1935C11.6324 13.0636 11.733 12.9119 11.808 12.7387C11.8831 12.5654 11.9207 12.3786 11.9207 12.1782C11.9207 11.9779 11.8831 11.7897 11.808 11.6137C11.733 11.4377 11.6324 11.2848 11.5064 11.1548C11.3803 11.0249 11.2315 10.9233 11.0599 10.8502C10.8882 10.7771 10.7059 10.7406 10.5128 10.7406C10.3197 10.7406 10.1374 10.7771 9.96576 10.8502C9.79414 10.9233 9.64397 11.0249 9.51523 11.1548C9.38653 11.2848 9.28462 11.4377 9.20953 11.6137C9.13445 11.7897 9.09691 11.9779 9.09691 12.1782C9.09689 12.3786 9.1331 12.5654 9.20549 12.7387ZM13.1836 11.3416C13.2909 11.0817 13.4384 10.8529 13.6261 10.6553C13.8138 10.4577 14.0364 10.302 14.2939 10.1883C14.5513 10.0746 14.8302 10.0177 15.1305 10.0177C15.4255 10.0177 15.699 10.0719 15.9511 10.1801C16.2032 10.2884 16.4204 10.4387 16.6028 10.6309C16.7851 10.8232 16.9273 11.0506 17.0291 11.3132C17.131 11.5758 17.182 11.8615 17.182 12.1701V12.4382H13.8433C13.8702 12.606 13.9238 12.7617 14.0042 12.9052C14.0847 13.0487 14.1852 13.1732 14.3059 13.2788C14.4266 13.3844 14.5634 13.467 14.7162 13.5265C14.8691 13.5861 15.0313 13.6159 15.2029 13.6159C15.691 13.6159 16.0852 13.4128 16.3856 13.0067L16.9728 13.4453C16.769 13.7215 16.517 13.9381 16.2166 14.0951C15.9163 14.2521 15.5784 14.3306 15.203 14.3306C14.8972 14.3306 14.6117 14.2765 14.3462 14.1682C14.0807 14.0599 13.8501 13.9083 13.6543 13.7133C13.4586 13.5184 13.3044 13.2896 13.1917 13.027C13.0791 12.7644 13.0228 12.4787 13.0228 12.1701C13.0227 11.8777 13.0764 11.6015 13.1836 11.3416ZM14.314 11.0208C14.086 11.213 13.9345 11.4689 13.8594 11.7883H16.3614C16.2917 11.4689 16.1429 11.213 15.9149 11.0208C15.687 10.8286 15.4202 10.7325 15.1145 10.7325C14.8087 10.7325 14.5419 10.8286 14.314 11.0208ZM18.7024 11.1142C18.5308 11.3037 18.445 11.5609 18.445 11.8858V14.2413H17.6324V10.0989H18.4369V10.6106C18.5388 10.4428 18.6716 10.3101 18.8352 10.2126C18.9987 10.1151 19.1932 10.0664 19.4184 10.0664H19.7V10.8299H19.3621C19.094 10.8299 18.8741 10.9247 18.7024 11.1142Z" fill="#212338"/>
</svg>
