<svg xmlns="http://www.w3.org/2000/svg" viewBox="0 0 24 24" width="24" height="24" xml:space="preserve"><path d="M20 1.8H2c-.1 0-.2.1-.2.2v18c0 .1.1.2.2.2h18c.1 0 .2-.1.2-.2V2c0-.1-.1-.2-.2-.2zM2 0C.9 0 0 .9 0 2v18c0 1.1.9 2 2 2h18c1.1 0 2-.9 2-2V2c0-1.1-.9-2-2-2H2z" style="fill-rule:evenodd;clip-rule:evenodd"/><path d="M3.6 12.7c.1.2.2.3.3.5.1.1.3.2.4.3.2.1.4.1.6.1.2 0 .4 0 .5-.1s.3-.2.4-.3c.2-.2.3-.3.4-.5.1-.2.1-.4.1-.6V8.6h.8v5.7h-.8v-.5c-.2.2-.4.4-.7.5-.3.1-.5.2-.8.2-.3 0-.6-.1-.8-.2-.3-.1-.5-.3-.7-.5-.2-.3-.3-.5-.4-.8-.1-.3-.2-.6-.2-.9V8.6h.8v3.5c0 .2.1.4.1.6zm5-4.1v2.1c.2-.2.4-.3.7-.5.2-.1.5-.2.8-.2.3 0 .6.1.8.2.3.1.5.3.7.5.2.2.3.4.5.7.1.3.2.5.2.8s-.1.6-.2.8c-.1.3-.3.5-.5.7-.2.2-.4.3-.7.5-.3.1-.5.2-.8.2-.3 0-.6-.1-.8-.2-.2-.1-.5-.3-.7-.5v.5h-.8V8.6h.8zm.1 4.1c.1.2.2.3.3.5.1.1.3.2.5.3.2.1.4.1.6.1.2 0 .4 0 .5-.1.2-.1.3-.2.4-.3.1-.1.2-.3.3-.5.1-.2.1-.4.1-.6 0-.2 0-.4-.1-.6-.1-.2-.2-.3-.3-.5-.1-.1-.3-.2-.4-.3-.2-.1-.4-.1-.5-.1-.2 0-.4 0-.5.1-.3.2-.5.3-.6.5-.1.1-.2.3-.3.5-.1.2-.1.4-.1.6 0 .1 0 .3.1.4zm4-1.4c.1-.3.3-.5.4-.7.2-.2.4-.4.7-.5.3-.1.5-.2.8-.2.3 0 .6.1.8.2.3.1.5.3.7.5.2.2.3.4.4.7.1.3.2.5.2.9v.3h-3.3c0 .2.1.3.2.5.1.1.2.3.3.4.1.1.3.2.4.2.2.1.3.1.5.1.5 0 .9-.2 1.2-.6l.6.4c-.2.3-.5.5-.8.6-.3.2-.6.2-1 .2-.3 0-.6-.1-.9-.2-.3-.1-.5-.3-.7-.5-.2-.2-.3-.4-.5-.7-.1-.3-.2-.5-.2-.9 0-.1.1-.4.2-.7zm1.1-.3c-.2.2-.4.4-.5.8h2.5c-.1-.3-.2-.6-.4-.8-.2-.2-.5-.3-.8-.3-.3 0-.6.1-.8.3zm4.4.1c-.2.2-.3.4-.3.8v2.4h-.8v-4.1h.8v.5c.1-.2.2-.3.4-.4.2-.1.4-.1.6-.1h.3v.8h-.3c-.3-.2-.5-.1-.7.1z"/></svg>