<svg width="33" height="32" viewBox="0 0 33 32" fill="none" xmlns="http://www.w3.org/2000/svg">
<path d="M2.78892 17.0974V10.9255H1.29883V17.175C1.29883 19.5234 2.94373 21.0761 5.07244 21.0761C6.11744 21.0761 7.02697 20.6685 7.70429 19.9698V20.9014H9.17503V10.9255H7.68494V17.0974C7.68494 18.6889 6.62058 19.7563 5.2466 19.7563C3.85327 19.7369 2.78892 18.7083 2.78892 17.0974ZM10.6458 20.9208H12.0585V20.0086C12.7164 20.6879 13.6453 21.0955 14.6516 21.0955C16.7803 21.0955 18.4639 19.407 18.4639 17.2915C18.4639 15.176 16.7803 13.4874 14.6516 13.4874C13.6453 13.4874 12.7358 13.895 12.0778 14.5743V10.9255H10.6458V20.9208ZM12.0585 17.2915C12.0585 15.8747 13.1809 14.7684 14.5548 14.7684C15.9288 14.7684 17.0512 15.8747 17.0512 17.2915C17.0512 18.6889 15.9288 19.8146 14.5548 19.8146C13.1615 19.8146 12.0585 18.6889 12.0585 17.2915ZM19.3154 17.2721C19.3154 19.4458 20.999 21.0761 23.1664 21.0761C24.4823 21.0761 25.566 20.4938 26.3014 19.5234L25.2564 18.7471C24.7146 19.4652 23.9985 19.8146 23.1664 19.8146C21.9472 19.8146 20.9603 18.9218 20.7668 17.7379H26.6691V17.2721C26.6691 15.0983 25.1403 13.4874 23.0503 13.4874C20.9216 13.4874 19.3154 15.2148 19.3154 17.2721ZM23.0116 14.749C24.0759 14.749 24.9661 15.4865 25.2177 16.6122H20.7861C21.0571 15.4865 21.9472 14.749 23.0116 14.749ZM31.449 14.9237V13.5845H30.9458C30.1524 13.5845 29.5719 13.9532 29.2042 14.5355V13.6427H27.8108V20.9208H29.2429V16.7674C29.2429 15.6418 29.9202 14.9042 30.8684 14.9042H31.449V14.9237Z" fill="#000"/>
</svg>
