<svg xmlns="http://www.w3.org/2000/svg" width="24" height="24" baseProfile="full" viewBox="0 0 24 24"><path d="M17.997 4.22a2.685 2.685 0 0 0-2.68-2.68H4.222a2.685 2.685 0 0 0-2.68 2.68v12.545a2.687 2.687 0 0 0 2.68 2.682h4.825v-1.5H4.22c-.646 0-1.18-.534-1.18-1.182V4.22c0-.647.533-1.18 1.18-1.18h11.096c.647 0 1.18.532 1.18 1.18V6.151l1.5-.001V4.22Z"/><path fill-rule="evenodd" d="M20.41 9.529V8.08a2.685 2.685 0 0 0-2.68-2.68H3.74a.697.697 0 0 1-.698-.697h-1.5c0 1.213.984 2.197 2.198 2.197h13.99c.648 0 1.18.533 1.18 1.18V9.53h1.5ZM15.8 19.125a3.325 3.325 0 1 0 0-6.649 3.325 3.325 0 0 0 0 6.649Zm0 1.5a4.824 4.824 0 1 0 0-9.649 4.824 4.824 0 0 0 0 9.649Z"/><path d="M15.319 13.603a.75.75 0 0 1 .75.75v1.18h1.18a.75.75 0 0 1 0 1.5h-1.93a.75.75 0 0 1-.75-.75v-1.93a.75.75 0 0 1 .75-.75Z"/></svg>
