<svg width="32" height="32" viewBox="0 0 32 32" fill="none" xmlns="http://www.w3.org/2000/svg">
<path d="M29.5896 24.0112L18.6584 5.02746C18.3852 4.56237 17.9952 4.17673 17.5271 3.90879C17.059 3.64084 16.529 3.49988 15.9896 3.49988C15.4502 3.49988 14.9202 3.64084 14.4521 3.90879C13.984 4.17673 13.594 4.56237 13.3209 5.02746L2.38962 24.0112C2.12679 24.4611 1.98828 24.9727 1.98828 25.4937C1.98828 26.0147 2.12679 26.5264 2.38962 26.9762C2.65929 27.4441 3.04858 27.8318 3.51757 28.0996C3.98656 28.3674 4.51835 28.5056 5.05837 28.5H26.9209C27.4605 28.5051 27.9917 28.3667 28.4603 28.099C28.9288 27.8312 29.3177 27.4437 29.5871 26.9762C29.8503 26.5266 29.9893 26.0151 29.9897 25.494C29.9902 24.973 29.8521 24.4613 29.5896 24.0112ZM14.9896 13.5C14.9896 13.2347 15.095 12.9804 15.2825 12.7929C15.4701 12.6053 15.7244 12.5 15.9896 12.5C16.2548 12.5 16.5092 12.6053 16.6967 12.7929C16.8843 12.9804 16.9896 13.2347 16.9896 13.5V18.5C16.9896 18.7652 16.8843 19.0195 16.6967 19.2071C16.5092 19.3946 16.2548 19.5 15.9896 19.5C15.7244 19.5 15.4701 19.3946 15.2825 19.2071C15.095 19.0195 14.9896 18.7652 14.9896 18.5V13.5ZM15.9896 24.5C15.693 24.5 15.4029 24.412 15.1563 24.2472C14.9096 24.0823 14.7173 23.8481 14.6038 23.574C14.4903 23.2999 14.4606 22.9983 14.5184 22.7073C14.5763 22.4164 14.7192 22.1491 14.929 21.9393C15.1387 21.7295 15.406 21.5867 15.697 21.5288C15.988 21.4709 16.2896 21.5006 16.5636 21.6141C16.8377 21.7277 17.072 21.9199 17.2368 22.1666C17.4016 22.4133 17.4896 22.7033 17.4896 23C17.4896 23.3978 17.3316 23.7793 17.0503 24.0606C16.769 24.3419 16.3874 24.5 15.9896 24.5Z" fill="#000"/>
</svg>
