<svg xmlns="http://www.w3.org/2000/svg" width="24" height="24" baseProfile="full" viewBox="0 0 24 24"><path d="M8.743 13.257a6.492 6.492 0 0 1 1.913 4.618 1.031 1.031 0 0 1-2.062 0 4.469 4.469 0 0 0-4.469-4.469 1.031 1.031 0 1 1 0-2.062 6.489 6.489 0 0 1 4.618 1.913ZM4.125 7.219a1.031 1.031 0 1 0 0 2.062 8.594 8.594 0 0 1 8.594 8.594 1.031 1.031 0 1 0 2.062 0A10.656 10.656 0 0 0 4.125 7.219Zm10.452.204a14.682 14.682 0 0 0-10.452-4.33 1.031 1.031 0 1 0 0 2.063 12.633 12.633 0 0 1 8.993 3.726 12.634 12.634 0 0 1 3.726 8.993 1.031 1.031 0 1 0 2.062 0 14.683 14.683 0 0 0-4.33-10.452ZM4.469 16.156a1.375 1.375 0 1 0 0 2.75 1.375 1.375 0 0 0 0-2.75Z"/></svg>
