<svg width="32" height="32" viewBox="0 0 32 32" fill="none" xmlns="http://www.w3.org/2000/svg">
<path d="M8.25879 14.3489V19.0969H23.8633V14.3489L21.3115 8.67993H10.8105L8.25879 14.3489ZM25.8633 19.5969C25.8633 20.4252 25.1915 21.0967 24.3633 21.0969H7.75879C6.93036 21.0969 6.25879 20.4254 6.25879 19.5969V14.2415C6.25884 14.0294 6.30361 13.8196 6.39062 13.6262L9.11914 7.5647C9.36138 7.02646 9.89707 6.67993 10.4873 6.67993H21.6348C22.1882 6.67998 22.6936 6.98431 22.9541 7.46606L23.0029 7.5647L25.7305 13.6262C25.8175 13.8197 25.8632 14.0293 25.8633 14.2415V19.5969Z" fill="#000"/>
<path d="M26.168 12.8887C26.7201 12.8889 27.168 13.3365 27.168 13.8887C27.168 14.4408 26.7201 14.8884 26.168 14.8887H5.83301C5.28072 14.8887 4.83301 14.441 4.83301 13.8887C4.83301 13.3364 5.28072 12.8887 5.83301 12.8887H26.168Z" fill="#000"/>
<path d="M9.93652 21.665H8.25879V22.5049H9.93652V21.665ZM11.9365 22.5049C11.9363 23.6093 11.041 24.5049 9.93652 24.5049H8.25879C7.15433 24.5049 6.25897 23.6093 6.25879 22.5049V19.665H11.9365V22.5049Z" fill="#000"/>
<path d="M23.8613 21.665H22.1836V22.5049H23.8613V21.665ZM25.8613 22.5049C25.8611 23.6093 24.9658 24.5049 23.8613 24.5049H22.1836C21.0791 24.5049 20.1838 23.6093 20.1836 22.5049V19.665H25.8613V22.5049Z" fill="#000"/>
<path d="M22.1777 16.1265C22.73 16.1265 23.1777 16.5742 23.1777 17.1265C23.1777 17.6787 22.73 18.1264 22.1777 18.1265L20.6982 18.1265C20.146 18.1265 19.6982 17.6787 19.6982 17.1265C19.6982 16.5742 20.146 16.1265 20.6982 16.1265L22.1777 16.1265Z" fill="#000"/>
<path d="M11.6426 16.1265C12.1948 16.1265 12.6426 16.5742 12.6426 17.1265C12.6426 17.6787 12.1948 18.1264 11.6426 18.1265L10.1631 18.1265C9.6108 18.1265 9.16309 17.6787 9.16309 17.1265C9.16309 16.5742 9.6108 16.1265 10.1631 16.1265L11.6426 16.1265Z" fill="#000"/>
<path d="M30.249 29.0615C30.249 29.6138 29.8013 30.0615 29.249 30.0615C28.6967 30.0615 28.249 29.6138 28.249 29.0615V4.03516H3.75098V29.0615C3.75098 29.6138 3.30326 30.0615 2.75098 30.0615C2.19869 30.0615 1.75098 29.6138 1.75098 29.0615V3.53516C1.75098 2.70673 2.42255 2.03516 3.25098 2.03516H28.749C29.5775 2.03516 30.249 2.70673 30.249 3.53516V29.0615Z" fill="#000"/>
<path d="M15 29.0615V21.0615C15 20.5092 15.4477 20.0615 16 20.0615C16.5523 20.0615 17 20.5092 17 21.0615V29.0615C17 29.6138 16.5523 30.0615 16 30.0615C15.4477 30.0615 15 29.6138 15 29.0615Z" fill="#000"/>
<path d="M8.46875 28.0615H23.5312C24.0835 28.0615 24.5312 28.5092 24.5312 29.0615C24.5312 29.6138 24.0835 30.0615 23.5312 30.0615H8.46875C7.91647 30.0615 7.46875 29.6138 7.46875 29.0615C7.46875 28.5092 7.91647 28.0615 8.46875 28.0615Z" fill="#000"/>
</svg>
