<svg xmlns="http://www.w3.org/2000/svg" viewBox="0 0 93.15 77.41"><g><g><path d="M31.1 17.09h-.3a2.56 2.56 0 00-2.06 1.54l-3.95 9.22-.11.28a2.59 2.59 0 001.46 3.1l.28.1a2.57 2.57 0 003.1-1.45l3.28-7.66h27.58l3.28 7.66.14.27a2.58 2.58 0 004.6-2.3l-4-9.22-.14-.27a2.57 2.57 0 00-2.23-1.29zM30.08 41.7a3.67 3.67 0 103.67 3.67 3.67 3.67 0 00-3.67-3.67zM63.11 41.7a3.67 3.67 0 103.67 3.67 3.67 3.67 0 00-3.67-3.67z"/><path d="M91.83 15.74L64.27.33 64 .19A2.42 2.42 0 0063 0H29.82a2.49 2.49 0 00-.93.31L1.32 15.74l-.25.16a2.56 2.56 0 00-.74 3.34l.16.26a2.59 2.59 0 003.34.74l1.36-.76v55.65a2.58 2.58 0 002.56 2.28h.3a2.58 2.58 0 002.28-2.56V51.49h7.88V62.1a2.58 2.58 0 002.56 2.28H32.22a2.57 2.57 0 002.27-2.56v-4.9a180.43 180.43 0 0024.15-.1v5a2.58 2.58 0 002.28 2.56h11.41a2.58 2.58 0 002.56-2.28V51.49h7.61v23.64a2.58 2.58 0 005.14-.3V19.32l1.64.92.27.13a2.58 2.58 0 002.24-4.63zM29.34 59.23h-6V55.8c2 .28 3.95.51 6 .71zm-6-8.64V41.7l.19-.3a32.34 32.34 0 012.11-2.67l.69-.78a203.47 203.47 0 0040.31-.1 1 1 0 01.08.11l.7.78a29.48 29.48 0 012.1 2.67l.2.3v8.84a173.53 173.53 0 01-46.34.04zm40.41 8.64v-2.84c2-.19 4-.4 6-.66v3.5zm18.78-12.89h-7.62V41.7c0-1.31-.7-2.73-2.09-4.56l1.47-.14a2.58 2.58 0 00-.68-5.11c-18.52 2.47-37.47 2.57-54.12 0a2.57 2.57 0 10-.78 5.11l1.56.22c-1.36 1.8-2.05 3.22-2.05 4.51v4.64h-7.88V16.6L30.81 5.15h31.52l20.2 11.29z"/></g></g></svg>
