<svg width="40" height="40" viewBox="0 0 40 40" fill="none" xmlns="http://www.w3.org/2000/svg">
<mask id="path-1-outside-1_4071_11997" maskUnits="userSpaceOnUse" x="2.33301" y="2.3335" width="35" height="35" fill="black">
<rect fill="white" x="2.33301" y="2.3335" width="35" height="35"/>
<path d="M36.6636 19.9981V19.9897C36.6636 15.058 34.5165 10.629 31.1071 7.58334L31.0904 7.56945C31.0483 7.52406 31.0013 7.48353 30.9501 7.44863L30.9474 7.44724C27.9193 4.78837 24.0252 3.32567 19.9955 3.33353C15.7847 3.33353 11.9406 4.89735 9.01032 7.47779L9.02837 7.46251C8.99305 7.48931 8.96048 7.51955 8.93116 7.55279C7.16954 9.11271 5.75947 11.0305 4.79436 13.1766C3.82925 15.3226 3.33114 17.6492 3.33301 20.0022C3.33301 24.9326 5.47728 29.3616 8.88394 32.4087L8.9006 32.4225C8.94472 32.4726 8.99407 32.5177 9.04781 32.5573L9.05059 32.5586C12.0779 35.2136 15.969 36.6741 19.9955 36.6668C24.0408 36.673 27.9486 35.1989 30.9821 32.5225L30.964 32.5378C32.7562 30.9796 34.1928 29.0547 35.1765 26.8932C36.1603 24.7317 36.6684 22.3841 36.6663 20.0092V19.9995L36.6636 19.9981ZM30.4669 30.8379C29.6413 30.1701 28.7535 29.5831 27.8157 29.0852L27.7254 29.0407C28.5767 26.5867 29.0892 23.7576 29.1378 20.8147V20.7925H35.0554C34.8558 24.5998 33.2171 28.1891 30.471 30.8337L30.4669 30.8379ZM20.7927 28.7477C22.5745 28.8435 24.2396 29.2352 25.7756 29.8727L25.6756 29.8365C24.4451 32.642 22.7133 34.5697 20.7927 34.9933V28.7477ZM20.7927 27.1589V20.7925H27.5532C27.4996 23.4288 27.0425 26.0414 26.1978 28.5394L26.2519 28.3574C24.5277 27.6487 22.6939 27.2437 20.8315 27.1603L20.7941 27.1589H20.7927ZM20.7927 19.2037V12.8373C22.7052 12.75 24.5881 12.3313 26.3575 11.5998L26.2478 11.6401C27.0185 13.8886 27.4921 16.4802 27.5532 19.1745V19.2037H20.7927ZM20.7927 11.2485V5.00568C22.7133 5.42927 24.4451 7.34863 25.6756 10.1624C24.2396 10.7596 22.5745 11.1499 20.8329 11.2471L20.7927 11.2485ZM24.7562 5.69315C26.3927 6.23901 27.9232 7.06206 29.2808 8.12637L29.2489 8.10138C28.6337 8.58469 27.9435 9.04022 27.2157 9.43604L27.138 9.47493C26.5499 8.08711 25.7414 6.80348 24.7437 5.6737L24.7562 5.68898V5.69315ZM19.2011 5.00984V11.2485C17.4881 11.1611 15.8027 10.7806 14.2182 10.1235L14.3182 10.1596C15.5542 7.35419 17.2832 5.42788 19.2039 5.00429L19.2011 5.00984ZM12.8572 9.47076C12.1044 9.06572 11.3871 8.59787 10.713 8.07221L10.7463 8.09721C12.0644 7.06413 13.547 6.26034 15.132 5.71953L15.2376 5.68759C14.266 6.78676 13.4744 8.03264 12.8919 9.3791L12.8572 9.47076ZM19.2039 12.8359V19.2023H12.4434C12.5045 16.4788 12.978 13.8872 13.803 11.4568L13.7488 11.6387C15.4724 12.3463 17.3052 12.7508 19.1664 12.8345L19.2039 12.8359ZM19.2039 20.7911V27.1575C17.2913 27.2448 15.4084 27.6635 13.6391 28.3949L13.7488 28.3547C12.978 26.1075 12.5045 23.5146 12.4434 20.8203V20.7911H19.2039ZM19.2039 28.7463V34.9891C17.2832 34.5655 15.5514 32.6461 14.321 29.8324C15.757 29.2352 17.4221 28.8463 19.1636 28.7491L19.2039 28.7463ZM15.2459 34.3016C13.6099 33.7574 12.0794 32.9362 10.7213 31.874L10.7546 31.899C11.3698 31.4156 12.0601 30.9601 12.7878 30.5643L12.8655 30.5254C13.4487 31.9138 14.2572 33.1963 15.2584 34.3211L15.2459 34.3072V34.3016ZM27.1394 30.524C27.9448 30.9615 28.6351 31.4156 29.2836 31.9226L29.2503 31.8976C27.9322 32.9306 26.4495 33.7344 24.8645 34.2752L24.759 34.3072C25.7305 33.2085 26.5222 31.9631 27.1046 30.6171L27.1394 30.5268V30.524ZM35.0554 19.2037H29.1378C29.0952 16.3301 28.5993 13.4813 27.6685 10.7624L27.7254 10.954C28.7064 10.4375 29.6352 9.82725 30.4988 9.13189L30.4655 9.15689C33.2059 11.7915 34.8451 15.3675 35.0526 19.1634L35.0554 19.2037ZM9.52972 9.15827C10.3296 9.80825 11.2282 10.4041 12.1809 10.911L12.2712 10.9554C11.4198 13.4095 10.9074 16.2385 10.8588 19.1814V19.2037H4.93982C5.13938 15.3963 6.77807 11.8071 9.52416 9.16244L9.52972 9.15827ZM4.94121 20.7925H10.8588C10.9013 23.666 11.3972 26.5149 12.3281 29.2338L12.2712 29.0421C11.2282 29.5963 10.331 30.1921 9.49778 30.8643L9.53111 30.8393C6.79069 28.2046 5.15142 24.6287 4.94399 20.8328L4.9426 20.7939L4.94121 20.7925Z"/>
</mask>
<path d="M36.6636 19.9981V19.9897C36.6636 15.058 34.5165 10.629 31.1071 7.58334L31.0904 7.56945C31.0483 7.52406 31.0013 7.48353 30.9501 7.44863L30.9474 7.44724C27.9193 4.78837 24.0252 3.32567 19.9955 3.33353C15.7847 3.33353 11.9406 4.89735 9.01032 7.47779L9.02837 7.46251C8.99305 7.48931 8.96048 7.51955 8.93116 7.55279C7.16954 9.11271 5.75947 11.0305 4.79436 13.1766C3.82925 15.3226 3.33114 17.6492 3.33301 20.0022C3.33301 24.9326 5.47728 29.3616 8.88394 32.4087L8.9006 32.4225C8.94472 32.4726 8.99407 32.5177 9.04781 32.5573L9.05059 32.5586C12.0779 35.2136 15.969 36.6741 19.9955 36.6668C24.0408 36.673 27.9486 35.1989 30.9821 32.5225L30.964 32.5378C32.7562 30.9796 34.1928 29.0547 35.1765 26.8932C36.1603 24.7317 36.6684 22.3841 36.6663 20.0092V19.9995L36.6636 19.9981ZM30.4669 30.8379C29.6413 30.1701 28.7535 29.5831 27.8157 29.0852L27.7254 29.0407C28.5767 26.5867 29.0892 23.7576 29.1378 20.8147V20.7925H35.0554C34.8558 24.5998 33.2171 28.1891 30.471 30.8337L30.4669 30.8379ZM20.7927 28.7477C22.5745 28.8435 24.2396 29.2352 25.7756 29.8727L25.6756 29.8365C24.4451 32.642 22.7133 34.5697 20.7927 34.9933V28.7477ZM20.7927 27.1589V20.7925H27.5532C27.4996 23.4288 27.0425 26.0414 26.1978 28.5394L26.2519 28.3574C24.5277 27.6487 22.6939 27.2437 20.8315 27.1603L20.7941 27.1589H20.7927ZM20.7927 19.2037V12.8373C22.7052 12.75 24.5881 12.3313 26.3575 11.5998L26.2478 11.6401C27.0185 13.8886 27.4921 16.4802 27.5532 19.1745V19.2037H20.7927ZM20.7927 11.2485V5.00568C22.7133 5.42927 24.4451 7.34863 25.6756 10.1624C24.2396 10.7596 22.5745 11.1499 20.8329 11.2471L20.7927 11.2485ZM24.7562 5.69315C26.3927 6.23901 27.9232 7.06206 29.2808 8.12637L29.2489 8.10138C28.6337 8.58469 27.9435 9.04022 27.2157 9.43604L27.138 9.47493C26.5499 8.08711 25.7414 6.80348 24.7437 5.6737L24.7562 5.68898V5.69315ZM19.2011 5.00984V11.2485C17.4881 11.1611 15.8027 10.7806 14.2182 10.1235L14.3182 10.1596C15.5542 7.35419 17.2832 5.42788 19.2039 5.00429L19.2011 5.00984ZM12.8572 9.47076C12.1044 9.06572 11.3871 8.59787 10.713 8.07221L10.7463 8.09721C12.0644 7.06413 13.547 6.26034 15.132 5.71953L15.2376 5.68759C14.266 6.78676 13.4744 8.03264 12.8919 9.3791L12.8572 9.47076ZM19.2039 12.8359V19.2023H12.4434C12.5045 16.4788 12.978 13.8872 13.803 11.4568L13.7488 11.6387C15.4724 12.3463 17.3052 12.7508 19.1664 12.8345L19.2039 12.8359ZM19.2039 20.7911V27.1575C17.2913 27.2448 15.4084 27.6635 13.6391 28.3949L13.7488 28.3547C12.978 26.1075 12.5045 23.5146 12.4434 20.8203V20.7911H19.2039ZM19.2039 28.7463V34.9891C17.2832 34.5655 15.5514 32.6461 14.321 29.8324C15.757 29.2352 17.4221 28.8463 19.1636 28.7491L19.2039 28.7463ZM15.2459 34.3016C13.6099 33.7574 12.0794 32.9362 10.7213 31.874L10.7546 31.899C11.3698 31.4156 12.0601 30.9601 12.7878 30.5643L12.8655 30.5254C13.4487 31.9138 14.2572 33.1963 15.2584 34.3211L15.2459 34.3072V34.3016ZM27.1394 30.524C27.9448 30.9615 28.6351 31.4156 29.2836 31.9226L29.2503 31.8976C27.9322 32.9306 26.4495 33.7344 24.8645 34.2752L24.759 34.3072C25.7305 33.2085 26.5222 31.9631 27.1046 30.6171L27.1394 30.5268V30.524ZM35.0554 19.2037H29.1378C29.0952 16.3301 28.5993 13.4813 27.6685 10.7624L27.7254 10.954C28.7064 10.4375 29.6352 9.82725 30.4988 9.13189L30.4655 9.15689C33.2059 11.7915 34.8451 15.3675 35.0526 19.1634L35.0554 19.2037ZM9.52972 9.15827C10.3296 9.80825 11.2282 10.4041 12.1809 10.911L12.2712 10.9554C11.4198 13.4095 10.9074 16.2385 10.8588 19.1814V19.2037H4.93982C5.13938 15.3963 6.77807 11.8071 9.52416 9.16244L9.52972 9.15827ZM4.94121 20.7925H10.8588C10.9013 23.666 11.3972 26.5149 12.3281 29.2338L12.2712 29.0421C11.2282 29.5963 10.331 30.1921 9.49778 30.8643L9.53111 30.8393C6.79069 28.2046 5.15142 24.6287 4.94399 20.8328L4.9426 20.7939L4.94121 20.7925Z" fill="#212338"/>
<path d="M36.6636 19.9981V19.9897C36.6636 15.058 34.5165 10.629 31.1071 7.58334L31.0904 7.56945C31.0483 7.52406 31.0013 7.48353 30.9501 7.44863L30.9474 7.44724C27.9193 4.78837 24.0252 3.32567 19.9955 3.33353C15.7847 3.33353 11.9406 4.89735 9.01032 7.47779L9.02837 7.46251C8.99305 7.48931 8.96048 7.51955 8.93116 7.55279C7.16954 9.11271 5.75947 11.0305 4.79436 13.1766C3.82925 15.3226 3.33114 17.6492 3.33301 20.0022C3.33301 24.9326 5.47728 29.3616 8.88394 32.4087L8.9006 32.4225C8.94472 32.4726 8.99407 32.5177 9.04781 32.5573L9.05059 32.5586C12.0779 35.2136 15.969 36.6741 19.9955 36.6668C24.0408 36.673 27.9486 35.1989 30.9821 32.5225L30.964 32.5378C32.7562 30.9796 34.1928 29.0547 35.1765 26.8932C36.1603 24.7317 36.6684 22.3841 36.6663 20.0092V19.9995L36.6636 19.9981ZM30.4669 30.8379C29.6413 30.1701 28.7535 29.5831 27.8157 29.0852L27.7254 29.0407C28.5767 26.5867 29.0892 23.7576 29.1378 20.8147V20.7925H35.0554C34.8558 24.5998 33.2171 28.1891 30.471 30.8337L30.4669 30.8379ZM20.7927 28.7477C22.5745 28.8435 24.2396 29.2352 25.7756 29.8727L25.6756 29.8365C24.4451 32.642 22.7133 34.5697 20.7927 34.9933V28.7477ZM20.7927 27.1589V20.7925H27.5532C27.4996 23.4288 27.0425 26.0414 26.1978 28.5394L26.2519 28.3574C24.5277 27.6487 22.6939 27.2437 20.8315 27.1603L20.7941 27.1589H20.7927ZM20.7927 19.2037V12.8373C22.7052 12.75 24.5881 12.3313 26.3575 11.5998L26.2478 11.6401C27.0185 13.8886 27.4921 16.4802 27.5532 19.1745V19.2037H20.7927ZM20.7927 11.2485V5.00568C22.7133 5.42927 24.4451 7.34863 25.6756 10.1624C24.2396 10.7596 22.5745 11.1499 20.8329 11.2471L20.7927 11.2485ZM24.7562 5.69315C26.3927 6.23901 27.9232 7.06206 29.2808 8.12637L29.2489 8.10138C28.6337 8.58469 27.9435 9.04022 27.2157 9.43604L27.138 9.47493C26.5499 8.08711 25.7414 6.80348 24.7437 5.6737L24.7562 5.68898V5.69315ZM19.2011 5.00984V11.2485C17.4881 11.1611 15.8027 10.7806 14.2182 10.1235L14.3182 10.1596C15.5542 7.35419 17.2832 5.42788 19.2039 5.00429L19.2011 5.00984ZM12.8572 9.47076C12.1044 9.06572 11.3871 8.59787 10.713 8.07221L10.7463 8.09721C12.0644 7.06413 13.547 6.26034 15.132 5.71953L15.2376 5.68759C14.266 6.78676 13.4744 8.03264 12.8919 9.3791L12.8572 9.47076ZM19.2039 12.8359V19.2023H12.4434C12.5045 16.4788 12.978 13.8872 13.803 11.4568L13.7488 11.6387C15.4724 12.3463 17.3052 12.7508 19.1664 12.8345L19.2039 12.8359ZM19.2039 20.7911V27.1575C17.2913 27.2448 15.4084 27.6635 13.6391 28.3949L13.7488 28.3547C12.978 26.1075 12.5045 23.5146 12.4434 20.8203V20.7911H19.2039ZM19.2039 28.7463V34.9891C17.2832 34.5655 15.5514 32.6461 14.321 29.8324C15.757 29.2352 17.4221 28.8463 19.1636 28.7491L19.2039 28.7463ZM15.2459 34.3016C13.6099 33.7574 12.0794 32.9362 10.7213 31.874L10.7546 31.899C11.3698 31.4156 12.0601 30.9601 12.7878 30.5643L12.8655 30.5254C13.4487 31.9138 14.2572 33.1963 15.2584 34.3211L15.2459 34.3072V34.3016ZM27.1394 30.524C27.9448 30.9615 28.6351 31.4156 29.2836 31.9226L29.2503 31.8976C27.9322 32.9306 26.4495 33.7344 24.8645 34.2752L24.759 34.3072C25.7305 33.2085 26.5222 31.9631 27.1046 30.6171L27.1394 30.5268V30.524ZM35.0554 19.2037H29.1378C29.0952 16.3301 28.5993 13.4813 27.6685 10.7624L27.7254 10.954C28.7064 10.4375 29.6352 9.82725 30.4988 9.13189L30.4655 9.15689C33.2059 11.7915 34.8451 15.3675 35.0526 19.1634L35.0554 19.2037ZM9.52972 9.15827C10.3296 9.80825 11.2282 10.4041 12.1809 10.911L12.2712 10.9554C11.4198 13.4095 10.9074 16.2385 10.8588 19.1814V19.2037H4.93982C5.13938 15.3963 6.77807 11.8071 9.52416 9.16244L9.52972 9.15827ZM4.94121 20.7925H10.8588C10.9013 23.666 11.3972 26.5149 12.3281 29.2338L12.2712 29.0421C11.2282 29.5963 10.331 30.1921 9.49778 30.8643L9.53111 30.8393C6.79069 28.2046 5.15142 24.6287 4.94399 20.8328L4.9426 20.7939L4.94121 20.7925Z" stroke="#212338" stroke-width="0.333333" mask="url(#path-1-outside-1_4071_11997)"/>
</svg>
