<?xml version="1.0" encoding="UTF-8"?>
<svg id="Layer_1" data-name="Layer 1" xmlns="http://www.w3.org/2000/svg" version="1.1" viewBox="0 0 34 34">
  <defs>
    <style>
      .cls-1 {
        fill: #212338;
        stroke-width: 0px;
      }
    </style>
  </defs>
  <path class="cls-1" d="M33.9,16.9c0-4.8-2.1-9.3-5.6-12.5,0,0,0,0-.2-.1C25,1.6,21.1.1,17,.1h0C12.9.1,9,1.6,5.9,4.3c0,0,0,0-.1,0-1.8,1.6-3.2,3.5-4.2,5.7C.6,12.3.1,14.6.1,17c0,4.8,2,9.4,5.6,12.6,0,0,.1.1.2.2h0c3.1,2.7,7,4.1,11,4.1,0,0,0,0,0,0,4.1,0,8-1.5,11.1-4.2h0c1.8-1.6,3.2-3.5,4.2-5.7,1-2.2,1.5-4.5,1.5-7h0c0-.1,0-.1,0-.1ZM27.5,27.6c-.8-.6-1.6-1.2-2.5-1.6.8-2.4,1.3-5.2,1.4-7.9h5.5c-.2,3.6-1.8,7-4.4,9.6ZM22.4,26.9c-1.2,2.6-2.7,4.3-4.4,4.8v-5.8c1.5.1,3,.4,4.4,1ZM24.2,27.8c.6.3,1.2.7,1.7,1.1-1.1.8-2.3,1.5-3.5,2,.7-.9,1.4-2,1.9-3.1ZM18,24v-6h6.4c0,2.4-.5,4.8-1.2,7.1-1.6-.6-3.3-1-5.1-1.1ZM24.3,16h-6.4v-6c1.8-.1,3.5-.5,5.1-1.1.7,2.2,1.1,4.6,1.2,7.1ZM24.2,6.2c-.5-1.1-1.1-2.1-1.8-3.1,1.3.5,2.4,1.2,3.5,2-.5.4-1.1.8-1.7,1.1ZM26.3,16c0-2.7-.5-5.4-1.4-8,.9-.5,1.7-1,2.5-1.6,2.6,2.6,4.1,5.9,4.4,9.6h-5.5ZM18,8V2.3c1.7.5,3.2,2.2,4.4,4.8-1.4.5-2.9.9-4.4,1ZM9.8,6.2c-.6-.3-1.1-.7-1.7-1.1,1.1-.8,2.3-1.5,3.5-2-.7.9-1.4,2-1.9,3.1ZM16,10v6h-6.4c0-2.4.5-4.8,1.2-7.1,1.6.7,3.4,1,5.1,1.1ZM11.6,7.1c1.2-2.6,2.7-4.3,4.4-4.8v5.8c-1.5,0-3-.4-4.4-1ZM9.6,18h6.4v6c-1.8.1-3.5.5-5.1,1.1-.7-2.2-1.1-4.6-1.2-7.1ZM9.8,27.8c.5,1.1,1.1,2.1,1.8,3.1-1.3-.5-2.4-1.1-3.5-2,.5-.4,1.1-.8,1.7-1.1ZM16,26v5.8c-1.7-.5-3.2-2.2-4.4-4.8,1.4-.5,2.9-.9,4.4-1ZM2.2,16c.2-3.6,1.8-7,4.4-9.6.8.6,1.6,1.2,2.5,1.6-.8,2.4-1.3,5.2-1.4,7.9H2.2ZM6.5,27.6c-2.6-2.5-4.1-5.9-4.4-9.6h5.5c0,2.7.5,5.4,1.4,8-.9.5-1.7,1-2.5,1.6Z"/>
</svg>