<?xml version="1.0" encoding="UTF-8"?>
<svg id="uuid-b068464e-cfdd-4fef-af6e-be74fc664016" data-name="World" xmlns="http://www.w3.org/2000/svg" viewBox="0 0 33.8 33.8">
  <path d="M33.8,16.8c0-4.8-2.1-9.3-5.6-12.5l-.2-.1C24.9,1.5,21,0,16.9,0h0c-4.1,0-8,1.5-11.1,4.2h-.1c-1.8,1.6-3.2,3.5-4.2,5.7-1,2.3-1.5,4.6-1.5,7,0,4.8,2,9.4,5.6,12.6l.2.2h0c3.1,2.7,7,4.1,11,4.1h0c4.1,0,8-1.5,11.1-4.2h0c1.8-1.6,3.2-3.5,4.2-5.7s1.5-4.5,1.5-7h0v-.1h.2ZM27.4,27.5c-.8-.6-1.6-1.2-2.5-1.6.8-2.4,1.3-5.2,1.4-7.9h5.5c-.2,3.6-1.8,7-4.4,9.6v-.1ZM22.3,26.8c-1.2,2.6-2.7,4.3-4.4,4.8v-5.8c1.5.1,3,.4,4.4,1ZM24.1,27.7c.6.3,1.2.7,1.7,1.1-1.1.8-2.3,1.5-3.5,2,.7-.9,1.4-2,1.9-3.1h-.1ZM17.9,23.9v-6h6.4c0,2.4-.5,4.8-1.2,7.1-1.6-.6-3.3-1-5.1-1.1h-.1ZM24.2,15.9h-6.4v-6c1.8-.1,3.5-.5,5.1-1.1.7,2.2,1.1,4.6,1.2,7.1h.1ZM24.1,6.1c-.5-1.1-1.1-2.1-1.8-3.1,1.3.5,2.4,1.2,3.5,2-.5.4-1.1.8-1.7,1.1ZM26.2,15.9c0-2.7-.5-5.4-1.4-8,.9-.5,1.7-1,2.5-1.6,2.6,2.6,4.1,5.9,4.4,9.6h-5.5ZM17.9,7.9V2.2c1.7.5,3.2,2.2,4.4,4.8-1.4.5-2.9.9-4.4,1v-.1ZM9.7,6.1c-.6-.3-1.1-.7-1.7-1.1,1.1-.8,2.3-1.5,3.5-2-.7.9-1.4,2-1.9,3.1h.1ZM15.9,9.9v6h-6.4c0-2.4.5-4.8,1.2-7.1,1.6.7,3.4,1,5.1,1.1h.1ZM11.5,7c1.2-2.6,2.7-4.3,4.4-4.8v5.8c-1.5,0-3-.4-4.4-1ZM9.5,17.9h6.4v6c-1.8.1-3.5.5-5.1,1.1-.7-2.2-1.1-4.6-1.2-7.1h-.1ZM9.7,27.7c.5,1.1,1.1,2.1,1.8,3.1-1.3-.5-2.4-1.1-3.5-2,.5-.4,1.1-.8,1.7-1.1ZM15.9,25.9v5.8c-1.7-.5-3.2-2.2-4.4-4.8,1.4-.5,2.9-.9,4.4-1ZM2.1,15.9c.2-3.6,1.8-7,4.4-9.6.8.6,1.6,1.2,2.5,1.6-.8,2.4-1.3,5.2-1.4,7.9H2.1v.1ZM6.4,27.5c-2.6-2.5-4.1-5.9-4.4-9.6h5.5c0,2.7.5,5.4,1.4,8-.9.5-1.7,1-2.5,1.6Z" />
</svg>
