<svg width="32" height="32" viewBox="0 0 32 32" fill="none" xmlns="http://www.w3.org/2000/svg">
<path d="M12.9372 20.4401V11.5601L20.7688 16.0003L12.9372 20.4401ZM30.3578 8.76593C30.0132 7.47272 28.9978 6.45437 27.7087 6.10875C25.372 5.48064 16.0018 5.48064 16.0018 5.48064C16.0018 5.48064 6.63162 5.48064 4.29484 6.10875C3.00563 6.45437 1.99024 7.47272 1.64567 8.76593C1.01953 11.1098 1.01953 16.0001 1.01953 16.0001C1.01953 16.0001 1.01953 20.8903 1.64567 23.2343C1.99024 24.5275 3.00563 25.5458 4.29484 25.8916C6.63162 26.5195 16.0018 26.5195 16.0018 26.5195C16.0018 26.5195 25.372 26.5195 27.7087 25.8916C28.9978 25.5458 30.0132 24.5275 30.3578 23.2343C30.984 20.8903 30.984 16.0001 30.984 16.0001C30.984 16.0001 30.984 11.1098 30.3578 8.76593Z" fill="#000"/>
</svg>
