<svg width="32" height="32" viewBox="0 0 32 32" fill="none" xmlns="http://www.w3.org/2000/svg">
<rect x="3" y="3" width="26" height="26" rx="3" fill="#000" stroke="#000" stroke-width="2"/>
<path d="M13.9556 18.9632V13.0368L19.1823 16.0001L13.9556 18.9632ZM25.5819 11.172C25.3519 10.309 24.6742 9.62933 23.8139 9.39867C22.2544 8.97948 16.0009 8.97948 16.0009 8.97948C16.0009 8.97948 9.74738 8.97948 8.18784 9.39867C7.32745 9.62933 6.64979 10.309 6.41983 11.172C6.00195 12.7363 6.00195 16 6.00195 16C6.00195 16 6.00195 19.2637 6.41983 20.828C6.64979 21.691 7.32745 22.3707 8.18784 22.6014C9.74738 23.0205 16.0009 23.0205 16.0009 23.0205C16.0009 23.0205 22.2544 23.0205 23.8139 22.6014C24.6742 22.3707 25.3519 21.691 25.5819 20.828C25.9998 19.2637 25.9998 16 25.9998 16C25.9998 16 25.9998 12.7363 25.5819 11.172Z" fill="white"/>
</svg>
